<svg id="Layer_1" data-name="Layer 1" xmlns="http://www.w3.org/2000/svg" viewBox="0 0 359.03 482.63"><path d="M282.72,112.8" transform="translate(-60.61 -8.08)"/><path d="M285.51,138.11a25.18,25.18,0,0,1-2.21,5.26,9.21,9.21,0,0,1-4.29,3.84,6.21,6.21,0,0,1-2.92.45c-1-.06-1.93-.27-2.85-.4-1.85-.29-3.74-.39-5.64-.6a21.34,21.34,0,0,1-5.6-1.37c-1.79-.73-3.46-1.61-5.2-2.31s-3.07-1.88-4.9-2.37a32.32,32.32,0,0,0-5.8-.67c2.48-.11,5.42-.4,7.7.75,2.76,1.38,5.58,2.8,8.47,3.91a20.43,20.43,0,0,0,5.43,1.25c1.86.24,3.76.36,5.66.68.95.15,1.86.36,2.77.43a6.15,6.15,0,0,0,2.66-.33,8.87,8.87,0,0,0,4.18-3.47A28.42,28.42,0,0,0,285.51,138.11Z" transform="translate(-60.61 -8.08)"/><path d="M230.85,342.08c-1.18-.18-18.11-6.06-18.48-6.51a14.63,14.63,0,0,1-1.94-4.17S231.44,342.16,230.85,342.08Z" transform="translate(-60.61 -8.08)"/><path d="M368.31,441.4c-.12-2-3.71-13.67-3.95-15.36s-2.45-14.09-3-15.82-1.07-3.43-1.66-5.12c-1.17-3.37-9.63-33.85-10.52-35.32-4.24-7-15.24-11.34-21.3-16.67a36.13,36.13,0,0,1-4.47-4.45,15.37,15.37,0,0,1-1.87-3c-.29-.61-.54-2.18-1-2.6s-2.42.23-3,.36c-1.16.25-2.32.55-3.49.76-2.78.49-5.57.94-8.34,1.45-.44.08-.88.15-1.31.25-9.51,2.29-12.53.46-18.79.3-.12,0-7.62,1.11-7.56,1.23,1.73,3.21,3,6,5.44,8.88,1.22,1.44,12.79,12.87,15.22,15.6,1.2,1.36,6.13,6.8,7.52,8.13a20.67,20.67,0,0,0,4.85,3.6c.9.48,4.15,1.7,4.83,2.1,2.72,1.66,5.06,4.3,7.6,6.95,5,5.24,9.82,10.45,12.59,16.67,1.46,3.1,7.67,27.37,8.3,30.91.31,1.78,1.41,9,1.57,10.61a10.44,10.44,0,0,1-.35,4.42c-.42,1.19-4,4.93-4.65,5.63s-4.14,5.18-5.16,6.76c-2.06,3.14-6.94,13.08-7.69,14.75l-.56,1.24c-.19.43-.38.8-.59,1.34a5.38,5.38,0,0,0-.38,1.77,3.15,3.15,0,0,0,.2,1.16,2.43,2.43,0,0,0,.81,1.09l.43.33.48-.07a96,96,0,0,0,20.66-5.36,15.17,15.17,0,0,0,4.8-2.76,12.45,12.45,0,0,0,3-4.67l4-9.78c1.39-3.24,5.89-17.79,6.48-19.57A14.89,14.89,0,0,0,368.31,441.4Z" transform="translate(-60.61 -8.08)"/><path d="M217.16,88.34A21.48,21.48,0,0,0,214.22,85a19.34,19.34,0,0,0-1.72-1.42c-.57-.45-1.15-.92-1.76-1.35a10.36,10.36,0,0,0-1.94-1.13,5.26,5.26,0,0,0-2.21-.41,19.1,19.1,0,0,0-4.39.73A36.17,36.17,0,0,0,194,84.82l-.45.24.35.36c1.19,1.21,2.37,2.43,3.58,3.63a20.71,20.71,0,0,0,1.92,1.69l1,.81a6.59,6.59,0,0,0,3.72,1.36c.89,0,1.71-.16,2.57-.25a16.15,16.15,0,0,0,4.86-1.5,0,0,0,0,0,0,0s0,0,0,0a18.34,18.34,0,0,1-4.9,1.06l-1.25.06a10.29,10.29,0,0,1-1.23,0,5.46,5.46,0,0,1-2.25-.69,10.35,10.35,0,0,1-1.95-1.48c-.62-.55-1.28-1-1.86-1.66-1.06-1.07-2.15-2.12-3.24-3.18,1.28-.72,2.58-1.42,3.9-2,0,0,0,0,0,0A20.09,20.09,0,0,0,201.06,87a6.91,6.91,0,0,0,1.71,1.5,4.83,4.83,0,0,0,2.28.43,5,5,0,0,0,2.17-.67c.66-.34,1.27-.74,1.89-1.13s1.22-.79,1.81-1.21,1.23-.85,1.78-1.17h0l.13-.07c.3.27.6.54.9.83.52.51,1,1,1.48,1.59s1,1.1,1.39,1.69a78.42,78.42,0,0,1,4.74,7.41,0,0,0,0,0,0,0s0,0,0,0A40.56,40.56,0,0,0,217.16,88.34Z" transform="translate(-60.61 -8.08)"/><path d="M280.85,133.71l5-5.52c-.48-.8-1.32-1.69-2.3-1.09a5.76,5.76,0,0,0-1.86,2.66c-.26.6-1.19,3.3-1.23,3.54C280.36,133.92,280.62,133.83,280.85,133.71Z" transform="translate(-60.61 -8.08)"/><path d="M279,133.49c.16,0,.09-.27,0-.35-.32-.54-.61-1.09-.92-1.64-.68-1.22-2.67-5.74-7.25-4.89s-6.09,4.94-3.37,4.89c.63,0,1.25,0,1.87,0s1.53.06,2.29.13,1.66.17,2.48.3,1.66.31,2.47.53c.34.1.67.2,1,.32l.48.17a2.39,2.39,0,0,1,.49.28l.25.16S278.92,133.49,279,133.49Z" transform="translate(-60.61 -8.08)"/><path d="M266.24,127.18a5.3,5.3,0,0,1,1.21-2.48,8.16,8.16,0,0,1,2.19-1.76,6.6,6.6,0,0,1,2.73-.84,4.66,4.66,0,0,1,1.48.15,6.77,6.77,0,0,1,1.34.52,18.43,18.43,0,0,1,2.36,1.49,7.09,7.09,0,0,0,2.22,1.31c.77.2,1.59-.32,2.39-.72a5.79,5.79,0,0,1,1.28-.54,1.66,1.66,0,0,1,1.36.18,1.63,1.63,0,0,0-1.3,0,5.61,5.61,0,0,0-1.17.65,7.84,7.84,0,0,1-1.19.72,2.45,2.45,0,0,1-1.47.26,6.51,6.51,0,0,1-2.56-1.24,20.64,20.64,0,0,0-2.28-1.38,4.63,4.63,0,0,0-2.42-.62,6.67,6.67,0,0,0-2.49.62,7.65,7.65,0,0,0-2.18,1.48A5.72,5.72,0,0,0,266.24,127.18Z" transform="translate(-60.61 -8.08)"/><path d="M413.87,381.17a81.54,81.54,0,0,1,.92,8.36,42.68,42.68,0,0,1-.38,8.31c-.78,3.47-1.62,6.94-2.17,10.5a41.39,41.39,0,0,0-.38,10.84v.06c.83,4.3,1.91,8.53,3,12.76s2.14,8.42,2.91,12.68a62.15,62.15,0,0,1,1.13,12.9c-.11,3.52-2.07,13-1.88,13a67.18,67.18,0,0,0,2.57-13,62.44,62.44,0,0,0-.79-13.1c-.68-4.33-1.61-8.6-2.62-12.84s-2-8.43-2.84-12.68a40.23,40.23,0,0,1,.26-10.45c.51-3.5,1.31-7,2.06-10.45v0l.2-8.59A79.59,79.59,0,0,0,414.7,381c-.5-2.79-1.1-5.54-1.62-8.31s-1-5.55-1.27-8.36a.09.09,0,0,0-.09-.07.09.09,0,0,0-.08.08,82.42,82.42,0,0,0,.9,8.44Z" transform="translate(-60.61 -8.08)"/><path d="M358.32,173.36c25.84,12.32,38.77,37.22,39.6,38.74a88.49,88.49,0,0,1,4.59,9.32c2.73,6.38,6.7,26.83,7.12,30.19s2.83,21,3.71,26.5,1.54,11.31,2.18,16.71c.11,1,.2,1.95.25,2.93.13,3,.47,5.38,0,8.31-.13.81-.27,1.63-.41,2.44,0,0-3.53-9.84-3.38-7.35.21,3.51.1,16.17,0,20.09-.27-3.91-.68-7.81-1.2-11.68s-1.41-17.64-1.41-17.64,3.79,7.53,4.78,8.95q-2-13.11-3.72-24c-4.47-28.21-7.6-45.24-9.71-51C390.21,197.56,363.94,177.21,358.32,173.36Z" transform="translate(-60.61 -8.08)"/><path d="M272.68,16.8a35.23,35.23,0,0,0-5.79-4.38l-.78-.48-.81-.42c-.54-.27-1.07-.57-1.62-.82a35,35,0,0,0-3.4-1.3,26.11,26.11,0,0,0-7.17-1.28,22.65,22.65,0,0,0-7.23.81l-1.74.56c-.58.19-1.12.49-1.68.73l-.82.38c-.28.14-.52.32-.79.47l-1.54,1A28.62,28.62,0,0,0,234,17a56.39,56.39,0,0,0-7.29,12.26c-2,4.29-1.72,4.42.43.2a56.4,56.4,0,0,1,7.51-11.9,28.51,28.51,0,0,1,5.22-4.6L241.4,12a7.94,7.94,0,0,1,.75-.42l.8-.34c.53-.22,1.05-.48,1.59-.65l1.66-.49c14.67-3,30.46,6.31,37.55,25.79-.76-3.65-1.23-4-2.71-7.48A35.44,35.44,0,0,0,272.68,16.8Z" transform="translate(-60.61 -8.08)"/><path d="M352,129.25c0-1.07-.11-2.14-.23-3.21a44.54,44.54,0,0,0-1.51-7.31,51.92,51.92,0,0,0-2.58-6.86,54.94,54.94,0,0,0-3.46-6.35,65.52,65.52,0,0,0-4.32-6c-.88-1.09-1.79-2.17-2.74-3.21a51.42,51.42,0,0,0-5.37-5.17,42.34,42.34,0,0,0-6-4.29c-1.79-1-4.65-2.51-6.63-1.15-1.43,1-1.52,2.93-1.43,4.49a20.74,20.74,0,0,0,1.91,7.11,72.2,72.2,0,0,0,3.41,6.45,55.83,55.83,0,0,1,3.27,6.34,31,31,0,0,1,2.17,14.33,22.4,22.4,0,0,1-.76,4.3,20.89,20.89,0,0,1-2.62,5.89,17.46,17.46,0,0,1-3.43,3.89,20,20,0,0,1-4.7,2.88,19.43,19.43,0,0,1-7.32,1.69,19.1,19.1,0,0,1-7.34-1.13,16.75,16.75,0,0,1-5.79-3.6,23,23,0,0,1-5.61-9.64c-.15-.45-.29-.91-.42-1.37a64.09,64.09,0,0,1-1.49-6.85q-.62-3.48-1.06-7a246.52,246.52,0,0,1-1.74-28.25c-.06-4.73-.06-9.46-.07-14.2s0-9.47-.15-14.23c-.07-2.15-.2-4.29-.37-6.44a29.56,29.56,0,0,0-.93-6.69,23.72,23.72,0,0,0-1.18-3.07c-1-2.15-2.71-4.44-5.29-4.64-2.34-.18-4.53,1.29-6.22,2.74a43,43,0,0,0-4.6,4.94c-4.56,5.47-7.17,11.5-7.79,15.48,0,.21-.28,1.22-.05,1.44s.95-.5,1.11-.69a8.47,8.47,0,0,1,1.27-1.27,14.16,14.16,0,0,1,4.53-1.9l.73-.22a33.27,33.27,0,0,1,5.19-1.26,3,3,0,0,1,1.28,0,1.59,1.59,0,0,1,.91.7,2.69,2.69,0,0,1,.08,2.43,14.64,14.64,0,0,1-1.41,2.37l-1.59,2.35-3.11,4.76a23.16,23.16,0,0,0-1.49,2.45,6.61,6.61,0,0,0-.6,2.83A105.39,105.39,0,0,0,267,84.5a37.16,37.16,0,0,0,1.08,5.62,31.54,31.54,0,0,0,2.08,5.35c1.7,3.41,3.44,6.76,5.21,10.11a111.69,111.69,0,0,0,5.59,9.94c1.52,2.27,3.47,4.2,4.9,6.53a9.48,9.48,0,0,1,1.6,3.65c.44,2.9-.28,5.87-.93,8.68-.36,1.51-.76,3-1.24,4.48a14.33,14.33,0,0,1-3.14,5.75,10.76,10.76,0,0,1-2.32,1.76,11.94,11.94,0,0,1-1.35.65c-.23.09-.55.13-.64.38-.14.41.26,1.12.37,1.5a4.67,4.67,0,0,1,.12,2.46,6.2,6.2,0,0,1-2.2,3,11.19,11.19,0,0,1-3.28,1.77,21.05,21.05,0,0,1-4.65,1,39.59,39.59,0,0,1-6.16.13c-.58,0-1.15-.09-1.73-.11a31.6,31.6,0,0,0,3.14,2.74q2,1.69,4.16,3.32c1.45,1.12,2.92,2.2,4.43,3.24A45.25,45.25,0,0,0,276,169a38.52,38.52,0,0,0,5.54,2.35,54.34,54.34,0,0,0,7.19,2,59.28,59.28,0,0,0,7.38,1,62.26,62.26,0,0,0,7.48.15,66.77,66.77,0,0,0,7.47-.75,63.36,63.36,0,0,0,7.32-1.63,52.13,52.13,0,0,0,6.18-2.19,48.09,48.09,0,0,0,11.05-6.59,45.31,45.31,0,0,0,9-9.55,42.45,42.45,0,0,0,3.51-6.06,39.3,39.3,0,0,0,2.52-6.74A40.92,40.92,0,0,0,352,129.25Z" transform="translate(-60.61 -8.08)"/><path d="M410.81,459.08c.88-5.62,2.08-12.38.81-18a31.64,31.64,0,0,0-3-7.21,71.15,71.15,0,0,0-3.84-7.15c-1.49-2.26-2.54-5-4.48-6.89-13.12-12.92-5.58-15-1.8-17.12,1-.57.46-2.77-1.21-6.1-1.27-2.54-1.62-5.62-1.93-8.41a101.21,101.21,0,0,1-.55-12.19c0-3.83.11-7.67.53-11.49a31.91,31.91,0,0,1,2.32-10.07c.6-1.29,1.62-2.23,1.91-3.66a35.3,35.3,0,0,0,.39-7.19c0-5.49-.43-11-.88-16.45-.56-6.82-1.28-13.62-2.09-20.41s-1.74-13.77-2.78-20.64c-.86-5.73-1.8-11.46-2.94-17.14q-.42-2.08-.9-4.14c-2.77-11.31-17.45-9.63-18.28-15a.25.25,0,0,0-.26-.21.25.25,0,0,0-.22.27,65,65,0,0,1-.67,16,52,52,0,0,1-2,7.72,51.07,51.07,0,0,1-7.35,13.93c-.79,1.08-1.6,2.08-2.47,3.23a20,20,0,0,0-1.17,1.86l-1,1.8c-1.3,2.38-2.57,4.71-4,6.89a28.23,28.23,0,0,1-4.83,5.82,11.86,11.86,0,0,1-2.88,1.92,6.71,6.71,0,0,1-3,.72,31.54,31.54,0,0,1-3.74-.29c-1.29-.17-2.6-.37-3.91-.58l-15.86-2.65c-5.32-.86-10.64-1.75-16-2.52-2.67-.4-5.36-.75-8.05-1.1s-5.36-.69-8.15-.79a.24.24,0,0,0-.24.16.25.25,0,0,0,.16.31h0c10.27,3.34,20.74,6.28,31.33,8.63a159.29,159.29,0,0,0,16.1,2.83c1.37.16,2.74.3,4.14.39a36.57,36.57,0,0,0,4.35.07,11.52,11.52,0,0,0,4.75-1.39,15.86,15.86,0,0,0,3.71-2.74c2.15-2.09,2,2.55,4.17,7.22,1.3,2.85,3.66,5.52,5.32,8.2,1,1.6,2,3.23,2.9,4.89s1.61,3.27,2.58,4.82c1.13,1.81,2.85,3.17,4,5s.43,4.15,0,6.18a30.47,30.47,0,0,1-6,12.47l-2.46,3c-1.11,1.36-2.69,2.66-3.51,4.21-.65,1.26-.06,2.67.26,3.93a68.87,68.87,0,0,0,7.69,18.13c2,3.32,2.24,6.53,4.44,9.69s6.28,6.29,8.43,9.46l0,0,0,0a63.11,63.11,0,0,0,8.66,8.33c1.55,1.26,3.13,2.47,4.72,3.67l2.38,1.79,1.18.89c.39.29.72.61,1.09.91a17,17,0,0,1,5.31,9.78,31.85,31.85,0,0,1-.22,11.51,64.78,64.78,0,0,1-3.27,11.27c-.69,1.84-1.5,3.64-2.19,5.54a56.29,56.29,0,0,0-1.78,5.75,34.38,34.38,0,0,0-1.05,12,25,25,0,0,0,1.34,5.9c.38,1.08,2.87,5.6,4.73,5.2a10.39,10.39,0,0,0,1.78-.61,16.29,16.29,0,0,0,3.26-1.76,44.73,44.73,0,0,0,6.15-6.08c-.14-.24-1.82,1.33-1.91,1.07-1.21,0-2-6.53-1.13-9.53A125,125,0,0,0,410.81,459.08Z" transform="translate(-60.61 -8.08)"/><path d="M324.62,342.08a47.36,47.36,0,0,0,7.86-4.77,19.18,19.18,0,0,0,5.64-6.25c.16-.3.3-.6.43-.91l.18-.45c0-.12.08-.25.11-.37a6.45,6.45,0,0,0,.13-1.85,18.66,18.66,0,0,1,0-2.55,9.09,9.09,0,0,1,.72-2.66,5.28,5.28,0,0,1,.82-1.31,5.06,5.06,0,0,1,1.1-.95c.76-.49,1.39-.81,2.09-1.21,1.39-.74,2.78-1.49,4.26-2.11a46.65,46.65,0,0,1-3.23,3.49c-.54.54-1.19,1.11-1.65,1.6a3,3,0,0,0-.81,1.47,8.78,8.78,0,0,0-.21,1.9c0,.62.1,1.3.19,2.12a9.27,9.27,0,0,1-.07,2.81,5.38,5.38,0,0,1-.21.76l-.23.63c-.17.42-.35.82-.55,1.21a16.92,16.92,0,0,1-7.29,7A20.57,20.57,0,0,1,324.62,342.08Z" transform="translate(-60.61 -8.08)"/><path d="M233.61,381.32c-.12,2.73-.11,5.47,0,8.21.07,1.37.49,6.82.8,8.1a10.74,10.74,0,0,0,1.5,3.55c.71,1.1,8.59,13.12,8.9,18.84.12,2.21.51,4.7.51,6.91a95.88,95.88,0,0,1-1.67,15.93c-.27,1.63-.59,3.25-.82,4.89a15.23,15.23,0,0,0-.22,2.13,21.06,21.06,0,0,0,1.19,5.58c.6,2.2,1.14,4.42,1.57,6.66.95,4.91,1.73,9.81,1.73,9.81.08.33,1.12,7.67,2.15,9.83a6.19,6.19,0,0,0,5.08,2.91c.51-.07,12.19.27,12.29-14.42.37-4.68.19-5.85.39-8.63l.07-8.06c-.14-5-.08-9.94-.67-14.92a18.88,18.88,0,0,0-1.71-6.62c-1.08-2.07-2.12-4.16-3.09-6.29l0,0a.13.13,0,0,1-.16-.05,53.63,53.63,0,0,1-6.21-36.37c.21-1,.38-2.08.66-3.09s.52-2.05.86-3.05c.63-2.05,1.3-3.92,1.92-5.89.11-.33.2-.66.3-1C234.37,360.08,233.74,378.6,233.61,381.32Z" transform="translate(-60.61 -8.08)"/><path d="M171.66,343.77l0,.06v0Z" transform="translate(-60.61 -8.08)"/><path d="M154.35,59.44a3.39,3.39,0,0,1,1-1.6,3.27,3.27,0,0,1,1.74-.7A7.23,7.23,0,0,1,161,58a27.41,27.41,0,0,1,3.49,2.17c1.13.79,2.22,1.62,3.29,2.51s2.11,1.8,3.16,2.74S173,67.3,174,68.23a15.37,15.37,0,0,1,2.53,2.93c.73,1.19,1.43,2.38,2.09,3.6a79.37,79.37,0,0,1,3.49,7.64.13.13,0,0,0,.13.08.13.13,0,0,0,.11-.14,33.09,33.09,0,0,0-2-8.38,42.69,42.69,0,0,0-1.78-4,14.42,14.42,0,0,0-2.77-3.65c-1.08-1-2.16-1.94-3.26-2.84s-2.23-1.79-3.4-2.63a27.32,27.32,0,0,0-7.69-4.09,9.85,9.85,0,0,0-4.45-.47,4.39,4.39,0,0,0-2.1,1,4.84,4.84,0,0,0-1.29,1.89,17.26,17.26,0,0,0-.63,2.1l-.56,2.06a25.16,25.16,0,0,0-.83,4.3A12,12,0,0,0,154,76.24a20.75,20.75,0,0,0,6.91,5.27.12.12,0,0,0,.14,0,.14.14,0,0,0,0-.18c-2-2-4.11-3.93-5.52-6.17a10.85,10.85,0,0,1-.9-1.72,9.47,9.47,0,0,1-.6-1.82,19.93,19.93,0,0,1-.43-3.91c0-1.34,0-2.73.12-4.13A22.85,22.85,0,0,1,154.35,59.44Z" transform="translate(-60.61 -8.08)"/><path d="M282.47,257c-.19-4.16-1.58-4.94-1.23-9a2.7,2.7,0,0,0,0-.63c1.42-3-16.46-7.07-24.25-12.49a6.78,6.78,0,0,1,.27-6.48,16,16,0,0,0,2.11-6.7l-8.32-7.52s10.58-33.06,9.6-39.64c0-.1-8.35,26.87-11.59,34-32.66,56.48-25.57,31.6-26.74,33.06-3.46,4.34-6.3,8.58-10.74,12-5.85,4.55-12.6,8.16-19.22,11.44-1.66.82-18.58,9.18-19.08,4.48a1.75,1.75,0,0,1,0-.39c5.67-35.92-13.23-24.55-12.76-33.36,3.15-59.84-6.33-28.27-5.33-33.33,1.26-6.35,0-9.87,3-14.67a71.85,71.85,0,0,0,8.48-3.24,57.47,57.47,0,0,0,10.71-6.31c.65-.49,1.27-1,1.89-1.54,1.16,4,5.38,20.73,3,27.78-2.1,6.3,15.32-11.19,11.37.61-2.22,6.64-1.48,5.46-7.37,12.2-18.79,21.52,17.53-6,26.85-18.17,3.5-4.57-3,11.46-2.94,15.32,11-10.9,15.66-35.66,16.16-35.66s1.71,9.33,2.1,9.22l1-2.16c1-2.32,2-4.65,2.94-7,.81-2,1.59-4,2.32-6.09.62-1.72,1.21-3.46,1.74-5.21.39-1.29.79-2.57,1.12-3.88.24-.94.47-1.85.73-2.79a10.53,10.53,0,0,1,1.58-2.87,4.57,4.57,0,0,1,1.11-1.17,5.26,5.26,0,0,1,1.71-.54,7.73,7.73,0,0,1,2-.17c1,.06,2,.2,3.06.27s2.09.14,3.12.25c1.35.15,2.69.34,4,.52,2.72.36,5.45.72,8.2.83a25.17,25.17,0,0,0,8.23-.76,13.73,13.73,0,0,0,3.78-1.71,9.5,9.5,0,0,0,2.88-2.94.12.12,0,0,0,0-.16.11.11,0,0,0-.17,0,9.13,9.13,0,0,1-2.67,2.69,15,15,0,0,1-3.81,1.72,24.94,24.94,0,0,1-8.2.68c-4.51-.62-10.26-1.76-15.94-2.56-2.73-.38-5.57-1.17-8.37-.64a21.34,21.34,0,0,0-4.12,1.2c-1.31.54-2.53,1.18-3.73,1.75a23.75,23.75,0,0,1-3.52,1.44,1.81,1.81,0,0,1-1.19,0,3,3,0,0,1-1.13-.84,15.09,15.09,0,0,1-1.92-3.13,20.88,20.88,0,0,1-1.32-3.59,22.05,22.05,0,0,1-.67-7.63A13.34,13.34,0,0,1,222,140a5.89,5.89,0,0,1,2.05-2.76,5.7,5.7,0,0,1,3.4-.84,35.17,35.17,0,0,1,3.94.44c2.69.38,5.4.59,8.11.72.34,0,.66,0,1,0a2.24,2.24,0,0,0,1.18-.29,1.53,1.53,0,0,0,.69-1.13,3.09,3.09,0,0,0-.13-1.15c-.47-1.35-1-2.53-1.55-3.79-1.08-2.49-2.26-4.92-3.51-7.33-1.16-2.21-2.55-4.56-2.7-7.12a3.61,3.61,0,0,1,1.37-3.31c1.36-1,3.9-1.55,5.45-.89,1.28.54,2.58,1,3.88,1.47a27,27,0,0,0,4.68,1.3,7,7,0,0,0,2.66,0,8.47,8.47,0,0,0,2.39-1c1.37-.85,2.64-1.71,3.91-2.68.63-.48,1.25-1,1.85-1.5,1.59-1.39,2.13-2.24,4.41-2.45,1.76-.15,4.09-.88,2.38-.63-1.12.17-4.75,0-6.07.77s-2.18,1.87-3.39,2.66-2.61,1.65-3.92,2.37a6.76,6.76,0,0,1-1.92.72,5.34,5.34,0,0,1-2-.07,24,24,0,0,1-4.25-1.34,27.26,27.26,0,0,1-4-2c-.32-.19-.63-.39-.94-.6s-.63-.45-1.09-.7-14.39-8.09-13.95,0a5.26,5.26,0,0,1-2.69,4c-1.83,1.07-4,1-6.06,1.26a68.08,68.08,0,0,0-6.78,1.44,26.39,26.39,0,0,1-5.1,1.18,5.12,5.12,0,0,1-4.05-1.81c-1.31-1.29-2.58-2.62-3.85-3.95-3.24-3.4-6.44-6.84-9.7-10.23-1.28-1.33-2.56-2.66-3.9-3.94-.44-.42-1.33-1.56-2-1.61h0a53.67,53.67,0,0,0-4.59-3.76,43.41,43.41,0,0,0-11-5.88c-1-.37-2-.64-3-.94a11,11,0,0,0-3.41-.28,6.37,6.37,0,0,0-1.82.41,4.54,4.54,0,0,0-1.72,1.18,4.68,4.68,0,0,0-.95,3.89,5.69,5.69,0,0,0,.65,1.8l.75,1.35c.51.89,1,1.78,1.56,2.65.32.53.64,1,1,1.56a133.43,133.43,0,0,0-11.75,14.08,67,67,0,0,0-5.86,11.38,64.89,64.89,0,0,0-3.86,12.22,88.1,88.1,0,0,0-.88,18.06c0,.38.07.74.12,1-.46,0-.92,0-1.37,0a34.63,34.63,0,0,1-5.33-.58,13.84,13.84,0,0,1-1.37-.36l-1.41-.45c-.92-.34-1.85-.68-2.75-1.08-1.28-.56-2.53-1.19-3.75-1.87-.51-.27-1-.54-1.51-.84s-.9-.59-1.35-.89c-1.2-.79-2.38-1.62-3.5-2.52a41.18,41.18,0,0,1-4.29-4.06,33,33,0,0,1-6-9.52c0-.13-.12-.25-.17-.39a57.11,57.11,0,0,1-3.09-11.49c-.36-2-.65-4-.91-6,0-.18,0-.36,0-.54-.12-1.09-.19-2.18-.23-3.28,0-.7,0-1.4,0-2.1a52.71,52.71,0,0,1,1.66-11.82,60.31,60.31,0,0,1,10.36-21.54c1.22-1.58,2.57-3.09,3.94-4.58s2.79-2.92,4.27-4.29a49.22,49.22,0,0,1,9.7-7.16,33.76,33.76,0,0,1,11.37-4c4-.6,4-.84,0-.34A34.32,34.32,0,0,0,129.47,58a50,50,0,0,0-10,7c-1.54,1.35-3,2.78-4.43,4.24s-2.82,3-4.12,4.57a58.71,58.71,0,0,0-7,11,32.79,32.79,0,0,0-11.44.38,29.87,29.87,0,0,1,9.13,4.86q-1.07,2.77-1.88,5.63a54.74,54.74,0,0,0-2,12.23c0,.65,0,1.3,0,2a32.24,32.24,0,0,0-14.89,2.48,30,30,0,0,1,15.27,3.42c.17,1.5.36,3,.59,4.5a55.33,55.33,0,0,0,3.19,11.94,34.22,34.22,0,0,0-5.26,1.65,33.34,33.34,0,0,0-7.86,4.63,30,30,0,0,1,15.92-.75,33.34,33.34,0,0,0,3.91,5.16,43.05,43.05,0,0,0,4.55,4.31c.89.72,1.8,1.39,2.73,2a48.46,48.46,0,0,0-7.77,6.23,35.69,35.69,0,0,0-8,11.76,33.84,33.84,0,0,1,10-9.25,44,44,0,0,1,12-5.11c.57.27,1.13.56,1.71.81,1,.43,1.94.78,2.92,1.15l1.5.48c.5.15,1.05.31,1.57.41a29.33,29.33,0,0,0,3.42.49,31.17,31.17,0,0,0-4.47,5.93,32.4,32.4,0,0,0-3.56,8.59,36.41,36.41,0,0,0-.9,4.49c-.2,1.5-.24,3-.36,4.5.39-1.46.68-2.92,1.15-4.33a34.07,34.07,0,0,1,1.62-4.11,30.37,30.37,0,0,1,4.66-7.27,28.68,28.68,0,0,1,6.35-5.52,31,31,0,0,1,3.61-2l.73-.31.26,0c1.22-.1,2.44-.27,3.65-.48a33.45,33.45,0,0,0-.3,3.58,32.27,32.27,0,0,0,.81,8.35,34.31,34.31,0,0,0,4.81,11.18c.72,1.12,1.59,2.14,2.37,3.2-.56-1.21-1.19-2.36-1.66-3.57a31.36,31.36,0,0,1-1.24-3.69,29.78,29.78,0,0,1-1.1-7.51,29,29,0,0,1,.79-7.36,28.46,28.46,0,0,1,1.06-3.47c.22-.56.43-1.11.68-1.64.11-.24.24-.49.36-.73.65-.22,1.31-.43,1.95-.69,1-.39,1.94-.83,2.88-1.32.47-.25.91-.5,1.4-.8h0a32.11,32.11,0,0,0,1.69,3.49,32.65,32.65,0,0,0,4.76,6.53,33.79,33.79,0,0,0,9.39,7c1.14.59,2.35,1,3.5,1.55-1-.76-2.1-1.43-3.07-2.23a30,30,0,0,1-2.77-2.51,29.18,29.18,0,0,1-4.49-5.77,28.62,28.62,0,0,1-2.9-6.51,29.32,29.32,0,0,1-.82-3.39c-.09-.57-.19-1.14-.23-1.69a7.78,7.78,0,0,1-.07-.82c.3-.33.62-.63.91-1,2.77-3.17,4-6.5,5.38-10.51a30.28,30.28,0,0,0,1.32-12.82,38,38,0,0,0-.91-6.1,71.91,71.91,0,0,0-5.28-12.71c-1.79-3.66-4.29-6.9-6.17-10.49-.41-.78-3.8-7.12,1-6.58a20.19,20.19,0,0,1,2.63.23c.89.25,1.87.52,2.78.86a40.94,40.94,0,0,1,10.41,5.56,55.18,55.18,0,0,1,8.77,8,41.13,41.13,0,0,1,3.61,4.68,37.54,37.54,0,0,1,2.81,5.18,54.77,54.77,0,0,1,4.23,23.28,60.28,60.28,0,0,1-5,23.21,51.76,51.76,0,0,1-6,10.22,42.18,42.18,0,0,1-8.33,8.39,62.73,62.73,0,0,1-21.52,10.06,70,70,0,0,1-23.74,2.31,80.86,80.86,0,0,1-23.33-5.29c-7.42-2.94-14.47-7-20-12.76a92.39,92.39,0,0,1-14.54-19.07,57.59,57.59,0,0,1-2.61-5.36Q69,143.49,68,140.65a85.54,85.54,0,0,1-3.16-11.59,93.33,93.33,0,0,1-1.67-23.94,108.49,108.49,0,0,1,4.13-23.7,114.3,114.3,0,0,1,9-22.34A99.72,99.72,0,0,1,90,39.35a87.41,87.41,0,0,1,18.28-15.5,82.54,82.54,0,0,1,10.59-5.62,68.06,68.06,0,0,1,11.37-3.71,83.44,83.44,0,0,1,23.86-1.82,92.88,92.88,0,0,1,45.22,15.23A94.83,94.83,0,0,1,217.7,43.69a88.38,88.38,0,0,1,13.66,20.05,88.33,88.33,0,0,0-13.13-20.52,95.8,95.8,0,0,0-18.15-16.37A94.31,94.31,0,0,0,154.3,10.26a83.68,83.68,0,0,0-24.59,1.88A70.21,70.21,0,0,0,117.93,16,84.47,84.47,0,0,0,107,21.79,89.27,89.27,0,0,0,88.22,37.72a102.06,102.06,0,0,0-14,20.21A116.89,116.89,0,0,0,65,80.74,111.81,111.81,0,0,0,60.77,105a95.91,95.91,0,0,0,1.72,24.56,87.88,87.88,0,0,0,3.25,11.92q1,2.91,2.23,5.75a57.74,57.74,0,0,0,2.73,5.59,94.24,94.24,0,0,0,14.93,19.6,50.23,50.23,0,0,0,9.71,7.79,69.09,69.09,0,0,0,11.09,5.53,83.54,83.54,0,0,0,24,5.46c1.77.14,3.54.2,5.31.2,0,.64,0,1.6-.09,3,0,.13.05,2.46,0,2.59a160.42,160.42,0,0,0-2,21.55c-.09,3.61-.12,7.22-.06,10.83s.2,7.21.36,10.81c.4,7.18.86,14.39,1.54,21.48l.48,5.38c.19,1.8.4,3.6.65,5.41a42.77,42.77,0,0,0,2.69,10.82l1.07,2.45,1.31-2.2c1-1.67,1.94-3.44,2.76-5.19.41-.86.81-1.7,1.26-2.52s.29,3.33.63,6.44a68.84,68.84,0,0,0,1.58,9.31,75.89,75.89,0,0,0,2.89,9c1.1,2.94,2.32,5.82,3.52,8.71l.82,2,1.32-1.8a21.65,21.65,0,0,0,1.34-1.91c.42-.72,1.18,4.59,2.09,10.08A82.74,82.74,0,0,0,164.22,334a30.43,30.43,0,0,0,1.9,4,18,18,0,0,0,2.79,3.81,13.65,13.65,0,0,0,1.88,1.62l.87.62.1.06.07.25.31,1,.63,2q2.61,7.89,5.76,15.56C180.62,368,182.86,373,185.2,378s4.75,9.93,7.21,14.84c5,9.79,10.1,19.39,15.46,29a15.35,15.35,0,0,0,1,2.11,12.66,12.66,0,0,0-.66-2.18c-3.88-10.2-29.16-53.36,8-46.06.64,3.83,1.27,7.68,1.89,11.52l2.27,13.58.6,3.4c.24,1.12.57,2.24.86,3.35.59,2.22,1.23,4.42,1.91,6.62s1.43,4.37,2.21,6.53,1.56,4.32,2.41,6.46l1.3,3.19c.44,1.06.92,2.1,1.25,3.15a35.68,35.68,0,0,1,1.56,6.53,44.15,44.15,0,0,1-.24,13.38l-.62,3.36-.47,3.45c-.3,2.28-.59,4.54-.94,6.77-.75,4.44-1.73,8.87-4,12.56a19,19,0,0,1-4.11,4.84l-1.27.95a10.42,10.42,0,0,1-1.34.78,17.75,17.75,0,0,1-2.95,1.12,24.58,24.58,0,0,1-6.45.81c-1.79,0-3.58-.12-5.37-.16-1.44,0-3.68.16-3.72-1.9,0-2.29,1.42-6.15,2.65-9,1-2.39,2-4.82,3.14-7.14s2.37-4.69,3.44-7.1a48.77,48.77,0,0,0,2.7-7.39,28.56,28.56,0,0,0,1-7.86,24.24,24.24,0,0,0-.44-4c0-.21-.06-.8-.21-.95-.31-.32-.2.34-.18.48.09.68.15,1.36.19,2a26.19,26.19,0,0,1-.83,7.93,42.75,42.75,0,0,1-2.72,7.36c-1.14,2.43-2.44,4.78-3.75,7.13a95.71,95.71,0,0,0-4.72,9.52,68.1,68.1,0,0,0-2.36,7.13,6.23,6.23,0,0,0,1,5.07,3.12,3.12,0,0,0,1.16.85,6.22,6.22,0,0,0,2.14.35l6.9.28a27,27,0,0,0,7.16-.82,18.79,18.79,0,0,0,3.46-1.31,15.71,15.71,0,0,0,1.63-.95l1.48-1.12a20.68,20.68,0,0,0,4.71-5.59c2.47-4.25,3.39-9,4.09-13.55.33-2.3.58-4.59.84-6.86l.41-3.37.53-3.41a44.07,44.07,0,0,0-.2-14A37.43,37.43,0,0,0,232.3,433c-.42-1.12-.94-2.14-1.42-3.18l-1.41-3.12q-1.38-3.13-2.63-6.33c-.81-2.13-1.57-4.29-2.28-6.46a73.46,73.46,0,0,1-3.37-13.24c-.7-4.52-1.26-9.07-1.77-13.62-1.07-9.1-2-18.25-3.82-27.29-.9-4.52-2-9-3.39-13.42-.71-2.2-1.44-4.39-2.28-6.55l-1.2-3.2c-.36-1.06-.74-2.12-1-3.2a60.56,60.56,0,0,1-2-9.94,104.66,104.66,0,0,1-.35-17.4,33.31,33.31,0,0,0,5.1,2.88A23.26,23.26,0,0,0,217.8,313,44.87,44.87,0,0,0,226,315c2.68.4,5.31.93,6.77,2.42s1.87,3.91,2.07,6.53A77.15,77.15,0,0,1,235,332c0,2.71-.18,5.44-.31,8.19-.3,5.51-.45,10.95-1,16.31-.27,2.67-.69,5.35-1.09,8.1s-.75,5.55-.9,8.35-.2,5.6-.12,8.38.22,5.56.43,8.32c0,0,.61,6.93.92,8.34a12.25,12.25,0,0,0,1.66,4.05c.78,1.22,1.65,2.3,2.41,3.41a38.12,38.12,0,0,1,6.25,14.73,49.56,49.56,0,0,1,.13,15.94c-.37,2.66-.84,5.31-1.45,7.94l-.46,2a22.26,22.26,0,0,0-.42,2.26,13.54,13.54,0,0,0,.35,4.91c.37,1.51.87,2.87,1.29,4.15s.76,2.47,1.07,3.75c.6,2.55,1,5.2,1.38,7.92s.75,5.42,1.29,8.11a27.55,27.55,0,0,0,1.07,4,7.3,7.3,0,0,0,5,4.52l.18,0a9,9,0,0,0,4.45-.37,15.09,15.09,0,0,0,3-1.15c2-1,6.51-4.26,7-9.58.31-3.21.69-6,.79-8.74l.1-8.3c0-2.76,0-5.54-.08-8.31a96.59,96.59,0,0,0-.92-13.5c-.43-2.56-1.83-4.64-3-6.91q-2-4.06-4-8.15c-.5-1-1-2-1.46-3.08a57.72,57.72,0,0,1-2.33-15.74,55.4,55.4,0,0,1,1.21-12.06c.23-1,.43-2,.72-2.94s.52-1.95.86-2.9c.61-1.89,1.37-3.89,2-5.85q1.94-5.92,3.45-12c.2-.84.38-1.69.57-2.53,4.9-18.07,6.52-49.91,6.34-71.32a61.79,61.79,0,0,1,4.81-11.19,66,66,0,0,0,5-11.51,31.16,31.16,0,0,0,1.18-6.29A53,53,0,0,0,282.47,257ZM171.68,343.83l0-.06,0,.05v0Zm87,33.48c-.62,2-1.29,3.84-1.92,5.89-.34,1-.6,2-.86,3.05s-.45,2.06-.66,3.09a53.63,53.63,0,0,0,6.21,36.37.13.13,0,0,0,.16.05l0,0c1,2.13,2,4.22,3.09,6.29a18.89,18.89,0,0,1,1.71,6.61c.59,5,.53,9.92.67,14.93l-.07,8.06c-.2,2.78,0,3.95-.39,8.63-.1,14.69-11.78,14.35-12.29,14.42a6.19,6.19,0,0,1-5.08-2.91c-1-2.16-2.07-9.5-2.15-9.83,0,0-.78-4.9-1.73-9.82-.43-2.23-1-4.45-1.57-6.65a21.06,21.06,0,0,1-1.19-5.58,15.23,15.23,0,0,1,.22-2.13c.23-1.64.55-3.26.82-4.89a95.88,95.88,0,0,0,1.67-15.93c0-2.21-.39-4.7-.51-6.91-.31-5.72-8.19-17.74-8.9-18.84a10.74,10.74,0,0,1-1.5-3.55c-.31-1.28-.73-6.73-.8-8.1-.1-2.74-.11-5.48,0-8.21s.76-21.24,25.34-5C258.85,376.65,258.76,377,258.65,377.31Z" transform="translate(-60.61 -8.08)"/></svg>