<svg id="Layer_1" data-name="Layer 1" xmlns="http://www.w3.org/2000/svg" viewBox="0 0 275.35 399.3"><defs><style>.cls-1{fill:#35328a;}.cls-2,.cls-3,.cls-5{fill:none;}.cls-2,.cls-3,.cls-4,.cls-5{stroke:#35328a;stroke-width:2px;}.cls-2,.cls-5{stroke-miterlimit:10;}.cls-3,.cls-4,.cls-5{stroke-linecap:round;}.cls-3,.cls-4{stroke-linejoin:round;}.cls-4{fill:#fff;}</style></defs><path class="cls-1" d="M143.36,106.22a1.1,1.1,0,0,1-1-.6L135,93.42l11.9-18.3-24.8-28.7a1.25,1.25,0,0,1,.2-1.7,1.2,1.2,0,0,1,1.5.1l26,30-12,18.6,6.6,11a1.14,1.14,0,0,1-.4,1.6A1.42,1.42,0,0,1,143.36,106.22Z" transform="translate(-121.82 -44.26)"/><path class="cls-1" d="M218.16,105.72a1.42,1.42,0,0,1-.6-.2,1.16,1.16,0,0,1-.4-1.6l6.6-11-12.2-18.5,28.7-29.7a1.2,1.2,0,1,1,1.7,1.7h0l-27.4,28.3,11.9,18.2-7.4,12.2A.87.87,0,0,1,218.16,105.72Z" transform="translate(-121.82 -44.26)"/><path class="cls-1" d="M194.56,64.72l-4,8.8h0a30,30,0,0,1,4.1,1.8,16.39,16.39,0,0,1,6.6,6.2,10.66,10.66,0,0,1,1.4,4.9,16.06,16.06,0,0,1-1,5.3c-.8,2.6-1.6,5.1-2.5,7.7-1,3.2-9.5,28-9.9,29h-17.1c-.4-1-8.8-25.9-9.9-29-.8-2.6-1.7-5.1-2.5-7.7a16.06,16.06,0,0,1-1-5.3,12,12,0,0,1,1.4-4.9,17.1,17.1,0,0,1,6.6-6.2,30,30,0,0,1,4.1-1.8h0l-4-8.8h27.7m0-2.3h-27.5a2.35,2.35,0,0,0-2.4,2.3,3.55,3.55,0,0,0,.2,1l2.9,6.4c-1.1.5-2.1,1-2.1,1a18.33,18.33,0,0,0-7.5,7.1,15.55,15.55,0,0,0-1.8,5.9,15.93,15.93,0,0,0,1,5.7l.1.4c.8,2.7,1.7,5.3,2.5,7.8s9.4,28,9.9,29.2a2.39,2.39,0,0,0,2.2,1.5h17.2a2.39,2.39,0,0,0,2.2-1.5c.5-1.2,9.1-26.6,9.9-29.2s1.7-5.1,2.5-7.8l.1-.4a15.55,15.55,0,0,0,1-5.7,13.44,13.44,0,0,0-1.7-5.9,18.59,18.59,0,0,0-7.6-7.1s-1-.5-2.1-1l2.9-6.4a2.35,2.35,0,0,0-1.2-3.1c0-.1-.4-.2-.7-.2Zm0,4.7Z" transform="translate(-121.82 -44.26)"/><path class="cls-1" d="M212.06,142.92h-63.7a1.2,1.2,0,0,1,0-2.4h63.7a1.16,1.16,0,0,1,1.2,1.2A1.22,1.22,0,0,1,212.06,142.92Z" transform="translate(-121.82 -44.26)"/><path class="cls-1" d="M331.46,248.23a.6.6,0,0,1-.4-.1,1.19,1.19,0,0,1-.7-1.5h0l5.1-12.8,17.9-4.9,30.4-44.4a1.17,1.17,0,1,1,2,1.2c0,.1-.1.1-.1.2L354.76,231l-17.6,4.9-4.7,11.7C332.46,248,332,248.33,331.46,248.23Z" transform="translate(-121.82 -44.26)"/><rect class="cls-1" x="314.67" y="250.93" width="45.3" height="2.4" transform="translate(-188.13 87.72) rotate(-20.2)"/><path class="cls-1" d="M304.46,274.33c-.2,0-.4-.1-.6-.1a1.34,1.34,0,0,1-.6-.7l-5.4-19.2a1.24,1.24,0,0,1,.8-1.5h0l14.1-4a1.1,1.1,0,0,1,1.4.8l5.4,19.2a1.24,1.24,0,0,1-.8,1.5l-14.1,4C304.76,274.23,304.56,274.33,304.46,274.33Zm-4-19.6,4.8,16.9,11.9-3.4-4.8-16.9Z" transform="translate(-121.82 -44.26)"/><path class="cls-1" d="M372.86,293.93h-71.5a1.2,1.2,0,1,1,0-2.4h71.5a1.2,1.2,0,0,1,0,2.4Z" transform="translate(-121.82 -44.26)"/><path class="cls-1" d="M312.36,285.83a.76.76,0,0,1-.4-.1l-17-5.4a1.2,1.2,0,1,1,.7-2.3l17,5.4a1.11,1.11,0,0,1,.7,1.5,1,1,0,0,1-1,.9Z" transform="translate(-121.82 -44.26)"/><path class="cls-1" d="M324.76,285.43a1.16,1.16,0,0,1-1.2-1.2,1.1,1.1,0,0,1,.6-1l5.1-3a1.19,1.19,0,0,1,1.5.7,1.21,1.21,0,0,1-.3,1.3l-5.1,3A1.42,1.42,0,0,1,324.76,285.43Z" transform="translate(-121.82 -44.26)"/><path class="cls-1" d="M318.86,287.23a1.2,1.2,0,0,1-1.2-1.1v-8.6a1.2,1.2,0,0,1,2.4,0v8.6A1.13,1.13,0,0,1,318.86,287.23Z" transform="translate(-121.82 -44.26)"/><path class="cls-1" d="M377.63,142.13h-89.7a1.2,1.2,0,0,1,0-2.4h89.7a1.16,1.16,0,0,1,1.2,1.2,1.22,1.22,0,0,1-1.2,1.2Z" transform="translate(-121.82 -44.26)"/><path class="cls-1" d="M293.23,106.22a1.1,1.1,0,0,1-1-.6l-7.4-12.2,11.9-18.3-24.8-28.7a1.25,1.25,0,0,1,.2-1.7,1.2,1.2,0,0,1,1.5.1l26,30-12.1,18.5,6.6,11a1.14,1.14,0,0,1-.4,1.6A.55.55,0,0,1,293.23,106.22Z" transform="translate(-121.82 -44.26)"/><path class="cls-1" d="M372.84,105.79a1.42,1.42,0,0,1-.6-.2,1.16,1.16,0,0,1-.4-1.6l6.6-11-12.1-18.6L395,44.69a1.2,1.2,0,0,1,1.8,1.6l-.1.1-27.4,28.3,11.9,18.2-7.4,12.2A1,1,0,0,1,372.84,105.79Z" transform="translate(-121.82 -44.26)"/><path class="cls-1" d="M318.63,87.23a1.42,1.42,0,0,1-.6-.2,7.5,7.5,0,0,1-3-4.2,9.26,9.26,0,0,1,2.5-9.1,16.32,16.32,0,0,1,2-1.7,13.36,13.36,0,0,0,2.1-2,4.68,4.68,0,0,0,.9-4.4,7,7,0,0,0-4.6-4.4,1.18,1.18,0,1,1,.5-2.3h.1a9.51,9.51,0,0,1,6.2,6,7.17,7.17,0,0,1-1.3,6.6,10.86,10.86,0,0,1-2.5,2.3c-.6.5-1.2,1-1.7,1.5a7.35,7.35,0,0,0-2,6.9,5.46,5.46,0,0,0,2,2.9,1.15,1.15,0,0,1,.3,1.6.94.94,0,0,1-.9.5Z" transform="translate(-121.82 -44.26)"/><path class="cls-1" d="M333.63,86.83a1.42,1.42,0,0,1-.6-.2,7.5,7.5,0,0,1-3-4.2,9.49,9.49,0,0,1,2.5-9.1,16.32,16.32,0,0,1,2-1.7,13.36,13.36,0,0,0,2.1-2,4.68,4.68,0,0,0,.9-4.4,7,7,0,0,0-4.6-4.4,1.18,1.18,0,1,1,.5-2.3h.1a9.51,9.51,0,0,1,6.2,6,7.17,7.17,0,0,1-1.3,6.6,13.66,13.66,0,0,1-2.5,2.3c-.6.5-1.2,1-1.7,1.5a7.35,7.35,0,0,0-2,6.9,5.13,5.13,0,0,0,2.1,2.9,1.15,1.15,0,0,1,.3,1.6,1.1,1.1,0,0,1-1,.5Z" transform="translate(-121.82 -44.26)"/><path class="cls-1" d="M347.33,86.73a1.42,1.42,0,0,1-.6-.2,7.5,7.5,0,0,1-3-4.2,9.31,9.31,0,0,1,2.6-9.1,16.32,16.32,0,0,1,2-1.7,13.36,13.36,0,0,0,2.1-2,4.68,4.68,0,0,0,.9-4.4,7,7,0,0,0-4.6-4.4,1.19,1.19,0,0,1-.7-1.5,1.08,1.08,0,0,1,1.4-.7,9.51,9.51,0,0,1,6.2,6,7.17,7.17,0,0,1-1.3,6.6,10.86,10.86,0,0,1-2.5,2.3c-.6.5-1.2,1-1.7,1.5a7.11,7.11,0,0,0-2,6.9,5.46,5.46,0,0,0,2,2.9,1.28,1.28,0,0,1,.4,1.6A1.47,1.47,0,0,1,347.33,86.73Z" transform="translate(-121.82 -44.26)"/><path class="cls-1" d="M336.43,103.63a31,31,0,0,1,6.1.9,25.48,25.48,0,0,0-.4,5.5c.1,1.8.6,4.8,1.8,4.8.5,0,1-.4,1.7-1.5s1.7-2.7,4.5-7.2c10.6,2.6,15.1,7.4,15.1,13.8a10,10,0,0,1-3.6,7.4h-56.9a10.32,10.32,0,0,1-3.6-7.4c0-5.9,4.6-10.6,14-13.4.2,6.5,3.4,9.6,4.5,9.7h0c.4,0,1.2-3.3,1.9-6.1.5-1.9,1-3.8,1.6-5.6a21,21,0,0,1,5.6-.7c-.7,5.8,1.5,11.5,2.8,11.5.2,0,.4-.1.5-.5,1.8-3.9,2.5-7.5,4.4-11.2m-.1-2.3a2.33,2.33,0,0,0-2.1,1.3,66.22,66.22,0,0,0-2.4,6.2,6.94,6.94,0,0,1-.5,1.3,20.19,20.19,0,0,1-.3-6,2.21,2.21,0,0,0-.6-1.9,2.72,2.72,0,0,0-1.7-.8h-1.1a16.79,16.79,0,0,0-5,.7c-1.4.3-1.7,1.1-2.4,3.4-.3,1-.7,2.5-1.1,4-.2.9-.4,1.6-.5,2.2a16.32,16.32,0,0,1-1.2-5.3,2.35,2.35,0,0,0-2.4-2.3,1.7,1.7,0,0,0-.7.1c-13,3.9-15.7,10.6-15.7,15.6a12.7,12.7,0,0,0,4.3,9.1,2.36,2.36,0,0,0,1.6.7h57a2,2,0,0,0,1.6-.7,12.7,12.7,0,0,0,4.3-9.1c0-7.9-5.7-13.3-16.9-16-.2,0-.4-.1-.6-.1a2.31,2.31,0,0,0-2,1.1c-1.8,3-2.9,4.6-3.6,5.7,0-.3-.1-.6-.1-.9a19.39,19.39,0,0,1,.3-4.8,2.43,2.43,0,0,0-1.7-2.9h-.1l-1.5-.3a38.59,38.59,0,0,0-4.9-.6Z" transform="translate(-121.82 -44.26)"/><path class="cls-1" d="M132.63,209.2a1.31,1.31,0,0,1-.3-1.2,1.19,1.19,0,0,1,1.5-.7l30.5,10.6-1.3,22,11.2,6.3a1.19,1.19,0,0,1-1.1,2.1H173l-12.4-7,1.2-21.7-28.8-10A.78.78,0,0,0,132.63,209.2Z" transform="translate(-121.82 -44.26)"/><path class="cls-1" d="M205.13,229.3c-.7-.4-2.8,1.4-5.7,4.4l.7.4c1.4-1.5,2.6-2.5,2.8-2.3s-.5,1.4-1.7,3a12.67,12.67,0,0,1-1.1,1.3c-.1.1-.1.2-.2.3-2,2.3-2.9,2.9-3.2,2.6s.1-1.2,2.1-3.5l.1-.1c-.2-.1-.5-.3-.7-.4-7.5,8.2-19,23.1-24.8,30.6a.45.45,0,0,0,0,.5h0c.2.2.5-.1.5-.1,6.7-6.9,19.9-20.8,26.8-29.4.4-.5.7-.9,1-1.3C204.33,232.1,205.63,229.9,205.13,229.3Z" transform="translate(-121.82 -44.26)"/><path class="cls-1" d="M194.13,233.6a14.68,14.68,0,0,1,4.2,1.3,2.51,2.51,0,0,1,.7.4c.4.2.8.5,1.2.7a15,15,0,0,1,1.1-1.3c-.4-.2-.7-.5-1.1-.7l-.7-.4a18,18,0,0,0-5.1-1.7,19.59,19.59,0,0,0-14.8,3.7c-1.4,1.2-1.1,2-.2,2,.4,0,1.2-.7,1.2-.7A18.38,18.38,0,0,1,194.13,233.6Z" transform="translate(-121.82 -44.26)"/><path class="cls-1" d="M208.83,277a105.35,105.35,0,0,1-9.3,5.2c-2.6,1.3-7.6,3.8-11,2.8a4.33,4.33,0,0,1-2.6-2c-1.6-2.9-.4-6.6,3.7-11.3l8.7-9.9c.7-.8,1.4-1.7,2.1-2.5l.7-.9,1.2-1.5.6-.9c3-4.4,4.8-9,3.5-13.8a12.85,12.85,0,0,0-4.7-6.9l-1,1.3a10.89,10.89,0,0,1,4.1,6c1.1,4.1-.4,8.1-2.9,11.9l-.6.9a9.06,9.06,0,0,0-1.1,1.6l-.7.9c-.8,1-1.6,1.9-2.4,2.9l-8.7,9.9q-6.9,7.8-3.9,13.2a5.92,5.92,0,0,0,3.6,2.8,7.8,7.8,0,0,0,2.2.3c4.5,0,9.4-3,10.1-3.3a98.83,98.83,0,0,0,9.4-5.4c.3-.2.6-.5,1-.8v-1.9C210,276.1,209.23,276.7,208.83,277Z" transform="translate(-121.82 -44.26)"/><path class="cls-1" d="M211.43,275l-.6.5v1.9l.6-.5Z" transform="translate(-121.82 -44.26)"/><path class="cls-1" d="M229.13,257.6v-4h-20.5v4h2.2v17.9l.6-.5.6-.5V257.6h13.7v30.6H212V276.5l-.6.5-.6.5v10.8h-2.3v4H229v-4h-2.1V257.7h2.2Z" transform="translate(-121.82 -44.26)"/><path class="cls-1" d="M212,276.4v-1.9l-.6.5v1.9Z" transform="translate(-121.82 -44.26)"/><path class="cls-2" d="M252.37,398.42s21.21,13.38,10.53,34.44l-6,9.19-33.1.51-6.24-9c-11.31-20.73,9.47-34.75,9.47-34.75l-.06-4.5,25.19-.38Z" transform="translate(-121.82 -44.26)"/><line class="cls-3" x1="93.3" y1="370.52" x2="142.59" y2="369.77"/><line class="cls-3" x1="119.96" y1="328.11" x2="127.12" y2="339.01"/><path class="cls-4" d="M246.75,370.7l5.83,8.81" transform="translate(-121.82 -44.26)"/><line class="cls-3" x1="130.24" y1="326.96" x2="132.39" y2="330.22"/><path class="cls-4" d="M238.43,376.13l5.53,8.41" transform="translate(-121.82 -44.26)"/><line class="cls-3" x1="114.99" y1="336.99" x2="117.14" y2="340.26"/><path class="cls-4" d="M254.66,371.48l35.75-23.55" transform="translate(-121.82 -44.26)"/><path class="cls-5" d="M281.21,374.18l13.15-3,4.88-21.38,29.6.05" transform="translate(-121.82 -44.26)"/></svg>