<svg id="Layer_1" data-name="Layer 1" xmlns="http://www.w3.org/2000/svg" viewBox="0 0 59 45">
  <defs>
    <style>
      .cls-1 {
        fill: #dfab00;
      }

      .cls-2 {
        fill: #1d1d1b;
      }

      .cls-3 {
        fill: none;
      }
    </style>
  </defs>
  <g>
    <path class="cls-1" d="M47.55,3a2.07,2.07,0,0,0,.66.38,1.42,1.42,0,0,0,.61.12,4.66,4.66,0,0,0,2.8-1.26c.09-.08-.09-.32-.13-.36a2,2,0,0,0-.57-.42,2,2,0,0,0-.68-.22.44.44,0,0,0-.37.1l-.07.06.05,0a4.43,4.43,0,0,1-1.79,1l.08,0-.13,0h.05a5.81,5.81,0,0,1-.58.09c-.13,0-.24.07-.23.21s.2.32.3.4" transform="translate(-0.5 -0.5)"/>
    <path class="cls-2" d="M58.76,16.29c-.14,0-.65-.1-.75,0a8.76,8.76,0,0,1-1.53,1.38,7.83,7.83,0,0,1-.92.63,4.59,4.59,0,0,1-.77.38l-.06-.1a1.81,1.81,0,0,1-.22-.84,3.32,3.32,0,0,1,.11-.88c.35-1.39.77-2.78,1.21-4.15,0,0-1.37-.29-1.49-.1-.7,1.08-1.43,2.14-2.14,3.22-.43.65-.83,1.34-1.32,2a2.45,2.45,0,0,1-1.37,1l-.06,0a1.33,1.33,0,0,1-.51-.62,2.83,2.83,0,0,1,.15-2.06,9.3,9.3,0,0,1,2.38-3.61c1.21-1.14,2.9-2.42,4.75-2.31.05,0,.6,0,.53-.05s-.76-.11-.92-.12a6.82,6.82,0,0,0-2.77.33,8.21,8.21,0,0,0-2.35,1.41,9.74,9.74,0,0,0-3,4,3.08,3.08,0,0,0-.23,2.28c.28.7,1,.87,1.69.94a4.16,4.16,0,0,0,2.37-.31,4.53,4.53,0,0,0,1.42-1.6l.19-.29a2.56,2.56,0,0,0,0,1.29,1.06,1.06,0,0,0,.48.72A1.63,1.63,0,0,0,54,19a5.92,5.92,0,0,0,.92.08,3.83,3.83,0,0,0,.68,0,3.12,3.12,0,0,0,.44-.09,7,7,0,0,0,1.91-1.07,9.07,9.07,0,0,0,1.59-1.43s-.68-.12-.74-.13" transform="translate(-0.5 -0.5)"/>
    <path class="cls-1" d="M49.88,1.34h0" transform="translate(-0.5 -0.5)"/>
    <path class="cls-2" d="M4.85,16.3l0,0,0,0" transform="translate(-0.5 -0.5)"/>
    <path class="cls-2" d="M42.4,23.58c-1,3.54-2,7.07-3.28,10.51-1.39,3.61-3.34,7.1-6.53,9.52A8,8,0,0,1,29,45.26a2.09,2.09,0,0,1-1.1-.1,6.19,6.19,0,0,1-1.6-.76,8,8,0,0,1-3.19-7.95,12,12,0,0,1,1.77-4.19,14.54,14.54,0,0,1,2.57-3,25.37,25.37,0,0,1,6.69-4.11,39.23,39.23,0,0,1,8.59-2.58c-.09.34-.18.69-.28,1m13.39-2.27a85.93,85.93,0,0,0-11.42.6l1-3.8c.31-1.22.61-2.44.91-3.65l.91-1.61c.44-.8.87-1.6,1.28-2.41A4.2,4.2,0,0,0,49,9.06,8.88,8.88,0,0,0,49,7.6a2.07,2.07,0,0,0-.14-.74.4.4,0,0,0-.1-.12s0,0,0,0a1.84,1.84,0,0,0-.61-.09,2.21,2.21,0,0,0-.85,0,.69.69,0,0,0-.3.35,13.46,13.46,0,0,0-.77,2.24c-.37,1.28-.7,2.57-1,3.87l-.33,1.29a9.84,9.84,0,0,1-1.59,2.42,9.33,9.33,0,0,1-2.33,1.77,3.13,3.13,0,0,1-.32.15,1.83,1.83,0,0,1-.36-1.2,10.74,10.74,0,0,1,.59-2.36c.23-.82.48-1.63.74-2.44,0,0-1.36-.3-1.49-.11-.69,1.06-1.41,2.1-2.11,3.15-.45.66-.85,1.35-1.34,2a3.13,3.13,0,0,1-.64.62,2.12,2.12,0,0,1-.71.34h-.11a1.31,1.31,0,0,1-.51-.65,2,2,0,0,1-.07-.26,3.26,3.26,0,0,1,.24-1.74c0-.13.11-.26.16-.38l.17-.38a9.34,9.34,0,0,1,2.13-2.88c1.24-1.11,2.89-2.3,4.67-2.2.05,0,.6,0,.53-.05s-.76-.12-.91-.13a6.94,6.94,0,0,0-2.72.31,8.23,8.23,0,0,0-2.3,1.33,10,10,0,0,0-2.59,2.93,17.82,17.82,0,0,1-2.32,2.9,2.7,2.7,0,0,1-1.43.71h0a.66.66,0,0,1,0-.11,5.92,5.92,0,0,1,.07-2.68c.28-1.31.92-2.54,1.28-3.83.21-.75.53-1.68-.2-2.22a1.62,1.62,0,0,0-1.33-.25,7.06,7.06,0,0,0-3,2.12,19.35,19.35,0,0,0-2.37,3.11c.12-.5.25-1,.37-1.51.25-1,.5-2,.7-3A4.44,4.44,0,0,0,25.76,8a2.45,2.45,0,0,0-1.64-1.57,2.31,2.31,0,0,0-1.86.36,8.41,8.41,0,0,0-1.88,1.74,23,23,0,0,0-1.92,2.68l-.3.5c.3-1.05.6-2.1.89-3.15.44-1.56.88-3.13,1.24-4.72.08-.36.16-.73.22-1.09l0-.33v0A1.46,1.46,0,0,0,19.9,1c-1.56-1.27-3.5,0-4.83,1a23.19,23.19,0,0,0-3,2.54,3.83,3.83,0,0,0-.28.29l-.12.11-.18.19-.72.78a32.83,32.83,0,0,0-4.18,5.88C6.3,12.36,6,13,5.69,13.55A63.29,63.29,0,0,0,.64,28.43c-.07.33-.23,1.45-.07.86C3.18,19.47,8,9.28,14.59,4A22.69,22.69,0,0,1,17.31,2.2L17.69,2l.16-.08A2.58,2.58,0,0,1,19,1.53c.07,0,.21,0,.19.31a5,5,0,0,1-.14.94L19,3c-.29,1.4-.68,2.78-1.06,4.15C17,10.56,16,14,15.17,17.51c-.07.32-.14.63-.2.95-.1.51,1.13,1.17,1.33.57a35.07,35.07,0,0,1,2.82-6,18.6,18.6,0,0,1,3.53-4.74,3.2,3.2,0,0,1,1.53-.86c.09,0,.31,0,.25.78a9.81,9.81,0,0,1-.16,1c-.19.92-.42,1.84-.64,2.75a35.29,35.29,0,0,0-1.28,6.66c0,.3.28.55.52.67s.66.27.77,0a26.17,26.17,0,0,1,4-6.71,10.87,10.87,0,0,1,1.71-1.61,6.2,6.2,0,0,1,.73-.49l.16-.08,0,.17a16.12,16.12,0,0,1-.63,2,13.06,13.06,0,0,0-.92,3.3,3.8,3.8,0,0,0,.47,2.7c.85,1.08,2.37.79,3.35.06a6.09,6.09,0,0,0,.66-.58,1.5,1.5,0,0,0,1.24.85l.43.06a8.14,8.14,0,0,0,1.11,0,2.89,2.89,0,0,0,1.24-.33A4.43,4.43,0,0,0,38.63,17l.14-.22a4,4,0,0,0-.07.68,1.52,1.52,0,0,0,.59,1.29,3.55,3.55,0,0,0,1.8.26,4.53,4.53,0,0,0,2.47-1.15l.42-.33c-.39,1.53-.79,3.06-1.19,4.58a51.72,51.72,0,0,0-5.09,1.08,34.24,34.24,0,0,0-8.12,3.32,18.12,18.12,0,0,0-5.69,4.81c-1.86,2.52-3.05,5.72-2.09,8.8a7.27,7.27,0,0,0,5.2,5.1,8.79,8.79,0,0,0,3.92,0,9,9,0,0,0,3.51-1.86,18.62,18.62,0,0,0,3.08-3.32A18.73,18.73,0,0,0,38.91,38a47.44,47.44,0,0,0,3.44-8.91c.69-2.25,1.32-4.52,1.92-6.79a69.48,69.48,0,0,1,8.11-.76c1.43-.06,2.76-.12,4.28-.08.64,0-.52-.12-.87-.13" transform="translate(-0.5 -0.5)"/>
    <rect class="cls-3" width="59" height="45"/>
  </g>
</svg>
