<svg id="Layer_1" data-name="Layer 1" xmlns="http://www.w3.org/2000/svg" viewBox="0 0 29.48 19.29"><defs><style>.cls-1{fill:#cac9c9;}</style></defs><path class="cls-1" d="M2.45,10.3a22.13,22.13,0,0,0,2.8.37s4.54,0,5.81,2.47c0,0,.75,1.15,0,3.63,0-.05-.28-.31-.31-.34l-1.1-1.08a6.18,6.18,0,0,1-.48-1.09.65.65,0,0,1,0-.13v-.06l0-.07a.69.69,0,0,0,0-.13l0-.13s0-.09,0-.13v-.14a2.17,2.17,0,0,1,0-.26,2.3,2.3,0,0,0,0,.26v.14a.57.57,0,0,0,0,.13v.41s0,.1,0,.14a2.1,2.1,0,0,0,.13.55l.11.22c0-.1-.24-.2-.33-.26l-.35-.27A5.48,5.48,0,0,1,7.89,14a2.22,2.22,0,0,1-.44-.72,1.64,1.64,0,0,1-.1-.38c0-.13,0-.27,0-.4,0,.13,0,.27,0,.41a1.52,1.52,0,0,0,0,.42,1.25,1.25,0,0,0,.14.41l.09.14a12.22,12.22,0,0,1-1.14-.66A1.28,1.28,0,0,1,6,12.47l-.07-.21a1.64,1.64,0,0,0,0,.22,1.79,1.79,0,0,0,0,.23,1.7,1.7,0,0,0,0,.22A.29.29,0,0,0,6,13l-.11-.08a10.71,10.71,0,0,1-1.61-1.16c.06.06.1.22.17.29a7,7,0,0,0,1.5,1.19,30.32,30.32,0,0,1,3.08,2A11.65,11.65,0,0,1,11.47,18c.11.17.31.64.43.81-.07-.09.06-.41.08-.51.09-.35.19-.71.29-1.06.21-.75.53-1.51.71-2.27a7,7,0,0,0,.07-3.59,8.11,8.11,0,0,1-.11-3.29c.05-.34.13-.67.18-1a5.74,5.74,0,0,1,.6-1.76c-.56,1.36,1.28,3.26,1,6.62-.12,1.35-1.32,3.18-1.77,4.45A15.28,15.28,0,0,0,12.26,19a2.41,2.41,0,0,0,.33,1.46,13.11,13.11,0,0,1,4-4.24,5.58,5.58,0,0,1,.71-.4h.23l.28,0,.3,0,.3,0h.3a11.81,11.81,0,0,0,1.19,0,9.46,9.46,0,0,0,1.18-.13,7.35,7.35,0,0,0,1.14-.3,7.55,7.55,0,0,1-1.16.17,9,9,0,0,1-1.16,0,11.11,11.11,0,0,1-1.16-.12l-.28,0-.29-.05-.1,0A25.93,25.93,0,0,1,21.36,14l.12,0a3.68,3.68,0,0,0,1.78,0,3,3,0,0,1-1.48-.16l.59-.19.69-.21.45-.17.37-.14c.05,0,.11,0,.17-.06a15.26,15.26,0,0,0-2.3.51s-1.05.32-1.63.54c0-.09.06-.18.09-.27s.09-.18.14-.27a2.33,2.33,0,0,1,.17-.26,3.05,3.05,0,0,1,.44-.44l.27-.19.13-.09a.65.65,0,0,0,.12-.11l-.13.08-.15.06a2.09,2.09,0,0,0-.3.14,2.63,2.63,0,0,0-.56.38,1.88,1.88,0,0,0-.25.24,2.47,2.47,0,0,0-.21.27,3.69,3.69,0,0,0-.33.62l-.05.08c-.51.21-.91.38-1.47.65a16.16,16.16,0,0,0-2.19,1.23v-.07l.09-.45c.07-.3.15-.6.24-.89a6.55,6.55,0,0,1,.37-.86l.11-.2a2.25,2.25,0,0,1,.12-.21l.06-.1.06-.09.14-.2-.16.18-.08.08-.08.1-.14.18-.14.2a6.13,6.13,0,0,0-.49.82,8.64,8.64,0,0,0-.38.88l-.15.46-.07.22c0,.07,0,.14-.07.18l-.09.24a14.94,14.94,0,0,0-1.82,1.89s1.07-2.52,1.24-3.22a7.15,7.15,0,0,1,3.5-4,14.3,14.3,0,0,1,6.56-1s4.16,0,5.07-.12l-3,3.79s-2,3.09-4.33,4.25a9.05,9.05,0,0,1-5.15.68s-2.71-.37-3.84,1a7.54,7.54,0,0,0-.08,2.38l.12,1.73-.86.58A13.9,13.9,0,0,0,11.48,19a13.76,13.76,0,0,0-2.73-3.44,23.93,23.93,0,0,0-3.46-2.31c-.57-.3-1.14-.62-1.7-1A7.91,7.91,0,0,1,.26,9.39,6.35,6.35,0,0,0,2.45,10.3Z" transform="translate(-0.26 -5.35)"/></svg>