<svg id="Layer_1" data-name="Layer 1" xmlns="http://www.w3.org/2000/svg" viewBox="0 0 29.48 26.04"><defs><style>.cls-1{fill:#f28e21;}.cls-2{fill:#f9f8e2;}.cls-3{fill:#fce370;}.cls-4{fill:#ffe669;}</style></defs><path class="cls-1" d="M18.39,24.82A11.35,11.35,0,0,0,29.74,13.47H7.05A11.35,11.35,0,0,0,18.39,24.82Z" transform="translate(-0.26 -2.13)"/><path class="cls-1" d="M18.39,2.13A11.34,11.34,0,0,0,7.05,13.47H29.74A11.35,11.35,0,0,0,18.39,2.13Z" transform="translate(-0.26 -2.13)"/><circle class="cls-2" cx="18.13" cy="11.34" r="10.72"/><path class="cls-1" d="M17.12,12.72l-5.26-5.2s-.81-1-1.5,0a13.23,13.23,0,0,0-2,4.81.83.83,0,0,0,1,1h7.45S17.55,13.34,17.12,12.72Z" transform="translate(-0.26 -2.13)"/><path class="cls-1" d="M19.77,13.29l7.4,0s1.31.18,1.07-1.05a13.11,13.11,0,0,0-1.95-4.8.84.84,0,0,0-1.41,0l-5.33,5.2S19,13.14,19.77,13.29Z" transform="translate(-0.26 -2.13)"/><path class="cls-1" d="M18.11,12.09V4.7S18.27,3.38,17,3.63a13.09,13.09,0,0,0-4.79,2,.84.84,0,0,0,0,1.41l5.24,5.3S18,12.83,18.11,12.09Z" transform="translate(-0.26 -2.13)"/><path class="cls-1" d="M19.19,12.38l5.27-5.19s1.05-.8,0-1.5a13.18,13.18,0,0,0-4.78-2,.83.83,0,0,0-1,1l-.11,7.45S18.56,12.79,19.19,12.38Z" transform="translate(-0.26 -2.13)"/><path class="cls-1" d="M17.19,14.38l-5.26,5.2s-.82,1-1.5,0a13,13,0,0,1-2-4.81.83.83,0,0,1,1-1h7.44S17.61,13.76,17.19,14.38Z" transform="translate(-0.26 -2.13)"/><path class="cls-1" d="M19.84,13.81l7.39,0s1.32-.18,1.08,1.05a13,13,0,0,1-2,4.8.83.83,0,0,1-1.4.05l-5.34-5.21S19.1,14,19.84,13.81Z" transform="translate(-0.26 -2.13)"/><path class="cls-1" d="M18.17,15V22.4s.17,1.32-1.06,1.07a13,13,0,0,1-4.79-2,.83.83,0,0,1,0-1.41l5.23-5.3S18,14.27,18.17,15Z" transform="translate(-0.26 -2.13)"/><path class="cls-1" d="M19.25,14.72l5.27,5.19s1.06.8,0,1.5a13.07,13.07,0,0,1-4.77,2,.84.84,0,0,1-1-1L18.63,15S18.62,14.31,19.25,14.72Z" transform="translate(-0.26 -2.13)"/><path class="cls-3" d="M10.22,28.17a10,10,0,0,0,10-10H.26A10,10,0,0,0,10.22,28.17Z" transform="translate(-0.26 -2.13)"/><path class="cls-4" d="M10.22,8.26a10,10,0,0,0-10,10H20.17A10,10,0,0,0,10.22,8.26Z" transform="translate(-0.26 -2.13)"/><circle class="cls-2" cx="9.95" cy="16.08" r="9.41"/><path class="cls-4" d="M9.1,17.55,4.48,13s-.71-.92-1.31,0a11.34,11.34,0,0,0-1.72,4.21.73.73,0,0,0,.86.89H8.84S9.47,18.1,9.1,17.55Z" transform="translate(-0.26 -2.13)"/><path class="cls-4" d="M11.42,18.05l6.49,0s1.16.16.95-.92A11.48,11.48,0,0,0,17.14,13a.73.73,0,0,0-1.23,0l-4.68,4.56S10.78,17.92,11.42,18.05Z" transform="translate(-0.26 -2.13)"/><path class="cls-4" d="M10,17V10.51s.15-1.15-.93-.93a11.47,11.47,0,0,0-4.21,1.74.73.73,0,0,0,0,1.23L9.39,17.2S9.84,17.65,10,17Z" transform="translate(-0.26 -2.13)"/><path class="cls-4" d="M10.91,17.25l4.62-4.55s.93-.7,0-1.32a11.47,11.47,0,0,0-4.19-1.77.73.73,0,0,0-.9.84L10.37,17S10.36,17.62,10.91,17.25Z" transform="translate(-0.26 -2.13)"/><path class="cls-4" d="M9.16,19,4.54,23.57s-.71.92-1.32,0A11.54,11.54,0,0,1,1.5,19.36a.74.74,0,0,1,.86-.89H8.9S9.53,18.47,9.16,19Z" transform="translate(-0.26 -2.13)"/><path class="cls-4" d="M11.48,18.51l6.49,0s1.15-.15.94.93a11.48,11.48,0,0,1-1.71,4.21.74.74,0,0,1-1.24,0l-4.68-4.57S10.83,18.64,11.48,18.51Z" transform="translate(-0.26 -2.13)"/><path class="cls-4" d="M10,19.56v6.49s.14,1.16-.93.94a11.47,11.47,0,0,1-4.21-1.74.74.74,0,0,1,0-1.24l4.59-4.65S9.89,18.91,10,19.56Z" transform="translate(-0.26 -2.13)"/><path class="cls-4" d="M11,19.31l4.62,4.55s.93.71,0,1.32A11.48,11.48,0,0,1,11.42,27a.73.73,0,0,1-.9-.85l-.09-6.53S10.42,19,11,19.31Z" transform="translate(-0.26 -2.13)"/></svg>