<svg id="Layer_1" data-name="Layer 1" xmlns="http://www.w3.org/2000/svg" viewBox="0 0 371.37 486.96"><defs><style>.cls-1{fill:#d8e9bd;}</style></defs><path class="cls-1" d="M227.16,67.25A11.45,11.45,0,0,1,230.55,65a13.35,13.35,0,0,1,2.13-.75,8.48,8.48,0,0,1,1.89-.35,5.56,5.56,0,0,1,3.84,1.34,11.09,11.09,0,0,1,2.93,4,7.89,7.89,0,0,0-.3-5.33,8.4,8.4,0,0,0-5.29-4.38,13.73,13.73,0,0,0-3.95-.5,23,23,0,0,0-3.57.41,19.05,19.05,0,0,0-6.61,2.72,22,22,0,0,0-7.9,9.54A32.88,32.88,0,0,0,211,82.27a31.11,31.11,0,0,0,0,5.46,29.64,29.64,0,0,0,1.06,5.43,43.49,43.49,0,0,0,4.44,9.74c3.62,6.09,8,11.3,12.07,17.12.08-6.85-2.53-13.43-4.46-19.54a72.23,72.23,0,0,1-2.43-9,30.18,30.18,0,0,1-.37-8.6c.54-5.85,2-11.91,5.83-15.65" transform="translate(-64.31 -6.52)"/><path class="cls-1" d="M121.73,335.58a131.46,131.46,0,0,0,45.77,33.3c-7-6.26-14.16-12.11-20.35-18.89-3.3-3.16-6.18-6.71-9.17-10.1-1.45-1.74-2.8-3.56-4.21-5.32s-2.78-3.54-4.05-5.41a186.29,186.29,0,0,1-24.59-47.56c-6-16.89-9.74-34.64-12-52.7a359.35,359.35,0,0,1-2.45-55.2c-5.94,17.89-8,36.94-7.73,55.92a179.69,179.69,0,0,0,9.9,56.3,147.51,147.51,0,0,0,28.89,49.66" transform="translate(-64.31 -6.52)"/><path class="cls-1" d="M288.41,229.59c5.64.29,11.27.55,16.91.62l8.45.16c3,0,5.9-.08,8.77-.25,11.47-.65,22.69-2,33.94-3.73,5.61-.95,11.22-2,16.83-3.32a112.47,112.47,0,0,0,17.05-5.19,80.93,80.93,0,0,0,16-8.51c5.14-3.71,10.1-8.71,12.68-15.57a26.39,26.39,0,0,0,1.37-5.33,23.5,23.5,0,0,0,.23-2.78,19.55,19.55,0,0,0-.14-3,22,22,0,0,0-4.46-10.45,38.41,38.41,0,0,0-15.71-11.61A73.07,73.07,0,0,0,383,155.65l-8.52-1.16-8.47-.86c-22.63-2.08-45.24-1.51-67.6.11s-44.54,4.37-66.76,6.92c22.37.33,44.74-.57,67-.53s44.42.73,66.2,3.6l8.15,1.2,8,1.47A63.6,63.6,0,0,1,395.69,171a33.6,33.6,0,0,1,6.17,3.62,22.33,22.33,0,0,1,4.64,4.62,10.14,10.14,0,0,1,2,4.8,10.93,10.93,0,0,1,0,1.16c0,.46-.09.92-.16,1.38a14.48,14.48,0,0,1-.8,2.74,23.5,23.5,0,0,1-8.48,9.78,69.41,69.41,0,0,1-13.6,7,101.85,101.85,0,0,1-15,4.38c-5.28,1.17-10.65,2.15-16.06,3-10.79,1.76-21.76,3.17-32.58,3.87-2.71.17-5.36.27-8,.29l-8.29-.08c-5.54,0-11.05-.28-16.58-.39a560.5,560.5,0,0,1-66-5.88A448.55,448.55,0,0,1,96,173.07c37.81,24,80.93,39.92,125.25,48.34a486.22,486.22,0,0,0,67.16,8.18" transform="translate(-64.31 -6.52)"/><path class="cls-1" d="M64.31,419.74c3.43,2.39,7,4.61,10.52,6.75s7.1,4.32,10.72,6.33,7.26,4,10.89,6,7.33,3.83,11.09,5.56a389.49,389.49,0,0,0,45.58,18.85,332.13,332.13,0,0,0,47.42,12.32A293,293,0,0,0,249,480.44a285,285,0,0,0,96-15.23c30.9-10.77,60.24-26.29,88.1-44.72a284.94,284.94,0,0,1-84.54,54.25c-3.91,1.64-7.95,3-11.92,4.45l-6,2.13c-2,.66-4.09,1.17-6.13,1.76-4.1,1.13-8.18,2.34-12.3,3.39l-12.49,2.65a272.91,272.91,0,0,1-50.89,4.34,279.58,279.58,0,0,1-99.23-20.75,307.11,307.11,0,0,1-45.12-22.78c-7.15-4.43-14.16-9.06-20.87-14.1a203.62,203.62,0,0,1-19.28-16.09" transform="translate(-64.31 -6.52)"/><path class="cls-1" d="M275.56,22.78a54.19,54.19,0,0,1,13.35-9.91,69.11,69.11,0,0,1,16.85-6.35,50.38,50.38,0,0,0-9.47,1,59.22,59.22,0,0,0-9.2,2.49,55.24,55.24,0,0,0-16.39,9,44,44,0,0,0-6.52,6.33A48.65,48.65,0,0,0,259,32.56a52.8,52.8,0,0,0-6,15.86l-1.34,6.38,7.74-1.95a22.25,22.25,0,0,1,6.37-.78,13.69,13.69,0,0,1,2.85.42c.47.12.84.23,1.51.46a7.77,7.77,0,0,1,.9.4,6.68,6.68,0,0,1,2.83,3.26,6.84,6.84,0,0,1,.3,4.47c-.92,3.45-3.48,6.93-6.78,10.31-1.62,1.72-3.42,3.45-5.23,5.29s-3.54,3.72-5.2,5.64a106,106,0,0,0-16.4,24.86c-4,8.92-6.18,18.06-8.22,27.17,4.39-8.55,7.81-17.4,13.22-25.24A138.19,138.19,0,0,1,264,86.91c3.47-3.51,7.06-6.62,11-10.27,3.75-3.66,7.63-8,9.22-13.68,1.69-5.94-.67-13-7.55-16.78a24.64,24.64,0,0,0-12.73-2.42,52.22,52.22,0,0,1,2.92-8.34,44.28,44.28,0,0,1,8.73-12.64" transform="translate(-64.31 -6.52)"/><path class="cls-1" d="M435.47,211.69a157.9,157.9,0,0,0-2.57-23.2c.08,7.76-.36,15.47-1,23.12s-1.62,15.26-3,22.78a244.21,244.21,0,0,1-11.68,43.93c-10.65,28.16-27.3,53.88-50.11,73a102.14,102.14,0,0,1-8.7,6.94L354,361.6c-1.54,1-3.14,2-4.7,3l-4.7,3a43.84,43.84,0,0,1-4.81,2.86l-9.88,5.28c-3.34,1.67-6.84,3.05-10.25,4.6l-5.15,2.28-5.32,1.89-10.65,3.79-10.91,3.11L282.11,393c-1.84.45-3.71.79-5.57,1.19-3.72.79-7.45,1.55-11.16,2.4-7.48,1.5-15.07,2.42-22.64,3.69l-22.94,2.4c-7.69.43-15.4.89-23.16,1.53,30.76,3.87,62.39,3.59,93.29-2.88l11.58-2.5c3.8-1.09,7.58-2.29,11.38-3.44l5.69-1.74,5.54-2.2c3.68-1.51,7.43-2.87,11.05-4.53a178.88,178.88,0,0,0,40.4-25.72c24.7-20.73,42.11-49.35,51.23-79.63a207.48,207.48,0,0,0,8.41-46.43,213.42,213.42,0,0,0,.26-23.45" transform="translate(-64.31 -6.52)"/></svg>