<?xml version="1.0" encoding="utf-8"?>
<!-- Generator: Adobe Illustrator 24.2.0, SVG Export Plug-In . SVG Version: 6.00 Build 0)  -->
<svg version="1.1" id="Layer_1" xmlns="http://www.w3.org/2000/svg" xmlns:xlink="http://www.w3.org/1999/xlink" x="0px" y="0px"
	 viewBox="0 0 500 500" style="enable-background:new 0 0 500 500;" xml:space="preserve">
<style type="text/css">
	.st0{fill:#712013;}
</style>
<g>
	<path class="st0" d="M377.1,447.8c-40.1,0-80.2-0.1-120-0.4l0.1-16.7c79.4,0.6,160.2,0.6,239.9,0l0.1,16.7
		C457.4,447.7,417.3,447.8,377.1,447.8z"/>
	<path class="st0" d="M343.3,249.1c0-65.7-33.5-123.6-84.4-157.5v315C309.8,372.7,343.3,314.8,343.3,249.1z"/>
	<path class="st0" d="M158.2,285.4c0,65.7,33.5,123.6,84.4,157.5v-315C191.8,161.8,158.2,219.7,158.2,285.4z"/>
	<path class="st0" d="M111,65.3l-6.7,1.3v53.6H121V80.6c57-8.6,105,14.5,118.7,22l3,1.6l0-18.9C222.3,75,170.7,53.8,111,65.3z"/>
	<path class="st0" d="M194.2,419.8c-50.4,14-102.4,6-144.1-22.6c-7.5-5.1-14.9-10.9-22.5-17.4H2.6c13.1,12.4,25.5,22.6,38,31.1
		c31.1,21.3,58.6,32.2,104.8,32.2c20.8,0,41.8-3.4,62.5-10.2C203.2,428.9,198.6,424.4,194.2,419.8z"/>
</g>
</svg>
