<svg id="Layer_1" data-name="Layer 1" xmlns="http://www.w3.org/2000/svg" viewBox="0 0 288.11 84.7"><defs><style>.cls-1{fill:#1d1d1b;}</style></defs><path class="cls-1" d="M215.45,318.21c-.06.34-.15.53-.29.56a2.48,2.48,0,0,1-1.1-.16q-.87-.24-1-.48a.48.48,0,0,1,0-.18,1.58,1.58,0,0,1,0-.23,1.57,1.57,0,0,0,0-.27V312a27.42,27.42,0,0,0-1.48,5,.37.37,0,0,0,0,.11,2.31,2.31,0,0,0,0,.38,2.45,2.45,0,0,1,0,.34q0,.38,0,.48a.37.37,0,0,1-.26.29,2,2,0,0,1-.42,0,3.19,3.19,0,0,1-2.14-.54c-.07-.05-.09-.15-.08-.3a1,1,0,0,0,0-.35c-.29-.91-.56-1.71-.79-2.4a27.14,27.14,0,0,0-1.09-2.94v4.78a1.27,1.27,0,0,0,.1.43,4.21,4.21,0,0,1,.13.42,2.14,2.14,0,0,1,0,.58c0,.27-.07.44-.17.5a.53.53,0,0,1-.27.05,4.13,4.13,0,0,1-1.06-.16,1.52,1.52,0,0,1-.78-.32.34.34,0,0,1-.06-.2,1.93,1.93,0,0,1,0-.24,1.21,1.21,0,0,0,0-.27v-8.51a.67.67,0,0,1,.12-.33.61.61,0,0,1,.27-.24,4.44,4.44,0,0,1,1.57.29c1,.24,1.46.46,1.52.64a.89.89,0,0,1,0,.29,2.38,2.38,0,0,0,0,.3.38.38,0,0,0,0,.19l1.62,4.36c.22-.71.63-2.16,1.22-4.33q.45-1.67.72-1.74a.58.58,0,0,1,.19,0,3.83,3.83,0,0,1,.69.11,4.88,4.88,0,0,0,.73.15l1.09.1c.38.08.59.21.64.4a1.1,1.1,0,0,1,0,.18,1.43,1.43,0,0,1-.06.34,1.45,1.45,0,0,0-.06.33v7.35a.8.8,0,0,0,.15.36A.62.62,0,0,1,215.45,318.21Z" transform="translate(-204.66 -308.29)"/><path class="cls-1" d="M224,317.86c0,.07,0,.24,0,.51a.65.65,0,0,1-.09.33.51.51,0,0,1-.21,0,3,3,0,0,1-1-.2,1.88,1.88,0,0,1-.87-.46,2.15,2.15,0,0,1-.19-.72,10.4,10.4,0,0,0-.3-1.33,8.9,8.9,0,0,0-1.33.33,5.2,5.2,0,0,0-1.14.45c-.12.35-.28.77-.48,1.27a2.49,2.49,0,0,1-.08.32.45.45,0,0,1-.21.25l-.11,0a2.84,2.84,0,0,1-1-.3c-.45-.2-.69-.33-.7-.39a1.72,1.72,0,0,1,.22-.83c.26-.64.41-1,.45-1.18a.71.71,0,0,1-.25-.5.57.57,0,0,1,0-.13c0-.1.26-.27.73-.52l1.55-5.29a2.08,2.08,0,0,0,0-.53c0-.22,0-.35.07-.41a.46.46,0,0,1,.29-.06,6.7,6.7,0,0,1,1.61.29,3.09,3.09,0,0,1,1.25.52,33.21,33.21,0,0,0,.54,4A19,19,0,0,0,224,317.86Zm-3.13-3.65c-.11-.5-.17-.84-.19-1a14.54,14.54,0,0,1-.18-1.66c-.16.39-.35.93-.57,1.63a9.85,9.85,0,0,0-.37,1.37A9.8,9.8,0,0,1,220.85,314.21Z" transform="translate(-204.66 -308.29)"/><path class="cls-1" d="M231.64,316.92c.07.14-.08.47-.43,1s-.65.8-.9.79a.71.71,0,0,1-.61-.41,1.44,1.44,0,0,0-.18-.35L227,315.59v2.22a.78.78,0,0,0,.1.34.74.74,0,0,1,.11.3c0,.24-.16.37-.47.39a3.4,3.4,0,0,1-1.07-.13c-.51-.11-.77-.23-.77-.36a.61.61,0,0,1,0-.16,1,1,0,0,0,0-.26v-8.38a.4.4,0,0,0,0-.15.16.16,0,0,1,0-.1c0-.21.17-.34.48-.38a2,2,0,0,1,.65.11,2.77,2.77,0,0,0,.73.13,3,3,0,0,0,.83-.33,2.56,2.56,0,0,1,1.1-.32,1.55,1.55,0,0,1,.37,0,1.3,1.3,0,0,1,.62.31c.18.16.36.32.52.48q.66.62.69.66a1.26,1.26,0,0,1,.33.8q.08,1.4-2.37,3.58.49.45,2.22,2.22a2.23,2.23,0,0,1,.31.14A2.1,2.1,0,0,1,231.64,316.92ZM229,310.21a4.44,4.44,0,0,0-2,1.18v1.84a4.22,4.22,0,0,0,1.36-1.24,3,3,0,0,0,.84-1.54Q229.19,310.21,229,310.21Z" transform="translate(-204.66 -308.29)"/><path class="cls-1" d="M238.93,316.69a2.5,2.5,0,0,1-.41,1.13c-.31.58-.57.85-.77.83s-.74-.51-1.52-1.43a14.54,14.54,0,0,0-1.6-1.75v2.21a.83.83,0,0,0,.08.25c0,.12.07.21.08.26,0,.32,0,.53-.2.63a.82.82,0,0,1-.4.07,2.82,2.82,0,0,1-1-.2c-.38-.16-.57-.33-.57-.53v-8.79a1.15,1.15,0,0,1,.16-.51.74.74,0,0,1,.35-.35h.11a3,3,0,0,1,1,.26c.42.18.66.33.7.45a6.35,6.35,0,0,1-.12.87,8.18,8.18,0,0,0-.16,1.37c0,.1,0,.2,0,.28l2.07-3.17a.51.51,0,0,1,.45-.27,2.13,2.13,0,0,1,.89.39c.44.29.67.56.67.81a8.47,8.47,0,0,1-1,1.35,24.12,24.12,0,0,0-1.89,2.71l2.42,2.78a.72.72,0,0,0,.39.16C238.83,316.53,238.92,316.6,238.93,316.69Z" transform="translate(-204.66 -308.29)"/><path class="cls-1" d="M245.12,317a1,1,0,0,1-.21.44.82.82,0,0,1-.3.28s-.07,0-.14,0a.29.29,0,0,0-.15-.06h0a5.16,5.16,0,0,0-.74.29A6.49,6.49,0,0,0,241.9,319l-1.31-.54q-.75-.33-.75-.48v-9c0-.05.1-.13.28-.24a.87.87,0,0,1,.42-.14,2.91,2.91,0,0,1,.57.18,2,2,0,0,0,.71.18,2,2,0,0,0,.94-.33c.35-.2.57-.29.66-.26a2.79,2.79,0,0,1,.86.63,2.28,2.28,0,0,1,.62.76c0,.07-.06.2-.23.37s-.3.27-.4.27a.32.32,0,0,1-.19,0s-.07,0-.09,0a6.23,6.23,0,0,0-.8.23,3.68,3.68,0,0,0-1.31.69v2a8.87,8.87,0,0,1,1.09-.45q.19,0,.81.54c.42.37.62.63.62.77a.46.46,0,0,1-.17.31.77.77,0,0,1-.32.23l-.42,0a6.18,6.18,0,0,0-1.61.76v1.26c.24-.14.57-.31,1-.51a3.09,3.09,0,0,1,.76-.29,2.42,2.42,0,0,1,.85.52C244.92,316.7,245.14,316.92,245.12,317Z" transform="translate(-204.66 -308.29)"/><path class="cls-1" d="M251.52,310.54a.77.77,0,0,1-.27-.08.41.41,0,0,0-.27,0l-1.24.33v6.31a2,2,0,0,0,.17.76,1.06,1.06,0,0,1,0,.46.7.7,0,0,1-.23.46l-.12,0a6,6,0,0,1-1.11-.16,2.13,2.13,0,0,1-.93-.35.51.51,0,0,1,0-.57,1.31,1.31,0,0,0,.16-.46v-5.94l-.86.22a.49.49,0,0,0-.19.1.3.3,0,0,1-.24.06c-.18,0-.43-.28-.75-.71s-.46-.72-.42-.87.25-.32.56-.42a.77.77,0,0,1,.31,0h.3l4.18-1.07.35-.14a.54.54,0,0,1,.34-.06.57.57,0,0,1,.46.26,2.06,2.06,0,0,1,.18.54,3.31,3.31,0,0,1,.12.82.87.87,0,0,1-.07.4Q251.88,310.53,251.52,310.54Z" transform="translate(-204.66 -308.29)"/><path class="cls-1" d="M260.79,309.65a1,1,0,0,1-.16.41.56.56,0,0,1-.41.27.38.38,0,0,1-.22,0,.71.71,0,0,0-.2-.05,3.53,3.53,0,0,0-1,.35,5.45,5.45,0,0,0-1.29.68v2.2l.57-.34a1.24,1.24,0,0,1,.54-.22c.14,0,.41.22.8.68s.58.76.56.91a.68.68,0,0,1-.24.43.91.91,0,0,1-.33.22.35.35,0,0,1-.19,0,.49.49,0,0,0-.17-.06.09.09,0,0,0-.07,0c-.24.09-.44.18-.62.26a3.24,3.24,0,0,0-.85.49v1.75a.4.4,0,0,0,.13.26.51.51,0,0,1,.12.32.74.74,0,0,1-.63.8,5.13,5.13,0,0,1-1.14-.68c-.35-.28-.52-.52-.52-.73v-7.93a.62.62,0,0,0-.14-.39c-.09-.14-.13-.23-.11-.3a.6.6,0,0,1,.23-.36.69.69,0,0,1,.43-.2,1.87,1.87,0,0,1,.66.34,2.75,2.75,0,0,0,.73.39l1.32-.54a3.17,3.17,0,0,1,.54-.28c.2,0,.54.16,1,.54S260.81,309.48,260.79,309.65Z" transform="translate(-204.66 -308.29)"/><path class="cls-1" d="M266.82,317a1.34,1.34,0,0,1-.21.44.83.83,0,0,1-.31.28s-.07,0-.13,0a.32.32,0,0,0-.16-.06h0a5.78,5.78,0,0,0-.75.29,6.87,6.87,0,0,0-1.63,1.05l-1.31-.54c-.49-.22-.74-.38-.74-.48v-9c0-.05.09-.13.28-.24a.87.87,0,0,1,.41-.14,2.93,2.93,0,0,1,.58.18,1.93,1.93,0,0,0,.71.18,2,2,0,0,0,.93-.33c.36-.2.58-.29.66-.26a2.68,2.68,0,0,1,.86.63,2.15,2.15,0,0,1,.62.76c0,.07-.06.2-.22.37s-.3.27-.4.27a.35.35,0,0,1-.2,0s-.06,0-.08,0a5.42,5.42,0,0,0-.8.23,3.59,3.59,0,0,0-1.31.69v2a8.26,8.26,0,0,1,1.09-.45q.19,0,.81.54c.41.37.62.63.62.77a.51.51,0,0,1-.17.31.77.77,0,0,1-.32.23l-.42,0a6,6,0,0,0-1.61.76v1.26c.24-.14.56-.31,1-.51a3,3,0,0,1,.76-.29,2.42,2.42,0,0,1,.84.52C266.62,316.7,266.83,316.92,266.82,317Z" transform="translate(-204.66 -308.29)"/><path class="cls-1" d="M273,317c-.1.37-.25.6-.46.68a.54.54,0,0,1-.26,0,.53.53,0,0,0-.23,0l-1.78.75a.44.44,0,0,0-.17.2c-.06.11-.12.18-.18.19a2,2,0,0,1-1.11-.18,2.29,2.29,0,0,1-1-.51.89.89,0,0,1-.09-.6,2.13,2.13,0,0,0,0-.3v-8.07a.47.47,0,0,0-.1-.2.23.23,0,0,1-.07-.14c0-.16.15-.27.42-.34a2.83,2.83,0,0,1,1.09.18c.63.18.95.4,1,.65a.61.61,0,0,1-.13.29.55.55,0,0,0-.13.28v6.64L271,316a1.79,1.79,0,0,1,.41-.22,2.48,2.48,0,0,1,.9.51C272.79,316.6,273,316.83,273,317Z" transform="translate(-204.66 -308.29)"/><path class="cls-1" d="M277.59,310.54a.73.73,0,0,1-.26-.08.43.43,0,0,0-.28,0l-1.23.33v6.31a1.84,1.84,0,0,0,.17.76,1,1,0,0,1,0,.46c0,.24-.12.4-.23.46a.22.22,0,0,1-.12,0,5.87,5.87,0,0,1-1.1-.16,2.2,2.2,0,0,1-.94-.35.51.51,0,0,1,0-.57,1.24,1.24,0,0,0,.15-.46v-5.94l-.85.22a.51.51,0,0,0-.2.1.28.28,0,0,1-.23.06c-.19,0-.44-.28-.76-.71s-.46-.72-.42-.87a.81.81,0,0,1,.57-.42.77.77,0,0,1,.31,0h.3l4.17-1.07.35-.14a.58.58,0,0,1,.35-.06.59.59,0,0,1,.46.26,3.27,3.27,0,0,1,.18.54,3.31,3.31,0,0,1,.12.82,1,1,0,0,1-.07.4C278,310.48,277.83,310.53,277.59,310.54Z" transform="translate(-204.66 -308.29)"/><path class="cls-1" d="M289.4,312.1c-.37,1-.75,2.25-1.13,3.73a14.62,14.62,0,0,0-.49,2.23v.45c0,.2-.08.32-.21.34a3.91,3.91,0,0,1-1-.19c-.6-.15-.92-.27-1-.37a4.16,4.16,0,0,1,0-.55,14.61,14.61,0,0,1-.52-3c0,.22-.17.81-.4,1.75a7.5,7.5,0,0,0-.27,1.37c0,.17,0,.33,0,.49s-.09.36-.23.4H284a3.36,3.36,0,0,1-1-.17c-.41-.13-.66-.28-.74-.47a.38.38,0,0,1,0-.2.9.9,0,0,0,0-.32c-.16-.89-.33-1.78-.5-2.66s-.3-1.84-.4-2.78c0-.26,0-.4,0-.43,0-.33.1-.49.31-.48a3.11,3.11,0,0,1,.86.25c.44.18.66.32.69.42a2.2,2.2,0,0,1,0,.52c.05.61.18,1.7.38,3.26l.82-3.95c.07-.29.19-.45.38-.49a2.82,2.82,0,0,1,.72.29q.63.31.63.42a35.46,35.46,0,0,0,.53,3.73,34.57,34.57,0,0,1,.95-4q.09-.45.48-.39a2.48,2.48,0,0,1,.75.26C289.13,311.75,289.35,311.92,289.4,312.1Z" transform="translate(-204.66 -308.29)"/><path class="cls-1" d="M292.58,318.19q0,.44-.3.54l-.17,0a4,4,0,0,1-1.06-.18c-.46-.13-.73-.27-.81-.41s0-.19.11-.37a1.42,1.42,0,0,0,.11-.66v-5a2.54,2.54,0,0,1-.15-.62q0-.15.45-.15a3.24,3.24,0,0,1,1,.22,1.89,1.89,0,0,1,.77.39.16.16,0,0,1,0,.12,1.14,1.14,0,0,1-.14.36,1.05,1.05,0,0,0-.14.4v4.82a.56.56,0,0,0,.14.3A.83.83,0,0,1,292.58,318.19Zm0-8.29a.25.25,0,0,1,0,.1,3,3,0,0,1-.11.68c-.08.31-.15.47-.23.51a3.4,3.4,0,0,1-1-.26c-.61-.21-.93-.35-1-.44a.4.4,0,0,1,0-.18,1.62,1.62,0,0,1,.17-.68c.13-.28.27-.43.43-.46a2.21,2.21,0,0,1,1,.21A1.45,1.45,0,0,1,292.62,309.9Z" transform="translate(-204.66 -308.29)"/><path class="cls-1" d="M298.82,309.21a1,1,0,0,1-.09.46,4.08,4.08,0,0,0-.11.4v7.82a1.23,1.23,0,0,0,.06.5c.12.2.15.34.11.42s-.15.09-.32.09a4.34,4.34,0,0,1-.84-.11l-.67-.13a.37.37,0,0,1-.31-.29.42.42,0,0,1,0-.15,11.5,11.5,0,0,1,.13-1.47c-.19.39-.38.77-.56,1.16s-.5.68-.71.64a2.67,2.67,0,0,1-2.37-2.9,6,6,0,0,1,.76-2.81,3.91,3.91,0,0,1,1.61-1.8.49.49,0,0,1,.23-.06c.2,0,.54.25,1,.75V309.4a1.39,1.39,0,0,0-.11-.34,1.26,1.26,0,0,1-.09-.37c0-.17.11-.25.33-.25a3.07,3.07,0,0,1,.87.17l.7.22A.45.45,0,0,1,298.82,309.21Zm-2.09,3.09a2.82,2.82,0,0,0-1.21,1.32,4,4,0,0,0-.55,1.9c0,.68.26,1.05.79,1.11C296,316.67,296.37,315.22,296.73,312.3Z" transform="translate(-204.66 -308.29)"/><path class="cls-1" d="M304.39,316.33c.07.12-.08.48-.47,1.07a3.92,3.92,0,0,1-1.22,1.29.61.61,0,0,1-.22,0,3.44,3.44,0,0,1-1.22-.29,2.32,2.32,0,0,1-1.06-.62,4,4,0,0,1-.69-2.5,5.58,5.58,0,0,1,.61-2.66,2,2,0,0,1,1.68-1.28,2.24,2.24,0,0,1,.9.19,3,3,0,0,1,1.07.68,1.5,1.5,0,0,1,.2.65,5.5,5.5,0,0,1,.12,1.13,1.86,1.86,0,0,1-.26,1.13,9.53,9.53,0,0,1-2.52.44,4.22,4.22,0,0,0,.14,1.24c.11.43.23.65.35.66s.35-.13.57-.4a1.84,1.84,0,0,0,.38-.59,5.6,5.6,0,0,1,.22-.74,2,2,0,0,1,.76.19A1.36,1.36,0,0,1,304.39,316.33Zm-2.14-3.67c-.13,0-.32.2-.57.65a3.49,3.49,0,0,0-.42,1.28,1.46,1.46,0,0,0,.86-.26c.13-.1.19-.5.19-1.2C302.31,312.83,302.29,312.68,302.25,312.66Z" transform="translate(-204.66 -308.29)"/><path class="cls-1" d="M212.16,329.2c-.06-1.12-.13-2.49-.13-3.49h0c-.28.94-.61,2-1,3.07l-1.43,3.92h-.78l-1.32-3.85c-.39-1.14-.7-2.18-.93-3.14h0c0,1-.08,2.36-.16,3.57l-.22,3.47h-1l.56-8.08H207l1.37,3.91c.34,1,.61,1.88.82,2.72h0c.21-.82.49-1.71.85-2.72l1.45-3.91h1.33l.5,8.08h-1Z" transform="translate(-204.66 -308.29)"/><path class="cls-1" d="M215.42,327l1.27,3.43c.14.38.28.84.37,1.18h0c.1-.34.23-.78.37-1.21l1.15-3.4h1.12l-1.59,4.13c-.75,2-1.27,3-2,3.64a3,3,0,0,1-1.29.68l-.26-.89a2.6,2.6,0,0,0,.92-.51,3.33,3.33,0,0,0,.89-1.18.64.64,0,0,0,.08-.25.67.67,0,0,0-.08-.27L214.27,327Z" transform="translate(-204.66 -308.29)"/><path class="cls-1" d="M220.69,328.76c0-.69,0-1.27-.05-1.81h.93l0,1.14h0a1.76,1.76,0,0,1,1.61-1.27,1.29,1.29,0,0,1,.29,0v1a1.79,1.79,0,0,0-.36,0,1.48,1.48,0,0,0-1.41,1.35,3.74,3.74,0,0,0,0,.49v3.1h-1.05Z" transform="translate(-204.66 -308.29)"/><path class="cls-1" d="M225.84,325.31a.64.64,0,0,1-.67.66.62.62,0,0,1-.63-.66.65.65,0,1,1,1.3,0Zm-1.18,7.44V327h1.05v5.8Z" transform="translate(-204.66 -308.29)"/><path class="cls-1" d="M230.69,332.75l-.09-.73h0a2.14,2.14,0,0,1-1.77.86,1.65,1.65,0,0,1-1.77-1.66c0-1.41,1.24-2.18,3.48-2.16v-.13a1.19,1.19,0,0,0-1.32-1.33,2.84,2.84,0,0,0-1.51.43l-.24-.7a3.67,3.67,0,0,1,1.92-.51c1.77,0,2.2,1.21,2.2,2.37v2.17a8.47,8.47,0,0,0,.09,1.39Zm-.17-3c-1.14,0-2.44.18-2.44,1.3a.93.93,0,0,0,1,1,1.44,1.44,0,0,0,1.41-1,1,1,0,0,0,.05-.33Z" transform="translate(-204.66 -308.29)"/><path class="cls-1" d="M238.26,324.23v7c0,.52,0,1.1.05,1.5h-.94l-.05-1h0a2.13,2.13,0,0,1-2,1.13,2.65,2.65,0,0,1-2.49-2.94c0-1.94,1.2-3.12,2.61-3.12a1.94,1.94,0,0,1,1.75.88h0v-3.47Zm-1,5.08a2.28,2.28,0,0,0,0-.45,1.55,1.55,0,0,0-1.53-1.21c-1.09,0-1.74,1-1.74,2.23s.58,2.15,1.72,2.15a1.58,1.58,0,0,0,1.54-1.26,1.66,1.66,0,0,0,.05-.46Z" transform="translate(-204.66 -308.29)"/><path class="cls-1" d="M244,332.75l-2.65-8.08h1.14l1.25,4c.35,1.09.65,2.08.87,3h0a30.45,30.45,0,0,1,.92-3l1.36-4H248l-2.89,8.08Z" transform="translate(-204.66 -308.29)"/><path class="cls-1" d="M251.65,332.75l-.09-.73h0a2.18,2.18,0,0,1-1.78.86,1.65,1.65,0,0,1-1.77-1.66c0-1.41,1.25-2.18,3.49-2.16v-.13a1.19,1.19,0,0,0-1.32-1.33,2.81,2.81,0,0,0-1.51.43l-.24-.7a3.63,3.63,0,0,1,1.91-.51c1.77,0,2.21,1.21,2.21,2.37v2.17a9.83,9.83,0,0,0,.08,1.39Zm-.16-3c-1.14,0-2.45.18-2.45,1.3a.93.93,0,0,0,1,1,1.46,1.46,0,0,0,1.42-1,1.32,1.32,0,0,0,.05-.33Z" transform="translate(-204.66 -308.29)"/><path class="cls-1" d="M254.22,328.76c0-.69,0-1.27-.05-1.81h.92l0,1.14h0a1.76,1.76,0,0,1,1.62-1.27,1.36,1.36,0,0,1,.29,0v1a1.86,1.86,0,0,0-.36,0,1.47,1.47,0,0,0-1.41,1.35,2.56,2.56,0,0,0,0,.49v3.1h-1.05Z" transform="translate(-204.66 -308.29)"/><path class="cls-1" d="M259.37,325.31a.66.66,0,1,1-1.31,0,.65.65,0,0,1,.66-.66A.63.63,0,0,1,259.37,325.31Zm-1.18,7.44V327h1.05v5.8Z" transform="translate(-204.66 -308.29)"/><path class="cls-1" d="M264.22,332.75l-.1-.73h0a2.16,2.16,0,0,1-1.77.86,1.65,1.65,0,0,1-1.77-1.66c0-1.41,1.24-2.18,3.48-2.16v-.13a1.19,1.19,0,0,0-1.32-1.33,2.84,2.84,0,0,0-1.51.43l-.24-.7a3.64,3.64,0,0,1,1.92-.51c1.77,0,2.2,1.21,2.2,2.37v2.17a8.47,8.47,0,0,0,.09,1.39Zm-.17-3c-1.14,0-2.45.18-2.45,1.3a.93.93,0,0,0,1,1,1.45,1.45,0,0,0,1.41-1,1,1,0,0,0,.05-.33Z" transform="translate(-204.66 -308.29)"/><path class="cls-1" d="M266.73,332.75c0-.4,0-1,0-1.5v-7h1.05v3.65h0a2.17,2.17,0,0,1,2-1.06c1.44,0,2.46,1.2,2.45,2.95,0,2.08-1.32,3.11-2.61,3.11a2.08,2.08,0,0,1-1.94-1.08h0l-.06.95Zm1.1-2.32a2.33,2.33,0,0,0,0,.38,1.63,1.63,0,0,0,1.59,1.23c1.11,0,1.76-.9,1.76-2.23,0-1.16-.6-2.16-1.73-2.16a1.68,1.68,0,0,0-1.6,1.29,2,2,0,0,0-.06.44Z" transform="translate(-204.66 -308.29)"/><path class="cls-1" d="M273.61,324.23h1.05v8.52h-1.05Z" transform="translate(-204.66 -308.29)"/><path class="cls-1" d="M277,330a1.85,1.85,0,0,0,2,2,4,4,0,0,0,1.61-.29l.18.75a4.8,4.8,0,0,1-1.93.37A2.71,2.71,0,0,1,276,330c0-1.76,1-3.13,2.73-3.13a2.45,2.45,0,0,1,2.39,2.73,2.72,2.72,0,0,1,0,.49Zm3.09-.76a1.5,1.5,0,0,0-1.45-1.71,1.73,1.73,0,0,0-1.62,1.71Z" transform="translate(-204.66 -308.29)"/><path class="cls-1" d="M290.68,332.49a5.18,5.18,0,0,1-2.14.39,3.78,3.78,0,0,1-4-4.1,4,4,0,0,1,4.22-4.24,4.29,4.29,0,0,1,1.92.36l-.26.85a3.77,3.77,0,0,0-1.63-.34,3,3,0,0,0-3.15,3.34,2.93,2.93,0,0,0,3.1,3.24,4.27,4.27,0,0,0,1.71-.33Z" transform="translate(-204.66 -308.29)"/><path class="cls-1" d="M297.08,329.79a2.84,2.84,0,0,1-2.89,3.09,2.76,2.76,0,0,1-2.79-3,2.83,2.83,0,0,1,2.89-3.07A2.74,2.74,0,0,1,297.08,329.79Zm-4.6.07c0,1.27.73,2.23,1.76,2.23s1.76-.94,1.76-2.26c0-1-.49-2.22-1.74-2.22S292.48,328.76,292.48,329.86Z" transform="translate(-204.66 -308.29)"/><path class="cls-1" d="M298.42,328.52c0-.61,0-1.09-.05-1.57h.93l.06.95h0a2.14,2.14,0,0,1,1.92-1.08c.79,0,2,.48,2,2.47v3.46H302.3v-3.34c0-.94-.35-1.73-1.34-1.73a1.51,1.51,0,0,0-1.42,1.09,1.38,1.38,0,0,0-.08.48v3.5h-1Z" transform="translate(-204.66 -308.29)"/><path class="cls-1" d="M309.21,332.54a3.91,3.91,0,0,1-1.66.34,2.77,2.77,0,0,1-2.9-3,3,3,0,0,1,3.12-3.09,3.47,3.47,0,0,1,1.47.31l-.24.81a2.53,2.53,0,0,0-1.23-.28,2,2,0,0,0-2,2.2,2,2,0,0,0,2,2.17,3.05,3.05,0,0,0,1.29-.28Z" transform="translate(-204.66 -308.29)"/><path class="cls-1" d="M311,330a1.85,1.85,0,0,0,2,2,4,4,0,0,0,1.61-.29l.19.75a4.86,4.86,0,0,1-1.94.37A2.7,2.7,0,0,1,310,330c0-1.76,1-3.13,2.73-3.13a2.44,2.44,0,0,1,2.38,2.73,2.93,2.93,0,0,1,0,.49Zm3.09-.76a1.51,1.51,0,0,0-1.46-1.71,1.74,1.74,0,0,0-1.62,1.71Z" transform="translate(-204.66 -308.29)"/><path class="cls-1" d="M316.39,328.84c0-.74,0-1.34-.05-1.89h.94l.06,1h0a2.25,2.25,0,0,1,2.05-1.12c1.41,0,2.47,1.18,2.47,2.94,0,2.09-1.28,3.12-2.64,3.12a2,2,0,0,1-1.79-.91h0v3.15h-1.05Zm1.05,1.55a2,2,0,0,0,0,.43,1.62,1.62,0,0,0,1.58,1.24c1.12,0,1.76-.92,1.76-2.25,0-1.16-.6-2.15-1.72-2.15a1.66,1.66,0,0,0-1.59,1.3,1.55,1.55,0,0,0-.07.43Z" transform="translate(-204.66 -308.29)"/><path class="cls-1" d="M324.49,325.28V327H326v.8h-1.51v3.13c0,.72.2,1.13.79,1.13a2.08,2.08,0,0,0,.61-.08l.05.8a2.65,2.65,0,0,1-.94.15,1.47,1.47,0,0,1-1.14-.45,2.22,2.22,0,0,1-.41-1.51v-3.17h-.9V327h.9v-1.4Z" transform="translate(-204.66 -308.29)"/><path class="cls-1" d="M329.73,328.76c0-.69,0-1.27-.05-1.81h.93l0,1.14h0a1.76,1.76,0,0,1,1.61-1.27,1.39,1.39,0,0,1,.3,0v1a1.94,1.94,0,0,0-.36,0,1.48,1.48,0,0,0-1.42,1.35,3.74,3.74,0,0,0,0,.49v3.1h-1Z" transform="translate(-204.66 -308.29)"/><path class="cls-1" d="M334.13,330a1.85,1.85,0,0,0,2,2,4,4,0,0,0,1.61-.29l.19.75a4.86,4.86,0,0,1-1.94.37,2.7,2.7,0,0,1-2.85-2.93c0-1.76,1-3.13,2.73-3.13a2.44,2.44,0,0,1,2.38,2.73,2.93,2.93,0,0,1,0,.49Zm3.09-.76a1.5,1.5,0,0,0-1.46-1.71,1.75,1.75,0,0,0-1.62,1.71Z" transform="translate(-204.66 -308.29)"/><path class="cls-1" d="M344.56,327c0,.41-.05.88-.05,1.59v3.37a3.38,3.38,0,0,1-.83,2.65,3.13,3.13,0,0,1-2.11.7,3.77,3.77,0,0,1-1.94-.48l.26-.81a3.31,3.31,0,0,0,1.71.46c1.08,0,1.87-.56,1.87-2v-.65h0a2.06,2.06,0,0,1-1.85,1,2.6,2.6,0,0,1-2.47-2.84,2.78,2.78,0,0,1,2.62-3.07,1.94,1.94,0,0,1,1.81,1h0l.05-.87Zm-1.1,2.28a1.73,1.73,0,0,0-.06-.47,1.52,1.52,0,0,0-1.48-1.12c-1,0-1.73.85-1.73,2.2,0,1.13.59,2.09,1.72,2.09a1.56,1.56,0,0,0,1.47-1.09,2.1,2.1,0,0,0,.08-.56Z" transform="translate(-204.66 -308.29)"/><path class="cls-1" d="M351.11,331.16c0,.61,0,1.13.05,1.59h-.93l-.06-.95h0a2.16,2.16,0,0,1-1.92,1.08c-.91,0-2-.51-2-2.54V327h1v3.2c0,1.11.35,1.86,1.3,1.86a1.52,1.52,0,0,0,1.39-1,1.49,1.49,0,0,0,.1-.54V327h1.05Z" transform="translate(-204.66 -308.29)"/><path class="cls-1" d="M352.87,324.23h1.05v8.52h-1.05Z" transform="translate(-204.66 -308.29)"/><path class="cls-1" d="M358.92,332.75l-.09-.73h0a2.14,2.14,0,0,1-1.77.86,1.65,1.65,0,0,1-1.77-1.66c0-1.41,1.24-2.18,3.48-2.16v-.13a1.19,1.19,0,0,0-1.32-1.33,2.84,2.84,0,0,0-1.51.43l-.24-.7a3.64,3.64,0,0,1,1.92-.51c1.77,0,2.2,1.21,2.2,2.37v2.17a8.47,8.47,0,0,0,.09,1.39Zm-.17-3c-1.14,0-2.44.18-2.44,1.3a.93.93,0,0,0,1,1,1.44,1.44,0,0,0,1.41-1,1,1,0,0,0,.05-.33Z" transform="translate(-204.66 -308.29)"/><path class="cls-1" d="M361.48,328.76c0-.69,0-1.27,0-1.81h.92l0,1.14h0a1.76,1.76,0,0,1,1.61-1.27,1.39,1.39,0,0,1,.3,0v1a1.94,1.94,0,0,0-.36,0,1.47,1.47,0,0,0-1.41,1.35,2.54,2.54,0,0,0-.05.49v3.1h-1Z" transform="translate(-204.66 -308.29)"/><path class="cls-1" d="M207.13,352.3a1,1,0,0,1,0,.23,1.87,1.87,0,0,0-.07.18,5.48,5.48,0,0,0-.14.74v7.37a.48.48,0,0,0,.07.26.32.32,0,0,1,.07.18c0,.51-.09.79-.29.83a3.54,3.54,0,0,1-.84-.16,2.55,2.55,0,0,1-.88-.3.6.6,0,0,1-.27-.42.19.19,0,0,1,.05-.1.36.36,0,0,0,.05-.21v-8.46a.42.42,0,0,0,0-.15.3.3,0,0,1,0-.15c0-.19.17-.32.45-.38a2.36,2.36,0,0,1,.55,0,4.48,4.48,0,0,1,.86.13C207,352,207.13,352.12,207.13,352.3Z" transform="translate(-204.66 -308.29)"/><path class="cls-1" d="M213.68,360.87a1,1,0,0,1,.1.45.48.48,0,0,1-.28.49.68.68,0,0,1-.3,0,4.26,4.26,0,0,1-1-.13,1.67,1.67,0,0,1-.68-.24.25.25,0,0,1-.06-.16,1,1,0,0,1,.18-.42,1,1,0,0,0,.18-.43c0-3.15,0-4.74-.07-4.76s-.39.32-.83,1.08a4.1,4.1,0,0,0-.7,1.81v2.24a.51.51,0,0,1,.16.39.62.62,0,0,1-.41.62.28.28,0,0,1-.14,0,4.36,4.36,0,0,1-1-.15,1.94,1.94,0,0,1-.7-.24.36.36,0,0,1-.07-.22.54.54,0,0,1,.14-.29.62.62,0,0,0,.14-.21v-5.58a.54.54,0,0,0-.1-.25.37.37,0,0,1-.06-.27.46.46,0,0,1,.37-.32,2.54,2.54,0,0,1,.9.13c.51.13.79.26.84.4a.69.69,0,0,1,0,.39,3.71,3.71,0,0,0-.14.48,1,1,0,0,0,.05.29,3.65,3.65,0,0,1,.51-1.07c.26-.37.52-.56.79-.56a2.74,2.74,0,0,1,1,.28c.44.19.68.36.75.51Q213.68,356,213.68,360.87Z" transform="translate(-204.66 -308.29)"/><path class="cls-1" d="M218.63,355.75a.67.67,0,0,1-.15.39.36.36,0,0,1-.28.17l-.09,0a2.82,2.82,0,0,0-.75-.06V361l.07.2a.84.84,0,0,1,.08.36c0,.23-.16.35-.48.37a3.12,3.12,0,0,1-.92-.22c-.49-.16-.75-.31-.78-.44a.69.69,0,0,1,.08-.36,1.25,1.25,0,0,0,.11-.41v-4.25h-.41c-.15,0-.34-.13-.56-.4a1.13,1.13,0,0,1-.34-.64.49.49,0,0,1,.14-.33.43.43,0,0,1,.31-.14h.86v-1.08a.84.84,0,0,1-.18-.52.29.29,0,0,1,.22-.31l.3,0a4.2,4.2,0,0,1,1,.14,2.1,2.1,0,0,1,.78.28.23.23,0,0,1,.08.17.69.69,0,0,1-.19.36.78.78,0,0,0-.2.33v.65h.38c.08,0,.25.14.5.43S218.63,355.63,218.63,355.75Z" transform="translate(-204.66 -308.29)"/><path class="cls-1" d="M224,355.27a.28.28,0,0,1-.13.32,2.49,2.49,0,0,0-.28.15c-.5.77-1.19,1.81-2,3.11,0,1.27,0,1.93,0,2l.09.3a1.57,1.57,0,0,1,.08.39.32.32,0,0,1-.2.32.9.9,0,0,1-.36.06,2.85,2.85,0,0,1-1-.21c-.47-.16-.7-.36-.7-.61a1,1,0,0,1,.1-.35,1.17,1.17,0,0,0,.09-.39v-4.76c-.08-.44-.13-.68-.13-.69a.43.43,0,0,1,.34-.47,1.61,1.61,0,0,1,.35,0,3.16,3.16,0,0,1,.88.14q.47.14.54.3a.21.21,0,0,1,0,.12,5,5,0,0,1-.17.57v.58l.56-1c.25-.44.44-.66.56-.69a1.3,1.3,0,0,1,.8.31Q223.92,355,224,355.27Z" transform="translate(-204.66 -308.29)"/><path class="cls-1" d="M228.28,354.76a2.15,2.15,0,0,1,1,1.26,5.9,5.9,0,0,1,.32,2,6.62,6.62,0,0,1-.55,2.81c-.41.84-.92,1.23-1.53,1.15-.22-.06-.56-.13-1-.21a5.17,5.17,0,0,1-.89-.18,1.73,1.73,0,0,1-1.09-1.16,5.6,5.6,0,0,1-.38-2.14,6.16,6.16,0,0,1,.39-2.24,2.92,2.92,0,0,1,1.21-1.55.74.74,0,0,1,.36-.07,5.1,5.1,0,0,1,1,.16A6.85,6.85,0,0,1,228.28,354.76Zm-1.35,1.08q-.31,0-.6.78a4.68,4.68,0,0,0-.27,1.51,6.93,6.93,0,0,0,.2,1.7c.15.61.33.94.53,1s.48-.23.68-.87a6.68,6.68,0,0,0,.29-2,4.52,4.52,0,0,0-.16-1.21C227.46,356.13,227.24,355.84,226.93,355.84Z" transform="translate(-204.66 -308.29)"/><path class="cls-1" d="M236.27,352.41a1.38,1.38,0,0,1-.09.46,3,3,0,0,0-.12.4v7.82a1.23,1.23,0,0,0,.06.5c.12.2.16.34.11.42s-.14.09-.31.09a4.25,4.25,0,0,1-.84-.11l-.67-.13c-.15,0-.25-.11-.31-.29a.32.32,0,0,1,0-.15,11.94,11.94,0,0,1,.14-1.47c-.2.39-.39.77-.57,1.16s-.5.68-.71.64a2.67,2.67,0,0,1-2.36-2.9,6,6,0,0,1,.75-2.81,4,4,0,0,1,1.61-1.8.53.53,0,0,1,.23-.06q.3,0,1.05.75V352.6a2.05,2.05,0,0,0-.11-.34,1.07,1.07,0,0,1-.1-.37c0-.17.11-.25.34-.25a3,3,0,0,1,.86.17l.71.22A.46.46,0,0,1,236.27,352.41Zm-2.09,3.09a2.83,2.83,0,0,0-1.22,1.32,4.08,4.08,0,0,0-.54,1.9c0,.68.26,1,.79,1.11C233.49,359.87,233.81,358.42,234.18,355.5Z" transform="translate(-204.66 -308.29)"/><path class="cls-1" d="M242.75,354.78a.46.46,0,0,1,.08.24.51.51,0,0,1-.14.29c-.09.11-.13.18-.13.22v5.58a.79.79,0,0,0,.07.25.64.64,0,0,1,.08.26c0,.15-.12.25-.37.31a2.32,2.32,0,0,1-.9-.13c-.51-.13-.79-.25-.84-.38a.58.58,0,0,1,0-.42,1.74,1.74,0,0,0,.11-.43,2.23,2.23,0,0,0,0-.32,3.65,3.65,0,0,1-.51,1.07c-.26.37-.52.55-.79.55a2.88,2.88,0,0,1-1-.27c-.43-.19-.68-.35-.75-.51q-.33-.76-.33-5.67a1.09,1.09,0,0,1-.1-.46.49.49,0,0,1,.28-.5.68.68,0,0,1,.3,0,4.26,4.26,0,0,1,1,.13,1.47,1.47,0,0,1,.68.26.22.22,0,0,1,.06.15,1,1,0,0,1-.18.43,1,1,0,0,0-.18.42c0,3.16,0,4.74.07,4.77s.4-.33.85-1.11a4.13,4.13,0,0,0,.68-1.78v-2.25a.49.49,0,0,1-.16-.38.64.64,0,0,1,.41-.64l.15,0a4.38,4.38,0,0,1,.94.15A2.08,2.08,0,0,1,242.75,354.78Z" transform="translate(-204.66 -308.29)"/><path class="cls-1" d="M248.83,359.29c0,.16-.13.36-.39.62a5.27,5.27,0,0,1-.58,1,2.11,2.11,0,0,1-1.36.85l-.32,0a3.17,3.17,0,0,1-1.66-.65c-.57-.38-.85-1.26-.85-2.65a7.91,7.91,0,0,1,.47-2.78c.34-.91.76-1.37,1.26-1.41a3.37,3.37,0,0,1,1.44.32,2.57,2.57,0,0,1,1.15.76,1.55,1.55,0,0,1,.25.93c0,.1,0,.25,0,.45a2,2,0,0,0,0,.41c0,.22,0,.32,0,.3,0,.26-.12.38-.37.37a2.76,2.76,0,0,1-.82-.13.9.9,0,0,1-.62-.49.36.36,0,0,1,.1-.29.39.39,0,0,0,.11-.3,1.63,1.63,0,0,0,0-.42c0-.48-.09-.73-.25-.74s-.48.37-.65,1.16a10.44,10.44,0,0,0-.24,2.31c0,1,.11,1.5.35,1.56s.42-.16.72-.6a2.77,2.77,0,0,0,.4-.77c0-.13,0-.26,0-.4a.38.38,0,0,1,.44-.31,3.18,3.18,0,0,1,.75.28c.36.16.55.29.57.37A1,1,0,0,1,248.83,359.29Z" transform="translate(-204.66 -308.29)"/><path class="cls-1" d="M252,361.39q.06.44-.3.54l-.16,0a4,4,0,0,1-1.07-.18c-.46-.13-.73-.27-.81-.41s0-.19.11-.37a1.42,1.42,0,0,0,.11-.66v-5a2.36,2.36,0,0,1-.14-.62c0-.1.14-.15.44-.15a3.24,3.24,0,0,1,1,.22,2,2,0,0,1,.78.39.21.21,0,0,1,0,.12.93.93,0,0,1-.14.36,1,1,0,0,0-.13.4v4.82a.53.53,0,0,0,.13.3A.55.55,0,0,1,252,361.39Zm0-8.29a.25.25,0,0,1,0,.1,2.54,2.54,0,0,1-.11.68c-.08.31-.15.47-.22.51a3.43,3.43,0,0,1-1-.26c-.6-.21-.93-.35-1-.44a.42.42,0,0,1,0-.18,1.6,1.6,0,0,1,.16-.68c.13-.28.28-.43.44-.46a2.27,2.27,0,0,1,1,.21A1.46,1.46,0,0,1,252,353.1Z" transform="translate(-204.66 -308.29)"/><path class="cls-1" d="M258.6,360.87a1.2,1.2,0,0,1,.09.45.49.49,0,0,1-.27.49.74.74,0,0,1-.3,0,4.19,4.19,0,0,1-1-.13,1.67,1.67,0,0,1-.69-.24.25.25,0,0,1-.06-.16,1,1,0,0,1,.18-.42,1,1,0,0,0,.18-.43,45.42,45.42,0,0,0-.07-4.76c-.11,0-.39.32-.83,1.08a4.18,4.18,0,0,0-.69,1.81v2.24a.54.54,0,0,1,.15.39.61.61,0,0,1-.41.62.28.28,0,0,1-.14,0,4.45,4.45,0,0,1-1-.15,1.85,1.85,0,0,1-.69-.24.37.37,0,0,1-.08-.22.54.54,0,0,1,.14-.29.62.62,0,0,0,.14-.21v-5.58a.45.45,0,0,0-.1-.25.37.37,0,0,1-.06-.27.47.47,0,0,1,.38-.32,2.59,2.59,0,0,1,.9.13c.51.13.79.26.84.4a.63.63,0,0,1,0,.39,2.92,2.92,0,0,0-.13.48.77.77,0,0,0,0,.29,3.63,3.63,0,0,1,.5-1.07,1.07,1.07,0,0,1,.79-.56,2.78,2.78,0,0,1,1.06.28c.43.19.68.36.74.51Q258.61,356,258.6,360.87Z" transform="translate(-204.66 -308.29)"/><path class="cls-1" d="M264.8,355.29l-.13.24a.57.57,0,0,0-.08.26v5.26a2.42,2.42,0,0,1-1.48,2.55,3.44,3.44,0,0,1-1.25.27,2,2,0,0,1-1.41-.56,4.77,4.77,0,0,1-.58-.62l-.23-.23a.48.48,0,0,1-.13-.27c0-.12.11-.22.36-.29H260a2.27,2.27,0,0,1,.63.1,1.3,1.3,0,0,1,.53.27l.39.49a.71.71,0,0,0,.48.28c.33,0,.54-.2.64-.68a6.86,6.86,0,0,0,.07-1.23l-.23.31a1.46,1.46,0,0,1-.25.28.41.41,0,0,1-.28.12,1.63,1.63,0,0,1-1.06-.35,3.91,3.91,0,0,1-1.29-3.18,4.94,4.94,0,0,1,.57-2.39,2.66,2.66,0,0,1,1.53-1.42l.13,0a.76.76,0,0,1,.44.18l.4.32.15-.4a.34.34,0,0,1,.25-.22,2.52,2.52,0,0,1,.89.16,1.64,1.64,0,0,1,.73.34A.48.48,0,0,1,264.8,355.29Zm-2.12,2.95a13.11,13.11,0,0,0,.09-1.36c0-.65-.1-1-.31-1.09s-.37.22-.61.85a4.92,4.92,0,0,0-.36,1.73,6.45,6.45,0,0,0,.32,2.24A5.5,5.5,0,0,0,262.68,358.24Z" transform="translate(-204.66 -308.29)"/><path class="cls-1" d="M279,361.41c-.06.34-.15.53-.29.56a2.48,2.48,0,0,1-1.1-.16q-.87-.24-1-.48a.48.48,0,0,1,0-.18,1.58,1.58,0,0,1,0-.23,1.57,1.57,0,0,0,0-.27V355.2a27.42,27.42,0,0,0-1.48,5,.37.37,0,0,0,0,.11,2.31,2.31,0,0,0,0,.38,2.45,2.45,0,0,1,0,.34q0,.38,0,.48a.37.37,0,0,1-.26.29,2,2,0,0,1-.42,0,3.19,3.19,0,0,1-2.14-.54c-.07-.05-.09-.15-.08-.3a1,1,0,0,0,0-.35c-.29-.91-.56-1.71-.79-2.4a27.14,27.14,0,0,0-1.09-2.94v4.78a1.27,1.27,0,0,0,.1.43,4.21,4.21,0,0,1,.13.42,2.14,2.14,0,0,1,0,.58c0,.27-.07.44-.17.5a.53.53,0,0,1-.27,0,4.13,4.13,0,0,1-1.06-.16,1.52,1.52,0,0,1-.78-.32.34.34,0,0,1-.06-.2,1.93,1.93,0,0,1,0-.24,1.21,1.21,0,0,0,.05-.27v-8.51a.67.67,0,0,1,.12-.33.61.61,0,0,1,.27-.24,4.44,4.44,0,0,1,1.57.29c1,.24,1.46.46,1.52.64a.89.89,0,0,1,0,.29,2.38,2.38,0,0,0,0,.3.38.38,0,0,0,0,.19l1.62,4.36c.22-.71.63-2.16,1.22-4.33q.45-1.67.72-1.74a.58.58,0,0,1,.19,0,3.83,3.83,0,0,1,.69.11,4.88,4.88,0,0,0,.73.15l1.09.1c.38.08.59.21.64.4a1.1,1.1,0,0,1,0,.18,1.43,1.43,0,0,1-.06.34,1.45,1.45,0,0,0-.06.33v7.35a.8.8,0,0,0,.15.36A.62.62,0,0,1,279,361.41Z" transform="translate(-204.66 -308.29)"/><path class="cls-1" d="M285.45,361.37a.38.38,0,0,1-.14.29.34.34,0,0,1-.3.09c-1-.13-1.54-.32-1.66-.56a.3.3,0,0,1,0-.1.27.27,0,0,1,.05-.13.4.4,0,0,0,.07-.12.27.27,0,0,1,.05-.11,2.28,2.28,0,0,0,0-.42,2.54,2.54,0,0,0-.43.58,3.33,3.33,0,0,1-.53.72,1.26,1.26,0,0,1-.88.36.88.88,0,0,1-.56-.23,6.52,6.52,0,0,1-.47-.47l-.62-.7a1.09,1.09,0,0,1-.25-.64.62.62,0,0,1,0-.19,3.61,3.61,0,0,1,1.42-2,13.72,13.72,0,0,1,2.44-1.45c0-.25-.06-.42-.19-.49s-.36,0-.84.27a5.58,5.58,0,0,0-1,.58,2.55,2.55,0,0,1-.31.27.47.47,0,0,1-.37.07,2.27,2.27,0,0,1-.56-.43c-.29-.27-.45-.44-.47-.53a.4.4,0,0,1,.2-.51l.48-.14.89-.48a4.25,4.25,0,0,1,1.58-.48.94.94,0,0,1,.63.29l.63.54.65.53a.91.91,0,0,1,.39.64V361A1.06,1.06,0,0,1,285.45,361.37Zm-1.92-3.5a2.57,2.57,0,0,0-1,.69l-.63.76a2.87,2.87,0,0,0-.47.65,1.42,1.42,0,0,0-.22.6c0,.06,0,.09.07.09s.54-.36,1.13-1.08A7.68,7.68,0,0,0,283.53,357.87Z" transform="translate(-204.66 -308.29)"/><path class="cls-1" d="M291.08,355.27a.28.28,0,0,1-.13.32,2.49,2.49,0,0,0-.28.15c-.5.77-1.18,1.81-2.05,3.11,0,1.27,0,1.93,0,2l.09.3a1.21,1.21,0,0,1,.08.39.32.32,0,0,1-.2.32.9.9,0,0,1-.36.06,2.85,2.85,0,0,1-1-.21c-.46-.16-.7-.36-.7-.61a1.29,1.29,0,0,1,.1-.35,1.24,1.24,0,0,0,.1-.39v-4.76l-.14-.69a.44.44,0,0,1,.34-.47,1.69,1.69,0,0,1,.35,0,3.16,3.16,0,0,1,.88.14c.31.09.49.19.55.3a.37.37,0,0,1,0,.12,5,5,0,0,1-.17.57v.58l.57-1c.24-.44.43-.66.55-.69a1.3,1.3,0,0,1,.8.31Q291,355,291.08,355.27Z" transform="translate(-204.66 -308.29)"/><path class="cls-1" d="M297.6,360.46a1.67,1.67,0,0,1-.46.83c-.32.4-.57.58-.74.56-.35-.05-1.07-1-2.19-2.78l-.4.42v1.41a1.49,1.49,0,0,0,0,.22c0,.1,0,.18,0,.23,0,.27,0,.44-.17.52a.76.76,0,0,1-.35.06,2.5,2.5,0,0,1-.89-.16c-.33-.13-.5-.28-.5-.46v-8.9a.9.9,0,0,1,.12-.42.53.53,0,0,1,.28-.29h.09a2.66,2.66,0,0,1,.87.21c.37.14.58.26.62.36a.56.56,0,0,1,0,.15.55.55,0,0,1-.1.24.6.6,0,0,0-.1.28v4.17l1.78-2.44a.52.52,0,0,1,.4-.23,1.19,1.19,0,0,1,.63.29,1,1,0,0,1,.47.66,3.22,3.22,0,0,1-.56.94c-.6.85-.94,1.35-1.05,1.51L297,360a1,1,0,0,0,.35.25C297.51,360.3,297.59,360.38,297.6,360.46Z" transform="translate(-204.66 -308.29)"/><path class="cls-1" d="M303.13,359.53c.07.12-.08.48-.47,1.07a3.92,3.92,0,0,1-1.22,1.29.61.61,0,0,1-.22,0,3.44,3.44,0,0,1-1.22-.29,2.32,2.32,0,0,1-1.06-.62,4,4,0,0,1-.69-2.5,5.58,5.58,0,0,1,.61-2.66,2,2,0,0,1,1.68-1.28,2.24,2.24,0,0,1,.9.19,3,3,0,0,1,1.07.68,1.5,1.5,0,0,1,.2.65,5.5,5.5,0,0,1,.12,1.13,1.86,1.86,0,0,1-.26,1.13,9.53,9.53,0,0,1-2.52.44,4.22,4.22,0,0,0,.14,1.24c.11.43.23.65.35.66s.35-.13.57-.4a1.84,1.84,0,0,0,.38-.59,5.6,5.6,0,0,1,.22-.74,2,2,0,0,1,.76.19A1.36,1.36,0,0,1,303.13,359.53ZM301,355.86c-.13,0-.32.2-.57.65a3.49,3.49,0,0,0-.42,1.28,1.46,1.46,0,0,0,.86-.26c.13-.1.19-.5.19-1.2C301.05,356,301,355.88,301,355.86Z" transform="translate(-204.66 -308.29)"/><path class="cls-1" d="M308,355.75a.74.74,0,0,1-.14.39.39.39,0,0,1-.29.17l-.09,0a2.82,2.82,0,0,0-.75-.06V361l.08.2a1,1,0,0,1,.07.36c0,.23-.16.35-.48.37a3.19,3.19,0,0,1-.92-.22c-.49-.16-.75-.31-.78-.44a.69.69,0,0,1,.08-.36,1,1,0,0,0,.11-.41v-4.25h-.41c-.15,0-.34-.13-.56-.4a1.2,1.2,0,0,1-.34-.64.49.49,0,0,1,.14-.33.44.44,0,0,1,.31-.14h.86v-1.08a.84.84,0,0,1-.18-.52.29.29,0,0,1,.22-.31l.3,0a4.33,4.33,0,0,1,1,.14,2.11,2.11,0,0,1,.77.28.2.2,0,0,1,.08.17.69.69,0,0,1-.19.36.91.91,0,0,0-.2.33v.65h.38c.08,0,.25.14.51.43S308,355.63,308,355.75Z" transform="translate(-204.66 -308.29)"/><path class="cls-1" d="M316.93,352.85a1,1,0,0,1-.17.41.54.54,0,0,1-.41.27.36.36,0,0,1-.21,0,.76.76,0,0,0-.21-.05,3.73,3.73,0,0,0-1,.35,5.35,5.35,0,0,0-1.28.68v2.2l.56-.34a1.34,1.34,0,0,1,.54-.22c.15,0,.41.22.81.68s.58.76.56.91a.79.79,0,0,1-.24.43.86.86,0,0,1-.34.22.37.37,0,0,1-.19,0,.43.43,0,0,0-.17-.06l-.07,0-.61.26a3.24,3.24,0,0,0-.85.49v1.75a.43.43,0,0,0,.12.26.47.47,0,0,1,.13.32.75.75,0,0,1-.64.8,5.63,5.63,0,0,1-1.14-.68c-.34-.28-.51-.52-.51-.73v-7.93a.69.69,0,0,0-.14-.39c-.09-.14-.13-.23-.11-.3a.64.64,0,0,1,.22-.36.71.71,0,0,1,.44-.2,1.87,1.87,0,0,1,.66.34,2.61,2.61,0,0,0,.73.39l1.32-.54a2.54,2.54,0,0,1,.54-.28c.2,0,.53.16,1,.54S317,352.68,316.93,352.85Z" transform="translate(-204.66 -308.29)"/><path class="cls-1" d="M321.67,359.53c.07.12-.08.48-.47,1.07a3.92,3.92,0,0,1-1.22,1.29.61.61,0,0,1-.22,0,3.44,3.44,0,0,1-1.22-.29,2.32,2.32,0,0,1-1.06-.62,4,4,0,0,1-.69-2.5,5.58,5.58,0,0,1,.61-2.66,2,2,0,0,1,1.68-1.28,2.24,2.24,0,0,1,.9.19,3,3,0,0,1,1.07.68,1.5,1.5,0,0,1,.2.65,5.5,5.5,0,0,1,.12,1.13,1.86,1.86,0,0,1-.26,1.13,9.53,9.53,0,0,1-2.52.44,4.22,4.22,0,0,0,.14,1.24c.11.43.23.65.35.66s.35-.13.57-.4a1.84,1.84,0,0,0,.38-.59,5.6,5.6,0,0,1,.22-.74,2,2,0,0,1,.76.19A1.36,1.36,0,0,1,321.67,359.53Zm-2.14-3.67c-.13,0-.32.2-.57.65a3.49,3.49,0,0,0-.42,1.28,1.46,1.46,0,0,0,.86-.26c.13-.1.19-.5.19-1.2C319.59,356,319.57,355.88,319.53,355.86Z" transform="translate(-204.66 -308.29)"/><path class="cls-1" d="M324.85,352.3a1,1,0,0,1-.05.23,1.87,1.87,0,0,0-.07.18,4.24,4.24,0,0,0-.14.74v7.37a.48.48,0,0,0,.07.26.32.32,0,0,1,.07.18c0,.51-.1.79-.29.83a2.85,2.85,0,0,1-.76-.16,2.8,2.8,0,0,1-.79-.3.62.62,0,0,1-.26-.42.19.19,0,0,1,.05-.1.36.36,0,0,0,.05-.21v-8.46a.3.3,0,0,0-.05-.15.42.42,0,0,1,0-.15c0-.19.17-.32.45-.38a1.94,1.94,0,0,1,.5,0,3.84,3.84,0,0,1,.77.13C324.69,352,324.85,352.12,324.85,352.3Z" transform="translate(-204.66 -308.29)"/><path class="cls-1" d="M330,355.75a.67.67,0,0,1-.15.39.38.38,0,0,1-.29.17l-.08,0a2.86,2.86,0,0,0-.76-.06V361a2,2,0,0,1,.08.2,1,1,0,0,1,.08.36c0,.23-.16.35-.48.37a3.05,3.05,0,0,1-.92-.22c-.49-.16-.75-.31-.78-.44a.69.69,0,0,1,.08-.36,1.25,1.25,0,0,0,.11-.41v-4.25h-.41c-.15,0-.34-.13-.56-.4a1.13,1.13,0,0,1-.34-.64.49.49,0,0,1,.14-.33.42.42,0,0,1,.3-.14h.87v-1.08a.84.84,0,0,1-.18-.52.29.29,0,0,1,.21-.31l.3,0a4.21,4.21,0,0,1,1,.14,2.1,2.1,0,0,1,.78.28.23.23,0,0,1,.08.17.69.69,0,0,1-.19.36,1,1,0,0,0-.21.33v.65h.39c.08,0,.25.14.5.43S330,355.63,330,355.75Z" transform="translate(-204.66 -308.29)"/><path class="cls-1" d="M339,361.37a.47.47,0,0,1-.14.29.34.34,0,0,1-.3.09c-1-.13-1.55-.32-1.66-.56a.16.16,0,0,1,0-.1.2.2,0,0,1,.05-.13.4.4,0,0,0,.07-.12.25.25,0,0,1,0-.11,2,2,0,0,0,0-.42,2.8,2.8,0,0,0-.44.58,3.36,3.36,0,0,1-.52.72,1.26,1.26,0,0,1-.88.36.88.88,0,0,1-.56-.23,4.91,4.91,0,0,1-.47-.47l-.63-.7a1.16,1.16,0,0,1-.25-.64.63.63,0,0,1,0-.19,3.64,3.64,0,0,1,1.41-2,13.86,13.86,0,0,1,2.45-1.45c0-.25-.06-.42-.19-.49s-.36,0-.84.27a5.23,5.23,0,0,0-1,.58,3.69,3.69,0,0,1-.31.27.48.48,0,0,1-.37.07,2.44,2.44,0,0,1-.57-.43,2,2,0,0,1-.47-.53.42.42,0,0,1,.21-.51l.48-.14.89-.48a4.25,4.25,0,0,1,1.58-.48.94.94,0,0,1,.62.29l.63.54c.22.18.43.36.66.53a.92.92,0,0,1,.38.64V361A1.14,1.14,0,0,1,339,361.37Zm-1.92-3.5a2.61,2.61,0,0,0-1,.69l-.62.76a2.89,2.89,0,0,0-.48.65,1.58,1.58,0,0,0-.22.6c0,.06,0,.09.07.09s.55-.36,1.13-1.08A7.82,7.82,0,0,0,337.09,357.87Z" transform="translate(-204.66 -308.29)"/><path class="cls-1" d="M344.36,360.45a1.34,1.34,0,0,1-.44,1.05,1.79,1.79,0,0,1-1.23.41,1.7,1.7,0,0,1-.42-.06l-.43-.12-.44-.1a.87.87,0,0,1-.37-.19,2.86,2.86,0,0,1-.52-.66c-.14-.22-.27-.45-.4-.68a1.78,1.78,0,0,1-.19-.42c0-.11.08-.2.24-.25a.54.54,0,0,1,.22,0,6.88,6.88,0,0,1,.9.08,2,2,0,0,1,.6.13,3.37,3.37,0,0,1,.13.69c.05.37.13.55.25.55s.28-.24.28-.74-.17-1-.51-1.19a4.88,4.88,0,0,1-1.51-1,2.36,2.36,0,0,1-.44-1.56,2.52,2.52,0,0,1,.36-1.29,1.41,1.41,0,0,1,.85-.72,4,4,0,0,1,1.39.45,4.47,4.47,0,0,0,.64.13.94.94,0,0,1,.53.26,1.55,1.55,0,0,1,.26.87c0,.3,0,.59,0,.89a3.79,3.79,0,0,1,.09.48.34.34,0,0,1-.33.38,1.66,1.66,0,0,1-.66-.13,1.4,1.4,0,0,1-.68-.37,4.21,4.21,0,0,1-.07-.9c0-.54-.08-.8-.17-.8s-.23.15-.34.46a3.24,3.24,0,0,0-.15,1c0,.42.09.69.27.8l1.17.65a2.3,2.3,0,0,1,.81.68A2.22,2.22,0,0,1,344.36,360.45Z" transform="translate(-204.66 -308.29)"/><path class="cls-1" d="M353.45,361.37a.43.43,0,0,1-.15.29.34.34,0,0,1-.3.09c-1-.13-1.54-.32-1.65-.56a.17.17,0,0,1,0-.1.22.22,0,0,1,.06-.13.66.66,0,0,0,.06-.12.27.27,0,0,1,.05-.11,2.28,2.28,0,0,0,0-.42,2.88,2.88,0,0,0-.43.58,3.33,3.33,0,0,1-.53.72,1.24,1.24,0,0,1-.87.36.91.91,0,0,1-.57-.23,6.52,6.52,0,0,1-.47-.47l-.62-.7a1.09,1.09,0,0,1-.25-.64,1.23,1.23,0,0,1,0-.19,3.66,3.66,0,0,1,1.42-2,13.49,13.49,0,0,1,2.45-1.45c0-.25-.07-.42-.2-.49s-.36,0-.84.27a5.08,5.08,0,0,0-1,.58c-.07.07-.17.15-.32.27a.47.47,0,0,1-.37.07,2.48,2.48,0,0,1-.56-.43c-.29-.27-.45-.44-.47-.53a.41.41,0,0,1,.2-.51l.48-.14.89-.48a4.25,4.25,0,0,1,1.58-.48.94.94,0,0,1,.63.29l.63.54.65.53a.91.91,0,0,1,.39.64V361A1.4,1.4,0,0,1,353.45,361.37Zm-1.92-3.5a2.53,2.53,0,0,0-1,.69l-.63.76a3.21,3.21,0,0,0-.47.65,1.42,1.42,0,0,0-.22.6c0,.06,0,.09.07.09s.54-.36,1.13-1.08A8.21,8.21,0,0,0,351.53,357.87Z" transform="translate(-204.66 -308.29)"/><path class="cls-1" d="M361.34,355.75a.74.74,0,0,1-.14.39.39.39,0,0,1-.29.17l-.09,0a2.82,2.82,0,0,0-.75-.06V361l.08.2a1,1,0,0,1,.07.36c0,.23-.16.35-.48.37a3.19,3.19,0,0,1-.92-.22c-.49-.16-.75-.31-.78-.44a.69.69,0,0,1,.08-.36,1,1,0,0,0,.11-.41v-4.25h-.41c-.15,0-.34-.13-.56-.4a1.2,1.2,0,0,1-.34-.64.49.49,0,0,1,.14-.33.44.44,0,0,1,.31-.14h.86v-1.08a.84.84,0,0,1-.18-.52.29.29,0,0,1,.22-.31l.3,0a4.33,4.33,0,0,1,1,.14,2.11,2.11,0,0,1,.77.28.2.2,0,0,1,.08.17.69.69,0,0,1-.19.36.91.91,0,0,0-.2.33v.65h.38c.08,0,.25.14.51.43S361.34,355.63,361.34,355.75Z" transform="translate(-204.66 -308.29)"/><path class="cls-1" d="M368.55,355.14a.67.67,0,0,1,0,.18.65.65,0,0,1-.18.42,1.59,1.59,0,0,0-.27.39L365.74,363c0,.16,0,.32,0,.48s-.12.4-.24.43l-.14,0a2.39,2.39,0,0,1-.8-.18,1.93,1.93,0,0,1-.67-.35.48.48,0,0,1-.18-.36.85.85,0,0,1,.17-.44,3,3,0,0,0,.19-.34l.39-1.36-1.94-4.77a1.19,1.19,0,0,0-.22-.24.89.89,0,0,1-.2-.48q0-.15.63-.51a2.29,2.29,0,0,1,1-.37.24.24,0,0,1,.15,0,.63.63,0,0,1,.29.4c0,.18.08.35.13.52l1.06,2.92,1.13-3c0-.16.1-.32.15-.48a.46.46,0,0,1,.25-.3.73.73,0,0,1,.27,0,2.32,2.32,0,0,1,.87.19C368.34,354.9,368.52,355,368.55,355.14Z" transform="translate(-204.66 -308.29)"/><path class="cls-1" d="M372.46,361.79a.49.49,0,0,1-.22.06c-.21,0-.56-.24-1.05-.73v2.31a2.41,2.41,0,0,0,.11.35,1.24,1.24,0,0,1,.1.36c0,.17-.12.25-.34.25a3.5,3.5,0,0,1-.88-.16l-.69-.23a.45.45,0,0,1-.35-.37,1,1,0,0,1,.09-.47,2,2,0,0,0,.11-.4V355a1.27,1.27,0,0,0-.06-.5c-.12-.2-.15-.34-.1-.42s.13-.1.31-.1a5.1,5.1,0,0,1,.83.11l.68.13a.39.39,0,0,1,.31.29.63.63,0,0,1,0,.17,10.24,10.24,0,0,1-.14,1.46c.19-.38.38-.76.58-1.14s.49-.71.7-.67a2.7,2.7,0,0,1,2.36,2.93,5.9,5.9,0,0,1-.74,2.77A3.81,3.81,0,0,1,372.46,361.79Zm-.26-5.58c-.29,0-.61,1.41-1,4.33a2.83,2.83,0,0,0,1.22-1.32,4.08,4.08,0,0,0,.54-1.89C373,356.65,372.73,356.27,372.2,356.21Z" transform="translate(-204.66 -308.29)"/><path class="cls-1" d="M380.6,359.53c.07.12-.08.48-.47,1.07a3.92,3.92,0,0,1-1.22,1.29.61.61,0,0,1-.22,0,3.44,3.44,0,0,1-1.22-.29,2.32,2.32,0,0,1-1.06-.62,4,4,0,0,1-.69-2.5,5.58,5.58,0,0,1,.61-2.66,2,2,0,0,1,1.68-1.28,2.24,2.24,0,0,1,.9.19,3,3,0,0,1,1.07.68,1.5,1.5,0,0,1,.2.65,5.5,5.5,0,0,1,.12,1.13,1.86,1.86,0,0,1-.26,1.13,9.53,9.53,0,0,1-2.52.44,4.22,4.22,0,0,0,.14,1.24c.11.43.23.65.35.66s.35-.13.57-.4a1.84,1.84,0,0,0,.38-.59,5.6,5.6,0,0,1,.22-.74,2,2,0,0,1,.76.19A1.36,1.36,0,0,1,380.6,359.53Zm-2.14-3.67c-.13,0-.32.2-.57.65a3.49,3.49,0,0,0-.42,1.28,1.46,1.46,0,0,0,.86-.26c.13-.1.19-.5.19-1.2C378.52,356,378.5,355.88,378.46,355.86Z" transform="translate(-204.66 -308.29)"/><path class="cls-1" d="M385.35,352.62a.62.62,0,0,1-.11.41c-.08.15-.18.22-.27.22s-.13-.05-.23-.13a.58.58,0,0,0-.25-.14c-.37-.06-.55.28-.55,1v.37c0,.16,0,.28,0,.34h.38c.09,0,.26.14.52.43s.38.49.37.61a.74.74,0,0,1-.14.39.39.39,0,0,1-.29.17l-.09,0a2.71,2.71,0,0,0-.75-.06V361a.45.45,0,0,0,.1.25.37.37,0,0,1,.08.26.49.49,0,0,1-.51.42,3.26,3.26,0,0,1-.92-.22c-.49-.16-.75-.31-.78-.44a.69.69,0,0,1,.08-.36,1,1,0,0,0,.11-.41v-4.25h-.41c-.15,0-.33-.13-.55-.4a1.17,1.17,0,0,1-.33-.64.48.48,0,0,1,.13-.33.42.42,0,0,1,.3-.14h.86a7,7,0,0,1,.16-1.84,1.48,1.48,0,0,1,1.55-1.12h.31a1.63,1.63,0,0,1,.81.39C385.2,352.35,385.34,352.51,385.35,352.62Z" transform="translate(-204.66 -308.29)"/><path class="cls-1" d="M391.65,361.37a.42.42,0,0,1-.14.29.34.34,0,0,1-.3.09c-1-.13-1.55-.32-1.66-.56a.3.3,0,0,1,0-.1.27.27,0,0,1,.05-.13.4.4,0,0,0,.07-.12.27.27,0,0,1,.05-.11,2.28,2.28,0,0,0,0-.42,2.54,2.54,0,0,0-.43.58,3.33,3.33,0,0,1-.53.72,1.26,1.26,0,0,1-.88.36.88.88,0,0,1-.56-.23,4.91,4.91,0,0,1-.47-.47l-.62-.7a1.11,1.11,0,0,1-.26-.64.63.63,0,0,1,0-.19,3.64,3.64,0,0,1,1.41-2,14.24,14.24,0,0,1,2.45-1.45c0-.25-.06-.42-.19-.49s-.36,0-.84.27a5.23,5.23,0,0,0-1,.58,3.69,3.69,0,0,1-.31.27.48.48,0,0,1-.37.07,2.44,2.44,0,0,1-.57-.43,1.89,1.89,0,0,1-.46-.53.4.4,0,0,1,.2-.51l.48-.14.89-.48a4.25,4.25,0,0,1,1.58-.48,1,1,0,0,1,.63.29l.63.54.65.53a.89.89,0,0,1,.38.64V361A1.14,1.14,0,0,1,391.65,361.37Zm-1.92-3.5a2.61,2.61,0,0,0-1,.69c-.2.26-.41.51-.62.76a2.59,2.59,0,0,0-.47.65,1.48,1.48,0,0,0-.23.6c0,.06,0,.09.08.09s.54-.36,1.12-1.08A7.82,7.82,0,0,0,389.73,357.87Z" transform="translate(-204.66 -308.29)"/><path class="cls-1" d="M397.77,359.29c0,.16-.13.36-.39.62a5.27,5.27,0,0,1-.58,1,2.11,2.11,0,0,1-1.36.85l-.32,0a3.17,3.17,0,0,1-1.66-.65c-.56-.38-.85-1.26-.85-2.65a7.91,7.91,0,0,1,.47-2.78c.34-.91.76-1.37,1.26-1.41a3.37,3.37,0,0,1,1.44.32,2.57,2.57,0,0,1,1.15.76,1.55,1.55,0,0,1,.25.93,4.23,4.23,0,0,1,0,.45,2,2,0,0,0,0,.41c0,.22,0,.32,0,.3,0,.26-.12.38-.37.37a2.76,2.76,0,0,1-.82-.13.9.9,0,0,1-.62-.49.36.36,0,0,1,.1-.29.45.45,0,0,0,.12-.3,2.86,2.86,0,0,0,0-.42c0-.48-.08-.73-.25-.74s-.47.37-.65,1.16a10.44,10.44,0,0,0-.24,2.31c0,1,.12,1.5.35,1.56s.42-.16.72-.6a2.5,2.5,0,0,0,.4-.77c0-.13,0-.26.05-.4a.38.38,0,0,1,.44-.31,3.18,3.18,0,0,1,.75.28c.36.16.55.29.57.37A1,1,0,0,1,397.77,359.29Z" transform="translate(-204.66 -308.29)"/><path class="cls-1" d="M403.54,359.53c.08.12-.08.48-.46,1.07a4,4,0,0,1-1.23,1.29.58.58,0,0,1-.21,0,3.49,3.49,0,0,1-1.23-.29,2.28,2.28,0,0,1-1.05-.62,4,4,0,0,1-.7-2.5,5.58,5.58,0,0,1,.61-2.66,2,2,0,0,1,1.68-1.28,2.24,2.24,0,0,1,.9.19,3,3,0,0,1,1.07.68,1.5,1.5,0,0,1,.2.65,5.5,5.5,0,0,1,.12,1.13,1.79,1.79,0,0,1-.26,1.13,9.39,9.39,0,0,1-2.52.44,4.22,4.22,0,0,0,.14,1.24c.12.43.23.65.35.66s.35-.13.58-.4a1.78,1.78,0,0,0,.37-.59,5.69,5.69,0,0,1,.23-.74,2,2,0,0,1,.75.19A1.36,1.36,0,0,1,403.54,359.53Zm-2.13-3.67c-.14,0-.33.2-.57.65a3.34,3.34,0,0,0-.43,1.28,1.52,1.52,0,0,0,.87-.26c.12-.1.19-.5.19-1.2C401.47,356,401.45,355.88,401.41,355.86Z" transform="translate(-204.66 -308.29)"/><path class="cls-1" d="M412.54,354.78a.4.4,0,0,1,.09.24.51.51,0,0,1-.14.29c-.09.11-.14.18-.14.22v5.58a.93.93,0,0,0,.08.25.87.87,0,0,1,.08.26c0,.15-.13.25-.37.31a2.32,2.32,0,0,1-.9-.13c-.52-.13-.8-.25-.84-.38a.63.63,0,0,1,0-.42,1.49,1.49,0,0,0,.12-.43,2.23,2.23,0,0,0,0-.32,3.65,3.65,0,0,1-.51,1.07,1,1,0,0,1-.79.55,3,3,0,0,1-1.06-.27c-.43-.19-.68-.35-.74-.51-.22-.51-.34-2.4-.34-5.67A1.25,1.25,0,0,1,407,355a.5.5,0,0,1,.27-.5.74.74,0,0,1,.3,0,4.27,4.27,0,0,1,1,.13,1.47,1.47,0,0,1,.68.26.22.22,0,0,1,.06.15,1,1,0,0,1-.18.43,1,1,0,0,0-.18.42,45.71,45.71,0,0,0,.07,4.77c.11,0,.4-.33.85-1.11a4.13,4.13,0,0,0,.68-1.78v-2.25a.49.49,0,0,1-.16-.38.64.64,0,0,1,.41-.64l.14,0a4.45,4.45,0,0,1,.95.15A2,2,0,0,1,412.54,354.78Z" transform="translate(-204.66 -308.29)"/><path class="cls-1" d="M417.86,360.45a1.34,1.34,0,0,1-.44,1.05,1.79,1.79,0,0,1-1.23.41,1.64,1.64,0,0,1-.42-.06l-.43-.12-.44-.1a1,1,0,0,1-.38-.19,3.15,3.15,0,0,1-.51-.66c-.14-.22-.27-.45-.4-.68a1.41,1.41,0,0,1-.19-.42c0-.11.08-.2.24-.25a.54.54,0,0,1,.22,0,6.88,6.88,0,0,1,.9.08,2.11,2.11,0,0,1,.6.13,3.37,3.37,0,0,1,.13.69c.05.37.13.55.25.55s.28-.24.28-.74-.17-1-.51-1.19a4.76,4.76,0,0,1-1.51-1,2.31,2.31,0,0,1-.44-1.56,2.52,2.52,0,0,1,.36-1.29,1.41,1.41,0,0,1,.85-.72,4,4,0,0,1,1.39.45,4.47,4.47,0,0,0,.64.13.91.91,0,0,1,.52.26,1.47,1.47,0,0,1,.27.87c0,.3,0,.59,0,.89s.08.43.08.48a.34.34,0,0,1-.32.38,1.66,1.66,0,0,1-.66-.13,1.4,1.4,0,0,1-.68-.37,4.57,4.57,0,0,1-.08-.9c0-.54-.08-.8-.17-.8s-.23.15-.33.46a3.24,3.24,0,0,0-.16,1c0,.42.1.69.28.8l1.17.65a2.3,2.3,0,0,1,.81.68A2.22,2.22,0,0,1,417.86,360.45Z" transform="translate(-204.66 -308.29)"/><path class="cls-1" d="M423.62,359.53c.07.12-.08.48-.47,1.07a3.92,3.92,0,0,1-1.22,1.29.61.61,0,0,1-.22,0,3.44,3.44,0,0,1-1.22-.29,2.32,2.32,0,0,1-1.06-.62,4,4,0,0,1-.69-2.5,5.58,5.58,0,0,1,.61-2.66,2,2,0,0,1,1.68-1.28,2.24,2.24,0,0,1,.9.19,3,3,0,0,1,1.07.68,1.5,1.5,0,0,1,.2.65,5.5,5.5,0,0,1,.12,1.13,1.86,1.86,0,0,1-.26,1.13,9.53,9.53,0,0,1-2.52.44,4.22,4.22,0,0,0,.14,1.24c.11.43.23.65.35.66s.35-.13.57-.4a1.84,1.84,0,0,0,.38-.59,5.6,5.6,0,0,1,.22-.74,2,2,0,0,1,.76.19A1.36,1.36,0,0,1,423.62,359.53Zm-2.14-3.67c-.13,0-.32.2-.57.65a3.49,3.49,0,0,0-.42,1.28,1.46,1.46,0,0,0,.86-.26c.13-.1.19-.5.19-1.2C421.54,356,421.52,355.88,421.48,355.86Z" transform="translate(-204.66 -308.29)"/><path class="cls-1" d="M430.2,352.41a1.38,1.38,0,0,1-.09.46,3,3,0,0,0-.12.4v7.82a1.23,1.23,0,0,0,.06.5c.12.2.16.34.11.42s-.14.09-.31.09A4.17,4.17,0,0,1,429,362l-.67-.13c-.15,0-.25-.11-.32-.29a1.19,1.19,0,0,1,0-.15,13.72,13.72,0,0,1,.13-1.47c-.19.39-.38.77-.56,1.16s-.5.68-.71.64a2.67,2.67,0,0,1-2.36-2.9,6,6,0,0,1,.75-2.81,4,4,0,0,1,1.61-1.8.53.53,0,0,1,.23-.06c.2,0,.55.25,1,.75V352.6a1.25,1.25,0,0,0-.1-.34,1.07,1.07,0,0,1-.1-.37c0-.17.11-.25.34-.25a3,3,0,0,1,.86.17l.71.22A.46.46,0,0,1,430.2,352.41Zm-2.09,3.09a2.78,2.78,0,0,0-1.22,1.32,4.11,4.11,0,0,0-.55,1.9c0,.68.27,1,.8,1.11C427.42,359.87,427.74,358.42,428.11,355.5Z" transform="translate(-204.66 -308.29)"/><path class="cls-1" d="M438.12,352.62a.77.77,0,0,1-.11.41c-.09.15-.18.22-.28.22s-.13-.05-.23-.13a.53.53,0,0,0-.25-.14c-.37-.06-.55.28-.55,1v.37c0,.16,0,.28,0,.34h.39c.08,0,.26.14.51.43s.38.49.37.61a.6.6,0,0,1-.14.39.38.38,0,0,1-.29.17l-.08,0a2.86,2.86,0,0,0-.76-.06V361a.54.54,0,0,0,.1.25.33.33,0,0,1,.08.26.49.49,0,0,1-.5.42,3.3,3.3,0,0,1-.93-.22c-.48-.16-.75-.31-.78-.44a.89.89,0,0,1,.09-.36,1.25,1.25,0,0,0,.11-.41v-4.25h-.41c-.15,0-.34-.13-.56-.4a1.17,1.17,0,0,1-.33-.64.48.48,0,0,1,.13-.33.42.42,0,0,1,.3-.14h.87a7.63,7.63,0,0,1,.15-1.84,1.49,1.49,0,0,1,1.55-1.12h.31a1.66,1.66,0,0,1,.82.39C438,352.35,438.1,352.51,438.12,352.62Z" transform="translate(-204.66 -308.29)"/><path class="cls-1" d="M442.42,354.76a2.15,2.15,0,0,1,1,1.26,5.66,5.66,0,0,1,.33,2,6.77,6.77,0,0,1-.55,2.81c-.41.84-.92,1.23-1.53,1.15-.22-.06-.56-.13-1-.21a5.25,5.25,0,0,1-.88-.18,1.77,1.77,0,0,1-1.1-1.16,5.81,5.81,0,0,1-.37-2.14,6.16,6.16,0,0,1,.39-2.24,2.87,2.87,0,0,1,1.21-1.55.74.74,0,0,1,.36-.07,5.23,5.23,0,0,1,.95.16A6.65,6.65,0,0,1,442.42,354.76Zm-1.34,1.08q-.33,0-.6.78a4.71,4.71,0,0,0-.28,1.51,6.94,6.94,0,0,0,.21,1.7c.15.61.33.94.53,1s.48-.23.68-.87a6.68,6.68,0,0,0,.29-2,4.52,4.52,0,0,0-.16-1.21C441.61,356.13,441.38,355.84,441.08,355.84Z" transform="translate(-204.66 -308.29)"/><path class="cls-1" d="M449.24,355.27a.28.28,0,0,1-.13.32,2.49,2.49,0,0,0-.28.15c-.5.77-1.19,1.81-2.05,3.11,0,1.27,0,1.93,0,2l.09.3a1.57,1.57,0,0,1,.08.39.32.32,0,0,1-.21.32.82.82,0,0,1-.35.06,2.81,2.81,0,0,1-1-.21c-.47-.16-.7-.36-.7-.61a1,1,0,0,1,.1-.35,1.17,1.17,0,0,0,.09-.39v-4.76c-.09-.44-.13-.68-.13-.69a.43.43,0,0,1,.34-.47,1.61,1.61,0,0,1,.35,0,3.21,3.21,0,0,1,.88.14c.3.09.49.19.54.3a.21.21,0,0,1,0,.12,5,5,0,0,1-.17.57v.58l.56-1c.25-.44.43-.66.55-.69a1.3,1.3,0,0,1,.81.31Q449.18,355,449.24,355.27Z" transform="translate(-204.66 -308.29)"/><path class="cls-1" d="M458,361.37a.53.53,0,0,1-.27.44.71.71,0,0,1-.3,0,4.26,4.26,0,0,1-1-.13,1.55,1.55,0,0,1-.68-.24.2.2,0,0,1-.05-.15,1.06,1.06,0,0,1,.11-.36l.15-.21a.44.44,0,0,0,.09-.29,43.18,43.18,0,0,0-.08-4.76c-.12,0-.39.25-.83.87a3.16,3.16,0,0,0-.69,1.6v2.66a.53.53,0,0,1,.13.51.66.66,0,0,1-.38.5.3.3,0,0,1-.15,0,4.54,4.54,0,0,1-.95-.15,2.2,2.2,0,0,1-.68-.22.43.43,0,0,1,0-.44s0-.07.11-.13a.24.24,0,0,0,.1-.17v-8.49a.58.58,0,0,0-.09-.25.27.27,0,0,1-.06-.26.47.47,0,0,1,.37-.33,2.65,2.65,0,0,1,.9.14c.51.12.79.26.84.39a.66.66,0,0,1,0,.4,2.35,2.35,0,0,0-.08.65v2.24a1.79,1.79,0,0,1,1.3-.85,2.74,2.74,0,0,1,1.05.28q.64.29.75.51.33.76.33,5.68A1,1,0,0,1,458,361.37Z" transform="translate(-204.66 -308.29)"/><path class="cls-1" d="M463.9,359.53c.07.12-.08.48-.47,1.07a3.92,3.92,0,0,1-1.22,1.29.58.58,0,0,1-.21,0,3.44,3.44,0,0,1-1.23-.29,2.32,2.32,0,0,1-1.06-.62,4,4,0,0,1-.69-2.5,5.58,5.58,0,0,1,.61-2.66,2,2,0,0,1,1.68-1.28,2.24,2.24,0,0,1,.9.19,3,3,0,0,1,1.07.68,1.5,1.5,0,0,1,.2.65,5.5,5.5,0,0,1,.12,1.13,1.86,1.86,0,0,1-.26,1.13,9.53,9.53,0,0,1-2.52.44A4.22,4.22,0,0,0,461,360c.12.43.23.65.35.66s.35-.13.58-.4a1.78,1.78,0,0,0,.37-.59,4.48,4.48,0,0,1,.23-.74,2,2,0,0,1,.75.19A1.36,1.36,0,0,1,463.9,359.53Zm-2.13-3.67c-.14,0-.33.2-.57.65a3.34,3.34,0,0,0-.43,1.28,1.46,1.46,0,0,0,.86-.26c.13-.1.2-.5.2-1.2C461.83,356,461.81,355.88,461.77,355.86Z" transform="translate(-204.66 -308.29)"/><path class="cls-1" d="M470.49,361.37a.42.42,0,0,1-.14.29.34.34,0,0,1-.3.09c-1-.13-1.55-.32-1.66-.56a.3.3,0,0,1,0-.1.2.2,0,0,1,.05-.13.4.4,0,0,0,.07-.12.27.27,0,0,1,.05-.11,3.92,3.92,0,0,0,0-.42,2.54,2.54,0,0,0-.43.58,3.33,3.33,0,0,1-.53.72,1.26,1.26,0,0,1-.88.36.88.88,0,0,1-.56-.23,4.91,4.91,0,0,1-.47-.47c-.39-.43-.59-.66-.62-.7a1.11,1.11,0,0,1-.26-.64.63.63,0,0,1,0-.19,3.64,3.64,0,0,1,1.41-2,13.86,13.86,0,0,1,2.45-1.45c0-.25-.06-.42-.19-.49s-.36,0-.84.27a5.23,5.23,0,0,0-1,.58,3.69,3.69,0,0,1-.31.27.48.48,0,0,1-.37.07,2.44,2.44,0,0,1-.57-.43,1.89,1.89,0,0,1-.46-.53.4.4,0,0,1,.2-.51l.48-.14.89-.48a4.25,4.25,0,0,1,1.58-.48.92.92,0,0,1,.62.29l.63.54.66.53a.92.92,0,0,1,.38.64V361A1.14,1.14,0,0,1,470.49,361.37Zm-1.92-3.5a2.61,2.61,0,0,0-1,.69c-.2.26-.41.51-.62.76a2.89,2.89,0,0,0-.48.65,1.58,1.58,0,0,0-.22.6c0,.06,0,.09.08.09s.54-.36,1.12-1.08A7.82,7.82,0,0,0,468.57,357.87Z" transform="translate(-204.66 -308.29)"/><path class="cls-1" d="M477.06,352.41a1.24,1.24,0,0,1-.1.46,4.08,4.08,0,0,0-.11.4v7.82a1.23,1.23,0,0,0,.06.5c.12.2.16.34.11.42s-.14.09-.31.09a4.17,4.17,0,0,1-.84-.11l-.67-.13c-.15,0-.25-.11-.32-.29a1.19,1.19,0,0,1,0-.15A13.72,13.72,0,0,1,475,360c-.19.39-.38.77-.56,1.16s-.5.68-.71.64a2.67,2.67,0,0,1-2.36-2.9,6,6,0,0,1,.75-2.81,4,4,0,0,1,1.61-1.8.53.53,0,0,1,.23-.06c.2,0,.55.25,1,.75V352.6a1.25,1.25,0,0,0-.1-.34,1.07,1.07,0,0,1-.1-.37c0-.17.11-.25.33-.25a3.07,3.07,0,0,1,.87.17l.71.22A.46.46,0,0,1,477.06,352.41ZM475,355.5a2.78,2.78,0,0,0-1.22,1.32,4,4,0,0,0-.55,1.9c0,.68.27,1,.8,1.11C474.28,359.87,474.6,358.42,475,355.5Z" transform="translate(-204.66 -308.29)"/><path class="cls-1" d="M482.62,359.53c.07.12-.08.48-.47,1.07a3.92,3.92,0,0,1-1.22,1.29.61.61,0,0,1-.22,0,3.44,3.44,0,0,1-1.22-.29,2.32,2.32,0,0,1-1.06-.62,4,4,0,0,1-.69-2.5,5.58,5.58,0,0,1,.61-2.66,2,2,0,0,1,1.68-1.28,2.24,2.24,0,0,1,.9.19,3,3,0,0,1,1.07.68,1.5,1.5,0,0,1,.2.65,5.5,5.5,0,0,1,.12,1.13,1.86,1.86,0,0,1-.26,1.13,9.53,9.53,0,0,1-2.52.44,4.22,4.22,0,0,0,.14,1.24c.11.43.23.65.35.66s.35-.13.58-.4a1.78,1.78,0,0,0,.37-.59,4.48,4.48,0,0,1,.23-.74,2,2,0,0,1,.75.19A1.36,1.36,0,0,1,482.62,359.53Zm-2.13-3.67c-.14,0-.33.2-.57.65a3.34,3.34,0,0,0-.43,1.28,1.46,1.46,0,0,0,.86-.26c.13-.1.2-.5.2-1.2C480.55,356,480.53,355.88,480.49,355.86Z" transform="translate(-204.66 -308.29)"/><path class="cls-1" d="M488.05,355.27a.28.28,0,0,1-.13.32,2.49,2.49,0,0,0-.28.15l-2.05,3.11c0,1.27,0,1.93,0,2l.09.3a1.57,1.57,0,0,1,.08.39.32.32,0,0,1-.21.32.9.9,0,0,1-.36.06,2.8,2.8,0,0,1-1-.21c-.47-.16-.7-.36-.7-.61a1.17,1.17,0,0,1,.09-.35,1,1,0,0,0,.1-.39v-4.76c-.09-.44-.13-.68-.13-.69a.43.43,0,0,1,.33-.47,1.78,1.78,0,0,1,.35,0,3.1,3.1,0,0,1,.88.14c.31.09.5.19.55.3a.21.21,0,0,1,0,.12,5,5,0,0,1-.17.57v.58l.56-1c.25-.44.43-.66.55-.69a1.3,1.3,0,0,1,.81.31Q488,355,488.05,355.27Z" transform="translate(-204.66 -308.29)"/><path class="cls-1" d="M492.76,360.45a1.34,1.34,0,0,1-.43,1.05,1.83,1.83,0,0,1-1.24.41,1.76,1.76,0,0,1-.42-.06l-.43-.12-.44-.1a.93.93,0,0,1-.37-.19,2.86,2.86,0,0,1-.52-.66c-.14-.22-.27-.45-.4-.68a1.78,1.78,0,0,1-.19-.42c0-.11.08-.2.24-.25a.54.54,0,0,1,.22,0,6.88,6.88,0,0,1,.9.08,2,2,0,0,1,.6.13,3.37,3.37,0,0,1,.13.69c0,.37.13.55.25.55s.28-.24.28-.74-.17-1-.51-1.19a4.88,4.88,0,0,1-1.51-1,2.36,2.36,0,0,1-.44-1.56,2.52,2.52,0,0,1,.36-1.29,1.41,1.41,0,0,1,.85-.72,4,4,0,0,1,1.39.45,4.84,4.84,0,0,0,.64.13.94.94,0,0,1,.53.26,1.47,1.47,0,0,1,.26.87c0,.3,0,.59,0,.89a3.79,3.79,0,0,1,.09.48.34.34,0,0,1-.33.38,1.66,1.66,0,0,1-.66-.13,1.46,1.46,0,0,1-.68-.37,5.2,5.2,0,0,1-.07-.9c0-.54-.08-.8-.17-.8s-.23.15-.34.46a3.24,3.24,0,0,0-.15,1c0,.42.09.69.27.8l1.17.65a2.3,2.3,0,0,1,.81.68A2.22,2.22,0,0,1,492.76,360.45Z" transform="translate(-204.66 -308.29)"/><path class="cls-1" d="M207,375.79q0,.43-.3.54l-.17,0a4,4,0,0,1-1.06-.18c-.46-.13-.73-.27-.81-.41s0-.19.11-.38a1.37,1.37,0,0,0,.11-.65v-5a2.54,2.54,0,0,1-.15-.62q0-.15.45-.15a3.24,3.24,0,0,1,1,.22,1.89,1.89,0,0,1,.77.39.16.16,0,0,1,0,.12,1.14,1.14,0,0,1-.14.36,1.05,1.05,0,0,0-.14.4v4.82a.56.56,0,0,0,.14.3A.83.83,0,0,1,207,375.79Zm0-8.29a.25.25,0,0,1,0,.1,3,3,0,0,1-.11.68c-.08.3-.15.47-.23.51a3.4,3.4,0,0,1-1-.26c-.61-.21-.93-.35-1-.44a.4.4,0,0,1,0-.18,1.59,1.59,0,0,1,.17-.68c.13-.28.27-.43.43-.46a2.21,2.21,0,0,1,1,.21A1.45,1.45,0,0,1,207.05,367.5Z" transform="translate(-204.66 -308.29)"/><path class="cls-1" d="M213.64,375.27a1.2,1.2,0,0,1,.09.45.5.5,0,0,1-.27.49.74.74,0,0,1-.3,0,4.27,4.27,0,0,1-1-.13,1.67,1.67,0,0,1-.68-.24.25.25,0,0,1-.06-.16,1,1,0,0,1,.18-.43,1,1,0,0,0,.18-.42,45.42,45.42,0,0,0-.07-4.76c-.11,0-.39.31-.83,1.08a4.23,4.23,0,0,0-.7,1.81v2.24a.51.51,0,0,1,.16.38.62.62,0,0,1-.41.63.28.28,0,0,1-.14,0,4.45,4.45,0,0,1-.95-.15,1.94,1.94,0,0,1-.7-.24.44.44,0,0,1-.07-.22.54.54,0,0,1,.14-.29.62.62,0,0,0,.14-.21v-5.58a.45.45,0,0,0-.1-.25.37.37,0,0,1-.06-.27.46.46,0,0,1,.37-.32,2.54,2.54,0,0,1,.9.13c.52.13.8.26.84.4a.61.61,0,0,1,0,.39,2.92,2.92,0,0,0-.13.48,1,1,0,0,0,0,.29,3.65,3.65,0,0,1,.51-1.07,1.07,1.07,0,0,1,.79-.56,2.82,2.82,0,0,1,1.06.28c.43.19.68.36.74.51C213.52,370.1,213.64,372,213.64,375.27Z" transform="translate(-204.66 -308.29)"/><path class="cls-1" d="M222.41,370a3.38,3.38,0,0,1,.27,1.43,7.51,7.51,0,0,1-.44,2.44,7.12,7.12,0,0,1-1,1.92l-.08.25a.55.55,0,0,1-.14.22,1.06,1.06,0,0,1-.56.14,1.22,1.22,0,0,1-.69-.22s-.21-.15-.55-.42a2.19,2.19,0,0,0,.08.27.26.26,0,0,1,0,.21c-.06.18-.16.28-.31.29a3.09,3.09,0,0,1-1-.18,1.89,1.89,0,0,1-.83-.38c-.05-.07,0-.21.11-.42a1.3,1.3,0,0,0,.06-.51V367a.48.48,0,0,0-.12-.22.44.44,0,0,1-.09-.28.44.44,0,0,1,.49-.39,3.34,3.34,0,0,1,1,.23c.43.15.68.31.75.47a.52.52,0,0,1-.08.38,2.18,2.18,0,0,0-.15.46v2q1-1,1.56-.9a1.76,1.76,0,0,1,.88.4A2.44,2.44,0,0,1,222.41,370ZM221,370a3.73,3.73,0,0,0-1,.74,3.11,3.11,0,0,0-.73.92v3.24a1.34,1.34,0,0,0,.29.22q.39.07,1-1.77a10.31,10.31,0,0,0,.55-2.95A1.54,1.54,0,0,0,221,370Z" transform="translate(-204.66 -308.29)"/><path class="cls-1" d="M228.14,369.67a.28.28,0,0,1-.13.32,1.43,1.43,0,0,0-.27.15c-.51.77-1.19,1.81-2.06,3.11,0,1.27,0,1.93,0,2a1.29,1.29,0,0,0,.09.3,1.46,1.46,0,0,1,.07.39.32.32,0,0,1-.2.32.9.9,0,0,1-.36.06,2.9,2.9,0,0,1-1-.21c-.46-.16-.69-.36-.69-.61a1.17,1.17,0,0,1,.09-.35,1.24,1.24,0,0,0,.1-.39V370c-.09-.44-.13-.68-.13-.69a.43.43,0,0,1,.33-.47,1.69,1.69,0,0,1,.35,0,3.16,3.16,0,0,1,.88.14c.31.09.49.19.55.3a.37.37,0,0,1,0,.12,5,5,0,0,1-.17.57v.58l.57-1c.25-.44.43-.66.55-.69a1.28,1.28,0,0,1,.8.31Q228.08,369.43,228.14,369.67Z" transform="translate(-204.66 -308.29)"/><path class="cls-1" d="M234.36,375.77a.47.47,0,0,1-.14.29.34.34,0,0,1-.3.09c-1-.13-1.55-.32-1.66-.56a.16.16,0,0,1,0-.1.2.2,0,0,1,0-.13.4.4,0,0,0,.07-.12.25.25,0,0,1,0-.11,2,2,0,0,0,0-.42,2.8,2.8,0,0,0-.44.58,3.36,3.36,0,0,1-.52.72,1.26,1.26,0,0,1-.88.36.88.88,0,0,1-.56-.23,4.91,4.91,0,0,1-.47-.47l-.63-.71a1.1,1.1,0,0,1-.25-.63.63.63,0,0,1,0-.19,3.64,3.64,0,0,1,1.41-2,13.86,13.86,0,0,1,2.45-1.45c0-.26-.06-.42-.19-.49s-.36,0-.84.27a5.23,5.23,0,0,0-1,.58,3.69,3.69,0,0,1-.31.27.48.48,0,0,1-.37.07,2.44,2.44,0,0,1-.57-.43,2.19,2.19,0,0,1-.47-.53.42.42,0,0,1,.21-.51l.48-.14.89-.48a4.25,4.25,0,0,1,1.58-.48.94.94,0,0,1,.62.29l.63.54c.22.18.43.36.66.53a.92.92,0,0,1,.38.64v4.54A1.14,1.14,0,0,1,234.36,375.77Zm-1.92-3.5a2.61,2.61,0,0,0-1,.69l-.62.76a2.67,2.67,0,0,0-.48.65,1.61,1.61,0,0,0-.22.59c0,.07,0,.1.07.1s.55-.36,1.13-1.08A7.82,7.82,0,0,0,232.44,372.27Z" transform="translate(-204.66 -308.29)"/><path class="cls-1" d="M241,375.27a1,1,0,0,1,.1.45.49.49,0,0,1-.28.49.68.68,0,0,1-.3,0,4.26,4.26,0,0,1-1-.13,1.67,1.67,0,0,1-.68-.24.25.25,0,0,1-.06-.16,1,1,0,0,1,.18-.43,1,1,0,0,0,.18-.42c0-3.15,0-4.74-.07-4.76s-.39.31-.83,1.08a4.1,4.1,0,0,0-.7,1.81v2.24a.51.51,0,0,1,.16.38.62.62,0,0,1-.41.63.28.28,0,0,1-.14,0,4.36,4.36,0,0,1-.95-.15,1.94,1.94,0,0,1-.7-.24.36.36,0,0,1-.07-.22.54.54,0,0,1,.14-.29.62.62,0,0,0,.14-.21v-5.58a.54.54,0,0,0-.1-.25.37.37,0,0,1-.06-.27.46.46,0,0,1,.37-.32,2.54,2.54,0,0,1,.9.13c.51.13.79.26.84.4a.69.69,0,0,1,0,.39,3.71,3.71,0,0,0-.14.48,1,1,0,0,0,.05.29,3.65,3.65,0,0,1,.51-1.07c.26-.37.52-.56.79-.56a2.74,2.74,0,0,1,1.05.28c.44.19.68.36.75.51Q241,370.36,241,375.27Z" transform="translate(-204.66 -308.29)"/><path class="cls-1" d="M247.7,366.81a1,1,0,0,1-.09.46,3.39,3.39,0,0,0-.11.4v7.82a1.23,1.23,0,0,0,.06.5c.12.2.16.34.11.42s-.15.09-.32.09a5.1,5.1,0,0,1-.83-.11l-.68-.13c-.14,0-.24-.11-.31-.29a.42.42,0,0,1,0-.15,11.5,11.5,0,0,1,.13-1.47c-.19.39-.38.77-.56,1.15s-.5.69-.71.65a2.66,2.66,0,0,1-2.36-2.9,6,6,0,0,1,.75-2.81,3.91,3.91,0,0,1,1.61-1.8.53.53,0,0,1,.23-.06c.2,0,.55.25,1,.75V367a1.39,1.39,0,0,0-.11-.34,1.26,1.26,0,0,1-.09-.37c0-.17.11-.25.33-.25a3.07,3.07,0,0,1,.87.17l.7.22A.43.43,0,0,1,247.7,366.81Zm-2.08,3.09a2.78,2.78,0,0,0-1.22,1.32,4,4,0,0,0-.55,1.9c0,.68.27,1.05.79,1.11C244.92,374.27,245.25,372.82,245.62,369.9Z" transform="translate(-204.66 -308.29)"/><path class="cls-1" d="M251,375.79q0,.43-.3.54l-.17,0a4,4,0,0,1-1.07-.18c-.46-.13-.72-.27-.8-.41s0-.19.1-.38a1.26,1.26,0,0,0,.11-.65v-5a2.89,2.89,0,0,1-.14-.62c0-.1.15-.15.44-.15a3.19,3.19,0,0,1,1,.22,2,2,0,0,1,.78.39.21.21,0,0,1,0,.12,1,1,0,0,1-.13.36.9.9,0,0,0-.14.4v4.82a.49.49,0,0,0,.14.3A.83.83,0,0,1,251,375.79Zm0-8.29a.25.25,0,0,1,0,.1,2.92,2.92,0,0,1-.1.68c-.08.3-.16.47-.23.51a3.34,3.34,0,0,1-1-.26c-.61-.21-.94-.35-1-.44a.42.42,0,0,1,0-.18,1.46,1.46,0,0,1,.17-.68c.12-.28.27-.43.43-.46a2.27,2.27,0,0,1,1,.21A1.46,1.46,0,0,1,251.06,367.5Z" transform="translate(-204.66 -308.29)"/><path class="cls-1" d="M257.65,375.27a1.22,1.22,0,0,1,.1.45.5.5,0,0,1-.28.49.74.74,0,0,1-.3,0,4.19,4.19,0,0,1-1-.13,1.67,1.67,0,0,1-.69-.24.25.25,0,0,1-.06-.16,1,1,0,0,1,.18-.43,1,1,0,0,0,.18-.42,42.09,42.09,0,0,0-.07-4.76c-.11,0-.39.31-.82,1.08a4.1,4.1,0,0,0-.7,1.81v2.24a.55.55,0,0,1,.16.38.62.62,0,0,1-.41.63.32.32,0,0,1-.15,0,4.38,4.38,0,0,1-.94-.15,1.94,1.94,0,0,1-.7-.24.36.36,0,0,1-.07-.22.51.51,0,0,1,.13-.29c.1-.11.14-.18.14-.21v-5.58a.51.51,0,0,0-.09-.25.3.3,0,0,1-.06-.27.44.44,0,0,1,.37-.32,2.54,2.54,0,0,1,.9.13c.51.13.79.26.84.4a.63.63,0,0,1,0,.39,2.92,2.92,0,0,0-.13.48,1,1,0,0,0,.05.29,3.91,3.91,0,0,1,.5-1.07c.27-.37.53-.56.79-.56a2.74,2.74,0,0,1,1.06.28c.43.19.68.36.74.51Q257.66,370.36,257.65,375.27Z" transform="translate(-204.66 -308.29)"/><path class="cls-1" d="M263.85,369.69l-.13.23a.77.77,0,0,0-.08.27v5.26a2.42,2.42,0,0,1-1.48,2.55,3.4,3.4,0,0,1-1.25.27,2,2,0,0,1-1.41-.56,5.62,5.62,0,0,1-.58-.62l-.23-.23a.48.48,0,0,1-.13-.28c0-.12.11-.21.36-.28h.15a2.38,2.38,0,0,1,.63.1,1.2,1.2,0,0,1,.52.27l.39.49a.66.66,0,0,0,.48.27c.33,0,.54-.19.64-.67a6.86,6.86,0,0,0,.07-1.23l-.23.31a1.46,1.46,0,0,1-.25.28.41.41,0,0,1-.27.12,1.66,1.66,0,0,1-1.07-.35,3.91,3.91,0,0,1-1.29-3.18,4.94,4.94,0,0,1,.57-2.39,2.63,2.63,0,0,1,1.53-1.42l.14,0a.77.77,0,0,1,.43.18l.41.32a3.25,3.25,0,0,1,.15-.4.31.31,0,0,1,.24-.22,2.6,2.6,0,0,1,.9.16,1.57,1.57,0,0,1,.72.34A.48.48,0,0,1,263.85,369.69Zm-2.12,2.95c.06-.56.1-1,.1-1.36,0-.65-.11-1-.32-1.09s-.37.22-.61.85a4.92,4.92,0,0,0-.36,1.73,6.19,6.19,0,0,0,.33,2.24A5.49,5.49,0,0,0,261.73,372.64Z" transform="translate(-204.66 -308.29)"/><path class="cls-1" d="M271.28,369.16a2.15,2.15,0,0,1,1,1.26,5.66,5.66,0,0,1,.33,2,6.61,6.61,0,0,1-.56,2.81c-.4.84-.91,1.23-1.52,1.15-.22-.06-.56-.13-1-.21a5.38,5.38,0,0,1-.89-.18,1.76,1.76,0,0,1-1.09-1.16,5.61,5.61,0,0,1-.37-2.14,6.38,6.38,0,0,1,.38-2.24,2.93,2.93,0,0,1,1.22-1.55.7.7,0,0,1,.36-.07,5,5,0,0,1,.94.16A6.75,6.75,0,0,1,271.28,369.16Zm-1.34,1.08q-.33,0-.6.78a4.45,4.45,0,0,0-.28,1.51,6.94,6.94,0,0,0,.21,1.7c.15.61.32.94.52,1s.49-.23.69-.87a6.68,6.68,0,0,0,.29-2,5.11,5.11,0,0,0-.16-1.22C270.47,370.53,270.24,370.24,269.94,370.24Z" transform="translate(-204.66 -308.29)"/><path class="cls-1" d="M277.61,367a.69.69,0,0,1-.11.41c-.09.15-.18.22-.28.22a.5.5,0,0,1-.23-.13.53.53,0,0,0-.25-.14c-.37-.06-.55.28-.55,1v.37c0,.16,0,.27,0,.34h.39c.08,0,.26.14.51.43s.38.49.37.61a.62.62,0,0,1-.14.39.38.38,0,0,1-.29.17l-.08,0a2.86,2.86,0,0,0-.76-.06v4.74a.54.54,0,0,0,.1.25.33.33,0,0,1,.08.26.48.48,0,0,1-.5.42,3.71,3.71,0,0,1-.93-.22c-.48-.16-.74-.31-.78-.44a.89.89,0,0,1,.09-.36,1.32,1.32,0,0,0,.11-.41v-4.25H274c-.15,0-.34-.13-.56-.4a1.17,1.17,0,0,1-.33-.64.48.48,0,0,1,.13-.33.42.42,0,0,1,.3-.14h.87a7.63,7.63,0,0,1,.15-1.84,1.49,1.49,0,0,1,1.55-1.12h.31a1.66,1.66,0,0,1,.82.39C277.45,366.75,277.59,366.91,277.61,367Z" transform="translate(-204.66 -308.29)"/><path class="cls-1" d="M286.4,366.54a2.45,2.45,0,0,1,0,1v.78c0,.52,0,1,0,1.3q0,6.32-1.45,6.78a1.32,1.32,0,0,1-.39.06,2.52,2.52,0,0,1-.63-.11l-.69-.21-.58-.15a1.77,1.77,0,0,1-.52-.21,2.41,2.41,0,0,1-.84-1.1,5.07,5.07,0,0,1-.3-1.22l-.06-.65a1,1,0,0,1-.12-.57.56.56,0,0,1,.5-.44,3.18,3.18,0,0,1,.93.1c.48.1.76.24.85.41a.38.38,0,0,1,.05.19,1.45,1.45,0,0,1,0,.22.83.83,0,0,0,0,.23,6.34,6.34,0,0,0,.17,1.17c.11.42.22.64.34.64s.39-1.15.44-3.45c0-.45,0-1.9,0-4.32a.63.63,0,0,0,0-.21.48.48,0,0,1,0-.16.48.48,0,0,1,.17-.32.7.7,0,0,1,.36-.19,4.47,4.47,0,0,1,1,.09C286.07,366.27,286.36,366.4,286.4,366.54Z" transform="translate(-204.66 -308.29)"/><path class="cls-1" d="M294.55,375.46c0,.07,0,.24-.05.51a.65.65,0,0,1-.09.33.51.51,0,0,1-.21,0,3,3,0,0,1-1-.2,1.88,1.88,0,0,1-.87-.46,2.15,2.15,0,0,1-.19-.72,10.4,10.4,0,0,0-.3-1.33,8.9,8.9,0,0,0-1.33.33,5.2,5.2,0,0,0-1.14.45c-.12.35-.28.77-.48,1.27a2.49,2.49,0,0,1-.08.32.45.45,0,0,1-.21.25l-.11,0a2.84,2.84,0,0,1-1-.3c-.45-.2-.69-.33-.7-.39a1.72,1.72,0,0,1,.22-.83c.26-.64.41-1,.45-1.18a.67.67,0,0,1-.24-.64c0-.09.26-.26.73-.51l1.55-5.29a2.08,2.08,0,0,0,0-.53c0-.22,0-.35.07-.41a.46.46,0,0,1,.29-.06,6.7,6.7,0,0,1,1.61.29,3.29,3.29,0,0,1,1.25.51,33.05,33.05,0,0,0,.54,4A19.15,19.15,0,0,0,294.55,375.46Zm-3.13-3.65c-.11-.5-.17-.84-.19-1a14.54,14.54,0,0,1-.18-1.66c-.16.39-.35.93-.57,1.63a9.48,9.48,0,0,0-.37,1.37A9.8,9.8,0,0,1,291.42,371.81Z" transform="translate(-204.66 -308.29)"/><path class="cls-1" d="M300.89,366.94a40.21,40.21,0,0,0-1.42,4.85,26.33,26.33,0,0,0-.71,3.33,3.6,3.6,0,0,0,0,.55,1.06,1.06,0,0,1-.09.51c-.08.19-.19.3-.32.32a3.53,3.53,0,0,1-1.4-.26,2.71,2.71,0,0,1-1.21-.59.88.88,0,0,1-.08-.31,1.6,1.6,0,0,0,0-.33,35.47,35.47,0,0,1-1.64-7.76A1,1,0,0,0,294,367a.76.76,0,0,1,0-.25c0-.29.15-.46.34-.52a2.84,2.84,0,0,1,1,.23c.61.19,1,.35,1,.49a1.31,1.31,0,0,1,0,.5,1.19,1.19,0,0,1-.08.21.39.39,0,0,0-.06.24q.18,1.26.33,2.22a15.34,15.34,0,0,0,.6,2.73q.21-1.11.72-2.85a24.25,24.25,0,0,0,.72-2.91,4.23,4.23,0,0,1,.11-.61.66.66,0,0,1,.4-.37,2,2,0,0,1,.9.2A1.92,1.92,0,0,1,300.89,366.94Z" transform="translate(-204.66 -308.29)"/><path class="cls-1" d="M307.58,375.46c0,.07,0,.24-.05.51a.57.57,0,0,1-.09.33.51.51,0,0,1-.21,0,3,3,0,0,1-1-.2,1.1,1.1,0,0,1-1.06-1.18,7.83,7.83,0,0,0-.3-1.33,9.21,9.21,0,0,0-1.33.33,5.2,5.2,0,0,0-1.14.45c-.12.35-.28.77-.48,1.27a2.49,2.49,0,0,1-.08.32.39.39,0,0,1-.21.25l-.1,0a2.81,2.81,0,0,1-1-.3c-.45-.2-.69-.33-.7-.39a1.78,1.78,0,0,1,.23-.83c.25-.64.4-1,.44-1.18a.67.67,0,0,1-.24-.64c0-.09.26-.26.73-.51l1.55-5.29a2.08,2.08,0,0,0,0-.53c0-.22,0-.35.07-.41a.46.46,0,0,1,.29-.06,6.7,6.7,0,0,1,1.61.29,3.21,3.21,0,0,1,1.25.51,37.73,37.73,0,0,0,.54,4A19.65,19.65,0,0,0,307.58,375.46Zm-3.13-3.65c-.1-.5-.17-.84-.19-1a14.54,14.54,0,0,1-.18-1.66c-.16.39-.35.93-.57,1.63a9.48,9.48,0,0,0-.37,1.37A9.8,9.8,0,0,1,304.45,371.81Z" transform="translate(-204.66 -308.29)"/><path class="cls-1" d="M316.41,374.54q-.14.57-.45.69a.54.54,0,0,1-.26,0,.52.52,0,0,0-.23,0l-1.78.75c-.06,0-.11.09-.17.2s-.12.18-.18.19a2,2,0,0,1-1.11-.18,2.34,2.34,0,0,1-1-.51,1,1,0,0,1-.08-.6,1.85,1.85,0,0,0,0-.3v-8.07a.34.34,0,0,0-.09-.2.23.23,0,0,1-.07-.15q0-.22.42-.33a2.85,2.85,0,0,1,1.09.18c.63.18.95.4,1,.65a.73.73,0,0,1-.13.29.59.59,0,0,0-.14.28v6.64l1.25-.54a1.59,1.59,0,0,1,.41-.22,2.48,2.48,0,0,1,.9.51C316.22,374.2,316.45,374.43,316.41,374.54Z" transform="translate(-204.66 -308.29)"/><path class="cls-1" d="M320.72,376.31a1.43,1.43,0,0,1-.56-.07l-.61-.18c-.24-.07-.62-.18-1.13-.35a2.79,2.79,0,0,1-1.45-1.66,7.07,7.07,0,0,1-.44-2.64,12,12,0,0,1,.44-2.94c.39-1.5.9-2.25,1.52-2.25a.79.79,0,0,1,.23,0,.93.93,0,0,0,.24.05,6.3,6.3,0,0,1,1.14-.25h.24a3,3,0,0,1,2.27,1.8,7.73,7.73,0,0,1,.74,3.5,7.44,7.44,0,0,1-.67,3.3A2.53,2.53,0,0,1,320.72,376.31Zm-.21-8.8c-.18-.05-.35.19-.53.71s-.34.78-.52.78a.38.38,0,0,1-.17-.06.55.55,0,0,0-.19-.08,6.4,6.4,0,0,0-.41,2.56,8.17,8.17,0,0,0,.28,2.25c.21.7.5,1.08.86,1.15s.78-.36,1.05-1.33a11.68,11.68,0,0,0,.35-3,9.32,9.32,0,0,0-.18-2Q320.86,367.61,320.51,367.51Z" transform="translate(-204.66 -308.29)"/><path class="cls-1" d="M330.84,366.94a40.21,40.21,0,0,0-1.42,4.85,28.58,28.58,0,0,0-.71,3.33s0,.21,0,.55a1,1,0,0,1-.09.51c-.08.19-.18.3-.32.32a3.53,3.53,0,0,1-1.4-.26c-.7-.23-1.1-.42-1.2-.59a.71.71,0,0,1-.09-.31q0-.24,0-.33a35.54,35.54,0,0,1-1.65-7.76,1,1,0,0,0-.06-.25.76.76,0,0,1,0-.25c0-.29.15-.46.35-.52a2.84,2.84,0,0,1,1,.23c.61.19.95.35,1,.49a1.31,1.31,0,0,1,0,.5.71.71,0,0,1-.08.21.39.39,0,0,0-.06.24q.18,1.26.33,2.22a15.34,15.34,0,0,0,.6,2.73q.21-1.11.72-2.85a24.25,24.25,0,0,0,.72-2.91,4.23,4.23,0,0,1,.11-.61.66.66,0,0,1,.4-.37,2,2,0,0,1,.9.2A1.92,1.92,0,0,1,330.84,366.94Z" transform="translate(-204.66 -308.29)"/><path class="cls-1" d="M337.05,374.62a1,1,0,0,1-.21.44.75.75,0,0,1-.3.28s-.07,0-.13,0a.47.47,0,0,0-.16-.05h-.05a5.66,5.66,0,0,0-.74.29,7,7,0,0,0-1.63,1c-.8-.32-1.24-.5-1.31-.54-.5-.21-.75-.37-.75-.47v-9c0-.05.1-.13.29-.24a.81.81,0,0,1,.41-.14,2.93,2.93,0,0,1,.58.18,1.89,1.89,0,0,0,.7.18,2,2,0,0,0,.94-.33c.35-.2.57-.29.66-.26a2.79,2.79,0,0,1,.86.63,2.28,2.28,0,0,1,.62.76c0,.07-.06.2-.23.37s-.29.27-.4.27a.32.32,0,0,1-.19,0s-.07,0-.08,0a7.88,7.88,0,0,0-.81.22,3.84,3.84,0,0,0-1.31.7v2a8.47,8.47,0,0,1,1.1-.45q.18,0,.81.54c.41.37.61.63.61.77a.49.49,0,0,1-.16.31.8.8,0,0,1-.33.23l-.42,0a6.18,6.18,0,0,0-1.61.76v1.26c.24-.14.57-.31,1-.51a3.09,3.09,0,0,1,.76-.29,2.33,2.33,0,0,1,.85.52C336.85,374.3,337.07,374.52,337.05,374.62Z" transform="translate(-204.66 -308.29)"/><path class="cls-1" d="M346.78,376l-.1-.73h0a2.16,2.16,0,0,1-1.77.86,1.66,1.66,0,0,1-1.78-1.66c0-1.41,1.25-2.18,3.49-2.16v-.13a1.2,1.2,0,0,0-1.32-1.34,2.84,2.84,0,0,0-1.51.44l-.24-.7a3.63,3.63,0,0,1,1.91-.51c1.78,0,2.21,1.21,2.21,2.37v2.17a8.47,8.47,0,0,0,.09,1.39Zm-.17-3c-1.14,0-2.45.18-2.45,1.3a.93.93,0,0,0,1,1,1.45,1.45,0,0,0,1.41-1,1,1,0,0,0,.05-.33Z" transform="translate(-204.66 -308.29)"/><path class="cls-1" d="M349.34,371.72c0-.61,0-1.09,0-1.57h.94l.06,1h0a2.15,2.15,0,0,1,1.92-1.08c.8,0,2,.48,2,2.47V376h-1v-3.34c0-.94-.36-1.73-1.34-1.73a1.52,1.52,0,0,0-1.43,1.08,1.81,1.81,0,0,0-.07.49V376h-1.05Z" transform="translate(-204.66 -308.29)"/><path class="cls-1" d="M361,367.43v7c0,.52,0,1.1.05,1.5h-.94l-.05-1h0a2.14,2.14,0,0,1-2,1.13c-1.41,0-2.49-1.19-2.49-2.95,0-1.93,1.19-3.11,2.61-3.11a1.92,1.92,0,0,1,1.75.88h0v-3.47ZM360,372.51a2.28,2.28,0,0,0,0-.45,1.57,1.57,0,0,0-1.53-1.22c-1.09,0-1.75,1-1.75,2.24s.59,2.15,1.73,2.15a1.59,1.59,0,0,0,1.54-1.26,1.66,1.66,0,0,0,0-.46Z" transform="translate(-204.66 -308.29)"/><path class="cls-1" d="M372.17,372.4c-.07-1.12-.14-2.49-.13-3.49h0c-.27.94-.61,2-1,3.07l-1.43,3.92h-.79l-1.31-3.85c-.39-1.14-.7-2.18-.93-3.14h0c0,1-.08,2.36-.16,3.57l-.21,3.47h-1l.56-8.08H367l1.38,3.91c.33,1,.6,1.88.81,2.72h0c.22-.82.5-1.71.86-2.72l1.44-3.91h1.34l.5,8.08h-1Z" transform="translate(-204.66 -308.29)"/><path class="cls-1" d="M375.43,370.15l1.27,3.43c.13.38.27.84.37,1.18h0c.1-.34.23-.78.37-1.21l1.15-3.4h1.11l-1.58,4.13c-.75,2-1.27,3-2,3.64a3,3,0,0,1-1.29.68l-.26-.89a2.69,2.69,0,0,0,.92-.51,3.32,3.32,0,0,0,.88-1.18.69.69,0,0,0,.08-.25.62.62,0,0,0-.07-.27l-2.14-5.35Z" transform="translate(-204.66 -308.29)"/><path class="cls-1" d="M380.7,372c0-.69,0-1.27-.05-1.81h.92l0,1.14h0a1.76,1.76,0,0,1,1.62-1.27.92.92,0,0,1,.29,0v1a1.86,1.86,0,0,0-.36,0,1.47,1.47,0,0,0-1.41,1.35,2.56,2.56,0,0,0,0,.49V376H380.7Z" transform="translate(-204.66 -308.29)"/><path class="cls-1" d="M385.85,368.51a.66.66,0,1,1-1.31,0,.65.65,0,0,1,.66-.66A.63.63,0,0,1,385.85,368.51ZM384.67,376v-5.8h1.05V376Z" transform="translate(-204.66 -308.29)"/><path class="cls-1" d="M390.69,376l-.09-.73h0a2.18,2.18,0,0,1-1.78.86,1.65,1.65,0,0,1-1.77-1.66c0-1.41,1.25-2.18,3.49-2.16v-.13a1.2,1.2,0,0,0-1.32-1.34,2.82,2.82,0,0,0-1.51.44l-.24-.7a3.63,3.63,0,0,1,1.91-.51c1.77,0,2.21,1.21,2.21,2.37v2.17a8.47,8.47,0,0,0,.09,1.39Zm-.16-3c-1.14,0-2.45.18-2.45,1.3a.93.93,0,0,0,1,1,1.45,1.45,0,0,0,1.41-1,1,1,0,0,0,0-.33Z" transform="translate(-204.66 -308.29)"/><path class="cls-1" d="M398.27,367.43v7c0,.52,0,1.1.05,1.5h-.94l-.05-1h0a2.14,2.14,0,0,1-2,1.13c-1.41,0-2.49-1.19-2.49-2.95,0-1.93,1.19-3.11,2.61-3.11a1.92,1.92,0,0,1,1.75.88h0v-3.47Zm-1,5.08a1.73,1.73,0,0,0-.05-.45,1.55,1.55,0,0,0-1.52-1.22c-1.09,0-1.75,1-1.75,2.24s.59,2.15,1.73,2.15a1.59,1.59,0,0,0,1.54-1.26,1.66,1.66,0,0,0,.05-.46Z" transform="translate(-204.66 -308.29)"/><path class="cls-1" d="M404,376l-2.65-8.08h1.13l1.26,4c.35,1.09.64,2.08.86,3h0c.23-.94.56-1.95.92-3l1.37-4H408L405.11,376Z" transform="translate(-204.66 -308.29)"/><path class="cls-1" d="M411.66,376l-.1-.73h0a2.16,2.16,0,0,1-1.77.86,1.65,1.65,0,0,1-1.77-1.66c0-1.41,1.24-2.18,3.48-2.16v-.13a1.2,1.2,0,0,0-1.32-1.34,2.84,2.84,0,0,0-1.51.44l-.24-.7a3.64,3.64,0,0,1,1.92-.51c1.77,0,2.2,1.21,2.2,2.37v2.17a8.47,8.47,0,0,0,.09,1.39Zm-.17-3c-1.14,0-2.45.18-2.45,1.3a.93.93,0,0,0,1,1,1.44,1.44,0,0,0,1.41-1,1,1,0,0,0,.05-.33Z" transform="translate(-204.66 -308.29)"/><path class="cls-1" d="M414.22,372c0-.69,0-1.27,0-1.81h.92l0,1.14h0a1.76,1.76,0,0,1,1.61-1.27,1,1,0,0,1,.3,0v1a1.94,1.94,0,0,0-.36,0,1.46,1.46,0,0,0-1.41,1.35,2.54,2.54,0,0,0-.05.49V376h-1Z" transform="translate(-204.66 -308.29)"/><path class="cls-1" d="M419.38,368.51a.64.64,0,0,1-.67.66.63.63,0,0,1-.64-.66.66.66,0,1,1,1.31,0ZM418.2,376v-5.8h1.05V376Z" transform="translate(-204.66 -308.29)"/><path class="cls-1" d="M424.22,376l-.09-.73h0a2.18,2.18,0,0,1-1.78.86,1.65,1.65,0,0,1-1.77-1.66c0-1.41,1.25-2.18,3.49-2.16v-.13a1.2,1.2,0,0,0-1.32-1.34,2.82,2.82,0,0,0-1.51.44l-.24-.7a3.63,3.63,0,0,1,1.91-.51c1.77,0,2.21,1.21,2.21,2.37v2.17a9.83,9.83,0,0,0,.08,1.39Zm-.16-3c-1.14,0-2.45.18-2.45,1.3a.93.93,0,0,0,1,1,1.46,1.46,0,0,0,1.42-1,1.32,1.32,0,0,0,.05-.33Z" transform="translate(-204.66 -308.29)"/><path class="cls-1" d="M426.74,376c0-.4.05-1,.05-1.5v-7h1v3.65h0a2.15,2.15,0,0,1,2-1.06c1.44,0,2.45,1.19,2.45,3,0,2.08-1.32,3.11-2.62,3.11a2.1,2.1,0,0,1-1.94-1.08h0l-.05.95Zm1.1-2.33a1.67,1.67,0,0,0,0,.39,1.63,1.63,0,0,0,1.58,1.23c1.11,0,1.76-.9,1.76-2.23,0-1.17-.6-2.16-1.73-2.16a1.68,1.68,0,0,0-1.59,1.29,1.51,1.51,0,0,0-.06.44Z" transform="translate(-204.66 -308.29)"/><path class="cls-1" d="M433.62,367.43h1.05V376h-1.05Z" transform="translate(-204.66 -308.29)"/><path class="cls-1" d="M437,373.24a1.85,1.85,0,0,0,2,2,4,4,0,0,0,1.61-.29l.19.75a4.86,4.86,0,0,1-1.94.37,2.7,2.7,0,0,1-2.85-2.93c0-1.76,1-3.13,2.73-3.13a2.44,2.44,0,0,1,2.38,2.73,3,3,0,0,1,0,.49Zm3.09-.76a1.5,1.5,0,0,0-1.46-1.71,1.75,1.75,0,0,0-1.62,1.71Z" transform="translate(-204.66 -308.29)"/><path class="cls-1" d="M450.69,375.69a5.18,5.18,0,0,1-2.14.39,3.78,3.78,0,0,1-4-4.1,4,4,0,0,1,4.21-4.24,4.26,4.26,0,0,1,1.92.36l-.25.85a3.84,3.84,0,0,0-1.63-.34,3,3,0,0,0-3.15,3.34,2.93,2.93,0,0,0,3.09,3.24,4.32,4.32,0,0,0,1.72-.33Z" transform="translate(-204.66 -308.29)"/><path class="cls-1" d="M457.08,373a2.84,2.84,0,0,1-2.88,3.09,2.77,2.77,0,0,1-2.79-3,2.83,2.83,0,0,1,2.88-3.07A2.74,2.74,0,0,1,457.08,373Zm-4.6.07c0,1.27.73,2.23,1.76,2.23S456,374.35,456,373c0-1-.49-2.22-1.75-2.22S452.48,372,452.48,373.06Z" transform="translate(-204.66 -308.29)"/><path class="cls-1" d="M458.42,371.72c0-.61,0-1.09-.05-1.57h.94l.05,1h0a2.15,2.15,0,0,1,1.92-1.08c.8,0,2,.48,2,2.47V376h-1v-3.34c0-.94-.36-1.73-1.35-1.73a1.52,1.52,0,0,0-1.42,1.08,1.81,1.81,0,0,0-.07.49V376h-1.05Z" transform="translate(-204.66 -308.29)"/><path class="cls-1" d="M469.22,375.74a4,4,0,0,1-1.67.34,2.77,2.77,0,0,1-2.89-3,3,3,0,0,1,3.12-3.09,3.38,3.38,0,0,1,1.46.31l-.23.81a2.57,2.57,0,0,0-1.24-.28,2.19,2.19,0,0,0,0,4.37A3.05,3.05,0,0,0,469,375Z" transform="translate(-204.66 -308.29)"/><path class="cls-1" d="M471,373.24a1.84,1.84,0,0,0,2,2,4,4,0,0,0,1.61-.29l.18.75a4.8,4.8,0,0,1-1.93.37,2.71,2.71,0,0,1-2.86-2.93c0-1.76,1-3.13,2.73-3.13a2.45,2.45,0,0,1,2.39,2.73,2.08,2.08,0,0,1,0,.49Zm3.08-.76a1.5,1.5,0,0,0-1.45-1.71,1.73,1.73,0,0,0-1.62,1.71Z" transform="translate(-204.66 -308.29)"/><path class="cls-1" d="M476.39,372c0-.74,0-1.34,0-1.89h.94l.06,1h0a2.26,2.26,0,0,1,2.06-1.12c1.4,0,2.46,1.18,2.46,2.94,0,2.09-1.28,3.12-2.64,3.12a2,2,0,0,1-1.78-.91h0v3.15h-1.05Zm1.05,1.55a2,2,0,0,0,.05.43,1.63,1.63,0,0,0,1.58,1.23c1.11,0,1.76-.91,1.76-2.24,0-1.16-.61-2.15-1.72-2.15a1.67,1.67,0,0,0-1.6,1.3,2,2,0,0,0-.07.42Z" transform="translate(-204.66 -308.29)"/><path class="cls-1" d="M484.49,368.48v1.67H486v.8h-1.52v3.12c0,.73.21,1.14.8,1.14a2.19,2.19,0,0,0,.61-.08l.05.8a2.7,2.7,0,0,1-.94.15,1.46,1.46,0,0,1-1.14-.45,2.22,2.22,0,0,1-.41-1.51V371h-.9v-.8h.9v-1.4Z" transform="translate(-204.66 -308.29)"/><path class="cls-1" d="M205.31,386.36c0-.69,0-1.27-.05-1.81h.92l0,1.14h0a1.76,1.76,0,0,1,1.62-1.27.92.92,0,0,1,.29,0v1a1.86,1.86,0,0,0-.36,0,1.47,1.47,0,0,0-1.41,1.35,2.56,2.56,0,0,0,0,.49v3.1h-1.05Z" transform="translate(-204.66 -308.29)"/><path class="cls-1" d="M209.7,387.64a1.85,1.85,0,0,0,2,2,3.93,3.93,0,0,0,1.6-.29l.19.75a4.82,4.82,0,0,1-1.94.37,2.7,2.7,0,0,1-2.85-2.93c0-1.76,1-3.13,2.73-3.13a2.45,2.45,0,0,1,2.39,2.73,2.72,2.72,0,0,1,0,.49Zm3.09-.76a1.5,1.5,0,0,0-1.45-1.71,1.73,1.73,0,0,0-1.62,1.71Z" transform="translate(-204.66 -308.29)"/><path class="cls-1" d="M220.13,384.55c0,.41,0,.88,0,1.59v3.36a3.36,3.36,0,0,1-.83,2.66,3.13,3.13,0,0,1-2.11.7,3.79,3.79,0,0,1-1.94-.48l.27-.81a3.26,3.26,0,0,0,1.71.46c1.07,0,1.86-.56,1.86-2v-.65h0a2.05,2.05,0,0,1-1.84,1,2.6,2.6,0,0,1-2.48-2.84,2.78,2.78,0,0,1,2.62-3.07,1.93,1.93,0,0,1,1.81,1h0l0-.87Zm-1.1,2.28a1.41,1.41,0,0,0-.06-.47,1.52,1.52,0,0,0-1.48-1.12c-1,0-1.72.85-1.72,2.2,0,1.13.58,2.09,1.71,2.09a1.55,1.55,0,0,0,1.47-1.09,1.77,1.77,0,0,0,.08-.56Z" transform="translate(-204.66 -308.29)"/><path class="cls-1" d="M226.68,388.76c0,.61,0,1.13,0,1.59h-.93l-.06-1h0a2.15,2.15,0,0,1-1.92,1.08c-.9,0-2-.51-2-2.54v-3.39h1v3.2c0,1.11.34,1.86,1.29,1.86a1.54,1.54,0,0,0,1.4-1,1.74,1.74,0,0,0,.09-.54v-3.55h1.05Z" transform="translate(-204.66 -308.29)"/><path class="cls-1" d="M228.44,381.83h1.05v8.52h-1.05Z" transform="translate(-204.66 -308.29)"/><path class="cls-1" d="M234.49,390.35l-.09-.73h0a2.18,2.18,0,0,1-1.78.86,1.65,1.65,0,0,1-1.77-1.66c0-1.41,1.25-2.18,3.49-2.16v-.13A1.19,1.19,0,0,0,233,385.2a2.81,2.81,0,0,0-1.51.43l-.24-.7a3.63,3.63,0,0,1,1.91-.51c1.77,0,2.21,1.21,2.21,2.37V389a9.83,9.83,0,0,0,.08,1.39Zm-.16-3c-1.14,0-2.45.18-2.45,1.3a.93.93,0,0,0,1,1,1.45,1.45,0,0,0,1.41-1,1.32,1.32,0,0,0,.05-.33Z" transform="translate(-204.66 -308.29)"/><path class="cls-1" d="M237.06,386.36c0-.69,0-1.27-.05-1.81h.93l0,1.14h0a1.76,1.76,0,0,1,1.62-1.27.92.92,0,0,1,.29,0v1a1.86,1.86,0,0,0-.36,0,1.47,1.47,0,0,0-1.41,1.35,2.56,2.56,0,0,0,0,.49v3.1h-1.05Z" transform="translate(-204.66 -308.29)"/><path class="cls-1" d="M243.63,390.35v-5h-.81v-.8h.81v-.28a2.75,2.75,0,0,1,.68-2,2,2,0,0,1,1.41-.54,2.32,2.32,0,0,1,.9.17l-.14.81a1.63,1.63,0,0,0-.68-.13c-.89,0-1.12.79-1.12,1.69v.31h1.4v.8h-1.4v5Z" transform="translate(-204.66 -308.29)"/><path class="cls-1" d="M252.13,387.39a2.84,2.84,0,0,1-2.89,3.09,2.77,2.77,0,0,1-2.79-3,2.83,2.83,0,0,1,2.88-3.07A2.75,2.75,0,0,1,252.13,387.39Zm-4.6.07c0,1.27.73,2.23,1.76,2.23s1.76-.94,1.76-2.26c0-1-.49-2.22-1.75-2.22S247.53,386.36,247.53,387.46Z" transform="translate(-204.66 -308.29)"/><path class="cls-1" d="M253.46,386.36c0-.69,0-1.27-.05-1.81h.93l0,1.14h0a1.76,1.76,0,0,1,1.61-1.27,1,1,0,0,1,.3,0v1a1.94,1.94,0,0,0-.36,0,1.48,1.48,0,0,0-1.42,1.35,3.74,3.74,0,0,0,0,.49v3.1h-1Z" transform="translate(-204.66 -308.29)"/><path class="cls-1" d="M259.88,390.35c0-.4.05-1,.05-1.5v-7H261v3.65h0a2.15,2.15,0,0,1,2-1.06c1.44,0,2.45,1.2,2.45,2.95,0,2.08-1.32,3.11-2.61,3.11a2.11,2.11,0,0,1-1.95-1.08h0l-.06,1ZM261,388a1.58,1.58,0,0,0,0,.38,1.63,1.63,0,0,0,1.58,1.23c1.11,0,1.77-.9,1.77-2.23,0-1.16-.61-2.16-1.73-2.16a1.68,1.68,0,0,0-1.6,1.29,2,2,0,0,0-.06.44Z" transform="translate(-204.66 -308.29)"/><path class="cls-1" d="M272,387.39a2.84,2.84,0,0,1-2.88,3.09,2.76,2.76,0,0,1-2.79-3,2.83,2.83,0,0,1,2.88-3.07A2.74,2.74,0,0,1,272,387.39Zm-4.6.07c0,1.27.73,2.23,1.76,2.23s1.77-.94,1.77-2.26c0-1-.5-2.22-1.75-2.22S267.42,386.36,267.42,387.46Z" transform="translate(-204.66 -308.29)"/><path class="cls-1" d="M278.38,381.83v7c0,.52,0,1.1.05,1.5h-.94l-.06-1h0a2.14,2.14,0,0,1-2,1.13c-1.41,0-2.49-1.19-2.49-3,0-1.93,1.19-3.11,2.61-3.11a1.92,1.92,0,0,1,1.75.88h0v-3.47Zm-1.05,5.08a2.28,2.28,0,0,0,0-.45,1.56,1.56,0,0,0-1.53-1.21c-1.09,0-1.75.95-1.75,2.23s.59,2.15,1.73,2.15a1.59,1.59,0,0,0,1.54-1.26,2.14,2.14,0,0,0,.05-.45Z" transform="translate(-204.66 -308.29)"/><path class="cls-1" d="M280.52,384.55l1.27,3.43c.13.38.28.84.37,1.18h0c.1-.34.23-.78.37-1.21l1.15-3.4h1.12l-1.59,4.13c-.75,2-1.27,3-2,3.64A3,3,0,0,1,280,393l-.26-.89a2.6,2.6,0,0,0,.92-.51,3.21,3.21,0,0,0,.88-1.18.54.54,0,0,0,.09-.25.67.67,0,0,0-.08-.27l-2.14-5.35Z" transform="translate(-204.66 -308.29)"/><path class="cls-1" d="M292.47,390.14a3.91,3.91,0,0,1-1.66.34,2.77,2.77,0,0,1-2.9-3,3,3,0,0,1,3.12-3.09,3.47,3.47,0,0,1,1.47.31l-.24.81a2.53,2.53,0,0,0-1.23-.28,2,2,0,0,0-2,2.2,2,2,0,0,0,2,2.17,3.05,3.05,0,0,0,1.29-.28Z" transform="translate(-204.66 -308.29)"/><path class="cls-1" d="M298.89,387.39a2.84,2.84,0,0,1-2.88,3.09,2.76,2.76,0,0,1-2.79-3,2.83,2.83,0,0,1,2.88-3.07A2.74,2.74,0,0,1,298.89,387.39Zm-4.6.07c0,1.27.73,2.23,1.76,2.23s1.77-.94,1.77-2.26c0-1-.5-2.22-1.75-2.22S294.29,386.36,294.29,387.46Z" transform="translate(-204.66 -308.29)"/><path class="cls-1" d="M300.23,386.44c0-.74,0-1.34-.05-1.89h.94l.06,1h0a2.26,2.26,0,0,1,2.06-1.12c1.41,0,2.46,1.18,2.46,2.94,0,2.09-1.28,3.12-2.63,3.12a2,2,0,0,1-1.79-.91h0v3.15h-1Zm1,1.55a2,2,0,0,0,.05.43,1.62,1.62,0,0,0,1.58,1.24c1.12,0,1.76-.92,1.76-2.25,0-1.16-.61-2.15-1.72-2.15a1.67,1.67,0,0,0-1.6,1.3,2,2,0,0,0-.07.43Z" transform="translate(-204.66 -308.29)"/><path class="cls-1" d="M307.35,384.55l1.27,3.43c.14.38.28.84.37,1.18h0c.11-.34.23-.78.37-1.21l1.15-3.4h1.12l-1.59,4.13c-.75,2-1.27,3-2,3.64a3,3,0,0,1-1.3.68l-.26-.89a2.52,2.52,0,0,0,.92-.51,3.33,3.33,0,0,0,.89-1.18.64.64,0,0,0,.08-.25.67.67,0,0,0-.08-.27l-2.13-5.35Z" transform="translate(-204.66 -308.29)"/><path class="cls-1" d="M313.86,389.1a.89.89,0,0,1-.15.46,1.44,1.44,0,0,0-.19.57,1.29,1.29,0,0,1,0,.28c0,.23-.09.37-.19.41s-.38,0-.79-.22a1.71,1.71,0,0,1-.7-.44c0-.07,0-.3.17-.67a5,5,0,0,1,.34-.72.27.27,0,0,1,.26-.12l.72.14C313.65,388.85,313.83,389,313.86,389.1Z" transform="translate(-204.66 -308.29)"/></svg>