<svg id="Layer_1" data-name="Layer 1" xmlns="http://www.w3.org/2000/svg" viewBox="0 0 460.51 439.91"><defs><style>.cls-1{fill:#c4ae5a;}</style></defs><path class="cls-1" d="M244.76,436.05h0Z" transform="translate(-19.07 -30.05)"/><path class="cls-1" d="M244.76,429.4v.09l.06-.05Z" transform="translate(-19.07 -30.05)"/><path class="cls-1" d="M241.26,431.51a24.38,24.38,0,0,0-2.46-2.07l-.06.05v-.09q-2.25-1.77-6.49-5-6.44-4.87-6.43-8.89V80.87q0-23.51,2.58-32.4c.19-.63.5-1.28.76-1.93a43.67,43.67,0,0,1,8.27-12.26,5.24,5.24,0,0,0,1.31-1.8v-.3c0-.07-.08-.17-.08-.23s.07-.1.08-.16v-.22a2,2,0,0,0-1.3-.93,18.38,18.38,0,0,0-5.49-.59,179.26,179.26,0,0,0-80.2,18.49,219.68,219.68,0,0,0,87,421.41c-47.22-10.28-44.14-9.65-58.35-14.58-25.71-8.93-55.79-31.92-60-35.81-50-45.78-58-78.71-61.48-89.22-30.6-93.16-.85-165.4,22-195,14.19,5.46,30.49,13.24,41,19.72a154.91,154.91,0,0,1,33.75,28.25q24.56,27.72,34.92,59.89a149,149,0,0,1,7.19,45.71c0,3.81-.18,116.93-.53,119.82s-.67,5.11-.95,6.66q0,4-6.56,9.1-8.46,6.57-9.1,7.41a2.29,2.29,0,0,0-.63,1.69c0,1.7,1.2,2.54,3.61,2.54a45.91,45.91,0,0,0,7.21-.21q13.6-1,20.39-1.06,4,0,14.55.74a117,117,0,0,0,12.63.53c.17,0,.29,0,.45,0h.06c2.17-.1,3.31-.83,3.31-2.24a3.35,3.35,0,0,0-.21-1A2.72,2.72,0,0,0,241.26,431.51ZM196.19,215Q185,195.32,174.61,182.63a172.78,172.78,0,0,0-26.67-26A195.66,195.66,0,0,0,120.64,138a206,206,0,0,0-33.22-14.39Q98.85,106.66,109,96.28a184.44,184.44,0,0,1,26.67-21.79c.76-.54,1.53-1,2.3-1.53a202.27,202.27,0,0,1,58.22-22.18Z" transform="translate(-19.07 -30.05)"/><path class="cls-1" d="M253.88,436.05h0Z" transform="translate(-19.07 -30.05)"/><path class="cls-1" d="M253.88,429.4v.09l0-.05Z" transform="translate(-19.07 -30.05)"/><path class="cls-1" d="M256.75,432.76a3.13,3.13,0,0,0-.22,1c0,1.41,1.14,2.14,3.32,2.24h0c.16,0,.28,0,.45,0a117.17,117.17,0,0,0,12.64-.53q10.51-.74,14.54-.74,6.8,0,20.39,1.06a46,46,0,0,0,7.22.21c2.4,0,3.61-.84,3.61-2.54a2.26,2.26,0,0,0-.64-1.69q-.63-.84-9.1-7.41-6.56-5.07-6.56-9.1-.42-2.32-.95-6.66c-.35-2.89-.53-116-.53-119.82a148.67,148.67,0,0,1,7.2-45.71q10.36-32.18,34.91-59.89A154.73,154.73,0,0,1,376.84,155c10.45-6.48,26.75-14.26,41-19.72,22.84,29.65,52.58,101.89,22,195-3.45,10.51-11.47,43.44-61.49,89.22-4.25,3.89-34.33,26.88-60,35.81C304,460.3,307.12,459.67,259.9,470A219.7,219.7,0,0,0,479.58,250.28c0-90.41-54.64-168-132.68-201.74a179.26,179.26,0,0,0-80.2-18.49,18.46,18.46,0,0,0-5.5.59,2,2,0,0,0-1.3.93v.22c0,.06.09.1.09.16s-.08.16-.09.23v.3a5.39,5.39,0,0,0,1.31,1.8,43.45,43.45,0,0,1,8.27,12.26c.27.65.57,1.3.76,1.93q2.6,8.89,2.59,32.4V415.55q0,4-6.44,8.89-4.25,3.19-6.49,5v.09l0-.05a22,22,0,0,0-2.46,2.07A2.54,2.54,0,0,0,256.75,432.76Zm45.7-382A202,202,0,0,1,360.67,73c.77.52,1.54,1,2.31,1.53q16.5,11.42,26.66,21.79t21.59,27.3A205.71,205.71,0,0,0,378,138a195.66,195.66,0,0,0-27.3,18.63,173.15,173.15,0,0,0-26.66,26Q313.67,195.32,302.45,215Z" transform="translate(-19.07 -30.05)"/></svg>