<svg id="Layer_1" data-name="Layer 1" xmlns="http://www.w3.org/2000/svg" viewBox="0 0 149.81 48.27"><defs><style>.cls-1{fill:#fff;}</style></defs><path class="cls-1" d="M264.82,342.06a2.39,2.39,0,0,0,.36-.05.51.51,0,0,0,.22-.12.36.36,0,0,0,.11-.22,1.73,1.73,0,0,0,0-.36v-3.92a1.4,1.4,0,0,0,0-.23.34.34,0,0,0-.1-.16.61.61,0,0,0-.23-.09l-.39,0,0-.22h2.23l0,.21a1.68,1.68,0,0,0-.37.06.46.46,0,0,0-.22.11.42.42,0,0,0-.11.22,1.69,1.69,0,0,0,0,.35v3.93a1.4,1.4,0,0,0,0,.23.29.29,0,0,0,.1.16.61.61,0,0,0,.23.09l.39,0v.22h-2.24Z" transform="translate(-264.62 -310.75)"/><path class="cls-1" d="M269.47,342.27h-1.91v-.19a1.84,1.84,0,0,0,.32-.06.33.33,0,0,0,.18-.11.29.29,0,0,0,.09-.2,3.21,3.21,0,0,0,0-.36v-1.49a1,1,0,0,0,0-.26.26.26,0,0,0-.07-.15.48.48,0,0,0-.16-.08l-.29-.06,0-.18.34-.07.36-.08.32-.09a1.21,1.21,0,0,0,.24-.07l.1,0,0,.25a1.93,1.93,0,0,0,0,.24,2.15,2.15,0,0,1,.62-.39,1.48,1.48,0,0,1,.64-.14,1.42,1.42,0,0,1,.42.06,1,1,0,0,1,.33.22.91.91,0,0,1,.22.37,1.49,1.49,0,0,1,.08.55v1.57a1.3,1.3,0,0,0,0,.23.23.23,0,0,0,.07.13.54.54,0,0,0,.17.07l.3,0v.22h-1.86v-.19l.29-.05a.32.32,0,0,0,.17-.1.42.42,0,0,0,.08-.19,3.44,3.44,0,0,0,0-.35v-1.2a1,1,0,0,0-.18-.68.59.59,0,0,0-.47-.21,1.23,1.23,0,0,0-.47.09,2.4,2.4,0,0,0-.42.26v1.94a1.48,1.48,0,0,0,0,.23.23.23,0,0,0,.07.13.52.52,0,0,0,.18.07l.31,0Z" transform="translate(-264.62 -310.75)"/><path class="cls-1" d="M273.33,337.69c0,.1,0,.22,0,.34s0,.25,0,.37,0,.24,0,.34V339h.94l0,0,0,.32h-1v1.84a1.83,1.83,0,0,0,0,.37.45.45,0,0,0,.11.23.32.32,0,0,0,.18.13.78.78,0,0,0,.22,0l.26,0,.26-.06,0,.23a3.56,3.56,0,0,1-.49.19,1.92,1.92,0,0,1-.51.08,1.22,1.22,0,0,1-.37-.05.53.53,0,0,1-.26-.15.73.73,0,0,1-.17-.27,1.35,1.35,0,0,1-.06-.43v-2.12H272l0,0,0-.25.54,0V338a1.56,1.56,0,0,1,.21-.08l.24-.09.19-.08.1,0Z" transform="translate(-264.62 -310.75)"/><path class="cls-1" d="M276.73,342.27h-2.06l0-.19L275,342a.4.4,0,0,0,.18-.11.4.4,0,0,0,.08-.21,3.21,3.21,0,0,0,0-.36v-1.49a1.72,1.72,0,0,0,0-.26.26.26,0,0,0-.07-.15.45.45,0,0,0-.17-.08l-.3-.06v-.18l.32-.06.39-.09.36-.09.23-.07.07,0a2.47,2.47,0,0,0,0,.36v.36a3.34,3.34,0,0,1,.34-.38,1.68,1.68,0,0,1,.28-.23.89.89,0,0,1,.24-.12.76.76,0,0,1,.21,0,.53.53,0,0,1,.28.07.27.27,0,0,1,.13.26.56.56,0,0,1-.11.27,1.13,1.13,0,0,1-.31.26.9.9,0,0,0-.22-.14.7.7,0,0,0-.25-.05.53.53,0,0,0-.3.12.82.82,0,0,0-.25.34.3.3,0,0,0,0,.11v1.53a.75.75,0,0,0,0,.23.18.18,0,0,0,.09.13.81.81,0,0,0,.22.07l.41,0Z" transform="translate(-264.62 -310.75)"/><path class="cls-1" d="M277.74,340.64a1.87,1.87,0,0,1,.13-.71,1.77,1.77,0,0,1,.38-.58,1.71,1.71,0,0,1,1.29-.53,1.59,1.59,0,0,1,.73.14,2.58,2.58,0,0,1,.56.37,1.36,1.36,0,0,1,.39.56,1.72,1.72,0,0,1,.13.68,1.87,1.87,0,0,1-.14.71,1.85,1.85,0,0,1-.37.58,2,2,0,0,1-.56.39,2,2,0,0,1-.74.14,1.78,1.78,0,0,1-.76-.14,1.57,1.57,0,0,1-.56-.37,1.63,1.63,0,0,1-.36-.56A1.91,1.91,0,0,1,277.74,340.64Zm1.88,1.45A.78.78,0,0,0,280,342a1.11,1.11,0,0,0,.3-.31,1.57,1.57,0,0,0,.18-.44,2.61,2.61,0,0,0,.05-.48,2.76,2.76,0,0,0-.06-.57,1.67,1.67,0,0,0-.2-.53,1.07,1.07,0,0,0-.34-.39.84.84,0,0,0-.44-.14.68.68,0,0,0-.37.11,1,1,0,0,0-.3.31,1.49,1.49,0,0,0-.17.43,2,2,0,0,0-.06.48,2.2,2.2,0,0,0,.07.56,1.83,1.83,0,0,0,.2.54,1.1,1.1,0,0,0,.35.39A.72.72,0,0,0,279.62,342.09Z" transform="translate(-264.62 -310.75)"/><path class="cls-1" d="M285.32,336.34a3.07,3.07,0,0,0,0,.34l0,.4c0,.14,0,.26,0,.38s0,.21,0,.28v3.64a1.65,1.65,0,0,0,0,.27.28.28,0,0,0,.08.15.57.57,0,0,0,.19.08,2.27,2.27,0,0,0,.34.05l0,.18-.42.06a3.84,3.84,0,0,0-.42.06l-.32.08-.18.05-.06-.05V342a1.63,1.63,0,0,1-.58.33,1.76,1.76,0,0,1-.5.1,1.48,1.48,0,0,1-.61-.12,1.43,1.43,0,0,1-.47-.33,1.34,1.34,0,0,1-.32-.51,1.81,1.81,0,0,1-.12-.67,1.85,1.85,0,0,1,.16-.78,1.8,1.8,0,0,1,.44-.61,2.17,2.17,0,0,1,.65-.41,2.12,2.12,0,0,1,.75-.14h.26a2,2,0,0,1,.34.06v-1.58a1.06,1.06,0,0,0,0-.27.28.28,0,0,0-.08-.15.68.68,0,0,0-.19-.08l-.35-.07,0-.17.43-.08.45-.08.37-.08.18,0Zm-.83,3.16a1,1,0,0,0-.35-.27.92.92,0,0,0-.4-.08.72.72,0,0,0-.41.11,1.08,1.08,0,0,0-.33.31,1.55,1.55,0,0,0-.21.45,2.14,2.14,0,0,0-.06.5,1.77,1.77,0,0,0,.07.5,1.55,1.55,0,0,0,.21.45,1,1,0,0,0,.34.31.91.91,0,0,0,.44.12,1.23,1.23,0,0,0,.36-.06,1,1,0,0,0,.34-.18Z" transform="translate(-264.62 -310.75)"/><path class="cls-1" d="M288.82,342.31c0-.07,0-.14,0-.22v-.22a2,2,0,0,1-.61.4,1.68,1.68,0,0,1-.63.12,1.16,1.16,0,0,1-.44-.07.84.84,0,0,1-.31-.22,1.07,1.07,0,0,1-.21-.38,1.61,1.61,0,0,1-.08-.56v-1.39a1.61,1.61,0,0,0,0-.26.26.26,0,0,0-.07-.15.27.27,0,0,0-.16-.08l-.27-.06V339l.37-.05.36-.06a3.17,3.17,0,0,0,.35-.06l.22-.05.06,0c0,.1,0,.21,0,.32s0,.22,0,.32,0,.21,0,.3a2.36,2.36,0,0,0,0,.25v.86a2.12,2.12,0,0,0,.05.47,1,1,0,0,0,.14.3.51.51,0,0,0,.22.17.76.76,0,0,0,.27,0,1.07,1.07,0,0,0,.43-.09,1.24,1.24,0,0,0,.4-.29v-1.75a1.86,1.86,0,0,0,0-.26.28.28,0,0,0-.08-.15.3.3,0,0,0-.17-.08l-.31-.06V339l.39-.05.39-.06a3.43,3.43,0,0,0,.34-.06l.22-.05.07,0a1.66,1.66,0,0,0,0,.32c0,.11,0,.22,0,.32s0,.21,0,.3v1.61a1.61,1.61,0,0,0,0,.26.28.28,0,0,0,.08.15.51.51,0,0,0,.18.08l.32.05,0,.18-.36.05-.41.05a2.23,2.23,0,0,0-.37.07l-.2.06Z" transform="translate(-264.62 -310.75)"/><path class="cls-1" d="M293.67,341.52a1.26,1.26,0,0,1-.27.37,1.31,1.31,0,0,1-.35.27,1.42,1.42,0,0,1-.4.17,1.52,1.52,0,0,1-.42.06,1.45,1.45,0,0,1-.68-.14,1.57,1.57,0,0,1-.51-.36,1.69,1.69,0,0,1-.33-.53,2,2,0,0,1-.11-.64,1.71,1.71,0,0,1,.16-.75,2,2,0,0,1,.43-.6,2.08,2.08,0,0,1,.63-.41,2.28,2.28,0,0,1,.8-.14,3,3,0,0,1,.42,0,1.06,1.06,0,0,1,.39.13.2.2,0,0,1,.12.1.4.4,0,0,1,0,.15.46.46,0,0,1-.08.23.71.71,0,0,1-.31.22h0a1.88,1.88,0,0,0-.42-.33,1,1,0,0,0-.46-.1.74.74,0,0,0-.36.09.94.94,0,0,0-.3.26,1.43,1.43,0,0,0-.19.37,1.56,1.56,0,0,0-.06.44,1.91,1.91,0,0,0,.08.54,1.37,1.37,0,0,0,.23.45,1.18,1.18,0,0,0,.38.32,1,1,0,0,0,.48.11,1.31,1.31,0,0,0,.54-.11.92.92,0,0,0,.41-.37Z" transform="translate(-264.62 -310.75)"/><path class="cls-1" d="M295.91,342.27H294l0-.19.31-.05a.4.4,0,0,0,.18-.11.51.51,0,0,0,.09-.21,3.21,3.21,0,0,0,0-.36v-1.51a1.61,1.61,0,0,0,0-.26.35.35,0,0,0-.07-.15.54.54,0,0,0-.17-.08l-.28-.06,0-.18.37-.07.4-.08a2.7,2.7,0,0,0,.35-.08l.19-.06.06,0,0,.32c0,.11,0,.22,0,.33s0,.21,0,.31v1.77a1.3,1.3,0,0,0,0,.23.2.2,0,0,0,.08.13.52.52,0,0,0,.18.07l.34,0Zm-1.43-4.86a.41.41,0,0,1,.43-.43.42.42,0,0,1,.32.12.46.46,0,0,1,0,.62.42.42,0,0,1-.32.12.41.41,0,0,1-.43-.43Z" transform="translate(-264.62 -310.75)"/><path class="cls-1" d="M298.07,342.27h-1.9l0-.19a1.84,1.84,0,0,0,.32-.06.4.4,0,0,0,.19-.11.41.41,0,0,0,.09-.2,3.21,3.21,0,0,0,0-.36v-1.49a1.72,1.72,0,0,0,0-.26.35.35,0,0,0-.07-.15.54.54,0,0,0-.17-.08l-.28-.06,0-.18.34-.07.36-.08.32-.09.24-.07.09,0,0,.25c0,.08,0,.16,0,.24a2.3,2.3,0,0,1,.62-.39,1.52,1.52,0,0,1,.65-.14,1.35,1.35,0,0,1,.41.06,1,1,0,0,1,.34.22,1,1,0,0,1,.22.37,1.73,1.73,0,0,1,.08.55v1.57a1.48,1.48,0,0,0,0,.23.24.24,0,0,0,.08.13.4.4,0,0,0,.16.07l.3,0v.22h-1.85l0-.19.3-.05a.32.32,0,0,0,.17-.1.42.42,0,0,0,.07-.19,3,3,0,0,0,0-.35v-1.2a1,1,0,0,0-.18-.68.59.59,0,0,0-.47-.21,1.19,1.19,0,0,0-.47.09,2.9,2.9,0,0,0-.43.26v1.94a1.3,1.3,0,0,0,0,.23.19.19,0,0,0,.07.13.54.54,0,0,0,.17.07l.31,0Z" transform="translate(-264.62 -310.75)"/><path class="cls-1" d="M300.87,340.21a1.26,1.26,0,0,1,.12-.55,1.31,1.31,0,0,1,.33-.44,1.41,1.41,0,0,1,.46-.3,1.64,1.64,0,0,1,.6-.1,1.6,1.6,0,0,1,.85.2l.12.05.13,0h.1l.89-.06,0,0,0,.37h-.83a1,1,0,0,1,.24.66,1.22,1.22,0,0,1-.14.61,1.51,1.51,0,0,1-.35.44,1.57,1.57,0,0,1-.49.27,1.79,1.79,0,0,1-.57.09,2.08,2.08,0,0,1-.46-.06.7.7,0,0,0-.21.14.3.3,0,0,0-.08.2.24.24,0,0,0,.05.14.36.36,0,0,0,.15.08l.18,0h1.15a2.56,2.56,0,0,1,.47,0,1.26,1.26,0,0,1,.42.16.84.84,0,0,1,.31.31,1,1,0,0,1,.12.49,1.19,1.19,0,0,1-.17.6,1.57,1.57,0,0,1-.45.51,2.68,2.68,0,0,1-.7.34,2.77,2.77,0,0,1-.94.14,2,2,0,0,1-.53-.07,2.26,2.26,0,0,1-.5-.17,1.06,1.06,0,0,1-.37-.29.64.64,0,0,1-.13-.4.74.74,0,0,1,.07-.34,1.16,1.16,0,0,1,.2-.25,2.47,2.47,0,0,1,.29-.24l.31-.22a1.08,1.08,0,0,1-.44-.24.41.41,0,0,1-.16-.33.54.54,0,0,1,.06-.25.78.78,0,0,1,.17-.21l.21-.15.18-.12A1.17,1.17,0,0,1,300.87,340.21Zm1.67,2.49h-.32l-.21,0-.15,0-.13.1a1.41,1.41,0,0,0-.27.29.62.62,0,0,0-.09.34.6.6,0,0,0,.1.31.64.64,0,0,0,.3.23,1.19,1.19,0,0,0,.42.11,2.76,2.76,0,0,0,.38,0,2.47,2.47,0,0,0,.44-.05,2.19,2.19,0,0,0,.41-.15.77.77,0,0,0,.28-.26.74.74,0,0,0,.1-.35.58.58,0,0,0-.11-.31.68.68,0,0,0-.3-.25,1.18,1.18,0,0,0-.38-.09h-.47Zm-.1-1.47a.49.49,0,0,0,.28-.09.77.77,0,0,0,.22-.22,1.1,1.1,0,0,0,.11-.32,1.27,1.27,0,0,0,0-.34,2,2,0,0,0,0-.42,1.14,1.14,0,0,0-.13-.38.78.78,0,0,0-.24-.27.57.57,0,0,0-.34-.1.61.61,0,0,0-.3.08.6.6,0,0,0-.2.22,1.25,1.25,0,0,0-.12.31,2,2,0,0,0,0,.35,2,2,0,0,0,0,.41,1.15,1.15,0,0,0,.14.38.81.81,0,0,0,.24.28A.62.62,0,0,0,302.44,341.23Z" transform="translate(-264.62 -310.75)"/><path class="cls-1" d="M306.45,336.65H308c.07.17.14.34.22.5s.14.33.22.5l1.64,3.57,1.49-3.65c.07-.15.13-.3.19-.46s.13-.31.19-.46h1.56v.21a1.89,1.89,0,0,0-.41.06.49.49,0,0,0-.24.11.41.41,0,0,0-.1.22,1.34,1.34,0,0,0,0,.36l.12,3.92a.73.73,0,0,0,0,.23.28.28,0,0,0,.12.16.55.55,0,0,0,.24.09,3.33,3.33,0,0,0,.41,0v.22h-2.2l0-.21a2.08,2.08,0,0,0,.34-.05.44.44,0,0,0,.19-.12.33.33,0,0,0,.08-.22,2,2,0,0,0,0-.36l-.12-3.69-1,2.33c-.34.77-.64,1.57-.92,2.37l-.35,0c-.11-.28-.37-.88-.79-1.79s-.81-1.79-1.19-2.63l-.13,3.3a2.81,2.81,0,0,0,0,.43.45.45,0,0,0,.1.23.36.36,0,0,0,.22.11l.36,0v.22H306.4l0-.21a2.9,2.9,0,0,0,.39-.05.4.4,0,0,0,.24-.13.7.7,0,0,0,.13-.3,3.78,3.78,0,0,0,0-.55l.13-3v-.36c0-.09,0-.18,0-.25a.75.75,0,0,0-.07-.18.45.45,0,0,0-.1-.14.61.61,0,0,0-.28-.16l-.4-.05Z" transform="translate(-264.62 -310.75)"/><path class="cls-1" d="M315.87,342.27h-1.94v-.19l.3-.05a.4.4,0,0,0,.18-.11.41.41,0,0,0,.09-.21,3.21,3.21,0,0,0,0-.36v-1.51a1.61,1.61,0,0,0,0-.26.26.26,0,0,0-.07-.15.45.45,0,0,0-.17-.08l-.28-.06,0-.18.37-.07.41-.08a2.92,2.92,0,0,0,.34-.08l.19-.06.06,0,0,.32c0,.11,0,.22,0,.33s0,.21,0,.31,0,.18,0,.25v1.52a1.3,1.3,0,0,0,0,.23.2.2,0,0,0,.08.13.5.5,0,0,0,.19.07l.34,0Zm-1.43-4.86a.41.41,0,0,1,.43-.43.45.45,0,0,1,.33.12.46.46,0,0,1,0,.62.45.45,0,0,1-.33.12.41.41,0,0,1-.43-.43Z" transform="translate(-264.62 -310.75)"/><path class="cls-1" d="M319.25,341.52a1.44,1.44,0,0,1-.26.37,1.73,1.73,0,0,1-.35.27,1.55,1.55,0,0,1-.4.17,1.65,1.65,0,0,1-.43.06,1.45,1.45,0,0,1-.68-.14,1.57,1.57,0,0,1-.51-.36,1.51,1.51,0,0,1-.32-.53,1.73,1.73,0,0,1-.12-.64,1.71,1.71,0,0,1,.16-.75,2,2,0,0,1,.43-.6,2.35,2.35,0,0,1,.63-.41,2.28,2.28,0,0,1,.8-.14,3,3,0,0,1,.42,0,1.06,1.06,0,0,1,.39.13.2.2,0,0,1,.12.1.4.4,0,0,1,0,.15.46.46,0,0,1-.08.23.71.71,0,0,1-.31.22h0a1.68,1.68,0,0,0-.42-.33,1,1,0,0,0-.46-.1.74.74,0,0,0-.36.09,1.06,1.06,0,0,0-.3.26,1.16,1.16,0,0,0-.18.37,1.27,1.27,0,0,0-.07.44,1.91,1.91,0,0,0,.08.54,1.37,1.37,0,0,0,.23.45,1.18,1.18,0,0,0,.38.32,1,1,0,0,0,.48.11,1.24,1.24,0,0,0,.54-.11.92.92,0,0,0,.41-.37Z" transform="translate(-264.62 -310.75)"/><path class="cls-1" d="M321.62,342.27h-2.06l0-.19.31-.05a.46.46,0,0,0,.18-.11.51.51,0,0,0,.08-.21,3.21,3.21,0,0,0,0-.36v-1.49a1.72,1.72,0,0,0,0-.26.35.35,0,0,0-.07-.15.54.54,0,0,0-.17-.08l-.3-.06,0-.18.33-.06.39-.09.36-.09.22-.07.07,0c0,.13,0,.25,0,.36s0,.24,0,.36a4.62,4.62,0,0,1,.35-.38,1.35,1.35,0,0,1,.28-.23.89.89,0,0,1,.24-.12.76.76,0,0,1,.21,0,.53.53,0,0,1,.28.07.27.27,0,0,1,.13.26.51.51,0,0,1-.12.27.9.9,0,0,1-.31.26.74.74,0,0,0-.22-.14.6.6,0,0,0-.24-.05.53.53,0,0,0-.3.12.93.93,0,0,0-.26.34.61.61,0,0,0,0,.11s0,.08,0,.13v1.4a1.3,1.3,0,0,0,0,.23.22.22,0,0,0,.1.13.81.81,0,0,0,.22.07l.41,0Z" transform="translate(-264.62 -310.75)"/><path class="cls-1" d="M322.62,340.64a1.87,1.87,0,0,1,.14-.71,1.81,1.81,0,0,1,.94-1,1.86,1.86,0,0,1,.73-.14,1.61,1.61,0,0,1,.73.14,2.31,2.31,0,0,1,.55.37,1.29,1.29,0,0,1,.4.56,1.72,1.72,0,0,1,.13.68,1.87,1.87,0,0,1-.14.71,2.05,2.05,0,0,1-.37.58,1.92,1.92,0,0,1-.57.39,2.08,2.08,0,0,1-1.5,0,1.62,1.62,0,0,1-.55-.37,1.5,1.5,0,0,1-.36-.56A1.91,1.91,0,0,1,322.62,340.64Zm1.88,1.45a.78.78,0,0,0,.37-.11,1.11,1.11,0,0,0,.3-.31,1.57,1.57,0,0,0,.18-.44,2.61,2.61,0,0,0,0-.48,2.76,2.76,0,0,0-.06-.57,1.67,1.67,0,0,0-.2-.53,1.1,1.1,0,0,0-.35-.39.78.78,0,0,0-.43-.14.68.68,0,0,0-.37.11,1,1,0,0,0-.3.31,1.25,1.25,0,0,0-.17.43,2,2,0,0,0-.06.48,2.2,2.2,0,0,0,.07.56,1.83,1.83,0,0,0,.2.54,1.17,1.17,0,0,0,.34.39A.77.77,0,0,0,324.5,342.09Z" transform="translate(-264.62 -310.75)"/><path class="cls-1" d="M329,339.93a1.59,1.59,0,0,0-.09-.33,1.24,1.24,0,0,0-.19-.26.92.92,0,0,0-.27-.16,1,1,0,0,0-.34-.06.78.78,0,0,0-.22,0,.59.59,0,0,0-.17.1.36.36,0,0,0-.11.16.48.48,0,0,0,0,.2.46.46,0,0,0,.06.23.52.52,0,0,0,.19.17l.27.14.31.13.37.16a1.33,1.33,0,0,1,.33.21.66.66,0,0,1,.23.29.93.93,0,0,1,.09.4.86.86,0,0,1-.12.47,1.06,1.06,0,0,1-.3.33,1.28,1.28,0,0,1-.43.19,2.1,2.1,0,0,1-.51.06l-.3,0-.29-.05-.24-.06-.26,0c0-.06,0-.15,0-.25l0-.31c0-.11,0-.21,0-.3a2.14,2.14,0,0,0-.05-.23l.23-.05a2.64,2.64,0,0,0,.18.38,1.24,1.24,0,0,0,.23.32,1,1,0,0,0,.31.22.86.86,0,0,0,.41.09.66.66,0,0,0,.38-.12.42.42,0,0,0,.17-.36.41.41,0,0,0-.07-.25.66.66,0,0,0-.19-.18,1,1,0,0,0-.24-.14l-.29-.12-.37-.17a1.69,1.69,0,0,1-.34-.23.93.93,0,0,1-.23-.3.89.89,0,0,1-.07-.38,1,1,0,0,1,.11-.46,1,1,0,0,1,.3-.32,1.32,1.32,0,0,1,.4-.18,2,2,0,0,1,.49-.06,2.49,2.49,0,0,1,.47,0,2.09,2.09,0,0,0,.53.06c0,.13,0,.25,0,.36s0,.23,0,.36v.28Z" transform="translate(-264.62 -310.75)"/><path class="cls-1" d="M329.85,340.64a1.7,1.7,0,0,1,.14-.71,1.75,1.75,0,0,1,.37-.58,2,2,0,0,1,.56-.39,1.9,1.9,0,0,1,.73-.14,1.56,1.56,0,0,1,.73.14,2.36,2.36,0,0,1,.56.37,1.48,1.48,0,0,1,.4.56,1.91,1.91,0,0,1,.12.68,1.87,1.87,0,0,1-.13.71,2.08,2.08,0,0,1-.38.58,1.87,1.87,0,0,1-.56.39,1.91,1.91,0,0,1-.74.14,1.81,1.81,0,0,1-.76-.14,1.66,1.66,0,0,1-.56-.37,1.8,1.8,0,0,1-.36-.56A1.91,1.91,0,0,1,329.85,340.64Zm1.88,1.45a.72.72,0,0,0,.36-.11,1.11,1.11,0,0,0,.3-.31,1.57,1.57,0,0,0,.18-.44,2,2,0,0,0,.06-.48,2.22,2.22,0,0,0-.07-.57,1.66,1.66,0,0,0-.19-.53,1.2,1.2,0,0,0-.35-.39.82.82,0,0,0-.44-.14.63.63,0,0,0-.36.11.81.81,0,0,0-.3.31,1.5,1.5,0,0,0-.18.43,2.61,2.61,0,0,0-.05.48,2.74,2.74,0,0,0,.06.56,1.83,1.83,0,0,0,.2.54,1.2,1.2,0,0,0,.35.39A.72.72,0,0,0,331.73,342.09Z" transform="translate(-264.62 -310.75)"/><path class="cls-1" d="M335.25,339.34v2.25a.82.82,0,0,0,0,.24.22.22,0,0,0,.12.13.58.58,0,0,0,.23.06l.39,0v.22h-2.07l0-.19.31-.05a.42.42,0,0,0,.17-.11.4.4,0,0,0,.08-.21,1.73,1.73,0,0,0,0-.36v-2h-.56l0,0,0-.24.58,0v-.57a2.85,2.85,0,0,1,.15-1,2.21,2.21,0,0,1,.44-.69,1.74,1.74,0,0,1,.55-.36,2,2,0,0,1,.72-.12l.31,0,.21.06a.52.52,0,0,1,.17.12.29.29,0,0,1,.07.2.34.34,0,0,1-.1.29,1,1,0,0,1-.32.17,1.18,1.18,0,0,0-.35-.26.94.94,0,0,0-.43-.1.57.57,0,0,0-.22,0,.39.39,0,0,0-.19.12.55.55,0,0,0-.15.24,1.16,1.16,0,0,0-.08.32,2,2,0,0,0,0,.35V339h1l.05,0,0,.31Z" transform="translate(-264.62 -310.75)"/><path class="cls-1" d="M337.6,337.69c0,.1,0,.22,0,.34s0,.25,0,.37,0,.24,0,.34,0,.2,0,.26h.94l.05,0,0,.32h-1v1.84a1.83,1.83,0,0,0,0,.37.55.55,0,0,0,.11.23.38.38,0,0,0,.19.13.73.73,0,0,0,.22,0l.25,0,.26-.06.05.23a3.7,3.7,0,0,1-.5.19,1.81,1.81,0,0,1-.51.08,1.27,1.27,0,0,1-.37-.05.54.54,0,0,1-.25-.15.64.64,0,0,1-.18-.27,1.35,1.35,0,0,1-.06-.43V341c0-.15,0-.36,0-.62v-1h-.53l0,0,0-.25.55,0v-.49c0-.1,0-.2,0-.3V338l.21-.08.25-.09.18-.08.11,0Z" transform="translate(-264.62 -310.75)"/><path class="cls-1" d="M342.23,340.31a1.75,1.75,0,0,0,.13.72,1.3,1.3,0,0,0,.37.49,1.46,1.46,0,0,0,.52.28,1.79,1.79,0,0,0,.54.09,2,2,0,0,0,.6-.09,1.49,1.49,0,0,0,.51-.31,1.46,1.46,0,0,0,.34-.55,2.49,2.49,0,0,0,.12-.82v-2.4a2.34,2.34,0,0,0,0-.42.55.55,0,0,0-.14-.25.66.66,0,0,0-.28-.12,3.58,3.58,0,0,0-.45-.05v-.22h2.11v.21a3.23,3.23,0,0,0-.42.06.49.49,0,0,0-.25.12.53.53,0,0,0-.14.28,3.16,3.16,0,0,0,0,.5v2.46a2.29,2.29,0,0,1-.19,1,1.89,1.89,0,0,1-.51.66,2.1,2.1,0,0,1-.71.37,3.1,3.1,0,0,1-.81.11,2.88,2.88,0,0,1-.78-.1,1.68,1.68,0,0,1-.68-.34,1.88,1.88,0,0,1-.46-.58,1.9,1.9,0,0,1-.17-.82v-3.12a1.66,1.66,0,0,0,0-.24.31.31,0,0,0-.12-.16.54.54,0,0,0-.24-.11,3.32,3.32,0,0,0-.42,0v-.22H343l0,.21a3,3,0,0,0-.41.05.65.65,0,0,0-.25.13.46.46,0,0,0-.12.24,1.73,1.73,0,0,0,0,.36Z" transform="translate(-264.62 -310.75)"/><path class="cls-1" d="M348.76,342.27h-1.94v-.19l.3-.05a.4.4,0,0,0,.18-.11.51.51,0,0,0,.09-.21,3.21,3.21,0,0,0,0-.36v-1.51a1.61,1.61,0,0,0,0-.26.35.35,0,0,0-.07-.15.54.54,0,0,0-.17-.08l-.28-.06,0-.18.37-.07.4-.08a2.7,2.7,0,0,0,.35-.08l.19-.06.06,0,0,.32c0,.11,0,.22,0,.33s0,.21,0,.31a2.26,2.26,0,0,0,0,.25v1.52a1.3,1.3,0,0,0,0,.23.2.2,0,0,0,.08.13.52.52,0,0,0,.18.07l.34,0Zm-1.43-4.86a.41.41,0,0,1,.43-.43.45.45,0,0,1,.33.12.46.46,0,0,1,0,.62.45.45,0,0,1-.33.12.41.41,0,0,1-.43-.43Z" transform="translate(-264.62 -310.75)"/><path class="cls-1" d="M349.17,340.21a1.26,1.26,0,0,1,.12-.55,1.28,1.28,0,0,1,.32-.44,1.35,1.35,0,0,1,.47-.3,1.55,1.55,0,0,1,.59-.1,1.57,1.57,0,0,1,.85.2l.12.05.13,0h.1l.89-.06.05,0,0,.37h-.83a1,1,0,0,1,.24.66,1.33,1.33,0,0,1-.13.61,1.39,1.39,0,0,1-.36.44,1.57,1.57,0,0,1-.49.27,1.69,1.69,0,0,1-.56.09,2.16,2.16,0,0,1-.47-.06.7.7,0,0,0-.21.14.3.3,0,0,0-.08.2.2.2,0,0,0,.06.14.27.27,0,0,0,.14.08l.19,0h1.14a2.49,2.49,0,0,1,.47,0,1.11,1.11,0,0,1,.42.16.84.84,0,0,1,.31.31,1,1,0,0,1,.12.49,1.28,1.28,0,0,1-.16.6,1.6,1.6,0,0,1-.46.51,2.85,2.85,0,0,1-1.64.48,2.09,2.09,0,0,1-.53-.07,2.45,2.45,0,0,1-.5-.17.94.94,0,0,1-.36-.29.59.59,0,0,1-.14-.4.74.74,0,0,1,.07-.34,1.57,1.57,0,0,1,.2-.25,3.7,3.7,0,0,1,.29-.24l.31-.22a1.15,1.15,0,0,1-.44-.24.41.41,0,0,1-.16-.33.54.54,0,0,1,.06-.25,1,1,0,0,1,.17-.21l.21-.15.18-.12A1.16,1.16,0,0,1,349.17,340.21Zm1.66,2.49h-.32l-.21,0-.14,0-.14.1a1.41,1.41,0,0,0-.27.29.61.61,0,0,0-.08.34.52.52,0,0,0,.1.31.64.64,0,0,0,.3.23,1.19,1.19,0,0,0,.42.11,2.56,2.56,0,0,0,.37,0,2.37,2.37,0,0,0,.44-.05,2,2,0,0,0,.41-.15.7.7,0,0,0,.28-.26.64.64,0,0,0,.1-.35.57.57,0,0,0-.1-.31.7.7,0,0,0-.31-.25,1.12,1.12,0,0,0-.37-.09h-.48Zm-.1-1.47a.49.49,0,0,0,.28-.09.77.77,0,0,0,.22-.22,1.52,1.52,0,0,0,.12-.32,1.87,1.87,0,0,0,0-.34,2,2,0,0,0,0-.42,1.42,1.42,0,0,0-.14-.38.78.78,0,0,0-.24-.27.57.57,0,0,0-.34-.1.57.57,0,0,0-.29.08.63.63,0,0,0-.21.22,1,1,0,0,0-.11.31,1.34,1.34,0,0,0,0,.35,2,2,0,0,0,0,.41,1.42,1.42,0,0,0,.14.38.81.81,0,0,0,.24.28A.62.62,0,0,0,350.73,341.23Z" transform="translate(-264.62 -310.75)"/><path class="cls-1" d="M354.38,336.34c0,.1,0,.21,0,.34l0,.4c0,.14,0,.26,0,.38v1.82a2.8,2.8,0,0,1,.61-.33,1.56,1.56,0,0,1,.64-.13,1.42,1.42,0,0,1,.44.06.72.72,0,0,1,.33.21.91.91,0,0,1,.22.37,1.62,1.62,0,0,1,.09.57v1.56a1.48,1.48,0,0,0,0,.23.19.19,0,0,0,.07.13.52.52,0,0,0,.18.07l.32,0,0,.22h-1.88v-.19l.29-.05a.32.32,0,0,0,.18-.1.33.33,0,0,0,.08-.19,3,3,0,0,0,0-.35v-1.2a1,1,0,0,0-.19-.68.63.63,0,0,0-.48-.21,1.23,1.23,0,0,0-.44.08,2.69,2.69,0,0,0-.46.22v2a1.3,1.3,0,0,0,0,.23.19.19,0,0,0,.07.13.52.52,0,0,0,.18.07l.3,0v.22H353l0-.19a1.54,1.54,0,0,0,.31-.06.33.33,0,0,0,.18-.11.41.41,0,0,0,.09-.2,3.21,3.21,0,0,0,0-.36v-4a1.61,1.61,0,0,0,0-.26.27.27,0,0,0-.09-.15.38.38,0,0,0-.18-.08l-.32-.07,0-.18.35-.07.37-.09a2.34,2.34,0,0,0,.38-.09,1.85,1.85,0,0,0,.29-.08Z" transform="translate(-264.62 -310.75)"/><path class="cls-1" d="M360.22,342.31c0-.07,0-.14,0-.22v-.22a2.13,2.13,0,0,1-.61.4,1.76,1.76,0,0,1-.63.12,1.16,1.16,0,0,1-.44-.07.87.87,0,0,1-.32-.22,1.07,1.07,0,0,1-.21-.38,1.91,1.91,0,0,1-.07-.56v-1.39a1.61,1.61,0,0,0,0-.26.35.35,0,0,0-.07-.15.27.27,0,0,0-.16-.08l-.28-.06V339l.37-.05.37-.06a3,3,0,0,0,.34-.06l.23-.05.06,0,0,.32c0,.11,0,.22,0,.32s0,.21,0,.3v1.11a2.12,2.12,0,0,0,0,.47.83.83,0,0,0,.14.3.48.48,0,0,0,.21.17.87.87,0,0,0,.28,0,1.11,1.11,0,0,0,.43-.09,1.36,1.36,0,0,0,.4-.29v-1.75a.94.94,0,0,0,0-.26.26.26,0,0,0-.07-.15.3.3,0,0,0-.18-.08l-.3-.06V339l.39-.05.38-.06c.12,0,.24,0,.35-.06l.22-.05.06,0,0,.32c0,.11,0,.22,0,.32s0,.21,0,.3v1.61a1.86,1.86,0,0,0,0,.26.36.36,0,0,0,.08.15.51.51,0,0,0,.18.08l.32.05,0,.18-.36.05-.42.05a2.08,2.08,0,0,0-.36.07l-.2.06Z" transform="translate(-264.62 -310.75)"/><path class="cls-1" d="M364,342.27H362l0-.19.31-.05a.4.4,0,0,0,.18-.11.4.4,0,0,0,.08-.21,3.21,3.21,0,0,0,0-.36v-1.49a1.72,1.72,0,0,0,0-.26.26.26,0,0,0-.07-.15.45.45,0,0,0-.17-.08l-.3-.06v-.18l.32-.06.39-.09.36-.09.23-.07.07,0c0,.13,0,.25,0,.36v.36a4.68,4.68,0,0,1,.34-.38,1.68,1.68,0,0,1,.28-.23.89.89,0,0,1,.24-.12.76.76,0,0,1,.21,0,.57.57,0,0,1,.29.07.29.29,0,0,1,.12.26.48.48,0,0,1-.11.27,1,1,0,0,1-.31.26.9.9,0,0,0-.22-.14.7.7,0,0,0-.25-.05.48.48,0,0,0-.29.12.9.9,0,0,0-.3.45v1.53a.75.75,0,0,0,0,.23.18.18,0,0,0,.09.13.79.79,0,0,0,.23.07l.4,0Z" transform="translate(-264.62 -310.75)"/><path class="cls-1" d="M368.71,340.38a.31.31,0,0,0,0-.1v-.4a.87.87,0,0,0-.14-.5.46.46,0,0,0-.38-.19.54.54,0,0,0-.25.06.53.53,0,0,0-.2.16.84.84,0,0,0-.12.23,1.1,1.1,0,0,0,0,.27.46.46,0,0,1-.29.07.48.48,0,0,1-.26-.07.22.22,0,0,1-.12-.2.4.4,0,0,1,.07-.19,1.26,1.26,0,0,1,.2-.2l.26-.18a2.1,2.1,0,0,1,.3-.15,1.83,1.83,0,0,1,.78-.17,1.15,1.15,0,0,1,.39.05.69.69,0,0,1,.29.16.77.77,0,0,1,.19.27,1,1,0,0,1,.07.41c0,.23,0,.5,0,.81s0,.64,0,1a.74.74,0,0,0,.07.36.25.25,0,0,0,.22.12.64.64,0,0,0,.3-.09l.11.18a1.33,1.33,0,0,1-.33.21,1.1,1.1,0,0,1-.4.08.89.89,0,0,1-.46-.11.6.6,0,0,1-.23-.34l-.18.13-.24.14-.3.13a1.11,1.11,0,0,1-.34.06,1,1,0,0,1-.4-.07,1,1,0,0,1-.27-.19.82.82,0,0,1-.24-.61.78.78,0,0,1,.18-.51,1.1,1.1,0,0,1,.45-.33c.14-.05.32-.11.55-.17A6.83,6.83,0,0,1,368.71,340.38Zm0,1.26c0-.16,0-.33,0-.5v-.49l-.27,0-.26.07a1,1,0,0,0-.24.11,1.1,1.1,0,0,0-.21.14.43.43,0,0,0-.15.34.58.58,0,0,0,.13.4.37.37,0,0,0,.31.16,1,1,0,0,0,.35-.06A1.21,1.21,0,0,0,368.7,341.64Z" transform="translate(-264.62 -310.75)"/><path class="cls-1" d="M372.56,339.93a.9.9,0,0,0-.09-.33,1.2,1.2,0,0,0-.18-.26.85.85,0,0,0-.28-.16.93.93,0,0,0-.34-.06.66.66,0,0,0-.21,0,.51.51,0,0,0-.29.26.71.71,0,0,0,0,.2.48.48,0,0,0,.07.23.52.52,0,0,0,.19.17,1.67,1.67,0,0,0,.27.14l.31.13.37.16a1.33,1.33,0,0,1,.33.21.74.74,0,0,1,.23.29.93.93,0,0,1,.09.4.86.86,0,0,1-.12.47,1,1,0,0,1-.31.33,1.15,1.15,0,0,1-.42.19,2.1,2.1,0,0,1-.51.06l-.31,0-.29-.05-.23-.06-.26,0c0-.06,0-.15,0-.25s0-.21,0-.31,0-.21,0-.3a2.14,2.14,0,0,0-.05-.23l.22-.05c.06.13.12.26.19.38a1.24,1.24,0,0,0,.23.32,1,1,0,0,0,.72.31.68.68,0,0,0,.38-.12.45.45,0,0,0,.17-.36.41.41,0,0,0-.07-.25.66.66,0,0,0-.19-.18,1.49,1.49,0,0,0-.24-.14l-.29-.12-.37-.17a1.77,1.77,0,0,1-.35-.23.85.85,0,0,1-.29-.68.85.85,0,0,1,.11-.46,1,1,0,0,1,.29-.32,1.38,1.38,0,0,1,.41-.18,1.93,1.93,0,0,1,.49-.06,2.38,2.38,0,0,1,.46,0,2.23,2.23,0,0,0,.54.06c0,.13,0,.25,0,.36s0,.23,0,.36v.28Z" transform="translate(-264.62 -310.75)"/><path class="cls-1" d="M376.37,337.69c0,.1,0,.22,0,.34s0,.25,0,.37,0,.24,0,.34V339h.94l0,0v.32h-1v1.84a1.83,1.83,0,0,0,0,.37.55.55,0,0,0,.11.23.36.36,0,0,0,.18.13.78.78,0,0,0,.22,0l.26,0,.26-.06,0,.23a3.56,3.56,0,0,1-.49.19,1.92,1.92,0,0,1-.51.08,1.22,1.22,0,0,1-.37-.05.57.57,0,0,1-.26-.15.73.73,0,0,1-.17-.27,1.35,1.35,0,0,1-.06-.43v-2.12H375l0,0,0-.25.54,0V338l.21-.08.24-.09.19-.08.1,0Z" transform="translate(-264.62 -310.75)"/><path class="cls-1" d="M379.06,336.34c0,.1,0,.21,0,.34l0,.4c0,.14,0,.26,0,.38v1.82a2.8,2.8,0,0,1,.61-.33,1.56,1.56,0,0,1,.64-.13,1.42,1.42,0,0,1,.44.06.72.72,0,0,1,.33.21,1,1,0,0,1,.22.37,1.62,1.62,0,0,1,.09.57v1.56a1.48,1.48,0,0,0,0,.23.19.19,0,0,0,.07.13.52.52,0,0,0,.18.07l.32,0,0,.22H380v-.19l.29-.05a.32.32,0,0,0,.18-.1.33.33,0,0,0,.08-.19,3,3,0,0,0,0-.35v-1.2a1,1,0,0,0-.19-.68.63.63,0,0,0-.48-.21,1.23,1.23,0,0,0-.44.08,2.69,2.69,0,0,0-.46.22v2a1.3,1.3,0,0,0,0,.23.19.19,0,0,0,.07.13.52.52,0,0,0,.18.07l.3,0v.22h-1.88l0-.19A1.54,1.54,0,0,0,378,342a.33.33,0,0,0,.18-.11.34.34,0,0,0,.08-.2,1.73,1.73,0,0,0,0-.36v-4a.88.88,0,0,0,0-.26.22.22,0,0,0-.08-.15.38.38,0,0,0-.18-.08l-.32-.07,0-.18.35-.07.37-.09a2.62,2.62,0,0,0,.38-.09,2.24,2.24,0,0,0,.29-.08Z" transform="translate(-264.62 -310.75)"/><path class="cls-1" d="M385.31,341.61a2.24,2.24,0,0,1-.4.41,1.75,1.75,0,0,1-.38.23,1.22,1.22,0,0,1-.34.11l-.26,0a1.73,1.73,0,0,1-.71-.13,1.62,1.62,0,0,1-.86-.92,1.85,1.85,0,0,1-.12-.67,1.9,1.9,0,0,1,.52-1.31,1.81,1.81,0,0,1,.55-.4,1.69,1.69,0,0,1,.68-.14,1.8,1.8,0,0,1,.54.08,1.13,1.13,0,0,1,.41.25,1.09,1.09,0,0,1,.39.87v.17a.17.17,0,0,1-.17.16H383a1.94,1.94,0,0,0,.11.68,1.25,1.25,0,0,0,.29.46,1.29,1.29,0,0,0,.41.26,1.21,1.21,0,0,0,.44.08,1.06,1.06,0,0,0,.43-.08,1.24,1.24,0,0,0,.46-.32Zm-1-1.53a.22.22,0,0,0,.16,0,.28.28,0,0,0,0-.15.68.68,0,0,0-.05-.29.72.72,0,0,0-.14-.24.62.62,0,0,0-.51-.21.65.65,0,0,0-.26.06.69.69,0,0,0-.24.18,1,1,0,0,0-.19.29,1.56,1.56,0,0,0-.11.4Z" transform="translate(-264.62 -310.75)"/><path class="cls-1" d="M388.71,337.69c0,.1,0,.22,0,.34s0,.25,0,.37,0,.24,0,.34V339h.93l0,0,0,.32h-1v1.84a2,2,0,0,0,0,.37.46.46,0,0,0,.12.23.32.32,0,0,0,.18.13.73.73,0,0,0,.22,0l.25,0,.27-.06,0,.23a3.7,3.7,0,0,1-.5.19,1.81,1.81,0,0,1-.51.08,1.27,1.27,0,0,1-.37-.05.54.54,0,0,1-.25-.15.75.75,0,0,1-.18-.27,1.35,1.35,0,0,1-.06-.43v-.16c0-.07,0-.18,0-.34v-1.62h-.53l0,0,0-.25.55,0v-.79a2.62,2.62,0,0,1,0-.27l.21-.08.25-.09.18-.08.11,0Z" transform="translate(-264.62 -310.75)"/><path class="cls-1" d="M393.89,339.13a1.55,1.55,0,0,0-.29.05.51.51,0,0,0-.18.09.56.56,0,0,0-.14.16,2.13,2.13,0,0,0-.16.28c-.09.18-.18.39-.29.62l-.32.75c-.12.27-.23.54-.34.83l-.33.83-.17.42c0,.08-.1.21-.19.39s-.18.34-.27.49a1.55,1.55,0,0,1-.28.32,1,1,0,0,1-.62.25.39.39,0,0,1-.29-.1.31.31,0,0,1-.12-.26A.47.47,0,0,1,390,344a.53.53,0,0,1,.2-.16l.14,0h.1a1.09,1.09,0,0,0,.26,0,.59.59,0,0,0,.22-.14,2.54,2.54,0,0,0,.4-.58,4.59,4.59,0,0,0,.24-.55v0l-.05-.15c-.08-.22-.16-.44-.25-.67s-.18-.47-.28-.71l-.27-.68-.26-.62a2.4,2.4,0,0,0-.14-.28.45.45,0,0,0-.14-.16.47.47,0,0,0-.19-.08l-.28,0,0-.23h1.84v.2a1.75,1.75,0,0,0-.33.07.14.14,0,0,0-.09.13.3.3,0,0,0,0,.12l.05.15.74,1.95.83-2a1.49,1.49,0,0,0,.06-.23.15.15,0,0,0-.1-.15,1.13,1.13,0,0,0-.36-.06v-.21h1.49Z" transform="translate(-264.62 -310.75)"/><path class="cls-1" d="M395.22,338.86l0,.18a.8.8,0,0,0,0,.22,1.66,1.66,0,0,1,.52-.34,1.43,1.43,0,0,1,.5-.1,1.61,1.61,0,0,1,.63.12,1.8,1.8,0,0,1,.49.34,1.54,1.54,0,0,1,.33.52,1.57,1.57,0,0,1,.13.65,2,2,0,0,1-.16.79,2,2,0,0,1-.44.61,2.15,2.15,0,0,1-.65.4,2,2,0,0,1-.64.14h-.22l-.15,0-.17,0-.18,0v1.54a1.4,1.4,0,0,0,0,.23.21.21,0,0,0,.1.13.56.56,0,0,0,.24.08l.44,0v.23h-2.13v-.2a2,2,0,0,0,.32-.05.4.4,0,0,0,.18-.11.51.51,0,0,0,.09-.21,2.87,2.87,0,0,0,0-.35v-3.75a1.72,1.72,0,0,0,0-.26.28.28,0,0,0-.08-.15.68.68,0,0,0-.19-.08l-.32-.06,0-.18.36-.07.37-.09.36-.08.25-.07Zm0,2.85a.64.64,0,0,0,.33.25,1.25,1.25,0,0,0,.42.08.92.92,0,0,0,.43-.11,1,1,0,0,0,.32-.29,1.52,1.52,0,0,0,.19-.43,1.7,1.7,0,0,0,.07-.51,1.84,1.84,0,0,0-.08-.53,1.3,1.3,0,0,0-.22-.44,1,1,0,0,0-.35-.3,1,1,0,0,0-1.11.13Z" transform="translate(-264.62 -310.75)"/><path class="cls-1" d="M401.37,341.61a2.24,2.24,0,0,1-.4.41,1.75,1.75,0,0,1-.38.23,1.22,1.22,0,0,1-.34.11l-.26,0a1.76,1.76,0,0,1-.71-.13,1.62,1.62,0,0,1-.86-.92,1.85,1.85,0,0,1-.12-.67,1.9,1.9,0,0,1,.52-1.31,1.81,1.81,0,0,1,.55-.4,1.69,1.69,0,0,1,.68-.14,1.8,1.8,0,0,1,.54.08,1.13,1.13,0,0,1,.41.25,1.09,1.09,0,0,1,.39.87v.17a.17.17,0,0,1-.17.16h-2.17a1.94,1.94,0,0,0,.11.68,1.15,1.15,0,0,0,.3.46,1.1,1.1,0,0,0,.41.26,1.12,1.12,0,0,0,.43.08,1.14,1.14,0,0,0,.44-.08,1.3,1.3,0,0,0,.45-.32Zm-1-1.53a.22.22,0,0,0,.16,0,.28.28,0,0,0,0-.15.68.68,0,0,0-.05-.29.58.58,0,0,0-.14-.24.62.62,0,0,0-.51-.21.65.65,0,0,0-.26.06.69.69,0,0,0-.24.18,1,1,0,0,0-.19.29,1.56,1.56,0,0,0-.11.4Z" transform="translate(-264.62 -310.75)"/><path class="cls-1" d="M403.1,339.34v2.25a.78.78,0,0,0,0,.24.24.24,0,0,0,.11.13.7.7,0,0,0,.23.06l.4,0,0,.22h-2.07v-.19l.3-.05a.4.4,0,0,0,.18-.11.4.4,0,0,0,.08-.21,1.84,1.84,0,0,0,0-.36v-2h-.55l-.05,0,0-.24.57,0v-.57a2.84,2.84,0,0,1,.16-1,2,2,0,0,1,.44-.69,1.64,1.64,0,0,1,.55-.36,1.94,1.94,0,0,1,.72-.12l.3,0a.79.79,0,0,1,.22.06.66.66,0,0,1,.17.12.35.35,0,0,1,.07.2.34.34,0,0,1-.1.29,1,1,0,0,1-.32.17,1.38,1.38,0,0,0-.36-.26.92.92,0,0,0-.42-.1.54.54,0,0,0-.22,0,.35.35,0,0,0-.19.12.67.67,0,0,0-.16.24,3,3,0,0,0-.08.32c0,.11,0,.23,0,.35s0,.25,0,.36V339h1l.05,0,0,.31Z" transform="translate(-264.62 -310.75)"/><path class="cls-1" d="M406.25,340.38a.31.31,0,0,0,0-.1v-.4a.87.87,0,0,0-.14-.5.45.45,0,0,0-.38-.19.54.54,0,0,0-.25.06.53.53,0,0,0-.2.16.84.84,0,0,0-.12.23,1.12,1.12,0,0,0,0,.27.51.51,0,0,1-.3.07.48.48,0,0,1-.26-.07.22.22,0,0,1-.12-.2.34.34,0,0,1,.08-.19.88.88,0,0,1,.19-.2l.27-.18a1.59,1.59,0,0,1,.29-.15,1.86,1.86,0,0,1,.78-.17,1.15,1.15,0,0,1,.39.05.64.64,0,0,1,.29.16.77.77,0,0,1,.19.27,1,1,0,0,1,.07.41c0,.23,0,.5,0,.81s0,.64,0,1a.74.74,0,0,0,.07.36.25.25,0,0,0,.22.12.61.61,0,0,0,.3-.09l.11.18a1.33,1.33,0,0,1-.33.21,1.1,1.1,0,0,1-.4.08.89.89,0,0,1-.46-.11.6.6,0,0,1-.23-.34l-.18.13-.24.14-.3.13a1.06,1.06,0,0,1-.34.06,1,1,0,0,1-.4-.07,1,1,0,0,1-.27-.19.77.77,0,0,1-.17-.27.8.8,0,0,1-.07-.34.78.78,0,0,1,.18-.51,1.1,1.1,0,0,1,.45-.33c.14-.05.32-.11.55-.17A7.24,7.24,0,0,1,406.25,340.38Zm0,1.26c0-.16,0-.33,0-.5v-.49l-.27,0-.26.07a1,1,0,0,0-.24.11,1.1,1.1,0,0,0-.21.14.43.43,0,0,0-.15.34.64.64,0,0,0,.13.4.37.37,0,0,0,.31.16,1,1,0,0,0,.35-.06A1.21,1.21,0,0,0,406.24,341.64Z" transform="translate(-264.62 -310.75)"/><path class="cls-1" d="M411,341.52a1.26,1.26,0,0,1-.27.37,1.31,1.31,0,0,1-.35.27,1.42,1.42,0,0,1-.4.17,1.66,1.66,0,0,1-1.11-.08,1.64,1.64,0,0,1-.5-.36,1.69,1.69,0,0,1-.33-.53,1.75,1.75,0,0,1,0-1.39,1.84,1.84,0,0,1,.43-.6,2.08,2.08,0,0,1,.63-.41,2.24,2.24,0,0,1,.8-.14,3,3,0,0,1,.42,0,1.12,1.12,0,0,1,.39.13.24.24,0,0,1,.12.1.4.4,0,0,1,0,.15.46.46,0,0,1-.08.23.69.69,0,0,1-.32.22h0a1.88,1.88,0,0,0-.42-.33,1,1,0,0,0-.46-.1.81.81,0,0,0-.37.09,1,1,0,0,0-.29.26,1.43,1.43,0,0,0-.19.37,1.56,1.56,0,0,0-.06.44,1.61,1.61,0,0,0,.08.54,1.37,1.37,0,0,0,.23.45,1.18,1.18,0,0,0,.38.32,1,1,0,0,0,.47.11,1.24,1.24,0,0,0,.54-.11.94.94,0,0,0,.42-.37Z" transform="translate(-264.62 -310.75)"/><path class="cls-1" d="M414.41,341.61a2.61,2.61,0,0,1-.4.41,2,2,0,0,1-.38.23,1.47,1.47,0,0,1-.34.11l-.26,0a1.73,1.73,0,0,1-.71-.13,1.54,1.54,0,0,1-.86-.92,1.86,1.86,0,0,1-.13-.67,2,2,0,0,1,.53-1.31,1.81,1.81,0,0,1,.55-.4,1.65,1.65,0,0,1,.68-.14,1.8,1.8,0,0,1,.54.08,1.22,1.22,0,0,1,.41.25,1.08,1.08,0,0,1,.28.38,1.1,1.1,0,0,1,.11.49v.17c0,.1-.07.16-.16.16h-2.18a2.18,2.18,0,0,0,.12.68,1.25,1.25,0,0,0,.29.46,1.29,1.29,0,0,0,.41.26,1.17,1.17,0,0,0,.44.08,1.09,1.09,0,0,0,.43-.08,1.24,1.24,0,0,0,.46-.32Zm-1-1.53c.08,0,.13,0,.15,0a.21.21,0,0,0,0-.15.88.88,0,0,0-.05-.29.72.72,0,0,0-.14-.24,1.12,1.12,0,0,0-.22-.16.88.88,0,0,0-.29-.05.65.65,0,0,0-.26.06.83.83,0,0,0-.25.18,1.19,1.19,0,0,0-.18.29,1.24,1.24,0,0,0-.11.4Z" transform="translate(-264.62 -310.75)"/><path class="cls-1" d="M267.42,356.71c0-.07,0-.14,0-.22a1.7,1.7,0,0,0,0-.22,2.13,2.13,0,0,1-.61.4,1.76,1.76,0,0,1-.63.12,1.16,1.16,0,0,1-.44-.07.87.87,0,0,1-.32-.22,1.07,1.07,0,0,1-.21-.38,1.91,1.91,0,0,1-.07-.56v-1.39a1.61,1.61,0,0,0,0-.26.28.28,0,0,0-.08-.15.31.31,0,0,0-.15-.08l-.28-.06v-.18l.37-.05.37-.06a3.43,3.43,0,0,0,.34-.06l.23,0,.06,0,0,.32c0,.11,0,.22,0,.32s0,.21,0,.31v1.1a1.65,1.65,0,0,0,.05.47.83.83,0,0,0,.14.3.48.48,0,0,0,.21.17.87.87,0,0,0,.28.05,1.11,1.11,0,0,0,.43-.09,1.36,1.36,0,0,0,.4-.29v-1.75a1.61,1.61,0,0,0,0-.26.26.26,0,0,0-.07-.15.38.38,0,0,0-.18-.08l-.3-.06,0-.18.4-.05.38-.06c.12,0,.24,0,.35-.06l.22,0,.06,0,0,.32c0,.11,0,.22,0,.32s0,.21,0,.31v1.6a1.86,1.86,0,0,0,0,.26.36.36,0,0,0,.08.15.51.51,0,0,0,.18.08l.32.05,0,.18-.36.05-.42.05a2.08,2.08,0,0,0-.36.07l-.2.06Z" transform="translate(-264.62 -310.75)"/><path class="cls-1" d="M271.37,354.33a.9.9,0,0,0-.09-.33.79.79,0,0,0-.19-.25.62.62,0,0,0-.27-.17.93.93,0,0,0-.34-.06.66.66,0,0,0-.21,0,.69.69,0,0,0-.17.1.48.48,0,0,0-.12.16.71.71,0,0,0,0,.2.39.39,0,0,0,.07.23.49.49,0,0,0,.18.17l.27.14.32.13.37.16a1.85,1.85,0,0,1,.33.21.74.74,0,0,1,.23.29.92.92,0,0,1,.08.4,1,1,0,0,1-.11.47,1,1,0,0,1-.31.33,1.15,1.15,0,0,1-.42.19,2.1,2.1,0,0,1-.51.06l-.31,0-.29,0-.23-.06-.27,0c0-.06,0-.15,0-.25l0-.31a2.43,2.43,0,0,0,0-.3,1.07,1.07,0,0,0,0-.23l.22,0,.18.38a1.57,1.57,0,0,0,.24.32,1.14,1.14,0,0,0,.3.23,1.08,1.08,0,0,0,.42.08.63.63,0,0,0,.37-.12.43.43,0,0,0,.18-.36.41.41,0,0,0-.07-.25.66.66,0,0,0-.19-.18,1.49,1.49,0,0,0-.24-.14l-.29-.12-.38-.17a2,2,0,0,1-.34-.23.85.85,0,0,1-.29-.68.85.85,0,0,1,.11-.46,1,1,0,0,1,.29-.32,1.38,1.38,0,0,1,.41-.18,1.88,1.88,0,0,1,.49-.06,2.38,2.38,0,0,1,.46,0,2.23,2.23,0,0,0,.54.06q0,.19,0,.36v.65Z" transform="translate(-264.62 -310.75)"/><path class="cls-1" d="M275.32,356a2.64,2.64,0,0,1-.41.41,1.75,1.75,0,0,1-.38.23,1.28,1.28,0,0,1-.33.11l-.27,0a1.57,1.57,0,0,1-1.23-.5,1.64,1.64,0,0,1-.34-.55,1.84,1.84,0,0,1-.12-.66,1.9,1.9,0,0,1,.14-.73,2.07,2.07,0,0,1,.38-.59,1.81,1.81,0,0,1,.55-.4,1.72,1.72,0,0,1,.68-.14,1.75,1.75,0,0,1,.54.08,1.27,1.27,0,0,1,.42.25,1.21,1.21,0,0,1,.28.38,1.13,1.13,0,0,1,.1.49v.17a.17.17,0,0,1-.17.16H273a1.9,1.9,0,0,0,.11.68,1.27,1.27,0,0,0,.3.46,1.19,1.19,0,0,0,.41.26,1.1,1.1,0,0,0,.87,0,1.3,1.3,0,0,0,.45-.32Zm-1-1.53a.21.21,0,0,0,.15,0,.28.28,0,0,0,0-.15.88.88,0,0,0,0-.29.75.75,0,0,0-.15-.24.89.89,0,0,0-.22-.16.82.82,0,0,0-.28-.05.66.66,0,0,0-.27.06.69.69,0,0,0-.24.18,1.21,1.21,0,0,0-.19.29,1.56,1.56,0,0,0-.11.4Z" transform="translate(-264.62 -310.75)"/><path class="cls-1" d="M279.23,350.74c0,.1,0,.21,0,.34l0,.4c0,.14,0,.26,0,.38s0,.21,0,.28v3.64a1.65,1.65,0,0,0,0,.27.22.22,0,0,0,.08.15.47.47,0,0,0,.19.08,2.27,2.27,0,0,0,.34.05l0,.18-.42.06a4.23,4.23,0,0,0-.42.06l-.31.08-.19.05-.06-.05v-.35a1.68,1.68,0,0,1-.57.33,1.83,1.83,0,0,1-.5.1,1.49,1.49,0,0,1-.62-.12,1.43,1.43,0,0,1-.47-.33,1.48,1.48,0,0,1-.32-.51,1.81,1.81,0,0,1-.12-.67,2,2,0,0,1,.16-.78,2,2,0,0,1,.44-.61,2.17,2.17,0,0,1,.65-.41,2.21,2.21,0,0,1,.75-.14h.26a2,2,0,0,1,.34.06v-1.58a1.86,1.86,0,0,0,0-.26.28.28,0,0,0-.09-.16.57.57,0,0,0-.19-.08l-.35-.07V351l.42-.08.46-.08.36-.08.18,0Zm-.83,3.16a1,1,0,0,0-.35-.27,1.1,1.1,0,0,0-.4-.08.74.74,0,0,0-.41.11,1.08,1.08,0,0,0-.33.31,1.32,1.32,0,0,0-.2.45,1.73,1.73,0,0,0-.07.5,1.77,1.77,0,0,0,.07.5,1.55,1.55,0,0,0,.21.45,1,1,0,0,0,.35.31.85.85,0,0,0,.43.12,1.23,1.23,0,0,0,.36-.06.92.92,0,0,0,.34-.18Z" transform="translate(-264.62 -310.75)"/><path class="cls-1" d="M283.1,353.74V356a.75.75,0,0,0,0,.23.2.2,0,0,0,.11.13.58.58,0,0,0,.23.06l.39,0v.22h-2.07l0-.19.31-.05a.42.42,0,0,0,.17-.11.41.41,0,0,0,.09-.21,3.21,3.21,0,0,0,0-.36v-2h-.56l0,0,0-.24.58,0v-.57a2.85,2.85,0,0,1,.15-1,2.21,2.21,0,0,1,.44-.69,1.68,1.68,0,0,1,.56-.36,1.94,1.94,0,0,1,.72-.12l.3,0a.73.73,0,0,1,.21.06.52.52,0,0,1,.17.12.29.29,0,0,1,.07.2.37.37,0,0,1-.09.29,1.32,1.32,0,0,1-.32.17,1.38,1.38,0,0,0-.36-.26.92.92,0,0,0-.42-.1.59.59,0,0,0-.23,0,.44.44,0,0,0-.19.12.55.55,0,0,0-.15.24,1.67,1.67,0,0,0-.08.32,2,2,0,0,0,0,.35v1.12l1,0,.05,0,0,.31Z" transform="translate(-264.62 -310.75)"/><path class="cls-1" d="M284.31,355a1.87,1.87,0,0,1,.14-.71,1.85,1.85,0,0,1,.37-.58,2,2,0,0,1,.56-.39,1.9,1.9,0,0,1,.73-.14,1.56,1.56,0,0,1,.73.14,2.36,2.36,0,0,1,.56.37,1.48,1.48,0,0,1,.4.56,1.91,1.91,0,0,1,.12.68,1.8,1.8,0,0,1-1.07,1.68,1.91,1.91,0,0,1-.74.14,1.81,1.81,0,0,1-.76-.14,1.66,1.66,0,0,1-.56-.37,1.61,1.61,0,0,1-.35-.56A1.72,1.72,0,0,1,284.31,355Zm1.88,1.45a.72.72,0,0,0,.36-.11,1.14,1.14,0,0,0,.31-.31,1.55,1.55,0,0,0,.17-.44,2,2,0,0,0,.06-.48,2.76,2.76,0,0,0-.06-.57,2.08,2.08,0,0,0-.2-.53,1.2,1.2,0,0,0-.35-.39.82.82,0,0,0-.44-.14.63.63,0,0,0-.36.11.81.81,0,0,0-.3.31,1.5,1.5,0,0,0-.18.43,2.61,2.61,0,0,0-.05.48,2.91,2.91,0,0,0,.06.57,1.87,1.87,0,0,0,.2.53,1.2,1.2,0,0,0,.35.39A.75.75,0,0,0,286.19,356.49Z" transform="translate(-264.62 -310.75)"/><path class="cls-1" d="M290.47,356.67h-2.06l0-.19.31-.05a.4.4,0,0,0,.18-.11.4.4,0,0,0,.08-.21,3.21,3.21,0,0,0,0-.36v-1.49a1.72,1.72,0,0,0,0-.26.26.26,0,0,0-.07-.15.45.45,0,0,0-.17-.08l-.3-.06v-.18l.32-.06.39-.09.36-.09.23-.07.07,0c0,.13,0,.25,0,.36V354a3.34,3.34,0,0,1,.34-.38,1.68,1.68,0,0,1,.28-.23.89.89,0,0,1,.24-.12l.21,0a.51.51,0,0,1,.28.07.27.27,0,0,1,.13.26.56.56,0,0,1-.11.27,1.13,1.13,0,0,1-.31.26.9.9,0,0,0-.22-.14.7.7,0,0,0-.25-.05.53.53,0,0,0-.3.12.82.82,0,0,0-.25.34.76.76,0,0,0,0,.11V356a.72.72,0,0,0,0,.22.18.18,0,0,0,.09.13.57.57,0,0,0,.23.07l.4,0Z" transform="translate(-264.62 -310.75)"/><path class="cls-1" d="M294.38,350.74a2.9,2.9,0,0,0,0,.34c0,.14,0,.27,0,.4s0,.26,0,.37,0,.21,0,.28v1.43a1.91,1.91,0,0,1,.54-.26,1.48,1.48,0,0,1,.49-.08,1.57,1.57,0,0,1,.67.13,1.35,1.35,0,0,1,.48.37,1.62,1.62,0,0,1,.32.52,1.91,1.91,0,0,1,.11.64,1.84,1.84,0,0,1-.59,1.38,1.9,1.9,0,0,1-.64.39,2.25,2.25,0,0,1-.84.14,3,3,0,0,1-.67-.07,2.06,2.06,0,0,1-.63-.22c0-.29,0-.51,0-.66v-4a1.87,1.87,0,0,0,0-.27.27.27,0,0,0-.08-.16.39.39,0,0,0-.17-.09l-.3-.06,0-.17.3-.06.33-.09.39-.1a1.94,1.94,0,0,0,.34-.11Zm-.08,5.19a.36.36,0,0,0,.06.2.52.52,0,0,0,.16.17.73.73,0,0,0,.25.12.93.93,0,0,0,.27,0,.83.83,0,0,0,.44-.12,1,1,0,0,0,.33-.32,1.32,1.32,0,0,0,.2-.45,1.77,1.77,0,0,0,.07-.5,1.81,1.81,0,0,0-.08-.51,1.25,1.25,0,0,0-.24-.44,1,1,0,0,0-.36-.3.89.89,0,0,0-.45-.12,1,1,0,0,0-.3.05,1,1,0,0,0-.35.15Z" transform="translate(-264.62 -310.75)"/><path class="cls-1" d="M299.46,356.67H297.4l0-.19.31-.05a.46.46,0,0,0,.18-.11.51.51,0,0,0,.08-.21,3.21,3.21,0,0,0,0-.36v-1.49a1.72,1.72,0,0,0,0-.26.35.35,0,0,0-.07-.15.54.54,0,0,0-.17-.08l-.3-.06,0-.18.33-.06.39-.09.36-.09.22-.07.07,0c0,.13,0,.25,0,.36s0,.24,0,.36a4.62,4.62,0,0,1,.35-.38,1.35,1.35,0,0,1,.28-.23.89.89,0,0,1,.24-.12l.21,0a.53.53,0,0,1,.28.07.27.27,0,0,1,.13.26.51.51,0,0,1-.12.27.9.9,0,0,1-.31.26.74.74,0,0,0-.22-.14.6.6,0,0,0-.24-.05.53.53,0,0,0-.3.12.93.93,0,0,0-.26.34.61.61,0,0,0,0,.11s0,.08,0,.13V356a1.27,1.27,0,0,0,0,.22.22.22,0,0,0,.1.13.57.57,0,0,0,.22.07l.41,0Z" transform="translate(-264.62 -310.75)"/><path class="cls-1" d="M302.4,354.78a.31.31,0,0,0,0-.1v-.4a.87.87,0,0,0-.14-.5.46.46,0,0,0-.38-.19.54.54,0,0,0-.25.06.53.53,0,0,0-.2.16.84.84,0,0,0-.12.23,1.1,1.1,0,0,0,0,.27.46.46,0,0,1-.29.07.48.48,0,0,1-.26-.07.22.22,0,0,1-.12-.2.32.32,0,0,1,.07-.19,1.26,1.26,0,0,1,.2-.2l.26-.18.3-.15a1.83,1.83,0,0,1,.78-.17,1.15,1.15,0,0,1,.39,0,.69.69,0,0,1,.29.16.77.77,0,0,1,.19.27,1,1,0,0,1,.07.41c0,.23,0,.5,0,.81s0,.64,0,1a.74.74,0,0,0,.07.36.25.25,0,0,0,.22.13.66.66,0,0,0,.3-.1l.11.18a1.33,1.33,0,0,1-.33.21,1.1,1.1,0,0,1-.4.08.89.89,0,0,1-.46-.11.6.6,0,0,1-.23-.34l-.18.13-.24.14-.3.13a1.12,1.12,0,0,1-.35.06.94.94,0,0,1-.39-.07,1,1,0,0,1-.27-.19.8.8,0,0,1-.18-.27,1,1,0,0,1-.06-.34.82.82,0,0,1,.17-.51,1.21,1.21,0,0,1,.46-.33c.14-.05.32-.11.55-.17A6.83,6.83,0,0,1,302.4,354.78Zm0,1.26c0-.16,0-.33,0-.5v-.49l-.28,0-.25.07a1,1,0,0,0-.24.11.8.8,0,0,0-.21.15.4.4,0,0,0-.15.33.58.58,0,0,0,.13.4.36.36,0,0,0,.31.16,1,1,0,0,0,.35-.06A1.21,1.21,0,0,0,302.39,356Z" transform="translate(-264.62 -310.75)"/><path class="cls-1" d="M305.93,356.67H304l0-.19a1.84,1.84,0,0,0,.32-.06.4.4,0,0,0,.19-.11.34.34,0,0,0,.08-.2,1.84,1.84,0,0,0,0-.36v-1.49a1.93,1.93,0,0,0,0-.26.36.36,0,0,0-.08-.15.4.4,0,0,0-.16-.08l-.29-.06v-.18l.34-.07.36-.08.32-.09.24-.07.09,0,0,.25a1.93,1.93,0,0,0,0,.24,2.3,2.3,0,0,1,.62-.39,1.49,1.49,0,0,1,.65-.14,1.14,1.14,0,0,1,.41.07.72.72,0,0,1,.33.21,1.06,1.06,0,0,1,.23.37,1.75,1.75,0,0,1,.07.55V356a1.27,1.27,0,0,0,0,.22.2.2,0,0,0,.08.13.3.3,0,0,0,.16.07l.3,0v.22h-1.85l0-.19.29-.05a.29.29,0,0,0,.17-.1.33.33,0,0,0,.08-.19,3,3,0,0,0,0-.35v-1.2a1,1,0,0,0-.18-.68.61.61,0,0,0-.47-.21,1.16,1.16,0,0,0-.47.09,2.46,2.46,0,0,0-.43.26V356a1.41,1.41,0,0,0,0,.22.2.2,0,0,0,.08.13.34.34,0,0,0,.17.07l.31,0Z" transform="translate(-264.62 -310.75)"/><path class="cls-1" d="M312.07,350.74c0,.1,0,.21,0,.34s0,.27,0,.4,0,.26,0,.38v3.92a1.94,1.94,0,0,0,0,.27.22.22,0,0,0,.08.15.46.46,0,0,0,.2.08,1.94,1.94,0,0,0,.33.05l0,.18-.43.06c-.15,0-.29,0-.42.06l-.31.08-.19.05-.05-.05v-.35a1.85,1.85,0,0,1-1.08.43,1.52,1.52,0,0,1-.62-.12,1.43,1.43,0,0,1-.47-.33,1.64,1.64,0,0,1-.32-.51,1.81,1.81,0,0,1-.12-.67,2,2,0,0,1,.16-.78,2,2,0,0,1,.44-.61,2.31,2.31,0,0,1,.65-.41,2.21,2.21,0,0,1,.75-.14h.26a2.14,2.14,0,0,1,.35.06v-1.58a1.61,1.61,0,0,0,0-.26.24.24,0,0,0-.09-.16.57.57,0,0,0-.19-.08l-.34-.07,0-.17.43-.08.45-.08.36-.08a.82.82,0,0,0,.18,0Zm-.82,3.16a1.14,1.14,0,0,0-.36-.27,1.09,1.09,0,0,0-.39-.08.78.78,0,0,0-.42.11,1.08,1.08,0,0,0-.33.31,1.32,1.32,0,0,0-.2.45,1.73,1.73,0,0,0-.07.5,2.23,2.23,0,0,0,.07.5,1.55,1.55,0,0,0,.21.45,1,1,0,0,0,.35.31.85.85,0,0,0,.43.12,1.23,1.23,0,0,0,.36-.06,1.06,1.06,0,0,0,.35-.18Z" transform="translate(-264.62 -310.75)"/><path class="cls-1" d="M314.82,356.67h-1.95v-.19l.31-.05a.4.4,0,0,0,.18-.11.4.4,0,0,0,.08-.21,1.84,1.84,0,0,0,0-.36v-1.51a1.86,1.86,0,0,0,0-.26.36.36,0,0,0-.08-.15.4.4,0,0,0-.16-.08l-.28-.06,0-.18.36-.07.41-.08a2.7,2.7,0,0,0,.35-.08l.19-.06.06,0,0,.32c0,.11,0,.22,0,.33s0,.21,0,.31V356a1.27,1.27,0,0,0,0,.22.2.2,0,0,0,.08.13.38.38,0,0,0,.18.07l.34,0Zm-1.43-4.86a.41.41,0,0,1,.12-.31.4.4,0,0,1,.31-.12.44.44,0,0,1,.32.12.46.46,0,0,1,0,.62.41.41,0,0,1-.32.13.37.37,0,0,1-.31-.13A.41.41,0,0,1,313.39,351.81Z" transform="translate(-264.62 -310.75)"/><path class="cls-1" d="M317,356.67h-1.9l0-.19a1.84,1.84,0,0,0,.32-.06.4.4,0,0,0,.19-.11.34.34,0,0,0,.08-.2,1.84,1.84,0,0,0,0-.36v-1.49a1.93,1.93,0,0,0,0-.26.28.28,0,0,0-.08-.15.4.4,0,0,0-.16-.08l-.28-.06,0-.18.34-.07.36-.08.32-.09.24-.07.09,0,0,.25a1.93,1.93,0,0,0,0,.24,2.3,2.3,0,0,1,.62-.39,1.52,1.52,0,0,1,.65-.14,1.14,1.14,0,0,1,.41.07.72.72,0,0,1,.33.21,1.06,1.06,0,0,1,.23.37,1.73,1.73,0,0,1,.08.55V356a1.41,1.41,0,0,0,0,.22.2.2,0,0,0,.08.13.3.3,0,0,0,.16.07l.3,0v.22h-1.85l0-.19.29-.05a.29.29,0,0,0,.17-.1.33.33,0,0,0,.08-.19,3,3,0,0,0,0-.35v-1.2a1,1,0,0,0-.18-.68.61.61,0,0,0-.47-.21,1.19,1.19,0,0,0-.47.09,2.9,2.9,0,0,0-.43.26V356a1.27,1.27,0,0,0,0,.22.19.19,0,0,0,.07.13.38.38,0,0,0,.17.07l.31,0Z" transform="translate(-264.62 -310.75)"/><path class="cls-1" d="M319.78,354.61a1.26,1.26,0,0,1,.12-.55,1.43,1.43,0,0,1,.32-.44,1.45,1.45,0,0,1,.47-.3,1.64,1.64,0,0,1,.6-.1,1.6,1.6,0,0,1,.85.2l.12.05.13,0h.09l.9-.06,0,0,0,.37h-.83a1,1,0,0,1,.24.66,1.34,1.34,0,0,1-.14.61,1.39,1.39,0,0,1-.36.44,1.42,1.42,0,0,1-.48.27,1.79,1.79,0,0,1-.57.09,2.08,2.08,0,0,1-.46-.06.7.7,0,0,0-.21.14.26.26,0,0,0-.08.2.22.22,0,0,0,.05.14.39.39,0,0,0,.14.08,1.08,1.08,0,0,0,.19,0H322a2.56,2.56,0,0,1,.47,0,1.26,1.26,0,0,1,.42.16.92.92,0,0,1,.31.31,1,1,0,0,1,.11.49,1.24,1.24,0,0,1-.16.61,1.56,1.56,0,0,1-.46.5,2.86,2.86,0,0,1-.7.35,2.94,2.94,0,0,1-.93.13,2.46,2.46,0,0,1-.53-.06,3.38,3.38,0,0,1-.51-.18.94.94,0,0,1-.36-.29.65.65,0,0,1-.14-.4.74.74,0,0,1,.08-.34,1.16,1.16,0,0,1,.2-.25,3.48,3.48,0,0,1,.28-.24l.32-.22a1.2,1.2,0,0,1-.45-.24.44.44,0,0,1-.16-.33.54.54,0,0,1,.06-.25,1.57,1.57,0,0,1,.17-.21l.22-.15.18-.12A1.15,1.15,0,0,1,319.78,354.61Zm1.67,2.49h-.32l-.21,0-.15.05-.13.1a1.41,1.41,0,0,0-.27.29.63.63,0,0,0-.09.35.51.51,0,0,0,.1.3.64.64,0,0,0,.3.23,1.19,1.19,0,0,0,.42.11,2.69,2.69,0,0,0,.38,0,2.47,2.47,0,0,0,.44-.05,2.19,2.19,0,0,0,.41-.15.68.68,0,0,0,.27-.26.66.66,0,0,0,.11-.35.58.58,0,0,0-.11-.31.68.68,0,0,0-.3-.25,1.18,1.18,0,0,0-.38-.09h-.47Zm-.1-1.47a.51.51,0,0,0,.28-.09.56.56,0,0,0,.21-.22A.88.88,0,0,0,322,355a1.24,1.24,0,0,0,0-.33,2,2,0,0,0-.05-.43,1.42,1.42,0,0,0-.13-.38.78.78,0,0,0-.24-.27.59.59,0,0,0-.34-.1.61.61,0,0,0-.3.08.63.63,0,0,0-.21.22,1.85,1.85,0,0,0-.11.31,2,2,0,0,0,0,.35,2,2,0,0,0,.05.41,1.42,1.42,0,0,0,.13.38.84.84,0,0,0,.25.28A.6.6,0,0,0,321.35,355.63Z" transform="translate(-264.62 -310.75)"/><path class="cls-1" d="M325.46,355a1.87,1.87,0,0,1,.14-.71,1.85,1.85,0,0,1,.37-.58,2,2,0,0,1,.56-.39,1.9,1.9,0,0,1,.73-.14,1.56,1.56,0,0,1,.73.14,2.36,2.36,0,0,1,.56.37,1.38,1.38,0,0,1,.4.56,1.91,1.91,0,0,1,.13.68,1.82,1.82,0,0,1-1.08,1.68,1.91,1.91,0,0,1-.74.14,1.81,1.81,0,0,1-.76-.14,1.66,1.66,0,0,1-.56-.37,1.61,1.61,0,0,1-.35-.56A1.72,1.72,0,0,1,325.46,355Zm1.88,1.45a.72.72,0,0,0,.36-.11,1.14,1.14,0,0,0,.31-.31,1.55,1.55,0,0,0,.17-.44,2,2,0,0,0,.06-.48,2.76,2.76,0,0,0-.06-.57,2.08,2.08,0,0,0-.2-.53,1.2,1.2,0,0,0-.35-.39.82.82,0,0,0-.44-.14.63.63,0,0,0-.36.11.89.89,0,0,0-.3.31,1.5,1.5,0,0,0-.18.43,2.61,2.61,0,0,0-.05.48,2.91,2.91,0,0,0,.06.57,2.24,2.24,0,0,0,.2.53,1.2,1.2,0,0,0,.35.39A.75.75,0,0,0,327.34,356.49Z" transform="translate(-264.62 -310.75)"/><path class="cls-1" d="M330.86,353.74V356a.75.75,0,0,0,0,.23.2.2,0,0,0,.11.13.58.58,0,0,0,.23.06l.39,0v.22h-2.07l0-.19.31-.05a.42.42,0,0,0,.17-.11.51.51,0,0,0,.09-.21,3.21,3.21,0,0,0,0-.36v-2h-.56l0,0,0-.24.58,0v-.57a2.85,2.85,0,0,1,.15-1,2.21,2.21,0,0,1,.44-.69,1.74,1.74,0,0,1,.55-.36,2,2,0,0,1,.73-.12l.3,0a.83.83,0,0,1,.21.06.52.52,0,0,1,.17.12.29.29,0,0,1,.07.2.34.34,0,0,1-.1.29,1.07,1.07,0,0,1-.31.17,1.38,1.38,0,0,0-.36-.26.92.92,0,0,0-.42-.1.59.59,0,0,0-.23,0,.39.39,0,0,0-.19.12.55.55,0,0,0-.15.24,1.67,1.67,0,0,0-.08.32,2,2,0,0,0,0,.35v1.12l1,0,.05,0,0,.31Z" transform="translate(-264.62 -310.75)"/><path class="cls-1" d="M335.57,351.05h2.26l0,.21-.38.05a.62.62,0,0,0-.23.12.38.38,0,0,0-.11.22,1.73,1.73,0,0,0,0,.36v3.21a3.78,3.78,0,0,0,0,.38v.44a2.5,2.5,0,0,1-.18,1,2.54,2.54,0,0,1-.44.7,1.34,1.34,0,0,1-.54.37,1.92,1.92,0,0,1-.66.12l-.21,0-.19-.07a.47.47,0,0,1-.14-.14.31.31,0,0,1-.06-.19.35.35,0,0,1,.12-.26.46.46,0,0,1,.27-.15,1.59,1.59,0,0,0,.27.21.66.66,0,0,0,.36.11.52.52,0,0,0,.21,0,.36.36,0,0,0,.18-.14.77.77,0,0,0,.12-.24,2.84,2.84,0,0,0,.06-.31c0-.11,0-.23,0-.35v-4.85a1.4,1.4,0,0,0,0-.23.33.33,0,0,0-.11-.16.5.5,0,0,0-.22-.09l-.39,0Z" transform="translate(-264.62 -310.75)"/><path class="cls-1" d="M341.29,350.93a3.55,3.55,0,0,1,1.22.2,2.58,2.58,0,0,1,.91.58,2.49,2.49,0,0,1,.6.91,3.18,3.18,0,0,1,.21,1.18A3.29,3.29,0,0,1,344,355a2.88,2.88,0,0,1-.59.95,2.77,2.77,0,0,1-.91.62,3.17,3.17,0,0,1-1.23.22,3.49,3.49,0,0,1-1.21-.2,2.57,2.57,0,0,1-.92-.58,2.84,2.84,0,0,1-.6-.9,3.23,3.23,0,0,1-.21-1.19,3.36,3.36,0,0,1,.21-1.2,2.83,2.83,0,0,1,.59-.94,2.54,2.54,0,0,1,.92-.62A3.09,3.09,0,0,1,341.29,350.93Zm0,.33a2,2,0,0,0-.7.13,1.52,1.52,0,0,0-.65.42,2.12,2.12,0,0,0-.46.75,3.47,3.47,0,0,0-.17,1.14,3.9,3.9,0,0,0,.2,1.32,2.46,2.46,0,0,0,.49.86,1.79,1.79,0,0,0,.69.45,2,2,0,0,0,.67.13,2.28,2.28,0,0,0,.69-.12,1.77,1.77,0,0,0,.66-.42,2.1,2.1,0,0,0,.45-.76,3.16,3.16,0,0,0,.17-1.13,3.84,3.84,0,0,0-.19-1.32,2.53,2.53,0,0,0-.5-.86,1.68,1.68,0,0,0-.68-.46A2,2,0,0,0,341.26,351.26Z" transform="translate(-264.62 -310.75)"/><path class="cls-1" d="M346.75,354.83a2.53,2.53,0,0,0,0-.29,1,1,0,0,0,0-.24.81.81,0,0,0-.09-.26l-.18-.35c-.11-.19-.24-.41-.38-.68s-.34-.59-.57-1c-.09-.16-.17-.28-.23-.38a1.12,1.12,0,0,0-.21-.22.75.75,0,0,0-.25-.13l-.38-.05v-.22h2.26l0,.2a1.82,1.82,0,0,0-.43.08.18.18,0,0,0-.12.16.34.34,0,0,0,0,.16,1.17,1.17,0,0,0,.11.23l1,1.86,1-1.75.15-.29a.5.5,0,0,0,0-.19.16.16,0,0,0-.13-.16,1.59,1.59,0,0,0-.46-.08v-.22h1.87l0,.21a1.68,1.68,0,0,0-.38.06.7.7,0,0,0-.27.14,1.61,1.61,0,0,0-.23.27c-.08.11-.17.26-.28.44s-.37.62-.51.87-.26.47-.34.63a3,3,0,0,0-.18.39,1.85,1.85,0,0,0-.06.26,1.48,1.48,0,0,0,0,.21,1.85,1.85,0,0,0,0,.25v1.15a.88.88,0,0,0,0,.24.25.25,0,0,0,.1.15.66.66,0,0,0,.25.09,3.92,3.92,0,0,0,.46,0l0,.22H346l0-.21a3.62,3.62,0,0,0,.44,0,.39.39,0,0,0,.24-.12.36.36,0,0,0,.11-.22,1.73,1.73,0,0,0,0-.36Z" transform="translate(-264.62 -310.75)"/><path class="cls-1" d="M354,351.06h2.5l0,.39c0,.11,0,.23,0,.34s0,.22,0,.34,0,.23,0,.37h-.24q-.06-.31-.12-.54a.89.89,0,0,0-.18-.35.62.62,0,0,0-.31-.2,1.93,1.93,0,0,0-.53-.06h-.66v4.58a.88.88,0,0,0,0,.24.25.25,0,0,0,.1.15.66.66,0,0,0,.25.09,3.92,3.92,0,0,0,.46,0l0,.22H352.8l0-.21a3.62,3.62,0,0,0,.44,0,.39.39,0,0,0,.24-.12.36.36,0,0,0,.11-.22,1.73,1.73,0,0,0,0-.36v-4.36H353a1.88,1.88,0,0,0-.53.06.68.68,0,0,0-.33.2.89.89,0,0,0-.18.35,3.12,3.12,0,0,0-.12.54h-.25v-.37c0-.18,0-.35,0-.51s0-.35,0-.56H354Z" transform="translate(-264.62 -310.75)"/><path class="cls-1" d="M358.42,355.71a2.92,2.92,0,0,0,0,.33.42.42,0,0,0,.1.2.49.49,0,0,0,.23.1,1.87,1.87,0,0,0,.38,0h.34a2,2,0,0,0,.55-.06.86.86,0,0,0,.37-.18,1.68,1.68,0,0,0,.26-.35c.07-.14.16-.31.25-.52l.25.05q0,.17-.09.36c0,.13-.05.26-.08.38s0,.25-.06.36,0,.19,0,.26h-4.11l0-.21a3.42,3.42,0,0,0,.43,0,.7.7,0,0,0,.26-.12.42.42,0,0,0,.11-.22,1.73,1.73,0,0,0,0-.36v-3.92a1.4,1.4,0,0,0,0-.23.42.42,0,0,0-.11-.16.55.55,0,0,0-.23-.09l-.4,0,0-.22h4c0,.2,0,.41-.05.63s0,.45,0,.69h-.26c0-.2-.08-.37-.12-.5a.62.62,0,0,0-.49-.48,2,2,0,0,0-.48,0h-.75a.51.51,0,0,0-.22,0,.27.27,0,0,0-.05.19v2l1.9-.06,0,0v.5c-.36,0-.7-.06-1-.07l-.92,0Z" transform="translate(-264.62 -310.75)"/><path class="cls-1" d="M364.9,354.6H363l-.45,1.15a1.76,1.76,0,0,0-.12.42.21.21,0,0,0,.15.2,1.9,1.9,0,0,0,.51.08l0,.22h-1.93v-.21a1.68,1.68,0,0,0,.38-.06.55.55,0,0,0,.25-.13A1.08,1.08,0,0,0,362,356c.06-.12.14-.28.22-.48l1.69-4c0-.12.08-.22.12-.31s.06-.18.1-.28l.41,0c.05.19.09.36.14.51l.14.43,1.32,3.82a4,4,0,0,0,.16.41.63.63,0,0,0,.16.22.53.53,0,0,0,.24.1l.37.05,0,.22h-2.25l0-.21a1.85,1.85,0,0,0,.47-.08.2.2,0,0,0,.14-.2.49.49,0,0,0,0-.15s0-.12-.05-.19Zm-1.72-.35h1.61l-.73-2.2Z" transform="translate(-264.62 -310.75)"/><path class="cls-1" d="M371,354.78s0-.06,0-.1v-.4a.8.8,0,0,0-.15-.5.44.44,0,0,0-.38-.19.53.53,0,0,0-.24.06.46.46,0,0,0-.2.16.51.51,0,0,0-.12.23.77.77,0,0,0,0,.27.47.47,0,0,1-.3.07.45.45,0,0,1-.25-.07.22.22,0,0,1-.12-.2.32.32,0,0,1,.07-.19,1.17,1.17,0,0,1,.19-.2l.27-.18.3-.15a1.82,1.82,0,0,1,.77-.17,1.12,1.12,0,0,1,.39,0,.64.64,0,0,1,.29.16.79.79,0,0,1,.2.27,1.25,1.25,0,0,1,.07.41c0,.23,0,.5,0,.81s0,.64,0,1a.74.74,0,0,0,.08.36.25.25,0,0,0,.22.13.66.66,0,0,0,.3-.1l.11.18a1.23,1.23,0,0,1-.34.21,1.09,1.09,0,0,1-.39.08.87.87,0,0,1-.46-.11.55.55,0,0,1-.23-.34l-.18.13-.24.14-.3.13a1.12,1.12,0,0,1-.35.06.88.88,0,0,1-.39-.07.77.77,0,0,1-.27-.19.8.8,0,0,1-.18-.27,1,1,0,0,1-.06-.34.82.82,0,0,1,.17-.51,1.21,1.21,0,0,1,.46-.33,5.13,5.13,0,0,1,.54-.17A7,7,0,0,1,371,354.78Zm0,1.26v-.5c0-.16,0-.33,0-.49l-.28,0-.25.07a1.12,1.12,0,0,0-.25.11,1,1,0,0,0-.2.15.4.4,0,0,0-.15.33.63.63,0,0,0,.12.4.38.38,0,0,0,.31.16,1,1,0,0,0,.35-.06A1.43,1.43,0,0,0,371,356Z" transform="translate(-264.62 -310.75)"/><path class="cls-1" d="M374.82,354.33a.9.9,0,0,0-.09-.33.79.79,0,0,0-.19-.25.77.77,0,0,0-.27-.17,1,1,0,0,0-.34-.06.78.78,0,0,0-.22,0,1,1,0,0,0-.17.1.64.64,0,0,0-.11.16.48.48,0,0,0,0,.2.39.39,0,0,0,.07.23.42.42,0,0,0,.18.17l.27.14.32.13.37.16a1.85,1.85,0,0,1,.33.21.85.85,0,0,1,.23.29,1.1,1.1,0,0,1,.08.4.86.86,0,0,1-.12.47,1,1,0,0,1-.3.33,1.28,1.28,0,0,1-.43.19,2,2,0,0,1-.5.06l-.31,0-.29,0-.24-.06-.26,0c0-.06,0-.15,0-.25l0-.31c0-.11,0-.21,0-.3s0-.17,0-.23l.22,0c.05.13.12.26.18.38a2,2,0,0,0,.23.32,1.19,1.19,0,0,0,.31.23,1.08,1.08,0,0,0,.42.08.65.65,0,0,0,.37-.12.43.43,0,0,0,.18-.36.41.41,0,0,0-.08-.25.62.62,0,0,0-.18-.18,1.23,1.23,0,0,0-.25-.14l-.28-.12-.38-.17a1.69,1.69,0,0,1-.34-.23.78.78,0,0,1-.22-.3.89.89,0,0,1-.08-.38.85.85,0,0,1,.12-.46.89.89,0,0,1,.29-.32,1.28,1.28,0,0,1,.41-.18,1.86,1.86,0,0,1,.48-.06,2.42,2.42,0,0,1,.47,0,2.12,2.12,0,0,0,.54.06c0,.13,0,.25,0,.36v.65Z" transform="translate(-264.62 -310.75)"/><path class="cls-1" d="M378.62,350.74c0,.1,0,.21,0,.34s0,.27,0,.4,0,.26,0,.37v1.71a1.86,1.86,0,0,1,.53-.26,1.52,1.52,0,0,1,.49-.08,1.54,1.54,0,0,1,.67.13,1.48,1.48,0,0,1,.49.37,1.6,1.6,0,0,1,.31.52,1.69,1.69,0,0,1,.11.64,2,2,0,0,1-.15.78,1.86,1.86,0,0,1-.44.6,1.81,1.81,0,0,1-.64.39,2.18,2.18,0,0,1-.84.14,3.05,3.05,0,0,1-.67-.07,2.06,2.06,0,0,1-.63-.22c0-.29,0-.51,0-.66v-4a1.87,1.87,0,0,0,0-.27.27.27,0,0,0-.08-.16.39.39,0,0,0-.17-.09l-.31-.06,0-.17.3-.06.33-.09.38-.1a2.1,2.1,0,0,0,.35-.11Zm-.07,5.19a.46.46,0,0,0,.05.2.65.65,0,0,0,.16.17.83.83,0,0,0,.25.12.93.93,0,0,0,.27,0,.81.81,0,0,0,.44-.12,1,1,0,0,0,.33-.32,1.33,1.33,0,0,0,.21-.45,2.23,2.23,0,0,0,.07-.5,1.81,1.81,0,0,0-.08-.51,1.43,1.43,0,0,0-.24-.44,1.25,1.25,0,0,0-.36-.3.89.89,0,0,0-.45-.12,1.06,1.06,0,0,0-.31.05,1,1,0,0,0-.34.15Z" transform="translate(-264.62 -310.75)"/><path class="cls-1" d="M381.71,355a1.87,1.87,0,0,1,.14-.71,1.85,1.85,0,0,1,.37-.58,2,2,0,0,1,.56-.39,1.9,1.9,0,0,1,.73-.14,1.56,1.56,0,0,1,.73.14,2.36,2.36,0,0,1,.56.37,1.38,1.38,0,0,1,.4.56,1.91,1.91,0,0,1,.13.68,1.82,1.82,0,0,1-1.08,1.68,1.91,1.91,0,0,1-.74.14,1.81,1.81,0,0,1-.76-.14,1.66,1.66,0,0,1-.56-.37,1.61,1.61,0,0,1-.35-.56A1.72,1.72,0,0,1,381.71,355Zm1.88,1.45a.72.72,0,0,0,.36-.11,1.14,1.14,0,0,0,.31-.31,1.55,1.55,0,0,0,.17-.44,2,2,0,0,0,.06-.48,2.76,2.76,0,0,0-.06-.57,2.08,2.08,0,0,0-.2-.53,1.2,1.2,0,0,0-.35-.39.82.82,0,0,0-.44-.14.63.63,0,0,0-.36.11.89.89,0,0,0-.3.31,1.5,1.5,0,0,0-.18.43,2.61,2.61,0,0,0-.05.48,2.91,2.91,0,0,0,.06.57,2.24,2.24,0,0,0,.2.53,1.2,1.2,0,0,0,.35.39A.75.75,0,0,0,383.59,356.49Z" transform="translate(-264.62 -310.75)"/><path class="cls-1" d="M389.29,350.74c0,.1,0,.21,0,.34s0,.27,0,.4,0,.26,0,.38v3.92a1.94,1.94,0,0,0,0,.27.23.23,0,0,0,.09.15.37.37,0,0,0,.19.08,1.94,1.94,0,0,0,.33.05l0,.18-.43.06c-.15,0-.29,0-.42.06l-.31.08-.19.05,0-.05v-.35a1.82,1.82,0,0,1-.58.33,1.76,1.76,0,0,1-.5.1,1.44,1.44,0,0,1-1.09-.45,1.64,1.64,0,0,1-.32-.51,1.81,1.81,0,0,1-.12-.67,1.85,1.85,0,0,1,.17-.78,1.78,1.78,0,0,1,.43-.61,2.31,2.31,0,0,1,.65-.41,2.21,2.21,0,0,1,.75-.14h.26a2.14,2.14,0,0,1,.35.06v-1.58a1.61,1.61,0,0,0,0-.26.24.24,0,0,0-.09-.16.57.57,0,0,0-.19-.08l-.34-.07,0-.17.43-.08.45-.08.36-.08.18,0Zm-.82,3.16a1.14,1.14,0,0,0-.36-.27,1,1,0,0,0-.39-.08.78.78,0,0,0-.42.11,1.08,1.08,0,0,0-.33.31,1.32,1.32,0,0,0-.2.45,1.73,1.73,0,0,0-.07.5,1.8,1.8,0,0,0,.08.5,1.32,1.32,0,0,0,.2.45,1,1,0,0,0,.35.31.85.85,0,0,0,.43.12,1.23,1.23,0,0,0,.36-.06,1.06,1.06,0,0,0,.35-.18Z" transform="translate(-264.62 -310.75)"/><path class="cls-1" d="M393.94,353.53l-.28.05a.51.51,0,0,0-.18.09.78.78,0,0,0-.15.16l-.15.28c-.09.18-.18.39-.29.62s-.21.49-.33.76-.22.54-.33.82-.23.56-.33.83-.14.33-.17.42l-.19.39c-.09.18-.18.34-.27.49a1.55,1.55,0,0,1-.28.32,1,1,0,0,1-.62.25.44.44,0,0,1-.3-.1.33.33,0,0,1-.11-.25.41.41,0,0,1,.07-.27.58.58,0,0,1,.19-.16l.15,0h.1a1.09,1.09,0,0,0,.26,0,.49.49,0,0,0,.21-.14,2.27,2.27,0,0,0,.41-.58,4.59,4.59,0,0,0,.24-.55v0l-.05-.15c-.08-.21-.16-.44-.25-.67s-.18-.47-.28-.7-.18-.47-.27-.69l-.26-.62a2.4,2.4,0,0,0-.14-.28.45.45,0,0,0-.14-.16.54.54,0,0,0-.19-.08l-.28,0v-.23h1.84l0,.2a1.75,1.75,0,0,0-.33.07.15.15,0,0,0-.1.13.35.35,0,0,0,0,.12,1.55,1.55,0,0,1,0,.15L392,356l.83-2a1.8,1.8,0,0,0,.06-.24.15.15,0,0,0-.1-.15,1.19,1.19,0,0,0-.36-.06v-.21h1.49Z" transform="translate(-264.62 -310.75)"/><path class="cls-1" d="M398.85,355.92a1.26,1.26,0,0,1-.27.37,1.44,1.44,0,0,1-.34.27,1.48,1.48,0,0,1-.41.17,1.52,1.52,0,0,1-.42.06,1.45,1.45,0,0,1-.68-.14,1.57,1.57,0,0,1-.51-.36,1.51,1.51,0,0,1-.32-.53,1.73,1.73,0,0,1-.12-.64,1.71,1.71,0,0,1,.16-.75,2,2,0,0,1,.43-.6,2.08,2.08,0,0,1,.63-.41,2.28,2.28,0,0,1,.8-.14l.42,0a1.06,1.06,0,0,1,.39.13.2.2,0,0,1,.12.1.4.4,0,0,1,0,.15.46.46,0,0,1-.08.23.71.71,0,0,1-.31.22h0a1.68,1.68,0,0,0-.42-.33,1,1,0,0,0-.46-.1.74.74,0,0,0-.36.09,1.06,1.06,0,0,0-.3.26,1.46,1.46,0,0,0-.25.81,1.91,1.91,0,0,0,.08.54,1.37,1.37,0,0,0,.23.45,1.18,1.18,0,0,0,.38.32,1,1,0,0,0,.48.12,1.29,1.29,0,0,0,.54-.12.92.92,0,0,0,.41-.37Z" transform="translate(-264.62 -310.75)"/><path class="cls-1" d="M399.22,355a1.85,1.85,0,0,1,.52-1.29,1.76,1.76,0,0,1,.56-.39,1.83,1.83,0,0,1,.73-.14,1.54,1.54,0,0,1,.72.14,2.17,2.17,0,0,1,.56.37,1.29,1.29,0,0,1,.4.56,1.72,1.72,0,0,1,.13.68,1.87,1.87,0,0,1-.14.71,2.05,2.05,0,0,1-.37.58,1.92,1.92,0,0,1-.57.39,2.08,2.08,0,0,1-1.5,0,1.62,1.62,0,0,1-.55-.37,1.5,1.5,0,0,1-.36-.56A1.91,1.91,0,0,1,399.22,355Zm1.88,1.45a.72.72,0,0,0,.36-.11,1,1,0,0,0,.31-.31,1.57,1.57,0,0,0,.18-.44,2.61,2.61,0,0,0,.05-.48,2.76,2.76,0,0,0-.06-.57,1.77,1.77,0,0,0-.2-.53,1.1,1.1,0,0,0-.35-.39.78.78,0,0,0-.43-.14.66.66,0,0,0-.37.11,1,1,0,0,0-.3.31,1.25,1.25,0,0,0-.17.43,2,2,0,0,0-.06.48,2.34,2.34,0,0,0,.07.57,1.87,1.87,0,0,0,.2.53,1.17,1.17,0,0,0,.34.39A.77.77,0,0,0,401.1,356.49Z" transform="translate(-264.62 -310.75)"/><path class="cls-1" d="M404.62,353.26a1.41,1.41,0,0,0,0,.18,1.35,1.35,0,0,0,0,.22,1.6,1.6,0,0,1,.53-.34,1.39,1.39,0,0,1,.5-.1,1.56,1.56,0,0,1,.62.12,1.54,1.54,0,0,1,.49.34,1.87,1.87,0,0,1,.34.52,1.75,1.75,0,0,1,.12.65,1.86,1.86,0,0,1-.16.79,1.8,1.8,0,0,1-.44.61,2,2,0,0,1-.65.4,1.9,1.9,0,0,1-.64.14h-.21l-.15,0-.18,0-.18-.05v1.54a.75.75,0,0,0,0,.23.18.18,0,0,0,.1.13.56.56,0,0,0,.24.08l.44,0v.23h-2.13l0-.2a2,2,0,0,0,.32-.05.33.33,0,0,0,.27-.31,3.21,3.21,0,0,0,0-.36v-3.75a1.72,1.72,0,0,0,0-.26.28.28,0,0,0-.08-.15.51.51,0,0,0-.18-.08l-.33-.06,0-.18.36-.07.37-.09.36-.08.25-.07Zm0,2.85a.73.73,0,0,0,.33.25,1.06,1.06,0,0,0,.43.08.88.88,0,0,0,.42-.11,1,1,0,0,0,.33-.29,1.69,1.69,0,0,0,.19-.43,2.1,2.1,0,0,0,.06-.51,1.88,1.88,0,0,0-.07-.53,1.51,1.51,0,0,0-.22-.44,1.31,1.31,0,0,0-.36-.3.93.93,0,0,0-.46-.12,1,1,0,0,0-.65.25Z" transform="translate(-264.62 -310.75)"/><path class="cls-1" d="M411.51,353.53a1.43,1.43,0,0,0-.28.05.66.66,0,0,0-.19.09.56.56,0,0,0-.14.16l-.15.28c-.09.18-.19.39-.29.62s-.22.49-.33.76l-.34.82c-.11.28-.22.56-.32.83s-.14.33-.17.42l-.19.39a4.51,4.51,0,0,1-.28.49,1.13,1.13,0,0,1-.28.32,1,1,0,0,1-.61.25.44.44,0,0,1-.3-.1.3.3,0,0,1-.11-.25.41.41,0,0,1,.07-.27.49.49,0,0,1,.19-.16l.15,0h.1a1,1,0,0,0,.25,0,.46.46,0,0,0,.22-.14,2,2,0,0,0,.4-.58,3.65,3.65,0,0,0,.25-.55v0l-.06-.15c-.07-.21-.16-.44-.25-.67l-.27-.7c-.09-.24-.18-.47-.28-.69s-.17-.43-.26-.62a2.61,2.61,0,0,0-.13-.28.45.45,0,0,0-.14-.16.64.64,0,0,0-.19-.08l-.28,0v-.23h1.84v.2a2.22,2.22,0,0,0-.33.07.14.14,0,0,0-.09.13.74.74,0,0,0,0,.12,1.31,1.31,0,0,1,.05.15l.75,1.95.82-2c0-.14.07-.22.07-.24a.16.16,0,0,0-.1-.15,1.21,1.21,0,0,0-.37-.06v-.21h1.5Z" transform="translate(-264.62 -310.75)"/><path class="cls-1" d="M412.81,356.28a.41.41,0,0,1,0,.19.44.44,0,0,1-.1.16.42.42,0,0,1-.15.11l-.18,0a.58.58,0,0,1-.19,0,.72.72,0,0,1-.15-.11.62.62,0,0,1-.1-.16.58.58,0,0,1,0-.19.65.65,0,0,1,0-.19.86.86,0,0,1,.1-.16.65.65,0,0,1,.15-.1.41.41,0,0,1,.19,0,.5.5,0,0,1,.33.14.54.54,0,0,1,.1.16A.43.43,0,0,1,412.81,356.28Z" transform="translate(-264.62 -310.75)"/><path class="cls-1" d="M264.71,311.16h1.8l.24.58c.09.19.17.38.26.58l1.92,4.16,1.74-4.25c.08-.18.15-.36.22-.54s.15-.36.22-.53h1.82l0,.25a2.71,2.71,0,0,0-.49.06.57.57,0,0,0-.27.14.43.43,0,0,0-.13.26,2.49,2.49,0,0,0,0,.41l.15,4.58a1,1,0,0,0,0,.27.4.4,0,0,0,.14.18.61.61,0,0,0,.28.11,4.2,4.2,0,0,0,.48.05v.26h-2.57l0-.25a2.31,2.31,0,0,0,.39-.06.49.49,0,0,0,.23-.15.47.47,0,0,0,.1-.25c0-.11,0-.25,0-.42l-.15-4.31L270,315c-.38.91-.74,1.83-1.07,2.77l-.4,0c-.13-.32-.44-1-.92-2.08l-1.4-3.07-.15,3.85a2.45,2.45,0,0,0,0,.5.48.48,0,0,0,.11.27.58.58,0,0,0,.26.13l.42.05v.26h-2.15l0-.25.46-.06a.52.52,0,0,0,.28-.16.71.71,0,0,0,.14-.35,4.35,4.35,0,0,0,.06-.64l.14-3.52v-.42c0-.11,0-.2,0-.29a1,1,0,0,0-.08-.21.66.66,0,0,0-.12-.17.88.88,0,0,0-.33-.18,2.86,2.86,0,0,0-.46-.06Z" transform="translate(-264.62 -310.75)"/><path class="cls-1" d="M273.56,317.48a3.17,3.17,0,0,0,.43-.06.71.71,0,0,0,.26-.14.49.49,0,0,0,.12-.26,1.56,1.56,0,0,0,0-.42V312a1,1,0,0,0,0-.27.29.29,0,0,0-.12-.18.57.57,0,0,0-.26-.11l-.45-.05v-.26h2.61l0,.25a2.11,2.11,0,0,0-.43.06.65.65,0,0,0-.26.14.5.5,0,0,0-.13.25,2.42,2.42,0,0,0,0,.42v4.58a1,1,0,0,0,0,.27.27.27,0,0,0,.12.18.52.52,0,0,0,.26.11,3.56,3.56,0,0,0,.46.05l0,.26h-2.61Z" transform="translate(-264.62 -310.75)"/><path class="cls-1" d="M278,314.32a4.53,4.53,0,0,0,.16,1.24,2.94,2.94,0,0,0,.5,1,2.36,2.36,0,0,0,.83.67,2.44,2.44,0,0,0,1.08.24,2.61,2.61,0,0,0,.69-.09,1.6,1.6,0,0,0,.6-.33,2.32,2.32,0,0,0,.43-.54,6.64,6.64,0,0,0,.36-.75l.3.07c-.08.3-.14.59-.19.85s-.08.55-.11.85c-.37.1-.73.18-1.09.24a6.23,6.23,0,0,1-1.06.09,4.2,4.2,0,0,1-1.47-.24,3.36,3.36,0,0,1-1.13-.67,3.17,3.17,0,0,1-.74-1.06,3.4,3.4,0,0,1-.27-1.38,3.44,3.44,0,0,1,.32-1.52,3.37,3.37,0,0,1,.87-1.1,4,4,0,0,1,1.28-.65A5.64,5.64,0,0,1,281,311a7.12,7.12,0,0,1,.89.06,7.58,7.58,0,0,1,.9.17,8.19,8.19,0,0,0,0,.83c0,.26,0,.54,0,.83l-.32,0a2,2,0,0,0-.16-.7,1.54,1.54,0,0,0-.35-.5,1.38,1.38,0,0,0-.52-.28,2.53,2.53,0,0,0-.63-.08,3,3,0,0,0-1.11.21,2.4,2.4,0,0,0-.87.59,2.66,2.66,0,0,0-.53.93A3.78,3.78,0,0,0,278,314.32Z" transform="translate(-264.62 -310.75)"/><path class="cls-1" d="M285.6,316.84a2,2,0,0,0,0,.28.29.29,0,0,0,.11.19.56.56,0,0,0,.27.11,2.87,2.87,0,0,0,.5.05v.26h-2.63l0-.25a3.17,3.17,0,0,0,.43-.06.66.66,0,0,0,.25-.14.49.49,0,0,0,.12-.26,2.26,2.26,0,0,0,0-.42V312a1,1,0,0,0,0-.27.28.28,0,0,0-.11-.18.52.52,0,0,0-.26-.11,3.56,3.56,0,0,0-.46-.05l0-.26h1.31a6,6,0,0,0,.65,0,2.85,2.85,0,0,1,.46,0,4.79,4.79,0,0,1,.87.07,2.39,2.39,0,0,1,.74.25,1.39,1.39,0,0,1,.54.48,1.32,1.32,0,0,1,.21.77,2,2,0,0,1-.1.6,2,2,0,0,1-.28.51,2.11,2.11,0,0,1-1,.68c.15.28.29.55.43.8l.4.71.32.55c.1.16.18.29.25.38a1.78,1.78,0,0,0,.22.27,1,1,0,0,0,.21.16,1,1,0,0,0,.27.09l.38.05v.26H288a4,4,0,0,0-.21-.42c-.09-.19-.21-.4-.34-.65l-.44-.79c-.16-.29-.32-.58-.5-.88l-.07-.12a.28.28,0,0,0-.1-.09.31.31,0,0,0-.13-.06.5.5,0,0,0-.18,0h-.43Zm0-2.5h.34a1.76,1.76,0,0,0,1.15-.37,1.42,1.42,0,0,0,.44-1.19,1.18,1.18,0,0,0-.42-1,1.59,1.59,0,0,0-1-.32l-.24,0a.43.43,0,0,0-.17.12.36.36,0,0,0-.07.18,2,2,0,0,0,0,.25Z" transform="translate(-264.62 -310.75)"/><path class="cls-1" d="M293.54,311a4,4,0,0,1,1.42.23,3,3,0,0,1,1.07.68,2.91,2.91,0,0,1,.69,1.05,3.62,3.62,0,0,1,.25,1.39,3.9,3.9,0,0,1-.24,1.39,3.47,3.47,0,0,1-.69,1.11,3.06,3.06,0,0,1-1.07.72,3.54,3.54,0,0,1-1.43.26,4.09,4.09,0,0,1-1.41-.23,3,3,0,0,1-1.07-.68,3.07,3.07,0,0,1-.7-1.05,3.66,3.66,0,0,1-.25-1.39,3.78,3.78,0,0,1,.25-1.4,3.21,3.21,0,0,1,.69-1.1,3,3,0,0,1,1.06-.72A3.58,3.58,0,0,1,293.54,311Zm0,.38a2.49,2.49,0,0,0-.81.15,1.86,1.86,0,0,0-.76.48,2.37,2.37,0,0,0-.53.89,3.67,3.67,0,0,0-.2,1.32,4.56,4.56,0,0,0,.22,1.54,2.9,2.9,0,0,0,.58,1,2.07,2.07,0,0,0,.8.54,2.18,2.18,0,0,0,1.59,0,1.91,1.91,0,0,0,.77-.49,2.38,2.38,0,0,0,.53-.88,3.9,3.9,0,0,0,.2-1.32,4.54,4.54,0,0,0-.23-1.54,2.75,2.75,0,0,0-.58-1,2,2,0,0,0-.8-.54A2.42,2.42,0,0,0,293.5,311.41Z" transform="translate(-264.62 -310.75)"/><path class="cls-1" d="M298,315.82a6.61,6.61,0,0,0,.3.65,2.25,2.25,0,0,0,.36.53,1.57,1.57,0,0,0,.51.34,1.71,1.71,0,0,0,.67.12,1.25,1.25,0,0,0,.45-.08,1.15,1.15,0,0,0,.37-.25,1.1,1.1,0,0,0,.27-.38,1.34,1.34,0,0,0,.1-.49,1.2,1.2,0,0,0-.13-.57,1,1,0,0,0-.33-.37,4.55,4.55,0,0,0-.43-.28l-.49-.25c-.21-.09-.42-.19-.65-.31a2.52,2.52,0,0,1-.59-.42,1.76,1.76,0,0,1-.41-.55,1.73,1.73,0,0,1-.14-.71,1.64,1.64,0,0,1,.65-1.32,2.13,2.13,0,0,1,.71-.34A3.56,3.56,0,0,1,300,311a4.92,4.92,0,0,1,.8.06,8,8,0,0,1,.8.18c0,.14,0,.28,0,.4s0,.25,0,.37v.37c0,.13,0,.26,0,.41l-.31,0a1.58,1.58,0,0,0-.44-1.07,1.4,1.4,0,0,0-1-.35,1.17,1.17,0,0,0-.74.28.89.89,0,0,0-.23.34,1,1,0,0,0-.09.44,1.28,1.28,0,0,0,.11.55.86.86,0,0,0,.29.36,2.12,2.12,0,0,0,.42.25l.51.23a7.49,7.49,0,0,1,.69.35,2.43,2.43,0,0,1,.58.43,2.23,2.23,0,0,1,.4.54,1.67,1.67,0,0,1,.16.73,1.75,1.75,0,0,1-.19.83,2,2,0,0,1-.51.6,2,2,0,0,1-.75.38,2.85,2.85,0,0,1-.86.13,4.26,4.26,0,0,1-.78-.07q-.4-.07-.87-.21c0-.3-.07-.58-.12-.85a8,8,0,0,0-.18-.84Z" transform="translate(-264.62 -310.75)"/><path class="cls-1" d="M306,311a3.92,3.92,0,0,1,1.42.23,2.89,2.89,0,0,1,1.07.68,3.07,3.07,0,0,1,.7,1.05,3.82,3.82,0,0,1,.25,1.39,3.9,3.9,0,0,1-.25,1.39,3.16,3.16,0,0,1-.69,1.11,3.06,3.06,0,0,1-1.07.72,3.54,3.54,0,0,1-1.43.26,4.13,4.13,0,0,1-1.41-.23,3,3,0,0,1-1.07-.68,3.07,3.07,0,0,1-.7-1.05,3.86,3.86,0,0,1-.25-1.39,4,4,0,0,1,.25-1.4,3.21,3.21,0,0,1,.69-1.1,3.06,3.06,0,0,1,1.07-.72A3.53,3.53,0,0,1,306,311Zm0,.38a2.49,2.49,0,0,0-.81.15,1.86,1.86,0,0,0-.76.48,2.51,2.51,0,0,0-.53.89,3.9,3.9,0,0,0-.2,1.32,4.54,4.54,0,0,0,.23,1.54,2.75,2.75,0,0,0,.58,1,2,2,0,0,0,.79.54,2.53,2.53,0,0,0,.79.15,2.49,2.49,0,0,0,.81-.15,1.88,1.88,0,0,0,.76-.49,2.38,2.38,0,0,0,.53-.88,3.9,3.9,0,0,0,.2-1.32,4.54,4.54,0,0,0-.23-1.54,2.75,2.75,0,0,0-.58-1,2,2,0,0,0-.79-.54A2.53,2.53,0,0,0,306,311.41Z" transform="translate(-264.62 -310.75)"/><path class="cls-1" d="M310.17,311.16h4.6c0,.24,0,.48-.06.75s0,.54,0,.83h-.31a4.67,4.67,0,0,0-.13-.6,1,1,0,0,0-.21-.38.78.78,0,0,0-.36-.19,2.16,2.16,0,0,0-.57-.06h-.76a.68.68,0,0,0-.27,0,.32.32,0,0,0-.05.21v2.49l2.11-.07.05.05,0,.59c-.41,0-.79-.06-1.13-.08l-1,0v2.14a1.09,1.09,0,0,0,0,.28.33.33,0,0,0,.14.19.85.85,0,0,0,.33.11,4.22,4.22,0,0,0,.6.05v.26h-2.9l0-.25a3.49,3.49,0,0,0,.46-.06.58.58,0,0,0,.27-.15.43.43,0,0,0,.13-.25,2.3,2.3,0,0,0,0-.42V312a1,1,0,0,0,0-.27.3.3,0,0,0-.13-.18.61.61,0,0,0-.28-.11,4.87,4.87,0,0,0-.51-.05Z" transform="translate(-264.62 -310.75)"/><path class="cls-1" d="M318,311.18h2.93c0,.17,0,.32,0,.46l0,.39c0,.13,0,.27,0,.4v.43h-.29c0-.24-.09-.45-.13-.62a1.06,1.06,0,0,0-.21-.41.71.71,0,0,0-.37-.23,2.12,2.12,0,0,0-.62-.07h-.76v5.34a1,1,0,0,0,0,.27.27.27,0,0,0,.12.18.61.61,0,0,0,.29.11,5.06,5.06,0,0,0,.53.05v.26h-2.82l0-.25a2.72,2.72,0,0,0,.5-.06.6.6,0,0,0,.29-.14.49.49,0,0,0,.13-.26,2.26,2.26,0,0,0,0-.42v-5.08h-.75a2.16,2.16,0,0,0-.62.07.71.71,0,0,0-.37.23,1,1,0,0,0-.22.41,5.32,5.32,0,0,0-.14.62h-.29v-.43c0-.21,0-.4,0-.59s0-.41,0-.66H318Z" transform="translate(-264.62 -310.75)"/><path class="cls-1" d="M325.06,315.43a2.1,2.1,0,0,0,.15.84,1.4,1.4,0,0,0,.43.58,1.7,1.7,0,0,0,.61.32,1.81,1.81,0,0,0,.62.11,2.4,2.4,0,0,0,.71-.11,1.71,1.71,0,0,0,.59-.36,1.53,1.53,0,0,0,.4-.65,2.62,2.62,0,0,0,.14-.94v-2.81a2.19,2.19,0,0,0,0-.49.56.56,0,0,0-.17-.29.81.81,0,0,0-.31-.14,3.26,3.26,0,0,0-.54-.06l0-.26h2.46v.25l-.48.06a.69.69,0,0,0-.31.15.64.64,0,0,0-.15.32,3,3,0,0,0,0,.58v2.88a2.47,2.47,0,0,1-.23,1.14,2.13,2.13,0,0,1-.59.76,2.3,2.3,0,0,1-.82.43,3.33,3.33,0,0,1-.94.13,4,4,0,0,1-.92-.11,2,2,0,0,1-.79-.4,2.39,2.39,0,0,1-.54-.68,2.18,2.18,0,0,1-.19-.95v-3.64a.79.79,0,0,0,0-.28.35.35,0,0,0-.12-.2.87.87,0,0,0-.29-.12,4.41,4.41,0,0,0-.49-.05v-.26H326l0,.25a2.59,2.59,0,0,0-.48.06.87.87,0,0,0-.29.15.67.67,0,0,0-.14.28,2.42,2.42,0,0,0,0,.42Z" transform="translate(-264.62 -310.75)"/><path class="cls-1" d="M330.52,317.48a3.35,3.35,0,0,0,.44-.06.74.74,0,0,0,.25-.14.49.49,0,0,0,.13-.26,2.26,2.26,0,0,0,0-.42V312a1,1,0,0,0,0-.27.23.23,0,0,0-.12-.18.52.52,0,0,0-.26-.11,3.58,3.58,0,0,0-.45-.05v-.26h2.62l0,.25a2,2,0,0,0-.43.06.59.59,0,0,0-.26.14.43.43,0,0,0-.13.25,1.66,1.66,0,0,0,0,.42v4.58a1,1,0,0,0,0,.27.36.36,0,0,0,.12.18.57.57,0,0,0,.26.11,4,4,0,0,0,.46.05v.26h-2.62Z" transform="translate(-264.62 -310.75)"/><path class="cls-1" d="M339.5,313a1.9,1.9,0,0,0-.18-.71,1.49,1.49,0,0,0-.4-.49,1.86,1.86,0,0,0-.58-.29,2.5,2.5,0,0,0-.69-.09,2.94,2.94,0,0,0-1.12.21,2.13,2.13,0,0,0-.86.59,2.47,2.47,0,0,0-.51.93,3.78,3.78,0,0,0-.17,1.2,4.18,4.18,0,0,0,.17,1.24,2.78,2.78,0,0,0,.51,1,2.42,2.42,0,0,0,.87.67,2.65,2.65,0,0,0,1.12.24,1.48,1.48,0,0,0,.27,0c.12,0,.25,0,.41-.07a2.19,2.19,0,0,0,.41-.15c.11-.06.17-.13.17-.22v-1.34a.73.73,0,0,0,0-.27.36.36,0,0,0-.17-.18,1.11,1.11,0,0,0-.35-.11c-.15,0-.35,0-.6,0v-.26h2.69l0,.24-.32.06a.45.45,0,0,0-.19.14.57.57,0,0,0-.1.26c0,.1,0,.24,0,.41v.43c0,.22,0,.43,0,.63a2.29,2.29,0,0,0,0,.5c-.37.1-.76.19-1.16.27a6.65,6.65,0,0,1-1.14.11,4.49,4.49,0,0,1-1.52-.24,3.4,3.4,0,0,1-1.16-.67,3.25,3.25,0,0,1-.77-1.06,3.4,3.4,0,0,1-.27-1.38,3.44,3.44,0,0,1,.31-1.52,3.19,3.19,0,0,1,.85-1.1,3.72,3.72,0,0,1,1.27-.65,5.74,5.74,0,0,1,1.6-.21,3.86,3.86,0,0,1,.47,0l.51.05.51.09.46.1a8.07,8.07,0,0,0,0,.83c0,.25,0,.53,0,.82Z" transform="translate(-264.62 -310.75)"/><path class="cls-1" d="M346.36,314.06v-2a1,1,0,0,0,0-.27.25.25,0,0,0-.11-.18.48.48,0,0,0-.25-.11,3.58,3.58,0,0,0-.45-.05l0-.26h2.56v.25a2,2,0,0,0-.42.06.55.55,0,0,0-.25.14.49.49,0,0,0-.12.26,2.37,2.37,0,0,0,0,.41v4.58a1.06,1.06,0,0,0,0,.27.36.36,0,0,0,.12.18.48.48,0,0,0,.25.11,4,4,0,0,0,.46.05v.26h-2.57l0-.25a3.17,3.17,0,0,0,.43-.06.69.69,0,0,0,.24-.14.49.49,0,0,0,.12-.26,2.26,2.26,0,0,0,0-.42v-2.12h-3.47v2.38a1.87,1.87,0,0,0,0,.27.42.42,0,0,0,.11.18.53.53,0,0,0,.25.11,3.58,3.58,0,0,0,.45.05v.26h-2.56l0-.25a2.11,2.11,0,0,0,.43-.06.55.55,0,0,0,.25-.14.49.49,0,0,0,.12-.25,2.42,2.42,0,0,0,0-.42V312a1,1,0,0,0,0-.27.25.25,0,0,0-.11-.18.52.52,0,0,0-.26-.11,3.58,3.58,0,0,0-.45-.05v-.26h2.56l0,.25a2,2,0,0,0-.42.06.61.61,0,0,0-.25.14.48.48,0,0,0-.11.26,2.37,2.37,0,0,0,0,.41v1.78Z" transform="translate(-264.62 -310.75)"/><path class="cls-1" d="M350.54,315.43a2.1,2.1,0,0,0,.15.84,1.6,1.6,0,0,0,.43.58,1.79,1.79,0,0,0,.61.32,1.82,1.82,0,0,0,.63.11,2.33,2.33,0,0,0,.7-.11,1.54,1.54,0,0,0,1-1,2.86,2.86,0,0,0,.14-.94v-2.81a2.11,2.11,0,0,0-.05-.49.55.55,0,0,0-.16-.29.86.86,0,0,0-.32-.14,3.12,3.12,0,0,0-.53-.06v-.26h2.46v.25l-.49.06a.65.65,0,0,0-.3.15.51.51,0,0,0-.15.32,2.9,2.9,0,0,0-.05.58v2.88a2.61,2.61,0,0,1-.22,1.14,2.25,2.25,0,0,1-.59.76,2.35,2.35,0,0,1-.83.43,3.33,3.33,0,0,1-.94.13,4.06,4.06,0,0,1-.92-.11,2,2,0,0,1-.79-.4,2,2,0,0,1-.73-1.63v-3.64a1.14,1.14,0,0,0,0-.28.37.37,0,0,0-.13-.2.81.81,0,0,0-.28-.12,4.64,4.64,0,0,0-.5-.05l0-.26h2.77l0,.25a2.84,2.84,0,0,0-.48.06.82.82,0,0,0-.28.15.5.5,0,0,0-.14.28,1.66,1.66,0,0,0,0,.42Z" transform="translate(-264.62 -310.75)"/><path class="cls-1" d="M357.81,316.84a1.14,1.14,0,0,0,0,.28.29.29,0,0,0,.11.19.56.56,0,0,0,.27.11,2.87,2.87,0,0,0,.5.05v.26h-2.64v-.25a3.17,3.17,0,0,0,.43-.06.74.74,0,0,0,.25-.14.49.49,0,0,0,.12-.26,2.26,2.26,0,0,0,0-.42V312a1,1,0,0,0,0-.27.33.33,0,0,0-.11-.18.57.57,0,0,0-.26-.11,3.78,3.78,0,0,0-.46-.05l0-.26h1.31a5.76,5.76,0,0,0,.64,0,3,3,0,0,1,.47,0,4.79,4.79,0,0,1,.87.07,2.48,2.48,0,0,1,.74.25,1.47,1.47,0,0,1,.54.48,1.32,1.32,0,0,1,.2.77,1.72,1.72,0,0,1-.1.6,1.67,1.67,0,0,1-.27.51,2.11,2.11,0,0,1-1,.68c.15.28.29.55.43.8l.39.71.33.55c.1.16.18.29.25.38a1.78,1.78,0,0,0,.22.27.78.78,0,0,0,.21.16.88.88,0,0,0,.26.09l.39.05v.26h-1.74a4,4,0,0,0-.21-.42c-.09-.19-.21-.4-.34-.65l-.44-.79c-.16-.29-.32-.58-.5-.88a.5.5,0,0,0-.08-.12.2.2,0,0,0-.09-.09.38.38,0,0,0-.13-.06.5.5,0,0,0-.18,0h-.43Zm0-2.5h.34a1.76,1.76,0,0,0,1.15-.37,1.46,1.46,0,0,0,.44-1.19,1.18,1.18,0,0,0-.42-1,1.59,1.59,0,0,0-1-.32l-.24,0a.32.32,0,0,0-.17.12.36.36,0,0,0-.07.18,2,2,0,0,0,0,.25Z" transform="translate(-264.62 -310.75)"/><path class="cls-1" d="M366.61,317.73h-2.4l0-.24a1.49,1.49,0,0,0,.36-.06.31.31,0,0,0,.2-.12.53.53,0,0,0,.1-.24,2.34,2.34,0,0,0,0-.42v-1.74a1.15,1.15,0,0,0,0-.3.37.37,0,0,0-.08-.18.53.53,0,0,0-.2-.1l-.34-.06,0-.21.38-.08.45-.1c.17,0,.31-.07.42-.1l.26-.09.08.06c0,.14,0,.28,0,.42v.41a4.59,4.59,0,0,1,.4-.44,1.78,1.78,0,0,1,.33-.27.87.87,0,0,1,.27-.14,1.18,1.18,0,0,1,.25,0,.63.63,0,0,1,.33.09.32.32,0,0,1,.15.3.53.53,0,0,1-.13.31,1.27,1.27,0,0,1-.37.31,1,1,0,0,0-.25-.16.72.72,0,0,0-.29-.06.52.52,0,0,0-.34.14,1,1,0,0,0-.31.39,1,1,0,0,0,0,.14v1.78a1.06,1.06,0,0,0,0,.27.27.27,0,0,0,.11.15.58.58,0,0,0,.26.07l.47,0Z" transform="translate(-264.62 -310.75)"/><path class="cls-1" d="M371.33,317a2.39,2.39,0,0,1-.47.48,3.08,3.08,0,0,1-.44.27,1.78,1.78,0,0,1-.39.13l-.31,0a2.16,2.16,0,0,1-.83-.15,1.9,1.9,0,0,1-.61-.44,1.86,1.86,0,0,1-.39-.63,2.07,2.07,0,0,1-.14-.78,2.15,2.15,0,0,1,.16-.85,2.49,2.49,0,0,1,.45-.69,1.94,1.94,0,0,1,.64-.46,1.86,1.86,0,0,1,.79-.17,2,2,0,0,1,.63.1,1.29,1.29,0,0,1,.48.29,1.31,1.31,0,0,1,.33.44,1.37,1.37,0,0,1,.13.58v.19c0,.13-.09.19-.19.19h-2.54a2.62,2.62,0,0,0,.13.8,1.44,1.44,0,0,0,.35.53,1.22,1.22,0,0,0,.48.3,1.31,1.31,0,0,0,.5.1,1.52,1.52,0,0,0,.51-.09,1.55,1.55,0,0,0,.53-.38Zm-1.15-1.78a.26.26,0,0,0,.18-.05.37.37,0,0,0,0-.18,1,1,0,0,0-.06-.34.74.74,0,0,0-.16-.27,1.15,1.15,0,0,0-.26-.19.9.9,0,0,0-.34-.06.66.66,0,0,0-.3.07,1,1,0,0,0-.29.21,1.82,1.82,0,0,0-.22.34,1.54,1.54,0,0,0-.12.47Z" transform="translate(-264.62 -310.75)"/><path class="cls-1" d="M372,315.31a1.4,1.4,0,0,1,.15-.64,1.55,1.55,0,0,1,.37-.51,1.7,1.7,0,0,1,.54-.34,1.75,1.75,0,0,1,.7-.13,2,2,0,0,1,1,.23.37.37,0,0,0,.14.07l.16,0h.11l1-.08.05.06,0,.42h-1a1.29,1.29,0,0,1,.28.78,1.52,1.52,0,0,1-.17.71,1.57,1.57,0,0,1-.41.51,1.78,1.78,0,0,1-.57.32,2.07,2.07,0,0,1-.66.1,2.22,2.22,0,0,1-.54-.07,1,1,0,0,0-.25.17.31.31,0,0,0-.09.22.24.24,0,0,0,.06.17.28.28,0,0,0,.17.09l.22,0h.21l.53,0h.59a2.51,2.51,0,0,1,.55.06,1.43,1.43,0,0,1,.5.18,1,1,0,0,1,.35.37,1,1,0,0,1,.14.56,1.43,1.43,0,0,1-.19.71,1.86,1.86,0,0,1-.53.59,3,3,0,0,1-.82.4,3.33,3.33,0,0,1-1.09.16,2.3,2.3,0,0,1-.62-.08,3.14,3.14,0,0,1-.59-.2,1.28,1.28,0,0,1-.42-.34.7.7,0,0,1-.16-.46.82.82,0,0,1,.09-.4,1.5,1.5,0,0,1,.23-.3l.33-.27.37-.26a1.49,1.49,0,0,1-.52-.27.56.56,0,0,1-.19-.4.64.64,0,0,1,.07-.28,1.16,1.16,0,0,1,.2-.25l.25-.18.21-.14A1.35,1.35,0,0,1,372,315.31Zm1.95,2.91h-.38a.83.83,0,0,0-.24,0,.49.49,0,0,0-.17.06.66.66,0,0,0-.16.11,1.37,1.37,0,0,0-.31.34.72.72,0,0,0-.1.4.65.65,0,0,0,.12.36.85.85,0,0,0,.34.27,1.69,1.69,0,0,0,.49.13l.44,0a2.35,2.35,0,0,0,.51-.06,2.41,2.41,0,0,0,.48-.18.8.8,0,0,0,.33-.3.75.75,0,0,0,.12-.41.64.64,0,0,0-.13-.36.72.72,0,0,0-.35-.29,1.23,1.23,0,0,0-.44-.1,3.93,3.93,0,0,0-.49,0Zm-.12-1.71a.7.7,0,0,0,.33-.1.81.81,0,0,0,.25-.27,1.42,1.42,0,0,0,.14-.36,1.81,1.81,0,0,0,0-.4,2.72,2.72,0,0,0,0-.49,1.83,1.83,0,0,0-.16-.45.92.92,0,0,0-.28-.31.7.7,0,0,0-.4-.12.59.59,0,0,0-.34.1.58.58,0,0,0-.24.25,1.4,1.4,0,0,0-.13.36,1.92,1.92,0,0,0-.05.41,2.8,2.8,0,0,0,.05.48,1.91,1.91,0,0,0,.16.44,1,1,0,0,0,.29.33A.63.63,0,0,0,373.83,316.51Z" transform="translate(-264.62 -310.75)"/><path class="cls-1" d="M379.64,317.77a6.8,6.8,0,0,0,0-.52,2.46,2.46,0,0,1-.72.47,2.06,2.06,0,0,1-.73.14,1.52,1.52,0,0,1-.51-.08.81.81,0,0,1-.37-.26,1.11,1.11,0,0,1-.25-.44,2.19,2.19,0,0,1-.09-.66V314.8a1.24,1.24,0,0,0,0-.3.3.3,0,0,0-.08-.17.39.39,0,0,0-.19-.1l-.32-.07V314c.15,0,.29,0,.43-.06l.43-.06.4-.07.26-.07.07.06q0,.17,0,.36c0,.13,0,.26,0,.38s0,.24,0,.35,0,.21,0,.29v1a2.15,2.15,0,0,0,.06.55,1.2,1.2,0,0,0,.17.36.58.58,0,0,0,.25.19.79.79,0,0,0,.32.06,1.29,1.29,0,0,0,.5-.11,1.44,1.44,0,0,0,.47-.33V314.8a2.11,2.11,0,0,0,0-.3.39.39,0,0,0-.09-.17.38.38,0,0,0-.2-.1l-.36-.07,0-.21.47-.06.44-.06.41-.07.25-.07.07.06,0,.36c0,.13,0,.26,0,.38s0,.24,0,.35v1.87a2.16,2.16,0,0,0,0,.31.26.26,0,0,0,.09.17.51.51,0,0,0,.21.09,2.18,2.18,0,0,0,.38.07l0,.21-.42.05-.48.07-.42.07-.24.07Z" transform="translate(-264.62 -310.75)"/><path class="cls-1" d="M383.22,310.8a3.83,3.83,0,0,0-.05.41,3.44,3.44,0,0,0,0,.46c0,.15,0,.3,0,.44v4.82a1.87,1.87,0,0,0,0,.27.25.25,0,0,0,.1.15.41.41,0,0,0,.22.07,2.77,2.77,0,0,0,.39,0v.27h-2.28l0-.24a1.49,1.49,0,0,0,.37-.06.36.36,0,0,0,.22-.12.53.53,0,0,0,.1-.24c0-.11,0-.24,0-.42V312a1.37,1.37,0,0,0,0-.31.26.26,0,0,0-.09-.17.56.56,0,0,0-.22-.1l-.38-.07,0-.21.42-.09.46-.11.44-.09.3-.08Z" transform="translate(-264.62 -310.75)"/><path class="cls-1" d="M386.51,315.52a.41.41,0,0,0,0-.12v-.47a1,1,0,0,0-.17-.58.53.53,0,0,0-.44-.23.73.73,0,0,0-.29.07.75.75,0,0,0-.37.46,1.06,1.06,0,0,0,0,.31.56.56,0,0,1-.35.09.61.61,0,0,1-.3-.08.28.28,0,0,1-.14-.23.46.46,0,0,1,.08-.23l.23-.23.31-.21a2.91,2.91,0,0,1,.35-.18,2.33,2.33,0,0,1,.9-.2,1.56,1.56,0,0,1,.46.06.88.88,0,0,1,.33.18.86.86,0,0,1,.23.33,1.13,1.13,0,0,1,.08.47c0,.27,0,.59,0,.95s0,.74,0,1.16a.83.83,0,0,0,.08.42.29.29,0,0,0,.26.15.67.67,0,0,0,.35-.12l.13.22a1.28,1.28,0,0,1-.39.24,1.09,1.09,0,0,1-.46.1,1,1,0,0,1-.54-.13.69.69,0,0,1-.27-.39l-.21.14-.28.17a2.44,2.44,0,0,1-.35.15,1.16,1.16,0,0,1-.4.07,1.19,1.19,0,0,1-.46-.08,1,1,0,0,1-.32-.22.91.91,0,0,1-.2-.32,1,1,0,0,1-.08-.39.91.91,0,0,1,.21-.6,1.32,1.32,0,0,1,.53-.38,4.32,4.32,0,0,1,.63-.2A6.91,6.91,0,0,1,386.51,315.52Zm0,1.47v-.58c0-.2,0-.39,0-.58l-.32.05-.3.08a1.48,1.48,0,0,0-.29.12l-.24.18a.51.51,0,0,0-.17.39.73.73,0,0,0,.15.47.45.45,0,0,0,.36.18,1.14,1.14,0,0,0,.41-.07A1.37,1.37,0,0,0,386.5,317Z" transform="translate(-264.62 -310.75)"/><path class="cls-1" d="M390.81,317.73h-2.4l0-.24a1.49,1.49,0,0,0,.36-.06.31.31,0,0,0,.2-.12.53.53,0,0,0,.1-.24,2.49,2.49,0,0,0,0-.42v-1.74a1.24,1.24,0,0,0,0-.3.37.37,0,0,0-.08-.18.62.62,0,0,0-.2-.1l-.35-.06,0-.21.39-.08.45-.1c.17,0,.31-.07.42-.1l.26-.09.08.06c0,.14,0,.28,0,.42v.41a4.59,4.59,0,0,1,.4-.44,1.78,1.78,0,0,1,.33-.27.87.87,0,0,1,.27-.14,1.18,1.18,0,0,1,.25,0,.63.63,0,0,1,.33.09.32.32,0,0,1,.15.3.53.53,0,0,1-.13.31,1.42,1.42,0,0,1-.37.31,1,1,0,0,0-.25-.16.72.72,0,0,0-.29-.06.56.56,0,0,0-.35.14,1,1,0,0,0-.3.39,1,1,0,0,0,0,.14v1.78a1.06,1.06,0,0,0,0,.27.27.27,0,0,0,.11.15.58.58,0,0,0,.26.07l.47,0Z" transform="translate(-264.62 -310.75)"/></svg>