<svg id="Layer_1" data-name="Layer 1" xmlns="http://www.w3.org/2000/svg" viewBox="0 0 30 30"><defs><style>.cls-1{fill:#fff;}.cls-2{fill:#ffe2b1;}.cls-3{fill:#0f2a40;}.cls-4{fill:#fff0d9;}.cls-5{fill:#fdd486;}.cls-6{fill:#d5d3d4;}</style></defs><path class="cls-1" d="M22.62,30h.06c0-.31-.08-.62-.13-.92C22.58,29.38,22.61,29.69,22.62,30Z"/><path class="cls-1" d="M20.42,30h.15a4.06,4.06,0,0,0,.29-1.64A3.89,3.89,0,0,1,20.42,30Z"/><path class="cls-1" d="M28.05,5l.07,0h0Z"/><path class="cls-1" d="M20.8,5.43h0A4.77,4.77,0,0,1,20,5c.1-.45.17-.9.23-1.36,0-.27.06-.55.07-.84a7.61,7.61,0,0,0,0-.83,5.9,5.9,0,0,1-.06.83c0,.27-.09.55-.15.82s-.19.8-.32,1.2a5.13,5.13,0,0,1-1-1l-.05-.07c0-.37,0-.74,0-1.11a14.71,14.71,0,0,0-.1-1.49c0,.73-.15,2.22-.15,2.25a7.21,7.21,0,0,1-.67-1.57c0-.1,0-.21,0-.31A8.88,8.88,0,0,0,17.8,0h0a8.52,8.52,0,0,1,0,1c0,.11,0,.23,0,.34A9,9,0,0,1,17.48,0h-.22a8.06,8.06,0,0,0,2.52,5.59.79.79,0,0,0-.26-.12l-.3-.09c-.18-.07-.35-.15-.51-.23a6,6,0,0,1-.88-.52A5.15,5.15,0,0,1,15.63,0H9.14A9,9,0,0,1,6.27,1.18,8.69,8.69,0,0,1,.15,0H0V5a3.23,3.23,0,0,1,0,.44v7.76a4.32,4.32,0,0,1,3.39,2.32,7.42,7.42,0,0,1,.7,2c0,.15.06.31.08.47s.09.93.09,1.18A11.71,11.71,0,0,0,1.91,17q-.12-.36-.27-.72a4.52,4.52,0,0,0-.59-.94,3.77,3.77,0,0,0-.81-.74c-.07-.06-.15-.1-.22-.15H0v.09l.19.14a3.79,3.79,0,0,1,.72.78,4.17,4.17,0,0,1,.48.94,3.38,3.38,0,0,1,.11.34A5,5,0,0,0,0,16.13v.57a3.38,3.38,0,0,1,1,.42l.19.12,0,.05-.26.28c-.18.18-.35.36-.54.53L0,18.39v.24l.51-.36c.2-.16.39-.34.57-.51l.27-.27.09-.08a9.32,9.32,0,0,1,.76.65c.5.46.94,1.06,1.48,1.48h0C2.74,19,1.12,19.58.2,20l-.2.1v4.07l.86-.32A19,19,0,0,1,3.79,23a11.54,11.54,0,0,1,2.41-.32,3.93,3.93,0,0,1,.49,0,2.91,2.91,0,0,1,2.8,2.86c0,.09,0,.44,0,.5a5.06,5.06,0,0,0-1.4-1h0v0l0,0,0-.08L8,24.77a2.11,2.11,0,0,0-.2-.29,2.07,2.07,0,0,0-.5-.48A1.75,1.75,0,0,0,7,23.82l-.31-.14A2.41,2.41,0,0,0,6,23.56a2.28,2.28,0,0,1,.63.18,1.59,1.59,0,0,1,.29.15l.27.2a2.9,2.9,0,0,1,.43.49,2.69,2.69,0,0,1,.16.29l0,.05a3.38,3.38,0,0,0-.44-.18,5.06,5.06,0,0,0-2.8-.12A3.77,3.77,0,0,0,2.48,24a3.66,3.66,0,0,1,1.81.64c-.67.15-1.33.37-2,.57a5.73,5.73,0,0,0-1.82-.33A5.28,5.28,0,0,1,2,25.34l-.11,0c-.52.15-1,.29-1.58.4l-.2,0-.1,0V26c.29,0,.65-.07,1.08-.14a2,2,0,0,1-.51.34,2.13,2.13,0,0,0,.88-.4h0c.46-.09,1-.21,1.64-.38q.45-.12.93-.21l-.19.23-.35.4-.38.38a4.71,4.71,0,0,1-.41.35,4.84,4.84,0,0,0,.44-.3,4.87,4.87,0,0,0,.42-.35l.4-.36.2-.2.18-.2a7.32,7.32,0,0,1,2.24,0,4.72,4.72,0,0,1-.37.41c-.18.17-.36.33-.55.48s-.4.29-.6.42l-.16.09-.16.09-.17.07a.19.19,0,0,1-.08,0l-.09,0,.09,0,.09,0,.17-.07.17-.07.16-.08c.22-.11.43-.24.64-.37l.6-.45a3.94,3.94,0,0,0,.5-.5,4.49,4.49,0,0,1,1.73.77,4.42,4.42,0,0,1,.76.74l0,.05A15.33,15.33,0,0,1,8,27.86a9.39,9.39,0,0,1-3.6,1.66,6.3,6.3,0,0,1-1.05.14A8.35,8.35,0,0,1,0,29.15V30H17.86A5.71,5.71,0,0,1,18,26.86,9,9,0,0,1,20.12,23s.52-.38.51-.39a12.23,12.23,0,0,0,1.86,4.26A7.31,7.31,0,0,1,24.2,30h.54a2.21,2.21,0,0,0-.06-.39,5.83,5.83,0,0,1,3.8-.77c.51.08,1,.21,1.52.27V22.86a7.58,7.58,0,0,1-2.6-.07,9.69,9.69,0,0,1-3.6-1.66A11.51,11.51,0,0,1,22.45,20l.08-.09,0,0,.05-.06,0,0,.05,0,0,0,.05,0,0,0,.05,0,0,0,0,0,0,0,.05,0,0,0,.05,0,0,0,.05,0,0,0,.05,0,0,0,.05,0,0,0,.05,0,0,0,.06,0,0,0,.06,0,0,0,.07,0h0l.08,0h0l.09,0h0a3.7,3.7,0,0,1,.7-.26h0l.09,0h0l.1,0h0l.09,0h0l.1,0h0l.1,0h0l.1,0h.22a2.2,2.2,0,0,0,.06.37,2.28,2.28,0,0,0,.2.45,2.86,2.86,0,0,0,.65.69,3.86,3.86,0,0,0,.77.49,2.33,2.33,0,0,0,.86.22,2.21,2.21,0,0,1-.82-.31,4.63,4.63,0,0,1-.69-.55A2.42,2.42,0,0,1,26,19a1.39,1.39,0,0,1-.14-.71h.53l.35,0h.18l.34,0h0l.16,0h0l.33.05h0l.16,0h0l.32.07h0l.15,0h0l.15,0,.17.05h0l.14,0h0l.15,0h0l.16,0h0a1.13,1.13,0,0,0,.11.22,1.94,1.94,0,0,0,.23.26l.33.24v-.21c-.06-.06-.14-.11-.19-.17a1.25,1.25,0,0,1-.18-.24v0L30,19v-.31l-.12,0-.22-.06h0l-.21-.06h0l-.2-.06-.07,0-.05,0-.79-.24h0l-.22-.06.21-.09a4.68,4.68,0,0,1,.53-.17,5.29,5.29,0,0,1,.54-.13l.28-.05a1.22,1.22,0,0,1,.27,0,1.27,1.27,0,0,0-.28,0h-.28a5.27,5.27,0,0,0-.56,0l-.56.1a1.57,1.57,0,0,0-.29.08l-.14,0,0,0,0,0h0l0,0h0l-.09,0h0l-.08,0h0l-.07,0h0l-.07,0h0l-.2,0h0l-.08,0h-.32l-.19,0h-.93l-.2,0H25l-.2.05h0l-.09,0h0l-.08,0h0l-.08,0h0l-.1,0a4.29,4.29,0,0,1,1.74-1.5,4.43,4.43,0,0,0-2.36,1.77h0l-.18.1,0,0-.08.05,0,0-.26.16-.05,0-.06.05-.06,0-.08.06-.08.06-.05,0-.07.05,0,0-.08.06,0,0-.11.08,0,0-.07.06,0,0-.1.09a3.34,3.34,0,0,1,0-.5A3,3,0,0,1,25.55,16a12.34,12.34,0,0,1,2.42.31c.68.16,1.36.35,2,.58V12.43a2.41,2.41,0,0,0-2,0l-.12.08h0c.1-.08.17-.45.23-.57a6.89,6.89,0,0,1,.73-1.26,4.27,4.27,0,0,1,.87-.88L30,10V9.25a4.3,4.3,0,0,0-.93.59,2.3,2.3,0,0,1,.1-.51,2.5,2.5,0,0,1,.41-.75A2.59,2.59,0,0,1,30,8.19V8a2.58,2.58,0,0,0-.56.44,2.78,2.78,0,0,0-.53.77,2.17,2.17,0,0,0-.22.95h0a5.2,5.2,0,0,0-.35.44s-.87,1.29-.87,1.24l-.22.33c0-.11,0-.23,0-.35s.1-1,.11-1a7.79,7.79,0,0,1,.75-2.32A4.22,4.22,0,0,1,30,6.62V3.35a6.87,6.87,0,0,1-.85,1.24,6.26,6.26,0,0,1-7.83,1.64,12.72,12.72,0,0,0,2.74-.32h0l.06.06.06,0,.06.05.07,0,.06,0,.14.07a2.07,2.07,0,0,0,.42.14l.13,0a2.6,2.6,0,0,0,.56,0,2.54,2.54,0,0,0,.54-.09,2.44,2.44,0,0,1-.54,0,1.55,1.55,0,0,1-.31-.06l-.21-.06A2.28,2.28,0,0,1,24.64,6l-.11-.08-.05,0,0,0a12.25,12.25,0,0,0,1.95-.72,3,3,0,0,0,.43.12,2.26,2.26,0,0,0,.45,0,2.14,2.14,0,0,0,.44-.08l.11,0,.1-.07-.22,0a1.55,1.55,0,0,1-.43,0A1.82,1.82,0,0,1,26.65,5,9.4,9.4,0,0,0,30,2.23a23.59,23.59,0,0,1-2.27,1.69,1.16,1.16,0,0,0,0-.18c0-.1.07-.21.1-.32L28,3.11l-.16.29-.15.31L27.52,4h0a14.9,14.9,0,0,1-2.25,1.2,5,5,0,0,1,.32-1,4.08,4.08,0,0,1,.34-.57,1.87,1.87,0,0,1,.47-.46,2.1,2.1,0,0,0-.54.4,3.13,3.13,0,0,0-.42.54,4.54,4.54,0,0,0-.32.62,6.56,6.56,0,0,0-.23.62,7.27,7.27,0,0,1-1.72.43,3.36,3.36,0,0,1,.21-.66,4.31,4.31,0,0,1,.44-.7,4.61,4.61,0,0,1,.57-.6,5.29,5.29,0,0,1,.66-.51,5.27,5.27,0,0,0-.72.43,6.75,6.75,0,0,0-.64.56,4.57,4.57,0,0,0-.54.69,3.13,3.13,0,0,0-.33.82,2.6,2.6,0,0,1-1.25-.19,4.89,4.89,0,0,0,1.19-4.18A5.8,5.8,0,0,1,26.55.69,18.08,18.08,0,0,0,28.46,1,6.71,6.71,0,0,0,30,1V0H21.45C23.51,3.57,20.8,5.43,20.8,5.43ZM1.55,17.33h0Zm0-.27v0h0Zm7.67,9.81,0-.05ZM2.59,11.13A8.76,8.76,0,0,1,.71,7.08c.67.74,2.14.49,2.56.47a17.29,17.29,0,0,0,1.91-.32A5.9,5.9,0,0,1,9,8a4.87,4.87,0,0,0,1.19,4.17,2.32,2.32,0,0,1-1.05.19A1.43,1.43,0,0,0,8.91,12l-.15-.19-.14-.19c-.2-.24-.4-.47-.61-.69l-.67-.64c-.23-.2-.47-.39-.71-.57q.35.3.66.63t.6.69c.19.24.37.48.54.74l.13.19a1.18,1.18,0,0,1,.11.19.9.9,0,0,1,.12.24,8.05,8.05,0,0,1-3.09-.94,1.86,1.86,0,0,0-.11-.57,2.35,2.35,0,0,0-.25-.53l-.15-.24A1.88,1.88,0,0,0,5,9.85l-.35-.44c.1.16.2.32.29.48s.09.16.13.24l.12.26a2.42,2.42,0,0,1,.19.51,1.72,1.72,0,0,1,0,.39A21,21,0,0,1,1.78,8.78,8.44,8.44,0,0,0,3.63,10.6a2.83,2.83,0,0,1-1.17-.22,2.86,2.86,0,0,0,1.43.41A11.06,11.06,0,0,0,7,12.28l-.2.08a2.9,2.9,0,0,1-.6.11,4.14,4.14,0,0,1-.61,0,3.11,3.11,0,0,1-.61-.1H5a3,3,0,0,0,.6.18,3.18,3.18,0,0,0,.62.07,2.84,2.84,0,0,0,.65,0,1.4,1.4,0,0,0,.52-.2,12.18,12.18,0,0,0,3,.39A6.26,6.26,0,0,1,2.59,11.13Zm9.65,13.28a1.33,1.33,0,0,0-.14.19A4.48,4.48,0,0,1,10,26a3.9,3.9,0,0,0-1-2.74s0,0,0-.33a2.79,2.79,0,0,0,.58-.07,4.44,4.44,0,0,0,.62-.19,4.41,4.41,0,0,0,.59-.26,2.73,2.73,0,0,0,.52-.37,2.11,2.11,0,0,1-.55.31,3.19,3.19,0,0,1-.59.21,4.56,4.56,0,0,1-.62.13,2.57,2.57,0,0,1-.48,0,11.17,11.17,0,0,1,.65-1.43,1.5,1.5,0,0,0,1.19-.5A1.4,1.4,0,0,1,9.81,21c.22-.42.49-.91.83-1.51-.22.33-.46.65-.68,1v-.06a2.17,2.17,0,0,0,0-.26,2.17,2.17,0,0,1,0-.26,1.09,1.09,0,0,1,0-.26,1.17,1.17,0,0,0-.07.25c0,.09,0,.17-.05.26l0,.27v.24c-.19.28-.36.57-.52.86l-.2.39c0-.11,0-.23-.08-.34s-.1-.43-.14-.65-.07-.44-.09-.66a2.11,2.11,0,0,1,0-.66,3,3,0,0,0-.09.67c0,.22,0,.44,0,.67l.09.66c0,.22.06.43.08.65a5.59,5.59,0,0,0-.31.73h0a3.32,3.32,0,0,0-1.84-.6S6,20.54,10.05,16.45c0,0,1.22-1.25,1.18-1.91a6.38,6.38,0,0,1,.58.85,11.37,11.37,0,0,1,1.3,3.47A7.26,7.26,0,0,1,12.24,24.41Zm1.52-13.07a7,7,0,0,1-.88.51,4,4,0,0,1-.51.23c-.12.05-.31.09-.45.15l-.11.06a6.59,6.59,0,0,0,1.51-2,4.53,4.53,0,0,0,1-.83,4.4,4.4,0,0,0,.79-1.22,4.35,4.35,0,0,1-.72,1,3.8,3.8,0,0,1-.92.73,9.18,9.18,0,0,0,.77-2.61,3.67,3.67,0,0,0,.5-.69,3.67,3.67,0,0,0,.42-1.08,4.29,4.29,0,0,1-.42.86A3.19,3.19,0,0,1,14.3,7,12.05,12.05,0,0,0,14,2.93c0-.11,0-.21-.08-.32l.05.23a15.83,15.83,0,0,1,.2,3,9.17,9.17,0,0,1-1-1.6,10,10,0,0,0,.94,2A9.72,9.72,0,0,1,13.61,9a4,4,0,0,1-.81-2.23,4.14,4.14,0,0,0,.71,2.47,5.51,5.51,0,0,1-1.71,2.31c-.13-.29-.29-.54-.41-.8,0-.08-.07-.17-.11-.25a.65.65,0,0,1,0-.13s0-.08-.05-.13l0-.13,0-.13,0-.07V9.82l0-.13A5.82,5.82,0,0,1,11,8.58c0-.37.05-.74.09-1.11-.06.37-.12.74-.16,1.11a7.09,7.09,0,0,0,0,1.13l0,.14V10s0,.09,0,.14l0,.14a.74.74,0,0,0,0,.14.74.74,0,0,0,0,.14l.09.27c.13.3.28.59.38.87a5,5,0,0,1-.78.45h0L10.67,12c-.59-.49-2.89-2.79.5-6.78A12.22,12.22,0,0,0,13,1a6.35,6.35,0,0,0,.52.4,9,9,0,0,1,2.16,3.87A5.31,5.31,0,0,1,13.76,11.34Zm7.92-1.76c3.22,3.2,3.39,5,3.31,5.68a1,1,0,0,1-.06.26,2.84,2.84,0,0,0-1.31.3,3.43,3.43,0,0,0-.54.29l-.26-.62A3.06,3.06,0,0,0,23,15a3.16,3.16,0,0,0,.14-.68,3.77,3.77,0,0,0-.1-1.34,3.72,3.72,0,0,1,0,1.33,2.77,2.77,0,0,1-.19.62,1.91,1.91,0,0,1-.16.32l-.13-.32a9.09,9.09,0,0,0-.68-1.15c0-.28-.07-.55-.12-.82a4.18,4.18,0,0,0-.26-.85,3.61,3.61,0,0,1,.16.87,4.36,4.36,0,0,1,0,.51c-.6-.92-1.31-1.9-1.31-1.9.76,1.3,1.28,2.3,1.64,3a7,7,0,0,1-.79-.19,5.36,5.36,0,0,1-.94-.36,5.14,5.14,0,0,0,.9.47c.31.13.63.24,1,.34.19.39.32.69.41.92a2.09,2.09,0,0,1-.51.09h-.33l-.34-.05a4.2,4.2,0,0,1-.66-.21l-.66-.25.63.33a5.37,5.37,0,0,0,.65.29,2.25,2.25,0,0,0,.35.09,2.33,2.33,0,0,0,.37,0,3.23,3.23,0,0,0,.62,0l.09.24-.05,0a3.51,3.51,0,0,0-1,2.7,4.47,4.47,0,0,1-2.13-1.36,7.15,7.15,0,0,1-1-5.74A10.2,10.2,0,0,1,20.5,7.67l0,0a.84.84,0,0,0,0,.34A5.86,5.86,0,0,0,21.68,9.58Z"/><path class="cls-1" d="M20.45,25.82a10.82,10.82,0,0,1-1,1.6,15.76,15.76,0,0,1,.2-3c0-.15.05-.23.05-.23s-.06.21-.08.31a12.33,12.33,0,0,0-.29,4.11,4.15,4.15,0,0,1-.46-.56,3.85,3.85,0,0,1-.41-.87,3.82,3.82,0,0,0,.41,1.08,3.37,3.37,0,0,0,.5.69,7.34,7.34,0,0,0,.21,1h.26a10.49,10.49,0,0,1-.37-2.23A11,11,0,0,0,20.45,25.82Z"/><path class="cls-1" d="M18.59,30h0l-.07-.12Z"/><path class="cls-2" d="M11.81,15.39a6.38,6.38,0,0,0-.58-.85c0,.66-1.18,1.91-1.18,1.91C6,20.54,6.81,22.4,6.81,22.4a3.32,3.32,0,0,1,1.84.6h0A5.59,5.59,0,0,1,9,22.26c0-.22,0-.43-.08-.65L8.78,21c0-.23,0-.45,0-.67a3,3,0,0,1,.09-.67,2.11,2.11,0,0,0,0,.66q0,.33.09.66c0,.22.09.43.14.65s.05.23.08.34l.2-.39c.16-.29.33-.58.52-.86v-.24l0-.27c0-.09,0-.17.05-.26a1.17,1.17,0,0,1,.07-.25,1.09,1.09,0,0,0,0,.26,2.17,2.17,0,0,0,0,.26,2.17,2.17,0,0,1,0,.26v.06c.22-.33.46-.65.68-1-.34.6-.61,1.09-.83,1.51a1.4,1.4,0,0,0,1.08-.29,1.5,1.5,0,0,1-1.19.5,11.17,11.17,0,0,0-.65,1.43,2.57,2.57,0,0,0,.48,0,4.56,4.56,0,0,0,.62-.13,3.19,3.19,0,0,0,.59-.21,2.11,2.11,0,0,0,.55-.31,2.73,2.73,0,0,1-.52.37,4.41,4.41,0,0,1-.59.26,4.44,4.44,0,0,1-.62.19,2.79,2.79,0,0,1-.58.07c-.08.29,0,.33,0,.33A3.9,3.9,0,0,1,10,26,4.48,4.48,0,0,0,12.1,24.6a1.33,1.33,0,0,1,.14-.19,7.26,7.26,0,0,0,.87-5.55A11.37,11.37,0,0,0,11.81,15.39ZM8.66,22.85h0Z"/><path class="cls-3" d="M1.59,17.06v0h0Z"/><path class="cls-4" d="M.37,18.1c.19-.17.36-.35.54-.53l.26-.28,0-.05L1,17.12a3.38,3.38,0,0,0-1-.42v1.69Z"/><path class="cls-4" d="M3.67,19.53h0c-.54-.42-1-1-1.48-1.48a9.32,9.32,0,0,0-.76-.65l-.09.08-.27.27c-.18.17-.37.35-.57.51L0,18.63v1.51L.2,20C1.12,19.58,2.74,19,3.67,19.53Z"/><path class="cls-4" d="M0,14.44c.07.05.15.09.22.15a3.77,3.77,0,0,1,.81.74,4.52,4.52,0,0,1,.59.94q.15.36.27.72a11.71,11.71,0,0,1,2.35,2.22c0-.25-.06-.94-.09-1.18s0-.32-.08-.47a7.42,7.42,0,0,0-.7-2A4.32,4.32,0,0,0,0,13.19v1.24Z"/><path class="cls-4" d="M1.5,16.72a3.38,3.38,0,0,0-.11-.34,4.17,4.17,0,0,0-.48-.94,3.79,3.79,0,0,0-.72-.78L0,14.52v1.61A5,5,0,0,1,1.5,16.72Z"/><path class="cls-4" d="M6.27,1.18A9,9,0,0,0,9.14,0h-9A8.69,8.69,0,0,0,6.27,1.18Z"/><path class="cls-5" d="M3.31,29.66a6.3,6.3,0,0,0,1.05-.14A9.39,9.39,0,0,0,8,27.86a15.33,15.33,0,0,0,1.32-1.13l0-.05a4.42,4.42,0,0,0-.76-.74,4.49,4.49,0,0,0-1.73-.77,3.94,3.94,0,0,1-.5.5l-.6.45c-.21.13-.42.26-.64.37l-.16.08-.17.07-.17.07-.09,0-.09,0,.09,0a.19.19,0,0,0,.08,0l.17-.07.16-.09.16-.09q.3-.2.6-.42c.19-.15.37-.31.55-.48a4.72,4.72,0,0,0,.37-.41,7.32,7.32,0,0,0-2.24,0l-.18.2-.2.2-.4.36a4.87,4.87,0,0,1-.42.35,4.84,4.84,0,0,1-.44.3,4.71,4.71,0,0,0,.41-.35l.38-.38.35-.4L4,25.19q-.48.09-.93.21c-.63.17-1.18.29-1.64.38h0a2.13,2.13,0,0,1-.88.4,2,2,0,0,0,.51-.34C.65,25.92.29,26,0,26v3.16A8.35,8.35,0,0,0,3.31,29.66Z"/><path class="cls-5" d="M.1,25.83l.2,0c.53-.11,1.06-.25,1.58-.4l.11,0a5.28,5.28,0,0,0-1.52-.42,5.73,5.73,0,0,1,1.82.33c.67-.2,1.33-.42,2-.57A3.66,3.66,0,0,0,2.48,24a3.77,3.77,0,0,1,2.1.58,5.06,5.06,0,0,1,2.8.12,3.38,3.38,0,0,1,.44.18l0-.05a2.69,2.69,0,0,0-.16-.29,2.9,2.9,0,0,0-.43-.49l-.27-.2a1.59,1.59,0,0,0-.29-.15A2.28,2.28,0,0,0,6,23.56a2.41,2.41,0,0,1,.65.12l.31.14a1.75,1.75,0,0,1,.29.18,2.07,2.07,0,0,1,.5.48,2.11,2.11,0,0,1,.2.29l.09.15,0,.08,0,0v0h0a5.06,5.06,0,0,1,1.4,1c-.06-.06,0-.41,0-.5a2.91,2.91,0,0,0-2.8-2.86,3.93,3.93,0,0,0-.49,0A11.54,11.54,0,0,0,3.79,23a19,19,0,0,0-2.93.88L0,24.21v1.64Z"/><path class="cls-5" d="M10.42,12.77a12.18,12.18,0,0,1-3-.39,1.4,1.4,0,0,1-.52.2,2.84,2.84,0,0,1-.65,0,3.18,3.18,0,0,1-.62-.07,3,3,0,0,1-.6-.18H5a3.11,3.11,0,0,0,.61.1,4.14,4.14,0,0,0,.61,0,2.9,2.9,0,0,0,.6-.11l.2-.08a11.06,11.06,0,0,1-3.12-1.49,2.86,2.86,0,0,1-1.43-.41,2.83,2.83,0,0,0,1.17.22A8.44,8.44,0,0,1,1.78,8.78a21,21,0,0,0,3.67,2.51,1.72,1.72,0,0,0,0-.39,2.42,2.42,0,0,0-.19-.51l-.12-.26c0-.08-.08-.16-.13-.24s-.19-.32-.29-.48L5,9.85a1.88,1.88,0,0,1,.16.23l.15.24a2.35,2.35,0,0,1,.25.53,1.86,1.86,0,0,1,.11.57,8.05,8.05,0,0,0,3.09.94.9.9,0,0,0-.12-.24,1.18,1.18,0,0,0-.11-.19l-.13-.19c-.17-.26-.35-.5-.54-.74s-.39-.47-.6-.69-.43-.43-.66-.63c.24.18.48.37.71.57l.67.64c.21.22.41.45.61.69l.14.19.15.19a1.43,1.43,0,0,1,.21.41,2.32,2.32,0,0,0,1.05-.19A4.87,4.87,0,0,1,9,8a5.9,5.9,0,0,0-3.8-.78,17.29,17.29,0,0,1-1.91.32c-.42,0-1.89.27-2.56-.47a8.76,8.76,0,0,0,1.88,4.05A6.26,6.26,0,0,0,10.42,12.77ZM5,12.69H5Z"/><polygon class="cls-5" points="4.98 12.69 4.99 12.69 4.99 12.69 4.98 12.69"/><path class="cls-2" d="M13.55,1.39A6.35,6.35,0,0,1,13,1a12.22,12.22,0,0,1-1.86,4.27c-3.39,4-1.09,6.29-.5,6.78l.11.09h0a5,5,0,0,0,.78-.45c-.1-.28-.25-.57-.38-.87l-.09-.27a.74.74,0,0,1,0-.14.74.74,0,0,1,0-.14l0-.14c0-.05,0-.09,0-.14V9.85l0-.14a7.09,7.09,0,0,1,0-1.13c0-.37.1-.74.16-1.11,0,.37-.08.74-.09,1.11a5.82,5.82,0,0,0,.06,1.11l0,.13v.07l0,.07,0,.13,0,.13s0,.09.05.13a.65.65,0,0,0,0,.13c0,.08.07.17.11.25.12.26.28.51.41.8a5.51,5.51,0,0,0,1.71-2.31,4.14,4.14,0,0,1-.71-2.47A4,4,0,0,0,13.61,9a9.72,9.72,0,0,0,.55-2.82,10,10,0,0,1-.94-1.95,9.17,9.17,0,0,0,1,1.6,15.83,15.83,0,0,0-.2-3l-.05-.23c0,.11.06.21.08.32A12.05,12.05,0,0,1,14.3,7a3.19,3.19,0,0,0,.46-.57,4.29,4.29,0,0,0,.42-.86,3.67,3.67,0,0,1-.42,1.08,3.67,3.67,0,0,1-.5.69A9.18,9.18,0,0,1,13.49,10a3.8,3.8,0,0,0,.92-.73,4.35,4.35,0,0,0,.72-1,4.4,4.4,0,0,1-.79,1.22,4.53,4.53,0,0,1-1,.83,6.59,6.59,0,0,1-1.51,2l.11-.06c.14-.06.33-.1.45-.15a4,4,0,0,0,.51-.23,7,7,0,0,0,.88-.51,5.31,5.31,0,0,0,2-6.08A9,9,0,0,0,13.55,1.39Z"/><path class="cls-5" d="M0,5v.44A3.23,3.23,0,0,0,0,5Z"/><path class="cls-4" d="M28.46,1A18.08,18.08,0,0,1,26.55.69a5.8,5.8,0,0,0-3.79.77,4.89,4.89,0,0,1-1.19,4.18,2.6,2.6,0,0,0,1.25.19A3.13,3.13,0,0,1,23.15,5a4.57,4.57,0,0,1,.54-.69,6.75,6.75,0,0,1,.64-.56,5.27,5.27,0,0,1,.72-.43,5.29,5.29,0,0,0-.66.51,4.61,4.61,0,0,0-.57.6,4.31,4.31,0,0,0-.44.7,3.36,3.36,0,0,0-.21.66,7.27,7.27,0,0,0,1.72-.43,6.56,6.56,0,0,1,.23-.62,4.54,4.54,0,0,1,.32-.62,3.13,3.13,0,0,1,.42-.54,2.1,2.1,0,0,1,.54-.4,1.87,1.87,0,0,0-.47.46,4.08,4.08,0,0,0-.34.57,5,5,0,0,0-.32,1A14.9,14.9,0,0,0,27.52,4h0l.12-.32.15-.31L28,3.11l-.12.31c0,.11-.07.22-.1.32a1.16,1.16,0,0,1,0,.18A23.59,23.59,0,0,0,30,2.23,9.4,9.4,0,0,1,26.65,5a1.82,1.82,0,0,0,.62.15,1.55,1.55,0,0,0,.43,0l.22,0L28,5l-.1,0-.1.07-.11,0a2.14,2.14,0,0,1-.44.08,2.26,2.26,0,0,1-.45,0,3,3,0,0,1-.43-.12,12.25,12.25,0,0,1-1.95.72l0,0,.05,0,.11.08a2.28,2.28,0,0,0,.47.23l.21.06a1.55,1.55,0,0,0,.31.06,2.44,2.44,0,0,0,.54,0,2.54,2.54,0,0,1-.54.09,2.6,2.6,0,0,1-.56,0l-.13,0a2.07,2.07,0,0,1-.42-.14l-.14-.07-.06,0-.07,0L24.19,6l-.06,0-.06-.06h0a12.72,12.72,0,0,1-2.74.32,6.26,6.26,0,0,0,7.83-1.64A6.87,6.87,0,0,0,30,3.35V1A6.71,6.71,0,0,1,28.46,1Zm-.41,4,.07,0h0Z"/><path class="cls-3" d="M20.51,7.81a.83.83,0,0,0,0,.15.84.84,0,0,1,0-.34l0,0h0A.76.76,0,0,0,20.51,7.81Z"/><path class="cls-6" d="M29.62,18.9v0a1.25,1.25,0,0,0,.18.24c.05.06.13.11.19.17V19Z"/><path class="cls-4" d="M29.67,19.31a1.94,1.94,0,0,1-.23-.26,1.13,1.13,0,0,1-.11-.22h0l-.16,0h0l-.15,0h0l-.14,0h0l-.17-.05-.15,0h0l-.15,0h0L28,18.5h0l-.16,0h0l-.33-.05h0l-.16,0h0l-.34,0h-.18l-.35,0h-.53A1.39,1.39,0,0,0,26,19a2.42,2.42,0,0,0,.52.68,4.63,4.63,0,0,0,.69.55,2.21,2.21,0,0,0,.82.31,2.33,2.33,0,0,1-.86-.22,3.86,3.86,0,0,1-.77-.49,2.86,2.86,0,0,1-.65-.69,2.28,2.28,0,0,1-.2-.45,2.2,2.2,0,0,1-.06-.37h-.22l-.1,0h0l-.1,0h0l-.1,0h0l-.09,0h0l-.1,0h0l-.09,0h0a3.7,3.7,0,0,0-.7.26h0l-.09,0h0l-.08,0h0l-.07,0,0,0-.06,0,0,0-.06,0,0,0-.05,0,0,0-.05,0,0,0-.05,0,0,0-.05,0,0,0-.05,0,0,0-.05,0,0,0,0,0,0,0-.05,0,0,0-.05,0,0,0-.05,0,0,0-.05.06,0,0-.08.09a11.51,11.51,0,0,0,1.35,1.18,9.69,9.69,0,0,0,3.6,1.66,7.58,7.58,0,0,0,2.6.07V19.55Z"/><path class="cls-4" d="M25.55,16a3,3,0,0,0-3.28,2.88,3.34,3.34,0,0,0,0,.5l.1-.09,0,0,.07-.06,0,0,.11-.08,0,0,.08-.06,0,0,.07-.05.05,0,.08-.06.08-.06.06,0,.06-.05.05,0,.26-.16,0,0,.08-.05,0,0,.18-.1h0a4.43,4.43,0,0,1,2.36-1.77A4.29,4.29,0,0,0,24.39,18l.1,0h0l.08,0h0l.08,0h0l.09,0h0l.2-.05h.32l.2,0h.93l.19,0H27l.08,0h0l.2,0h0l.07,0h0l.07,0h0l.08,0h0l.09,0h0l0,0h0l0,0,0,0,.14,0a1.57,1.57,0,0,1,.29-.08l.56-.1a5.27,5.27,0,0,1,.56,0h.28a1.27,1.27,0,0,1,.28,0,1.22,1.22,0,0,0-.27,0l-.28.05a5.29,5.29,0,0,0-.54.13,4.68,4.68,0,0,0-.53.17l-.21.09.22.06h0l.79.24.05,0,.07,0,.2.06h0l.21.06h0l.22.06.12,0V16.85c-.67-.23-1.35-.42-2-.58A12.34,12.34,0,0,0,25.55,16Z"/><path class="cls-4" d="M29.69,9.8a4.27,4.27,0,0,0-.87.88,6.89,6.89,0,0,0-.73,1.26c-.06.12-.13.49-.23.57h0l.12-.08a2.41,2.41,0,0,1,2,0V10Z"/><path class="cls-4" d="M28.14,8.48a7.79,7.79,0,0,0-.75,2.32c0,.06-.09.79-.11,1s0,.24,0,.35l.22-.33c0,.05.87-1.24.87-1.24a5.2,5.2,0,0,1,.35-.44h0a2.17,2.17,0,0,1,.22-.95,2.78,2.78,0,0,1,.53-.77A2.58,2.58,0,0,1,30,8V6.62A4.22,4.22,0,0,0,28.14,8.48Z"/><path class="cls-4" d="M29.58,8.58a2.5,2.5,0,0,0-.41.75,2.3,2.3,0,0,0-.1.51A4.3,4.3,0,0,1,30,9.25V8.19A2.59,2.59,0,0,0,29.58,8.58Z"/><path class="cls-5" d="M24.68,29.61a2.21,2.21,0,0,1,.06.39H30v-.89c-.51-.06-1-.19-1.52-.27A5.83,5.83,0,0,0,24.68,29.61Z"/><path class="cls-2" d="M20.63,22.6s-.48.37-.51.39A9,9,0,0,0,18,26.86,5.71,5.71,0,0,0,17.86,30h.73l-.06-.12.07.12h1a7.34,7.34,0,0,1-.21-1,3.37,3.37,0,0,1-.5-.69,3.82,3.82,0,0,1-.41-1.08,3.85,3.85,0,0,0,.41.87,4.15,4.15,0,0,0,.46.56,12.33,12.33,0,0,1,.29-4.11c0-.1.05-.21.08-.31s0,.08-.05.23a15.76,15.76,0,0,0-.2,3,10.82,10.82,0,0,0,1-1.6,11,11,0,0,1-.95,1.95A10.49,10.49,0,0,0,19.87,30h.55a3.89,3.89,0,0,0,.44-1.64A4.06,4.06,0,0,1,20.57,30h2.05c0-.31,0-.62-.07-.92.05.3.1.61.13.92H24.2a7.31,7.31,0,0,0-1.71-3.14A12.23,12.23,0,0,1,20.63,22.6Z"/><path class="cls-5" d="M20.51,7.81a.76.76,0,0,1,0-.15h0A10.2,10.2,0,0,0,18.63,12a7.15,7.15,0,0,0,1,5.74,4.47,4.47,0,0,0,2.13,1.36,3.51,3.51,0,0,1,1-2.7l.05,0-.09-.24a3.23,3.23,0,0,1-.62,0,2.33,2.33,0,0,1-.37,0,2.25,2.25,0,0,1-.35-.09,5.37,5.37,0,0,1-.65-.29l-.63-.33.66.25a4.2,4.2,0,0,0,.66.21l.34.05h.33a2.09,2.09,0,0,0,.51-.09c-.09-.23-.22-.53-.41-.92-.32-.1-.64-.21-1-.34a5.14,5.14,0,0,1-.9-.47,5.36,5.36,0,0,0,.94.36,7,7,0,0,0,.79.19c-.36-.73-.88-1.73-1.64-3,0,0,.71,1,1.31,1.9a4.36,4.36,0,0,0,0-.51,3.61,3.61,0,0,0-.16-.87,4.18,4.18,0,0,1,.26.85c.05.27.09.54.12.82a9.09,9.09,0,0,1,.68,1.15l.13.32a1.91,1.91,0,0,0,.16-.32,2.77,2.77,0,0,0,.19-.62,3.72,3.72,0,0,0,0-1.33,3.77,3.77,0,0,1,.1,1.34A3.16,3.16,0,0,1,23,15a3.06,3.06,0,0,1-.22.49l.26.62a3.43,3.43,0,0,1,.54-.29,2.84,2.84,0,0,1,1.31-.3,1,1,0,0,0,.06-.26c.08-.65-.09-2.48-3.31-5.68A5.86,5.86,0,0,1,20.55,8,.83.83,0,0,1,20.51,7.81Z"/><path class="cls-2" d="M17.74,1a8.52,8.52,0,0,0,0-1h-.29a9,9,0,0,0,.22,1.35C17.72,1.24,17.73,1.12,17.74,1Z"/><path class="cls-2" d="M17.83,4.63a6,6,0,0,0,.88.52c.16.08.33.16.51.23l.3.09a.79.79,0,0,1,.26.12A8.06,8.06,0,0,1,17.26,0H15.63A5.15,5.15,0,0,0,17.83,4.63Z"/><path class="cls-2" d="M17.84,1.46c0,.1,0,.21,0,.31a7.21,7.21,0,0,0,.67,1.57s.16-1.52.15-2.25a14.71,14.71,0,0,1,.1,1.49v0c0,.37,0,.74,0,1.11l.05.07a5.13,5.13,0,0,0,1,1c.13-.4.23-.8.32-1.2s.11-.55.15-.82a5.9,5.9,0,0,0,.06-.83,7.61,7.61,0,0,1,0,.83c0,.29,0,.57-.07.84-.06.46-.13.91-.23,1.36a4.77,4.77,0,0,0,.8.46h0s2.71-1.86.65-5.43H17.8A8.88,8.88,0,0,1,17.84,1.46Z"/></svg>