<svg id="Layer_1" data-name="Layer 1" xmlns="http://www.w3.org/2000/svg" viewBox="0 0 402.22 402.22"><defs><style>.cls-1{fill:none;}</style></defs><rect class="cls-1" x="118.85" y="119.19" width="89.03" height="70.7"/><rect class="cls-1" x="118.85" y="207.99" width="89.03" height="93.18"/><path class="cls-1" d="M421.13,80H77.34V423.82H421.13ZM351.75,352H337.5L275.45,204.81V352H146.72V151.9H256v0h15.44l0,.12,60.81,144.5V151.87h19.45Z" transform="translate(-48.12 -50.81)"/><path d="M48.12,453H450.35V50.81H48.12ZM77.34,80H421.13V423.82H77.34Z" transform="translate(-48.12 -50.81)"/><path d="M332.3,296.49,271.49,152l0-.12H256v0H146.72V352H167V258.8h89V352h19.44V204.81L337.5,352h14.25V151.87H332.3ZM256,240.7H167V170h89Z" transform="translate(-48.12 -50.81)"/></svg>