<svg id="Layer_1" data-name="Layer 1" xmlns="http://www.w3.org/2000/svg" viewBox="0 0 29.47 10.85"><defs><style>.cls-1{fill:#2c3f91;}.cls-2{fill:#e85114;}</style></defs><path class="cls-1" d="M29.8,10.53l-.09-.09a1.78,1.78,0,0,0-2.33,0L27,10.8a1.21,1.21,0,0,1-1.58,0L25,10.44a1.63,1.63,0,0,0-.8-.39v0L24,10H23.9a1.68,1.68,0,0,0-1.21.43l-.39.36a1.21,1.21,0,0,1-1.58,0l-.39-.36a1.78,1.78,0,0,0-2.33,0l-.39.36a1.2,1.2,0,0,1-1.4.13.83.83,0,0,1-.15-.11l-.4-.36-.26-.2a1.79,1.79,0,0,0-2.09.18l-.39.36a1.21,1.21,0,0,1-1.39.13.74.74,0,0,1-.16-.11l-.4-.36a1.5,1.5,0,0,0-.25-.19A1.81,1.81,0,0,0,9.84,10H9.75l0,0a1.74,1.74,0,0,0-1.08.44l-.4.36a1.21,1.21,0,0,1-1.58,0l-.39-.36a1.76,1.76,0,0,0-2.32,0l-.4.36a1.21,1.21,0,0,1-1.58,0l-.39-.36A1.7,1.7,0,0,0,.4,10v.55a1.2,1.2,0,0,1,.82.29l.39.36a1.78,1.78,0,0,0,2.33,0l.39-.36a1.21,1.21,0,0,1,1.58,0l.39.36a1.72,1.72,0,0,0,1.16.43,1.74,1.74,0,0,0,1.17-.43L9,10.87a1.22,1.22,0,0,1,1.4-.13h0l.1.08.43.38a1.57,1.57,0,0,0,.26.19,1.77,1.77,0,0,0,2.09-.17l.39-.36a1.21,1.21,0,0,1,1.39-.13.5.5,0,0,1,.16.11l.4.36a1.28,1.28,0,0,0,.22.17h0l.16.09a1.7,1.7,0,0,0,.57.17h.12A1.74,1.74,0,0,0,18,11.21l.4-.36a1.21,1.21,0,0,1,1.58,0l.39.36a1.76,1.76,0,0,0,2.32,0l.4-.36a1.19,1.19,0,0,1,.92-.28,1.23,1.23,0,0,1,.66.28l.39.36a1.78,1.78,0,0,0,2.33,0l.39-.36a1.21,1.21,0,0,1,1.58,0l.46.42Z" transform="translate(-0.33 -10)"/><polygon class="cls-2" points="2.18 10.73 0.13 8.67 1.32 7.47 0 6.14 2.28 3.85 2.43 4 0.3 6.14 1.62 7.47 0.43 8.67 2.33 10.58 2.18 10.73"/><polygon class="cls-2" points="10.87 10.67 10.71 10.52 12.62 8.6 11.43 7.41 12.75 6.08 10.62 3.93 10.77 3.78 13.05 6.08 11.73 7.41 12.92 8.6 10.87 10.67"/><path class="cls-2" d="M8.62,20.72l-1.78-1.8-1.78,1.8L3.5,19l1.71-1.72L3.5,15.55l1.63-1.64,1.71,1.72,1.72-1.72,1.63,1.64L8.47,17.28,10.18,19ZM3.79,19l1.28,1.4,1.77-1.79,1.78,1.79L9.89,19,8.17,17.28l1.72-1.73L8.56,14.21,6.84,15.93,5.13,14.21,3.8,15.55l1.71,1.73Z" transform="translate(-0.33 -10)"/><rect class="cls-2" x="3.51" y="10.39" width="0.28" height="0.28"/><rect class="cls-2" x="2.57" y="9.52" width="0.28" height="0.28"/><rect class="cls-2" x="1.59" y="8.53" width="0.28" height="0.28"/><rect class="cls-2" x="2.27" y="7.71" width="0.28" height="0.28"/><rect class="cls-2" x="2.87" y="7.24" width="0.28" height="0.28"/><rect class="cls-2" x="2.19" y="6.5" width="0.28" height="0.28"/><rect class="cls-2" x="1.59" y="5.66" width="0.28" height="0.28"/><rect class="cls-2" x="2.57" y="4.76" width="0.28" height="0.28"/><rect class="cls-2" x="3.47" y="3.84" width="0.28" height="0.28"/><rect class="cls-2" x="9.26" y="10.57" width="0.28" height="0.28"/><rect class="cls-2" x="10.2" y="9.7" width="0.28" height="0.28"/><rect class="cls-2" x="11.18" y="8.72" width="0.28" height="0.28"/><rect class="cls-2" x="10.5" y="7.89" width="0.28" height="0.28"/><rect class="cls-2" x="9.9" y="7.43" width="0.28" height="0.28"/><rect class="cls-2" x="10.58" y="6.68" width="0.28" height="0.28"/><rect class="cls-2" x="11.18" y="5.85" width="0.28" height="0.28"/><rect class="cls-2" x="10.2" y="4.94" width="0.28" height="0.28"/><rect class="cls-2" x="9.3" y="4.02" width="0.28" height="0.28"/><rect class="cls-2" x="5.54" y="17.22" width="2.28" height="0.21" transform="translate(-10.66 -0.13) rotate(-45.24)"/><rect class="cls-2" x="6.5" y="16.35" width="0.21" height="2.18" transform="translate(-10.7 -0.28) rotate(-44.79)"/><polygon class="cls-2" points="13.52 10.52 13.36 10.38 16.02 7.26 13.35 3.93 13.52 3.8 16.3 7.27 13.52 10.52"/><polygon class="cls-2" points="16.08 10.52 13.3 7.27 16.08 3.8 16.24 3.93 13.58 7.26 16.24 10.38 16.08 10.52"/><polygon class="cls-2" points="18.71 10.67 16.43 8.37 17.74 7.04 16.56 5.85 18.61 3.78 18.76 3.93 16.86 5.85 18.04 7.04 16.73 8.37 18.86 10.52 18.71 10.67"/><polygon class="cls-2" points="27.19 10.73 27.04 10.58 29.17 8.43 27.86 7.11 29.04 5.91 27.14 4 27.29 3.85 29.34 5.91 28.16 7.11 29.47 8.43 27.19 10.73"/><path class="cls-2" d="M25,20.61l-1.71-1.72-1.71,1.72L19.92,19l1.72-1.73-1.71-1.72,1.56-1.72,1.78,1.8,1.78-1.8,1.56,1.72L24.9,17.24,26.61,19ZM20.22,19l1.34,1.34,1.71-1.73L25,20.31,26.31,19,24.6,17.24l1.72-1.73L25,14.11,23.27,15.9l-1.78-1.79-1.27,1.4,1.72,1.73Z" transform="translate(-0.33 -10)"/><rect class="cls-2" x="19.94" y="3.84" width="0.28" height="0.28"/><rect class="cls-2" x="19" y="4.72" width="0.28" height="0.28"/><rect class="cls-2" x="18.02" y="5.7" width="0.28" height="0.28"/><rect class="cls-2" x="18.7" y="6.52" width="0.28" height="0.28"/><rect class="cls-2" x="19.3" y="6.99" width="0.28" height="0.28"/><rect class="cls-2" x="18.62" y="7.74" width="0.28" height="0.28"/><rect class="cls-2" x="18.02" y="8.57" width="0.28" height="0.28"/><rect class="cls-2" x="19" y="9.48" width="0.28" height="0.28"/><rect class="cls-2" x="19.9" y="10.39" width="0.28" height="0.28"/><rect class="cls-2" x="25.68" y="3.66" width="0.28" height="0.28"/><rect class="cls-2" x="26.63" y="4.53" width="0.28" height="0.28"/><rect class="cls-2" x="27.61" y="5.52" width="0.28" height="0.28"/><rect class="cls-2" x="26.93" y="6.34" width="0.28" height="0.28"/><rect class="cls-2" x="26.33" y="6.8" width="0.28" height="0.28"/><rect class="cls-2" x="27" y="7.55" width="0.28" height="0.28"/><rect class="cls-2" x="27.61" y="8.39" width="0.28" height="0.28"/><rect class="cls-2" x="26.63" y="9.29" width="0.28" height="0.28"/><rect class="cls-2" x="25.73" y="10.21" width="0.28" height="0.28"/><rect class="cls-2" x="23" y="16.05" width="0.21" height="2.28" transform="translate(-5.74 11.27) rotate(-44.79)"/><rect class="cls-2" x="21.95" y="16.97" width="2.18" height="0.21" transform="translate(-5.65 11.41) rotate(-45.24)"/></svg>