<svg id="Layer_1" data-name="Layer 1" xmlns="http://www.w3.org/2000/svg" viewBox="0 0 29.07 12.01"><defs><style>.cls-1{fill:#164284;}.cls-2{fill:#f6a400;}.cls-3{fill:#e85114;}.cls-4{fill:#fff;}.cls-5{fill:#d0850c;}.cls-6{fill:#1d1e1c;}</style></defs><polygon class="cls-1" points="11.1 10.59 9.94 11.84 11.07 11.74 11.59 11.14 12.16 11.74 13.06 11.74 10.98 9.26 10.4 9.79 11.1 10.59"/><rect class="cls-2" x="9.45" y="2.71" width="1.94" height="0.44"/><path class="cls-3" d="M6.66,14.7h0l0,0L1.17,20l7.55-.13,5.18-4.72v-2l-1.81-1.81h-2Zm3.77-3H11.9l1.58,1.67V15l0,0-4.74,4.3h0l-.07.05-3.05.07H5.49l-.84,0h0l-2.38.05,3.18-3,.11-.11.26-.25,0,0Z" transform="translate(-0.64 -8.11)"/><polygon class="cls-3" points="5.57 11.17 7.97 11.12 7.97 8.85 5.57 8.85 5.57 11.17"/><polygon class="cls-1" points="4.96 11.19 5.46 11.17 5.46 8.73 8.09 8.73 8.09 11.02 8.41 10.72 8.41 8.07 5.25 8.07 4.92 8.39 4.96 11.19"/><polygon class="cls-1" points="1.93 11.25 3.87 11.21 2.8 10.41 1.93 11.25"/><polygon class="cls-2" points="9.99 8.39 9.99 8.5 10.1 8.39 9.99 8.39"/><polygon class="cls-2" points="10.61 7.93 10.61 7.62 9.99 7.62 9.99 8.28 10.22 8.28 10.61 7.93"/><polygon class="cls-2" points="9.19 9.25 9.66 8.8 9.88 8.6 9.88 8.39 9.19 8.39 9.19 9.25"/><polygon class="cls-2" points="9.88 5.15 9.36 5.15 9.18 5.32 9.18 5.78 9.88 5.78 9.88 5.15"/><rect class="cls-2" x="9.18" y="5.89" width="0.69" height="0.81"/><polygon class="cls-2" points="9.88 4.65 9.48 5.04 9.88 5.04 9.88 4.65"/><polygon class="cls-2" points="9.88 7.51 9.88 6.81 9.18 6.81 9.18 7.5 9.18 7.51 9.19 7.51 9.88 7.51"/><polygon class="cls-2" points="10.61 4.34 10.21 4.33 9.99 4.54 9.99 5.04 10.61 5.04 10.61 4.34"/><rect class="cls-2" x="9.99" y="6.81" width="0.62" height="0.69"/><rect class="cls-2" x="10.72" y="5.89" width="0.73" height="0.81"/><polygon class="cls-2" points="10.72 7.62 10.72 7.83 10.94 7.62 10.72 7.62"/><polygon class="cls-2" points="11.45 7.16 11.45 6.81 10.72 6.81 10.72 7.51 11.06 7.51 11.45 7.16"/><rect class="cls-2" x="9.99" y="5.89" width="0.62" height="0.81"/><rect class="cls-2" x="9.99" y="5.15" width="0.62" height="0.63"/><polygon class="cls-2" points="9.88 8.28 9.88 7.62 9.19 7.62 9.18 7.62 9.18 8.28 9.19 8.28 9.88 8.28"/><polygon class="cls-2" points="7.47 7.5 7.47 6.98 6.93 7.5 7.47 7.5"/><polygon class="cls-2" points="11.56 6.81 11.56 7.05 11.82 6.81 11.56 6.81"/><polygon class="cls-2" points="12.14 5.49 11.79 5.15 11.56 5.15 11.56 5.78 12.14 5.78 12.14 5.49"/><path class="cls-1" d="M9.16,18.73l4.21-3.82v-1.5L11.85,11.8H10.47L6,16.07H9.16Zm-.14-3H7.29l.11-.1.7-.69h0l.12-.11.67-.65L9,14.05l0,0,.12-.12.53-.51.11-.11h0l.12-.11.56-.55.12-.11.17-.16h.85l.43.42.12.11.28.27.11.11.31.29v1.12l-.15.14-.13.11-.42.4-.12.1-.21.2-.12.11-.39.36-.12.1-.21.2-.12.11-.28.26-.12.11-.15.14-.54.52-.11.1v-1.9H9Z" transform="translate(-0.64 -8.11)"/><polygon class="cls-2" points="12.14 6.51 12.14 5.89 11.56 5.89 11.56 6.7 11.94 6.7 12.14 6.51"/><rect class="cls-2" x="10.72" y="5.15" width="0.73" height="0.63"/><polygon class="cls-4" points="11.56 4.93 11.56 5.04 11.67 5.04 11.56 4.93"/><rect class="cls-2" x="8.38" y="6.81" width="0.69" height="0.68"/><polygon class="cls-2" points="9.07 5.43 8.71 5.78 9.07 5.78 9.07 5.43"/><polygon class="cls-2" points="8.26 6.7 8.26 6.21 7.76 6.7 8.26 6.7"/><polygon class="cls-2" points="11.45 4.82 10.96 4.36 10.72 4.35 10.72 5.04 11.45 5.04 11.45 4.82"/><polygon class="cls-2" points="7.58 6.87 7.58 7.5 8.26 7.5 8.26 6.81 7.64 6.81 7.58 6.87"/><polygon class="cls-2" points="9.07 5.89 8.59 5.89 8.38 6.1 8.38 6.7 9.07 6.7 9.07 5.89"/><polygon class="cls-1" points="4.34 8.94 4.37 11.2 4.85 11.19 4.81 8.49 4.34 8.94"/><polygon class="cls-1" points="2.89 10.33 4.05 11.2 4.26 11.2 4.23 9.05 2.89 10.33"/><path class="cls-4" d="M5.82,16.09l-.26.25-.11.11-3.18,3,2.38-.05h0l.84,0H5.6l3.05-.07.07-.05h0L13.46,15l0,0v-1.6L11.9,11.69H10.43L5.84,16.07ZM2.56,19.36l.88-.84,1.06.8Zm2.13-.05-1.17-.87,1.34-1.28,0,2.15Zm.32,0,0-2.26.47-.45,0,2.7Zm3.6-.08-2.4.05V17h2.4Zm1.86-7.43h1.38l1.52,1.61v1.5L9.16,18.73V16.07H6ZM9.05,16.18v2.65l-.33.3V16.84H6.09v2.44l-.49,0,0-2.8.33-.32Z" transform="translate(-0.64 -8.11)"/><rect class="cls-3" x="9.45" y="2.2" width="1.94" height="0.39"/><polygon class="cls-2" points="0.56 7.3 3.75 7.3 4.45 6.48 1.19 6.48 0.56 7.3"/><path class="cls-5" d="M13.69,9.66l-2.21-1.4L10.05,9.67v.56h2V9.66ZM12.13,9h0v0h0Z" transform="translate(-0.64 -8.11)"/><rect class="cls-1" x="11.46" y="0.91" width="0.15" height="0.15"/><polygon class="cls-2" points="3.78 1.77 3.78 4.73 3.78 4.75 4.52 5.61 4.52 5.6 4.52 2.67 3.78 1.77"/><polygon class="cls-1" points="5.24 5.97 5.19 5.92 5.19 2.71 4.63 2.71 4.63 5.74 4.63 5.82 4.55 5.82 1.22 5.82 1.22 6.37 4.6 6.37 4.66 6.42 5.44 6.99 5.86 6.58 5.24 5.97"/><polygon class="cls-2" points="4.45 5.71 3.71 4.84 0.29 4.87 1.18 5.71 4.45 5.71"/><polygon class="cls-2" points="6.12 1.74 5.3 2.68 5.3 5.77 6.12 5.03 6.12 1.74"/><polygon class="cls-6" points="6.02 6.59 5.99 6.62 6.02 6.59 6.02 6.59"/><polygon class="cls-6" points="11.61 3.27 11.51 3.17 11.61 3.27 11.61 3.27"/><path class="cls-1" d="M13.9,13.19v2L8.72,19.86,1.17,20l5.45-5.26,0,0,3.43-3.31H10v0L6.58,14.62,6,14l.91-.82V9.55l-1,1.16H5.24L4.3,9.57v3.27l-3.66,0,1.1,1v.62l-.77,1H4.44l.78-.92.78.57L.89,20.11,8.75,20h0L11,17.9l0,0,.6-.51,0,0L14,15.2h0v-2l-1.76-1.76h-.16Zm-8-2.4.82-.94v3.29l-.82.74ZM4.42,12.84v-3l.74.91v2.92h0l-.74-.86ZM.92,13l3.43,0,.74.87H1.82Zm3.47,2.43H1.2l.63-.82H5.09Zm.91-.88-.07,0H1.85v-.55H5.27V10.82h.55V14l.06.05.62.62-.42.4Z" transform="translate(-0.64 -8.11)"/><polygon class="cls-6" points="10.36 9.75 10.4 9.79 10.98 9.26 10.97 9.24 10.36 9.75"/><path class="cls-1" d="M12.15,10.71v-1H14L11.47,8.11,10,9.61v1.77h2.28l-.1-.1ZM10.09,9.65l1.4-1.39,2.14,1.38H12v.56H10.09Zm0,.67H12v.39H10.09Zm0,.94v-.44H12v.44Z" transform="translate(-0.64 -8.11)"/><path class="cls-4" d="M9.71,15.72h0v1.9l.11-.1.54-.52.15-.14.12-.11.28-.26.12-.11.21-.2.12-.1.39-.36.12-.11.21-.2.12-.1.42-.4.13-.11.15-.14V13.55l-.31-.29-.11-.11-.28-.27-.12-.11-.43-.42H10.8l-.17.16-.12.11-.56.55-.12.11h0l-.11.11-.53.51L9.06,14l0,0-.12.11-.67.65-.12.11h0l-.7.69-.11.1H9.71ZM12.2,13l.11.11H12.2Zm0,.22h.23l.35.34v.29H12.2Zm0,.75h.58v.61l-.2.19H12.2Zm0,.91h.25l-.25.24Zm-.84-2.46h.24l.48.46v.22h-.72Zm0,.8h.72v.63h-.72Zm0,.75h.72v.8h-.72Zm0,.91h.72v.35l-.38.35h-.34Zm0,.81h.22l-.22.21Zm-.73-3.08.21-.21h.4v.7h-.61Zm0,.61h.61v.63h-.61Zm0,.75h.61v.8h-.61Zm0,.91h.61v.7h-.61Zm0,.81h.61V16l-.38.35h-.23Zm0,.77h.11l-.11.11Zm-.12.21-.21.2-.47.45V16.5h.68Zm0-4v.39h-.4Zm-.69.67.18-.17h.51v.63H9.82Zm0,.58h.69v.8H9.82Zm0,1.6v-.69h.69v.7H9.82Zm0,.12h.69v.66H9.82ZM8.1,15.61H7.57l.53-.52Zm.5-1.12Zm.3,1.12H8.22V15l.06-.06H8.9Zm0-.8H8.39l.51-.49Zm.81-1.27v.35H9.34ZM9,14.21l.21-.2h.48v.8H9Zm0,.71h.69v.69H9Z" transform="translate(-0.64 -8.11)"/><polygon class="cls-2" points="7.96 6.38 7.96 6.38 7.96 6.38 7.96 6.38"/><polygon class="cls-1" points="17.97 10.6 19.14 11.85 18.01 11.76 17.48 11.16 16.91 11.76 16.01 11.76 18.09 9.27 18.68 9.81 17.97 10.6"/><rect class="cls-2" x="17.68" y="2.72" width="1.94" height="0.44"/><path class="cls-3" d="M20.26,11.4h-2L16.45,13.2v2l5.17,4.73,7.56.12-5.46-5.25,0,0h0Zm4.24,4.68,0,0,.26.25.11.1,3.17,3-2.37,0h-.95l-3.06-.06-.06-.06h0L16.88,15h0v-1.6l1.59-1.68h1.47Z" transform="translate(-0.64 -8.11)"/><polygon class="cls-3" points="23.5 11.19 21.1 11.13 21.1 8.86 23.5 8.86 23.5 11.19"/><polygon class="cls-1" points="24.11 11.2 23.61 11.19 23.61 8.75 20.99 8.75 20.99 11.03 20.66 10.73 20.66 8.09 23.82 8.09 24.15 8.4 24.11 11.2"/><polygon class="cls-1" points="27.15 11.26 25.21 11.22 26.27 10.43 27.15 11.26"/><polygon class="cls-2" points="19.08 8.41 19.08 8.51 18.97 8.41 19.08 8.41"/><polygon class="cls-2" points="18.47 7.94 18.47 7.63 19.08 7.63 19.08 8.29 18.85 8.29 18.47 7.94"/><polygon class="cls-2" points="19.88 9.27 19.41 8.81 19.2 8.62 19.2 8.41 19.88 8.41 19.88 9.27"/><polygon class="cls-2" points="19.2 5.16 19.71 5.16 19.89 5.33 19.89 5.79 19.2 5.79 19.2 5.16"/><rect class="cls-2" x="19.2" y="5.91" width="0.69" height="0.81"/><polygon class="cls-2" points="19.2 4.67 19.59 5.05 19.2 5.05 19.2 4.67"/><polygon class="cls-2" points="19.2 7.52 19.2 6.83 19.89 6.83 19.89 7.51 19.89 7.52 19.88 7.52 19.2 7.52"/><polygon class="cls-2" points="18.47 4.36 18.87 4.34 19.08 4.55 19.08 5.05 18.47 5.05 18.47 4.36"/><rect class="cls-2" x="18.47" y="6.83" width="0.62" height="0.69"/><rect class="cls-2" x="17.63" y="5.91" width="0.73" height="0.81"/><polygon class="cls-2" points="18.35 7.63 18.35 7.84 18.13 7.63 18.35 7.63"/><polygon class="cls-2" points="17.63 7.17 17.63 6.83 18.35 6.83 18.35 7.52 18.01 7.52 17.63 7.17"/><rect class="cls-2" x="18.47" y="5.91" width="0.62" height="0.81"/><rect class="cls-2" x="18.47" y="5.16" width="0.62" height="0.63"/><polygon class="cls-2" points="19.2 8.29 19.2 7.63 19.88 7.63 19.89 7.63 19.89 8.29 19.88 8.29 19.2 8.29"/><polygon class="cls-2" points="21.61 7.51 21.61 7 22.14 7.51 21.61 7.51"/><polygon class="cls-2" points="17.51 6.83 17.51 7.07 17.25 6.83 17.51 6.83"/><polygon class="cls-2" points="16.93 5.5 17.28 5.16 17.51 5.16 17.51 5.79 16.93 5.79 16.93 5.5"/><path class="cls-1" d="M21.18,16.08h3.16l-4.47-4.27H18.5L17,13.42v1.51l4.2,3.81Zm-.54-.34h0v1.89l-.1-.1L20,17l-.16-.14-.11-.1-.28-.26-.12-.12-.22-.19L19,16.1l-.39-.35-.12-.12-.22-.2-.11-.1-.43-.39-.12-.11-.15-.14V13.56l.3-.29.12-.11.28-.26.11-.11.44-.42h.85l.17.17.11.11.57.54.11.11,0,0,.11.11.53.51.11.11,0,.05.11.11.68.65.11.11h0l.71.68.11.11H20.64Z" transform="translate(-0.64 -8.11)"/><polygon class="cls-2" points="16.93 6.53 16.93 5.91 17.51 5.91 17.51 6.71 17.13 6.71 16.93 6.53"/><rect class="cls-2" x="17.63" y="5.16" width="0.73" height="0.63"/><polygon class="cls-4" points="17.51 4.94 17.51 5.05 17.4 5.05 17.51 4.94"/><rect class="cls-2" x="20" y="6.83" width="0.69" height="0.68"/><polygon class="cls-2" points="20 5.45 20.36 5.79 20 5.79 20 5.45"/><polygon class="cls-2" points="20.81 6.71 20.81 6.22 21.32 6.71 20.81 6.71"/><polygon class="cls-2" points="17.63 4.83 18.11 4.37 18.35 4.36 18.35 5.05 17.63 5.05 17.63 4.83"/><polygon class="cls-2" points="21.49 6.88 21.49 7.51 20.81 7.51 20.81 6.83 21.43 6.83 21.49 6.88"/><polygon class="cls-2" points="20 5.91 20.48 5.91 20.69 6.11 20.69 6.71 20 6.71 20 5.91"/><polygon class="cls-1" points="24.73 8.96 24.7 11.21 24.23 11.2 24.26 8.51 24.73 8.96"/><polygon class="cls-1" points="26.19 10.35 25.02 11.22 24.82 11.21 24.84 9.06 26.19 10.35"/><path class="cls-4" d="M24.5,16.08,19.92,11.7H18.45l-1.59,1.68V15h0l4.74,4.31h0l.06.06,3.06.06h.95l2.37,0-3.17-3-.11-.1-.26-.25Zm1.34,3.25,1.07-.79.87.83Zm-.39,0,0-2.14,1.34,1.28-1.16.87Zm-.59,0,0-2.69.47.45,0,2.25ZM21.74,17h2.4V19.3l-2.4-.05Zm2.6-.89H21.18v2.66L17,14.93V13.42l1.52-1.61h1.37Zm.12.12.33.31,0,2.8h-.5V16.86H21.62v2.28l-.32-.3V16.2Z" transform="translate(-0.64 -8.11)"/><rect class="cls-3" x="17.68" y="2.22" width="1.94" height="0.39"/><polygon class="cls-2" points="28.51 7.32 25.32 7.32 24.62 6.5 27.88 6.5 28.51 7.32"/><path class="cls-5" d="M18.3,9.67v.57h2V9.69L18.86,8.27l-2.21,1.4Zm-.09-.6h0V9h0Z" transform="translate(-0.64 -8.11)"/><polygon class="cls-2" points="25.29 1.79 25.29 4.74 25.29 4.76 24.55 5.62 24.55 5.61 24.55 2.69 25.29 1.79"/><polygon class="cls-1" points="23.83 5.99 23.89 5.93 23.89 2.73 24.44 2.73 24.44 5.76 24.44 5.83 24.52 5.83 27.86 5.83 27.86 6.38 24.48 6.38 24.41 6.43 23.63 7 23.21 6.6 23.83 5.99"/><polygon class="cls-2" points="24.62 5.72 25.36 4.86 28.79 4.88 27.89 5.72 24.62 5.72"/><polygon class="cls-2" points="22.95 1.75 23.77 2.69 23.77 5.78 22.95 5.04 22.95 1.75"/><polygon class="cls-6" points="23.05 6.6 23.09 6.64 23.05 6.61 23.05 6.6"/><polygon class="cls-6" points="17.46 3.28 17.56 3.19 17.46 3.28 17.46 3.28"/><path class="cls-1" d="M18.26,11.39H18.1l-1.76,1.77v2.06l2.38,2.16h0l.61.51,0,0L21.58,20h0l7.86.13-5.11-4.93.77-.56.78.91h3.47l-.76-1v-.62l1.1-1-3.67,0V9.58l-.93,1.14h-.62l-1-1.16V13.2l.9.82-.61.61-3.4-3.27v0h-.11l3.43,3.31,0,0L29.18,20l-7.56-.12-5.17-4.73v-2Zm6.15,2.5-.82-.74V9.87l.82.93Zm1.52-1-.74.86h0V10.8l.74-.9v3Zm2.6,1H25.26L26,13l3.42,0Zm-3.27.78h3.26l.63.82H26Zm-1,.5-.42-.4.62-.61.05-.06v-3.2h.56v3.1h3.41v.56H25.11l-.06,0Z" transform="translate(-0.64 -8.11)"/><polygon class="cls-6" points="18.71 9.77 18.68 9.81 18.09 9.27 18.11 9.26 18.71 9.77"/><path class="cls-1" d="M18.2,11.3l-.1.09h2.27V9.62l-1.49-1.5L16.33,9.77H18.2V11.3Zm2.06-1.08h-2V9.65h-1.6l2.15-1.38,1.4,1.4Zm0,.5h-2v-.39h2Zm-2,.56v-.44h2v.44Z" transform="translate(-0.64 -8.11)"/><path class="cls-4" d="M20.64,15.74h2.42L23,15.63,22.24,15h0l-.11-.11-.68-.65-.11-.11,0-.05-.11-.11-.53-.51-.11-.11,0,0-.11-.11-.57-.54-.11-.11-.17-.17H18.7l-.44.42-.11.11-.28.26-.12.11-.3.29v1.13l.15.14.12.11.43.39.11.1.22.2.12.12.39.35.11.11.22.19.12.12.28.26.11.1L20,17l.54.52.1.1V15.75h0Zm-2.49-2.58H18l.11-.11Zm0,.75h-.59v-.3l.36-.34h.23Zm0,.92h-.38l-.21-.19V14h.59Zm0,.35-.26-.24h.26Zm.84-2h-.73v-.22l.49-.46H19Zm0,.75h-.73v-.64H19Zm0,.92h-.73V14H19Zm0,.8h-.34l-.39-.35v-.34H19ZM19,16l-.22-.2H19Zm.73-2.79H19.1v-.69l.4,0,.22.22Zm0,.75H19.1v-.64h.62Zm0,.92H19.1V14h.62Zm0,.8H19.1v-.69h.62Zm0,.77h-.23l-.39-.35v-.3h.62Zm0,.22-.11-.1h.11Zm.11-.1h.69v.86l-.47-.46-.22-.19Zm.4-3.36h-.4v-.38Zm.3.75h-.7v-.64h.52l.18.18Zm0,.92h-.7V14h.7Zm0,.8h-.7v-.69h.7v.68Zm0,.77h-.7v-.65h.7Zm1.71-1.29.54.51h-.54Zm-.49-.6h0Zm-.31.43h.63l.06.06v.62h-.69Zm0-.61.51.5h-.51ZM21,13.91h-.36v-.35Zm.33.92h-.69V14h.48l.21.2Zm0,.79h-.69v-.68h.69Z" transform="translate(-0.64 -8.11)"/><polygon class="cls-2" points="21.11 6.39 21.11 6.39 21.11 6.39 21.11 6.39"/><rect class="cls-1" x="17.5" y="0.9" width="0.15" height="0.15"/></svg>